M48
; DRILL file {KiCad (6.0.0-0)} date Wednesday, May 04, 2022 at 08:25:11 PM
; FORMAT={-:-/ absolute / inch / decimal}
; #@! TF.CreationDate,2022-05-04T20:25:11-04:00
; #@! TF.GenerationSoftware,Kicad,Pcbnew,(6.0.0-0)
; #@! TF.FileFunction,Plated,1,2,PTH
FMAT,2
INCH
; #@! TA.AperFunction,Plated,PTH,ViaDrill
T1C0.0157
; #@! TA.AperFunction,Plated,PTH,ComponentDrill
T2C0.0320
; #@! TA.AperFunction,Plated,PTH,ComponentDrill
T3C0.0354
; #@! TA.AperFunction,Plated,PTH,ComponentDrill
T4C0.0394
; #@! TA.AperFunction,Plated,PTH,ComponentDrill
T5C0.0430
; #@! TA.AperFunction,Plated,PTH,ComponentDrill
T6C0.0512
; #@! TA.AperFunction,Plated,PTH,ComponentDrill
T7C0.0591
; #@! TA.AperFunction,Plated,PTH,ComponentDrill
T8C0.1850
%
G90
G05
T1
X3.298Y-2.708
X3.43Y-2.39
X3.47Y-2.48
X3.62Y-3.75
X3.63Y-3.1
X3.64Y-1.65
X3.71Y-4.32
X3.75Y-1.97
X3.78Y-4.33
X3.785Y-3.2
X3.79Y-3.4
X3.82Y-1.75
X3.825Y-4.18
X3.8289Y-4.96
X3.8478Y-3.3905
X3.85Y-1.87
X3.8548Y-2.7655
X3.8583Y-2.1183
X3.8584Y-4.51
X3.86Y-2.8211
X3.86Y-3.42
X3.87Y-5.0
X3.875Y-4.135
X3.884Y-4.18
X3.89Y-4.96
X3.9005Y-1.6895
X3.9101Y-2.7503
X3.9289Y-2.1354
X3.93Y-2.41
X3.94Y-4.48
X3.9453Y-2.7478
X4.0Y-2.15
X4.0Y-2.38
X4.0Y-2.4328
X4.0Y-3.085
X4.01Y-2.64
X4.02Y-5.21
X4.05Y-2.0409
X4.06Y-1.63
X4.06Y-2.61
X4.06Y-2.84
X4.065Y-5.21
X4.09Y-2.45
X4.1Y-4.29
X4.105Y-3.085
X4.11Y-3.42
X4.11Y-5.25
X4.115Y-3.455
X4.12Y-4.25
X4.14Y-3.035
X4.1477Y-3.33
X4.16Y-3.96
X4.2Y-3.23
X4.2009Y-1.6109
X4.23Y-2.46
X4.24Y-4.44
X4.25Y-4.26
X4.28Y-2.67
X4.32Y-2.85
X4.33Y-4.25
X4.34Y-3.74
X4.34Y-4.04
X4.35Y-2.1
X4.3596Y-5.1879
X4.3622Y-3.0551
X4.4Y-3.78
X4.41Y-2.02
X4.4469Y-3.265
X4.4469Y-4.3702
X4.46Y-5.25
X4.49Y-3.8
X4.51Y-2.09
X4.51Y-2.3
X4.51Y-4.32
X4.5224Y-3.7576
X4.53Y-2.97
X4.53Y-3.07
X4.5313Y-3.2785
X4.54Y-5.25
X4.55Y-2.27
X4.5654Y-4.2943
X4.57Y-3.64
X4.57Y-4.42
X4.58Y-4.74
X4.59Y-4.6
X4.5924Y-2.9424
X4.61Y-2.84
X4.61Y-3.68
X4.615Y-2.175
X4.6178Y-4.3822
X4.62Y-3.56
X4.6245Y-2.9294
X4.64Y-2.15
X4.64Y-3.07
X4.65Y-4.36
X4.73Y-3.07
X4.84Y-2.265
X4.845Y-3.02
X4.8605Y-2.97
X4.865Y-4.515
X4.87Y-2.12
X4.87Y-3.765
X4.88Y-2.22
X4.88Y-4.46
X4.89Y-3.7
X4.8937Y-4.7591
X4.9Y-2.39
X4.92Y-2.82
X4.9685Y-2.5189
X4.97Y-4.01
X4.97Y-4.51
X4.9762Y-2.24
X4.99Y-5.14
X4.99Y-5.175
X4.99Y-5.25
X5.0Y-2.91
X5.01Y-2.87
X5.0197Y-1.8669
X5.0197Y-2.6189
X5.0197Y-3.3669
X5.0197Y-4.115
X5.03Y-2.07
X5.07Y-3.06
X5.08Y-2.9
X5.09Y-4.54
X5.09Y-4.61
X5.13Y-4.42
X5.14Y-4.15
X5.19Y-2.97
X5.2Y-2.79
X5.2165Y-4.0244
X5.235Y-5.175
X5.24Y-5.21
X5.2476Y-3.1476
X5.2677Y-2.4244
X5.2677Y-3.9244
X5.3078Y-3.5674
X5.31Y-3.66
X5.35Y-3.57
X5.36Y-2.13
X5.36Y-2.915
X5.36Y-4.31
X5.37Y-2.1
X5.3765Y-2.9418
X5.385Y-4.27
X5.3937Y-4.8591
X5.56Y-2.2224
X5.585Y-2.165
X5.61Y-2.13
X5.62Y-2.845
X5.62Y-4.3395
X5.625Y-3.59
X5.6417Y-4.6705
X5.655Y-2.805
X5.66Y-3.56
X5.66Y-4.31
X5.675Y-1.9685
X5.7165Y-1.6724
X5.73Y-5.05
X5.73Y-5.14
X5.74Y-5.09
X5.75Y-3.78
X5.7677Y-2.5244
X5.7677Y-3.2724
X5.7677Y-4.0244
X5.79Y-2.13
X5.81Y-2.87
X5.85Y-2.9
X5.86Y-2.8
X5.92Y-3.65
X5.92Y-4.5737
X5.9685Y-2.4693
X5.97Y-4.3671
X5.99Y-5.12
X6.01Y-5.085
X6.0197Y-1.6177
X6.0197Y-3.1213
X6.0197Y-3.8693
X6.025Y-3.59
X6.055Y-2.75
X6.06Y-4.21
X6.09Y-2.84
X6.1Y-4.32
X6.11Y-1.975
X6.11Y-4.285
X6.12Y-2.08
X6.12Y-2.22
X6.12Y-2.79
X6.12Y-2.93
X6.1214Y-3.5514
X6.1295Y-2.0
X6.14Y-4.77
X6.3491Y-2.2709
X6.3668Y-2.0832
X6.37Y-2.82
X6.37Y-3.545
X6.37Y-4.285
X6.3702Y-2.0448
X6.3846Y-4.4746
X6.3937Y-4.6705
X6.395Y-2.85
X6.41Y-4.26
X6.415Y-3.5454
X6.45Y-5.035
X6.48Y-5.13
X6.49Y-2.08
X6.49Y-2.82
X6.49Y-5.06
X6.4955Y-4.28
X6.4955Y-4.3235
X6.5Y-2.19
X6.5069Y-2.05
X6.5112Y-3.432
X6.5197Y-1.7177
X6.5197Y-2.4693
X6.5197Y-3.9693
X6.525Y-3.225
X6.5264Y-4.3686
X6.5596Y-4.2296
X6.56Y-2.05
X6.5861Y-4.3465
X6.59Y-4.31
X6.5954Y-2.07
X6.62Y-2.16
X6.6784Y-4.2916
X6.6919Y-2.07
X6.7131Y-4.2569
X6.72Y-2.52
X6.7396Y-5.1046
X6.74Y-2.02
X6.74Y-4.4508
X6.74Y-5.06
X6.76Y-4.28
X6.76Y-4.51
X6.7677Y-1.6724
X6.7677Y-2.4205
X6.7677Y-3.1724
X6.7677Y-3.9244
X6.77Y-2.31
X6.7986Y-1.9514
X6.7991Y-2.0491
X6.815Y-3.605
X6.82Y-4.33
X6.825Y-2.08
X6.83Y-2.9704
X6.85Y-2.87
X6.8671Y-4.2929
X6.87Y-2.13
X6.87Y-2.835
X6.875Y-3.595
X6.884Y-2.09
X6.89Y-4.27
X6.8937Y-4.7705
X7.1Y-3.73
X7.11Y-2.92
X7.115Y-4.34
X7.12Y-3.63
X7.13Y-2.88
X7.14Y-2.08
X7.14Y-2.13
X7.14Y-3.605
X7.15Y-4.3
X7.205Y-3.435
X7.21Y-4.46
X7.21Y-4.53
X7.23Y-3.54
X7.23Y-3.78
X7.25Y-2.87
X7.252Y-4.3
X7.2677Y-2.6174
X7.2677Y-3.2724
X7.2677Y-4.0244
X7.27Y-1.77
X7.28Y-4.54
X7.3094Y-2.99
X7.31Y-3.67
X7.32Y-2.16
X7.33Y-2.28
X7.41Y-3.82
X7.43Y-3.7
X7.4439Y-2.98
X7.46Y-2.49
X7.46Y-3.1624
X7.4685Y-3.4614
X7.4685Y-4.2094
X7.48Y-3.7
X7.49Y-3.86
X7.5197Y-1.8614
X7.5197Y-3.3614
X7.54Y-3.81
X7.57Y-3.0292
X7.58Y-2.295
X7.58Y-4.58
X7.5809Y-3.7591
X7.6Y-4.545
X7.615Y-2.275
X7.62Y-3.7205
X7.6213Y-3.0013
X7.8641Y-2.3159
X7.875Y-3.7205
X7.875Y-4.525
X7.89Y-4.49
X7.8909Y-2.2591
X7.9Y-2.31
X7.9Y-2.96
X7.9Y-3.03
X7.93Y-2.99
X7.93Y-3.75
X7.95Y-3.22
X7.9671Y-4.1108
X7.98Y-2.31
X8.0197Y-1.9614
X8.0197Y-2.7055
X8.2677Y-2.6646
X8.2677Y-3.4205
X8.275Y-1.925
X8.275Y-4.175
X8.32Y-3.12
X8.325Y-4.585
X8.3309Y-3.8191
X8.3559Y-2.3686
X8.365Y-3.09
X8.365Y-4.605
X8.375Y-2.3435
X8.3759Y-3.8391
X8.59Y-3.16
X8.61Y-2.3395
X8.62Y-3.835
X8.63Y-2.31
X8.63Y-2.99
X8.63Y-3.11
X8.65Y-3.8
X8.65Y-4.55
X8.66Y-4.49
X8.68Y-2.5
X8.69Y-3.88
X8.69Y-3.98
X8.7Y-4.63
X8.71Y-2.4
X8.73Y-2.33
X8.74Y-3.19
X8.7569Y-3.8
X8.7677Y-3.5205
X8.775Y-2.025
X8.7834Y-2.7646
X8.7854Y-4.2685
X8.81Y-3.78
X8.82Y-3.19
X8.83Y-2.34
T2
X3.705Y-3.01
X3.805Y-3.01
X3.905Y-3.01
X4.005Y-3.01
T3
X3.4498Y-1.53
X3.5286Y-1.53
X3.6073Y-1.53
X3.62Y-3.205
X3.62Y-3.205
X3.92Y-3.205
X3.92Y-3.205
X3.9298Y-1.53
X4.0086Y-1.53
X4.0873Y-1.53
X4.33Y-4.68
X4.33Y-4.6802
X4.48Y-4.9398
X4.48Y-4.94
X4.56Y-3.9
X4.56Y-3.9
X4.6Y-3.15
X4.6Y-3.15
X4.675Y-4.8201
X4.675Y-4.8201
X4.68Y-1.6
X4.68Y-1.6
X4.825Y-5.0799
X4.825Y-5.0799
X4.86Y-3.9
X4.86Y-3.9
X4.9Y-3.15
X4.9Y-3.15
X4.98Y-1.6
X4.98Y-1.6
X5.092Y-3.236
X5.092Y-3.236
X5.092Y-3.536
X5.092Y-3.536
X5.096Y-2.488
X5.096Y-2.488
X5.096Y-2.788
X5.096Y-2.788
X5.1Y-4.0
X5.1Y-4.0
X5.1Y-4.3
X5.1Y-4.3
X5.106Y-1.72
X5.106Y-1.72
X5.106Y-2.02
X5.106Y-2.02
X5.35Y-3.0
X5.35Y-3.0
X5.472Y-4.72
X5.472Y-4.73
X5.472Y-5.02
X5.472Y-5.03
X5.65Y-3.0
X5.65Y-3.0
X5.738Y-4.426
X5.738Y-4.426
X5.85Y-1.638
X5.85Y-1.638
X5.85Y-1.938
X5.85Y-1.938
X5.85Y-2.365
X5.85Y-2.37
X5.85Y-2.665
X5.85Y-2.67
X5.852Y-3.886
X5.852Y-3.886
X5.852Y-4.186
X5.852Y-4.186
X5.864Y-3.082
X5.864Y-3.082
X5.864Y-3.382
X5.864Y-3.382
X6.038Y-4.426
X6.038Y-4.426
X6.248Y-4.66
X6.248Y-4.66
X6.248Y-4.96
X6.248Y-4.96
X6.598Y-2.362
X6.598Y-2.362
X6.598Y-2.662
X6.598Y-2.662
X6.624Y-3.9
X6.624Y-3.9
X6.624Y-4.2
X6.624Y-4.2
X6.628Y-3.132
X6.628Y-3.132
X6.628Y-3.432
X6.628Y-3.432
X7.388Y-4.1
X7.388Y-4.1
X7.388Y-4.4
X7.388Y-4.4
X7.392Y-1.828
X7.392Y-1.828
X7.392Y-2.128
X7.392Y-2.128
X7.392Y-3.334
X7.392Y-3.334
X7.392Y-3.634
X7.392Y-3.634
X7.408Y-2.55
X7.408Y-2.558
X7.408Y-2.85
X7.408Y-2.858
X8.116Y-4.106
X8.116Y-4.106
X8.116Y-4.406
X8.116Y-4.406
X8.118Y-3.332
X8.118Y-3.332
X8.118Y-3.632
X8.118Y-3.632
X8.12Y-2.604
X8.12Y-2.604
X8.12Y-2.904
X8.12Y-2.904
X8.122Y-1.856
X8.122Y-1.856
X8.122Y-2.156
X8.122Y-2.156
T4
X3.699Y-3.74
X3.699Y-3.8384
X3.699Y-3.9369
X4.2699Y-3.74
X4.2699Y-3.9369
T5
X3.5412Y-1.7613
X3.5412Y-1.8613
X3.5412Y-1.9613
X3.5412Y-2.0613
X3.5412Y-2.1613
X3.5412Y-2.2613
X3.5412Y-2.3613
X3.5412Y-2.4613
X3.5412Y-2.5613
X3.5412Y-2.6613
X3.5412Y-2.7613
X3.5412Y-2.8613
X3.6412Y-2.6613
X3.7412Y-2.6613
X3.8412Y-2.6613
X4.1412Y-1.7613
X4.1412Y-1.8613
X4.1412Y-1.9613
X4.1412Y-2.0613
X4.1412Y-2.1613
X4.1412Y-2.2613
X4.1412Y-2.3613
X4.1412Y-2.4613
X4.1412Y-2.5613
X4.1412Y-2.6613
X4.1412Y-2.7613
X4.1412Y-2.8613
T6
X3.36Y-2.062
X3.36Y-2.318
T7
X3.3672Y-1.53
X3.69Y-1.53
X3.8472Y-1.53
X4.17Y-1.53
T8
X4.1339Y-4.5197
X5.1024Y-2.3465
X5.1024Y-3.8425
X8.1024Y-2.4331
X8.1024Y-3.937
T7
G00X3.9687Y-3.618
M15
G01X4.0199Y-3.618
M16
G05
G00X3.9687Y-4.0589
M15
G01X4.0199Y-4.0589
M16
G05
T0
M30
