M48
; DRILL file {KiCad (6.0.0-0)} date Tuesday, May 31, 2022 at 10:12:13 PM
; FORMAT={-:-/ absolute / metric / decimal}
; #@! TF.CreationDate,2022-05-31T22:12:13-04:00
; #@! TF.GenerationSoftware,Kicad,Pcbnew,(6.0.0-0)
; #@! TF.FileFunction,Plated,1,2,PTH
FMAT,2
METRIC
; #@! TA.AperFunction,Plated,PTH,ViaDrill
T1C0.400
; #@! TA.AperFunction,Plated,PTH,ComponentDrill
T2C0.813
; #@! TA.AperFunction,Plated,PTH,ComponentDrill
T3C0.900
; #@! TA.AperFunction,Plated,PTH,ComponentDrill
T4C1.000
; #@! TA.AperFunction,Plated,PTH,ComponentDrill
T5C1.092
; #@! TA.AperFunction,Plated,PTH,ComponentDrill
T6C1.300
; #@! TA.AperFunction,Plated,PTH,ComponentDrill
T7C1.500
; #@! TA.AperFunction,Plated,PTH,ComponentDrill
T8C4.700
%
G90
G05
T1
X84.328Y-69.469
X87.122Y-60.706
X88.138Y-62.992
X91.948Y-95.25
X92.202Y-78.74
X92.39Y-84.77
X92.456Y-41.91
X94.234Y-109.728
X95.25Y-50.038
X96.012Y-109.982
X96.139Y-81.28
X96.393Y-105.791
X97.028Y-44.45
X97.255Y-125.984
X97.734Y-86.118
X97.79Y-47.498
X97.911Y-70.243
X98.001Y-53.805
X98.004Y-114.554
X98.043Y-71.657
X98.044Y-86.868
X98.099Y-105.78
X98.298Y-127.0
X98.425Y-105.029
X98.806Y-125.984
X99.072Y-42.914
X99.317Y-69.859
X99.794Y-54.239
X99.822Y-61.214
X100.076Y-113.792
X100.211Y-69.793
X101.6Y-54.61
X101.6Y-60.452
X101.6Y-61.793
X101.6Y-78.359
X101.854Y-67.056
X102.108Y-132.334
X102.87Y-51.839
X103.124Y-41.402
X103.124Y-66.294
X103.124Y-72.136
X103.251Y-132.334
X103.505Y-61.341
X104.14Y-108.966
X104.267Y-78.359
X104.267Y-103.378
X104.394Y-133.35
X104.521Y-87.757
X104.648Y-107.95
X104.652Y-86.968
X105.156Y-77.089
X105.283Y-82.804
X106.68Y-82.042
X106.704Y-40.918
X107.442Y-62.484
X107.696Y-112.776
X107.95Y-108.204
X108.712Y-67.818
X109.728Y-72.39
X109.982Y-107.95
X110.236Y-94.996
X110.363Y-99.314
X110.49Y-53.34
X110.734Y-131.772
X110.8Y-77.6
X111.76Y-96.012
X112.014Y-51.308
X112.95Y-82.931
X113.284Y-133.35
X114.046Y-96.52
X114.554Y-53.086
X114.554Y-58.42
X114.869Y-95.443
X115.062Y-75.438
X115.062Y-77.978
X115.094Y-83.274
X115.316Y-133.35
X115.57Y-57.658
X115.962Y-109.075
X116.078Y-92.456
X116.078Y-112.268
X116.332Y-120.396
X116.586Y-116.84
X116.647Y-74.737
X117.094Y-72.136
X117.094Y-93.472
X117.221Y-55.245
X117.293Y-111.307
X117.348Y-90.424
X117.462Y-74.408
X117.856Y-54.61
X117.856Y-77.978
X118.11Y-110.744
X120.142Y-77.978
X122.936Y-57.531
X123.063Y-76.708
X123.571Y-114.681
X123.698Y-53.848
X123.698Y-75.438
X123.698Y-95.631
X123.952Y-56.388
X123.952Y-113.284
X124.206Y-93.98
X124.3Y-120.88
X124.46Y-60.706
X124.968Y-71.628
X126.111Y-81.153
X126.2Y-63.98
X126.238Y-101.854
X126.238Y-114.554
X126.395Y-56.896
X126.619Y-78.613
X126.746Y-130.556
X126.746Y-131.445
X126.746Y-133.35
X127.0Y-73.914
X127.254Y-72.898
X127.5Y-47.42
X127.5Y-66.52
X127.5Y-85.52
X127.5Y-104.52
X127.762Y-52.578
X128.778Y-77.724
X129.032Y-73.66
X129.286Y-115.316
X129.286Y-117.094
X130.302Y-112.268
X130.556Y-105.41
X131.826Y-75.438
X132.08Y-70.866
X132.5Y-102.22
X132.969Y-131.445
X133.096Y-132.334
X133.288Y-79.948
X133.8Y-61.58
X133.8Y-99.68
X134.818Y-90.613
X134.874Y-92.964
X135.89Y-90.678
X136.144Y-54.102
X136.144Y-74.041
X136.144Y-109.474
X136.398Y-53.34
X136.562Y-74.723
X136.779Y-108.458
X137.0Y-123.42
X141.224Y-56.449
X141.859Y-54.991
X142.748Y-54.102
X142.748Y-72.263
X142.748Y-110.224
X142.875Y-91.186
X143.3Y-118.63
X143.637Y-71.247
X143.764Y-90.424
X143.764Y-109.474
X144.145Y-50.001
X145.2Y-42.48
X145.542Y-128.27
X145.542Y-130.556
X145.796Y-129.286
X146.05Y-96.012
X146.5Y-64.12
X146.5Y-83.12
X146.5Y-102.22
X147.066Y-54.102
X147.574Y-72.898
X148.59Y-73.66
X148.844Y-71.12
X150.368Y-92.71
X150.368Y-116.171
X151.6Y-62.72
X151.638Y-110.924
X152.146Y-130.048
X152.654Y-129.159
X152.9Y-41.09
X152.9Y-79.28
X152.9Y-98.28
X153.035Y-91.186
X153.797Y-69.85
X153.924Y-106.934
X154.686Y-72.136
X154.94Y-109.728
X155.194Y-50.165
X155.194Y-50.965
X155.194Y-108.839
X155.448Y-52.832
X155.448Y-56.388
X155.448Y-70.866
X155.448Y-74.422
X155.483Y-90.205
X155.956Y-121.158
X161.268Y-57.68
X161.717Y-52.913
X161.798Y-71.628
X161.798Y-90.043
X161.798Y-108.839
X161.803Y-51.938
X162.169Y-113.655
X162.4Y-118.63
X162.433Y-72.39
X162.814Y-108.204
X162.941Y-90.053
X163.83Y-127.889
X164.592Y-130.302
X164.846Y-52.832
X164.846Y-71.628
X164.846Y-128.524
X164.986Y-108.712
X164.986Y-109.816
X165.1Y-55.626
X165.275Y-52.07
X165.385Y-87.173
X165.6Y-43.63
X165.6Y-62.72
X165.6Y-100.82
X165.735Y-81.915
X165.77Y-110.963
X166.614Y-107.432
X166.624Y-52.07
X167.288Y-110.402
X167.386Y-109.474
X167.523Y-52.578
X168.148Y-54.864
X169.631Y-109.007
X169.975Y-52.578
X170.514Y-108.124
X170.688Y-64.008
X171.186Y-129.657
X171.196Y-51.308
X171.196Y-113.051
X171.196Y-128.524
X171.704Y-108.712
X171.704Y-114.554
X171.9Y-42.48
X171.9Y-61.48
X171.9Y-80.58
X171.9Y-99.68
X171.958Y-58.674
X172.684Y-49.566
X172.698Y-52.048
X173.101Y-91.567
X173.228Y-109.982
X173.355Y-52.832
X173.482Y-75.449
X173.99Y-72.898
X174.117Y-54.102
X174.425Y-109.039
X174.498Y-72.009
X174.625Y-91.313
X174.854Y-53.06
X175.006Y-108.458
X175.1Y-121.17
X180.34Y-94.742
X180.594Y-74.168
X180.721Y-110.236
X180.848Y-92.202
X181.102Y-73.152
X181.356Y-52.832
X181.356Y-54.102
X181.356Y-91.567
X181.61Y-109.22
X183.007Y-87.249
X183.134Y-113.284
X183.134Y-115.062
X183.642Y-89.916
X183.642Y-96.012
X184.15Y-72.898
X184.201Y-109.22
X184.6Y-66.482
X184.6Y-83.12
X184.6Y-102.22
X184.658Y-44.958
X184.912Y-115.316
X185.658Y-75.946
X185.674Y-93.218
X185.928Y-54.864
X186.182Y-57.912
X188.214Y-97.028
X188.722Y-93.98
X189.076Y-75.692
X189.484Y-63.246
X189.484Y-80.325
X189.7Y-87.92
X189.7Y-106.92
X189.992Y-93.98
X190.246Y-98.044
X191.0Y-47.28
X191.0Y-85.38
X191.516Y-96.774
X192.278Y-76.941
X192.532Y-58.293
X192.532Y-116.332
X192.554Y-95.482
X193.04Y-115.443
X193.421Y-57.785
X193.548Y-94.501
X193.582Y-76.233
X199.91Y-59.092
X200.025Y-94.501
X200.025Y-114.935
X200.406Y-114.046
X200.428Y-57.382
X200.66Y-58.674
X200.66Y-75.184
X200.66Y-76.962
X201.422Y-75.946
X201.422Y-95.25
X201.93Y-81.788
X202.364Y-104.416
X202.692Y-58.674
X203.7Y-49.82
X203.7Y-68.72
X210.0Y-67.68
X210.0Y-86.88
X210.185Y-48.895
X210.185Y-106.045
X211.328Y-79.248
X211.455Y-116.459
X211.604Y-97.006
X212.241Y-60.162
X212.471Y-78.486
X212.471Y-116.967
X212.725Y-59.525
X212.747Y-97.514
X218.186Y-80.264
X218.694Y-59.423
X218.948Y-97.409
X219.202Y-58.674
X219.202Y-75.946
X219.202Y-78.994
X219.71Y-96.52
X219.71Y-115.57
X219.964Y-114.046
X220.472Y-63.5
X220.726Y-98.552
X220.726Y-101.092
X220.98Y-117.602
X221.234Y-60.96
X221.742Y-59.182
X221.996Y-81.026
X222.425Y-96.52
X222.7Y-89.42
X222.885Y-51.435
X223.1Y-70.22
X223.15Y-108.42
X223.774Y-96.012
X224.028Y-81.026
X224.282Y-59.436
T2
X94.107Y-76.454
X96.647Y-76.454
X99.187Y-76.454
X101.727Y-76.454
T3
X87.626Y-38.862
X89.626Y-38.862
X91.626Y-38.862
X91.948Y-81.407
X91.948Y-81.407
X99.568Y-81.407
X99.568Y-81.407
X99.818Y-38.862
X101.818Y-38.862
X103.818Y-38.862
X109.982Y-118.872
X109.982Y-118.872
X113.792Y-125.471
X113.792Y-125.471
X115.824Y-99.06
X115.824Y-99.06
X116.84Y-80.01
X116.84Y-80.01
X118.745Y-122.43
X118.745Y-122.43
X118.872Y-40.64
X118.872Y-40.64
X122.555Y-129.03
X122.555Y-129.03
X123.444Y-99.06
X123.444Y-99.06
X124.46Y-80.01
X124.46Y-80.01
X126.492Y-40.64
X126.492Y-40.64
X129.337Y-82.194
X129.337Y-82.194
X129.337Y-89.814
X129.337Y-89.814
X129.413Y-63.373
X129.413Y-63.373
X129.413Y-70.993
X129.413Y-70.993
X129.54Y-101.6
X129.54Y-101.6
X129.54Y-109.22
X129.54Y-109.22
X129.692Y-43.688
X129.692Y-43.688
X129.692Y-51.308
X129.692Y-51.308
X135.89Y-76.2
X135.89Y-76.2
X138.989Y-119.888
X138.989Y-119.888
X138.989Y-127.508
X138.989Y-127.508
X143.51Y-76.2
X143.51Y-76.2
X145.745Y-112.42
X145.745Y-112.42
X148.59Y-41.605
X148.59Y-41.605
X148.59Y-49.225
X148.59Y-49.225
X148.59Y-60.198
X148.59Y-60.198
X148.59Y-67.818
X148.59Y-67.818
X148.641Y-98.704
X148.641Y-98.704
X148.641Y-106.324
X148.641Y-106.324
X148.946Y-78.283
X148.946Y-78.283
X148.946Y-85.903
X148.946Y-85.903
X153.365Y-112.42
X153.365Y-112.42
X158.7Y-118.364
X158.7Y-118.364
X158.7Y-125.984
X158.7Y-125.984
X167.589Y-59.995
X167.589Y-59.995
X167.589Y-67.615
X167.589Y-67.615
X168.25Y-99.06
X168.25Y-99.06
X168.25Y-106.68
X168.25Y-106.68
X168.351Y-79.553
X168.351Y-79.553
X168.351Y-87.173
X168.351Y-87.173
X187.655Y-104.14
X187.655Y-104.14
X187.655Y-111.76
X187.655Y-111.76
X187.757Y-46.431
X187.757Y-46.431
X187.757Y-54.051
X187.757Y-54.051
X187.757Y-84.684
X187.757Y-84.684
X187.757Y-92.304
X187.757Y-92.304
X188.163Y-64.897
X188.163Y-64.897
X188.163Y-72.517
X188.163Y-72.517
X206.146Y-104.292
X206.146Y-104.292
X206.146Y-111.912
X206.146Y-111.912
X206.197Y-84.633
X206.197Y-84.633
X206.197Y-92.253
X206.197Y-92.253
X206.248Y-66.142
X206.248Y-66.142
X206.248Y-73.762
X206.248Y-73.762
X206.299Y-47.142
X206.299Y-47.142
X206.299Y-54.762
X206.299Y-54.762
T4
X93.955Y-94.996
X93.955Y-97.496
X93.955Y-99.996
X108.455Y-94.996
X108.455Y-99.996
T5
X89.946Y-44.736
X89.946Y-47.276
X89.946Y-49.816
X89.946Y-52.356
X89.946Y-54.896
X89.946Y-57.436
X89.946Y-59.976
X89.946Y-62.516
X89.946Y-65.056
X89.946Y-67.596
X89.946Y-70.136
X89.946Y-72.676
X92.486Y-67.596
X95.026Y-67.596
X97.566Y-67.596
X105.186Y-44.736
X105.186Y-47.276
X105.186Y-49.816
X105.186Y-52.356
X105.186Y-54.896
X105.186Y-57.436
X105.186Y-59.976
X105.186Y-62.516
X105.186Y-65.056
X105.186Y-67.596
X105.186Y-70.136
X105.186Y-72.676
T6
X85.344Y-52.376
X85.344Y-58.876
T7
X85.526Y-38.862
X93.726Y-38.862
X97.718Y-38.862
X104.013Y-93.726
X105.918Y-38.862
X106.553Y-100.076
T8
X105.0Y-114.8
X129.6Y-59.6
X129.6Y-97.6
X205.8Y-61.8
X205.8Y-100.0
T7
G00X100.805Y-91.896
M15
G01X102.105Y-91.896
M16
G05
G00X100.805Y-103.096
M15
G01X102.105Y-103.096
M16
G05
T0
M30
