M48
; DRILL file {KiCad (6.0.0-0)} date Tuesday, May 31, 2022 at 10:12:13 PM
; FORMAT={-:-/ absolute / metric / decimal}
; #@! TF.CreationDate,2022-05-31T22:12:13-04:00
; #@! TF.GenerationSoftware,Kicad,Pcbnew,(6.0.0-0)
; #@! TF.FileFunction,NonPlated,1,2,NPTH
FMAT,2
METRIC
; #@! TA.AperFunction,NonPlated,NPTH,ComponentDrill
T1C1.700
; #@! TA.AperFunction,NonPlated,NPTH,ComponentDrill
T2C1.800
; #@! TA.AperFunction,NonPlated,NPTH,ComponentDrill
T3C2.200
; #@! TA.AperFunction,NonPlated,NPTH,ComponentDrill
T4C3.000
; #@! TA.AperFunction,NonPlated,NPTH,ComponentDrill
T5C4.000
%
G90
G05
T1
X101.473Y-92.456
X101.473Y-102.616
T2
X102.46Y-122.601
X107.54Y-131.399
X115.42Y-50.0
X115.42Y-69.1
X115.42Y-88.1
X115.42Y-107.1
X124.92Y-126.0
X125.58Y-50.0
X125.58Y-69.1
X125.58Y-88.1
X125.58Y-107.1
X134.42Y-47.6
X134.42Y-66.7
X134.42Y-85.7
X134.42Y-104.8
X135.08Y-126.0
X143.92Y-123.75
X144.58Y-47.6
X144.58Y-66.7
X144.58Y-85.7
X144.58Y-104.8
X153.52Y-46.21
X153.52Y-65.3
X153.52Y-84.4
X153.52Y-103.4
X154.08Y-123.75
X163.02Y-123.75
X163.68Y-46.21
X163.68Y-65.3
X163.68Y-84.4
X163.68Y-103.4
X172.52Y-47.6
X172.52Y-66.6
X172.52Y-85.7
X172.52Y-104.8
X173.18Y-123.75
X182.68Y-47.6
X182.68Y-66.6
X182.68Y-85.7
X182.68Y-104.8
X191.62Y-52.4
X191.62Y-71.3
X191.62Y-90.5
X191.62Y-109.5
X201.78Y-52.4
X201.78Y-71.3
X201.78Y-90.5
X201.78Y-109.5
X210.62Y-53.9
X210.62Y-72.8
X210.62Y-92.0
X210.67Y-111.0
X220.78Y-53.9
X220.78Y-72.8
X220.78Y-92.0
X220.83Y-111.0
T3
X86.0Y-85.0
X108.0Y-85.0
T4
X105.295Y-122.43
X108.129Y-122.26
X109.105Y-129.03
X110.669Y-126.66
X116.69Y-47.46
X116.69Y-66.56
X116.69Y-85.56
X116.69Y-104.56
X117.96Y-44.92
X117.96Y-64.02
X117.96Y-83.02
X117.96Y-102.02
X123.04Y-44.92
X123.04Y-64.02
X123.04Y-83.02
X123.04Y-102.02
X124.31Y-47.46
X124.31Y-66.56
X124.31Y-85.56
X124.31Y-104.56
X126.19Y-123.46
X127.46Y-120.92
X132.54Y-120.92
X133.81Y-123.46
X135.69Y-45.06
X135.69Y-64.16
X135.69Y-83.16
X135.69Y-102.26
X136.96Y-42.52
X136.96Y-61.62
X136.96Y-80.62
X136.96Y-99.72
X142.04Y-42.52
X142.04Y-61.62
X142.04Y-80.62
X142.04Y-99.72
X143.31Y-45.06
X143.31Y-64.16
X143.31Y-83.16
X143.31Y-102.26
X145.19Y-121.21
X146.46Y-118.67
X151.54Y-118.67
X152.81Y-121.21
X154.79Y-43.67
X154.79Y-62.76
X154.79Y-81.86
X154.79Y-100.86
X156.06Y-41.13
X156.06Y-60.22
X156.06Y-79.32
X156.06Y-98.32
X161.14Y-41.13
X161.14Y-60.22
X161.14Y-79.32
X161.14Y-98.32
X162.41Y-43.67
X162.41Y-62.76
X162.41Y-81.86
X162.41Y-100.86
X164.29Y-121.21
X165.56Y-118.67
X170.64Y-118.67
X171.91Y-121.21
X173.79Y-45.06
X173.79Y-64.06
X173.79Y-83.16
X173.79Y-102.26
X175.06Y-42.52
X175.06Y-61.52
X175.06Y-80.62
X175.06Y-99.72
X180.14Y-42.52
X180.14Y-61.52
X180.14Y-80.62
X180.14Y-99.72
X181.41Y-45.06
X181.41Y-64.06
X181.41Y-83.16
X181.41Y-102.26
X192.89Y-49.86
X192.89Y-68.76
X192.89Y-87.96
X192.89Y-106.96
X194.16Y-47.32
X194.16Y-66.22
X194.16Y-85.42
X194.16Y-104.42
X199.24Y-47.32
X199.24Y-66.22
X199.24Y-85.42
X199.24Y-104.42
X200.51Y-49.86
X200.51Y-68.76
X200.51Y-87.96
X200.51Y-106.96
X211.89Y-51.36
X211.89Y-70.26
X211.89Y-89.46
X211.94Y-108.46
X213.16Y-48.82
X213.16Y-67.72
X213.16Y-86.92
X213.21Y-105.92
X218.24Y-48.82
X218.24Y-67.72
X218.24Y-86.92
X218.29Y-105.92
X219.51Y-51.36
X219.51Y-70.26
X219.51Y-89.46
X219.56Y-108.46
T5
X101.473Y-97.536
X105.0Y-127.0
X120.5Y-50.0
X120.5Y-69.1
X120.5Y-88.1
X120.5Y-107.1
X130.0Y-126.0
X139.5Y-47.6
X139.5Y-66.7
X139.5Y-85.7
X139.5Y-104.8
X149.0Y-123.75
X158.6Y-46.21
X158.6Y-65.3
X158.6Y-84.4
X158.6Y-103.4
X168.1Y-123.75
X177.6Y-47.6
X177.6Y-66.6
X177.6Y-85.7
X177.6Y-104.8
X196.7Y-52.4
X196.7Y-71.3
X196.7Y-90.5
X196.7Y-109.5
X215.7Y-53.9
X215.7Y-72.8
X215.7Y-92.0
X215.75Y-111.0
T0
M30
