M48
; DRILL file {KiCad (6.0.0-0)} date Wednesday, May 04, 2022 at 08:25:11 PM
; FORMAT={-:-/ absolute / inch / decimal}
; #@! TF.CreationDate,2022-05-04T20:25:11-04:00
; #@! TF.GenerationSoftware,Kicad,Pcbnew,(6.0.0-0)
; #@! TF.FileFunction,NonPlated,1,2,NPTH
FMAT,2
INCH
; #@! TA.AperFunction,NonPlated,NPTH,ComponentDrill
T1C0.0709
; #@! TA.AperFunction,NonPlated,NPTH,ComponentDrill
T2C0.0866
; #@! TA.AperFunction,NonPlated,NPTH,ComponentDrill
T3C0.1181
; #@! TA.AperFunction,NonPlated,NPTH,ComponentDrill
T4C0.1575
%
G90
G05
T1
X4.0339Y-4.8268
X4.2339Y-5.1732
X4.5441Y-1.9685
X4.5441Y-2.7205
X4.5441Y-3.4685
X4.5441Y-4.2165
X4.9181Y-4.9606
X4.9441Y-1.9685
X4.9441Y-2.7205
X4.9441Y-3.4685
X4.9441Y-4.2165
X5.2921Y-1.874
X5.2921Y-2.626
X5.2921Y-3.374
X5.2921Y-4.126
X5.3181Y-4.9606
X5.6661Y-4.872
X5.6921Y-1.874
X5.6921Y-2.626
X5.6921Y-3.374
X5.6921Y-4.126
X6.0441Y-1.8193
X6.0441Y-2.5709
X6.0441Y-3.3228
X6.0441Y-4.0709
X6.0661Y-4.872
X6.4181Y-4.872
X6.4441Y-1.8193
X6.4441Y-2.5709
X6.4441Y-3.3228
X6.4441Y-4.0709
X6.7921Y-1.874
X6.7921Y-2.622
X6.7921Y-3.374
X6.7921Y-4.126
X6.8181Y-4.872
X7.1921Y-1.874
X7.1921Y-2.622
X7.1921Y-3.374
X7.1921Y-4.126
X7.5441Y-2.063
X7.5441Y-2.8071
X7.5441Y-3.563
X7.5441Y-4.311
X7.9441Y-2.063
X7.9441Y-2.8071
X7.9441Y-3.563
X7.9441Y-4.311
X8.2921Y-2.122
X8.2921Y-2.8661
X8.2921Y-3.622
X8.2941Y-4.3701
X8.6921Y-2.122
X8.6921Y-2.8661
X8.6921Y-3.622
X8.6941Y-4.3701
T2
X3.3858Y-3.3465
X4.252Y-3.3465
T3
X4.1455Y-4.8201
X4.2571Y-4.8134
X4.2955Y-5.0799
X4.3571Y-4.9866
X4.5941Y-1.8685
X4.5941Y-2.6205
X4.5941Y-3.3685
X4.5941Y-4.1165
X4.6441Y-1.7685
X4.6441Y-2.5205
X4.6441Y-3.2685
X4.6441Y-4.0165
X4.8441Y-1.7685
X4.8441Y-2.5205
X4.8441Y-3.2685
X4.8441Y-4.0165
X4.8941Y-1.8685
X4.8941Y-2.6205
X4.8941Y-3.3685
X4.8941Y-4.1165
X4.9681Y-4.8606
X5.0181Y-4.7606
X5.2181Y-4.7606
X5.2681Y-4.8606
X5.3421Y-1.774
X5.3421Y-2.526
X5.3421Y-3.274
X5.3421Y-4.026
X5.3921Y-1.674
X5.3921Y-2.426
X5.3921Y-3.174
X5.3921Y-3.926
X5.5921Y-1.674
X5.5921Y-2.426
X5.5921Y-3.174
X5.5921Y-3.926
X5.6421Y-1.774
X5.6421Y-2.526
X5.6421Y-3.274
X5.6421Y-4.026
X5.7161Y-4.772
X5.7661Y-4.672
X5.9661Y-4.672
X6.0161Y-4.772
X6.0941Y-1.7193
X6.0941Y-2.4709
X6.0941Y-3.2228
X6.0941Y-3.9709
X6.1441Y-1.6193
X6.1441Y-2.3709
X6.1441Y-3.1228
X6.1441Y-3.8709
X6.3441Y-1.6193
X6.3441Y-2.3709
X6.3441Y-3.1228
X6.3441Y-3.8709
X6.3941Y-1.7193
X6.3941Y-2.4709
X6.3941Y-3.2228
X6.3941Y-3.9709
X6.4681Y-4.772
X6.5181Y-4.672
X6.7181Y-4.672
X6.7681Y-4.772
X6.8421Y-1.774
X6.8421Y-2.522
X6.8421Y-3.274
X6.8421Y-4.026
X6.8921Y-1.674
X6.8921Y-2.422
X6.8921Y-3.174
X6.8921Y-3.926
X7.0921Y-1.674
X7.0921Y-2.422
X7.0921Y-3.174
X7.0921Y-3.926
X7.1421Y-1.774
X7.1421Y-2.522
X7.1421Y-3.274
X7.1421Y-4.026
X7.5941Y-1.963
X7.5941Y-2.7071
X7.5941Y-3.463
X7.5941Y-4.211
X7.6441Y-1.863
X7.6441Y-2.6071
X7.6441Y-3.363
X7.6441Y-4.111
X7.8441Y-1.863
X7.8441Y-2.6071
X7.8441Y-3.363
X7.8441Y-4.111
X7.8941Y-1.963
X7.8941Y-2.7071
X7.8941Y-3.463
X7.8941Y-4.211
X8.3421Y-2.022
X8.3421Y-2.7661
X8.3421Y-3.522
X8.3441Y-4.2701
X8.3921Y-1.922
X8.3921Y-2.6661
X8.3921Y-3.422
X8.3941Y-4.1701
X8.5921Y-1.922
X8.5921Y-2.6661
X8.5921Y-3.422
X8.5941Y-4.1701
X8.6421Y-2.022
X8.6421Y-2.7661
X8.6421Y-3.522
X8.6441Y-4.2701
T4
X4.1339Y-5.0
X4.7441Y-1.9685
X4.7441Y-2.7205
X4.7441Y-3.4685
X4.7441Y-4.2165
X5.1181Y-4.9606
X5.4921Y-1.874
X5.4921Y-2.626
X5.4921Y-3.374
X5.4921Y-4.126
X5.8661Y-4.872
X6.2441Y-1.8193
X6.2441Y-2.5709
X6.2441Y-3.3228
X6.2441Y-4.0709
X6.6181Y-4.872
X6.9921Y-1.874
X6.9921Y-2.622
X6.9921Y-3.374
X6.9921Y-4.126
X7.7441Y-2.063
X7.7441Y-2.8071
X7.7441Y-3.563
X7.7441Y-4.311
X8.4921Y-2.122
X8.4921Y-2.8661
X8.4921Y-3.622
X8.4941Y-4.3701
T0
M30
