G04 #@! TF.GenerationSoftware,KiCad,Pcbnew,(6.0.0-0)*
G04 #@! TF.CreationDate,2022-05-31T22:11:55-04:00*
G04 #@! TF.ProjectId,Lily58,4c696c79-3538-42e6-9b69-6361645f7063,rev?*
G04 #@! TF.SameCoordinates,Original*
G04 #@! TF.FileFunction,Copper,L1,Top*
G04 #@! TF.FilePolarity,Positive*
%FSLAX46Y46*%
G04 Gerber Fmt 4.6, Leading zero omitted, Abs format (unit mm)*
G04 Created by KiCad (PCBNEW (6.0.0-0)) date 2022-05-31 22:11:55*
%MOMM*%
%LPD*%
G01*
G04 APERTURE LIST*
G04 Aperture macros list*
%AMHorizOval*
0 Thick line with rounded ends*
0 $1 width*
0 $2 $3 position (X,Y) of the first rounded end (center of the circle)*
0 $4 $5 position (X,Y) of the second rounded end (center of the circle)*
0 Add line between two ends*
20,1,$1,$2,$3,$4,$5,0*
0 Add two circle primitives to create the rounded ends*
1,1,$1,$2,$3*
1,1,$1,$4,$5*%
%AMRotRect*
0 Rectangle, with rotation*
0 The origin of the aperture is its center*
0 $1 length*
0 $2 width*
0 $3 Rotation angle, in degrees counterclockwise*
0 Add horizontal line*
21,1,$1,$2,0,0,$3*%
G04 Aperture macros list end*
G04 #@! TA.AperFunction,Profile*
%ADD10C,0.200000*%
G04 #@! TD*
G04 #@! TA.AperFunction,Profile*
%ADD11C,0.150000*%
G04 #@! TD*
G04 #@! TA.AperFunction,ComponentPad*
%ADD12C,2.200000*%
G04 #@! TD*
G04 #@! TA.AperFunction,ComponentPad*
%ADD13O,2.200000X3.500000*%
G04 #@! TD*
G04 #@! TA.AperFunction,ComponentPad*
%ADD14R,1.500000X2.500000*%
G04 #@! TD*
G04 #@! TA.AperFunction,ComponentPad*
%ADD15O,1.500000X2.500000*%
G04 #@! TD*
G04 #@! TA.AperFunction,SMDPad,CuDef*
%ADD16R,2.000000X2.000000*%
G04 #@! TD*
G04 #@! TA.AperFunction,ComponentPad*
%ADD17RotRect,1.800000X1.800000X120.000000*%
G04 #@! TD*
G04 #@! TA.AperFunction,ComponentPad*
%ADD18HorizOval,1.800000X0.000000X0.000000X0.000000X0.000000X0*%
G04 #@! TD*
G04 #@! TA.AperFunction,ComponentPad*
%ADD19C,4.900000*%
G04 #@! TD*
G04 #@! TA.AperFunction,ComponentPad*
%ADD20C,2.500000*%
G04 #@! TD*
G04 #@! TA.AperFunction,ComponentPad*
%ADD21C,1.752600*%
G04 #@! TD*
G04 #@! TA.AperFunction,SMDPad,CuDef*
%ADD22R,1.143000X0.635000*%
G04 #@! TD*
G04 #@! TA.AperFunction,ComponentPad*
%ADD23C,1.397000*%
G04 #@! TD*
G04 #@! TA.AperFunction,SMDPad,CuDef*
%ADD24R,2.550000X2.500000*%
G04 #@! TD*
G04 #@! TA.AperFunction,SMDPad,CuDef*
%ADD25RotRect,2.550000X2.500000X120.000000*%
G04 #@! TD*
G04 #@! TA.AperFunction,SMDPad,CuDef*
%ADD26R,1.600000X0.850000*%
G04 #@! TD*
G04 #@! TA.AperFunction,SMDPad,CuDef*
%ADD27RotRect,1.600000X0.850000X120.000000*%
G04 #@! TD*
G04 #@! TA.AperFunction,ComponentPad*
%ADD28C,2.000000*%
G04 #@! TD*
G04 #@! TA.AperFunction,ComponentPad*
%ADD29R,3.200000X2.000000*%
G04 #@! TD*
G04 #@! TA.AperFunction,ComponentPad*
%ADD30O,3.200000X2.000000*%
G04 #@! TD*
G04 #@! TA.AperFunction,ComponentPad*
%ADD31R,2.000000X2.000000*%
G04 #@! TD*
G04 #@! TA.AperFunction,ComponentPad*
%ADD32O,1.800000X1.800000*%
G04 #@! TD*
G04 #@! TA.AperFunction,ComponentPad*
%ADD33R,1.800000X1.800000*%
G04 #@! TD*
G04 #@! TA.AperFunction,ViaPad*
%ADD34C,0.600000*%
G04 #@! TD*
G04 #@! TA.AperFunction,Conductor*
%ADD35C,0.250000*%
G04 #@! TD*
G04 #@! TA.AperFunction,Conductor*
%ADD36C,0.500000*%
G04 #@! TD*
G04 #@! TA.AperFunction,Conductor*
%ADD37C,0.200000*%
G04 #@! TD*
G04 APERTURE END LIST*
D10*
X104807833Y-37086762D02*
X94400000Y-37086762D01*
X82937528Y-82285296D02*
X82937528Y-75978362D01*
X82937528Y-75978362D02*
X82937528Y-69671429D01*
X82937528Y-88592229D02*
X82937528Y-82285296D01*
D11*
X118750000Y-57750000D02*
X118750000Y-53250000D01*
X101310889Y-127109431D02*
X103060889Y-130140520D01*
X103060889Y-130140520D02*
X99163775Y-132390520D01*
X97413775Y-129359431D02*
X101310889Y-127109431D01*
X99163775Y-132390520D02*
X97413775Y-129359431D01*
X118750000Y-72350000D02*
X122250000Y-72350000D01*
X131750000Y-129250000D02*
X131750000Y-133750000D01*
X166350000Y-127000000D02*
X169850000Y-127000000D01*
X160350000Y-111150000D02*
X156850000Y-111150000D01*
X141250000Y-108050000D02*
X141250000Y-112550000D01*
X103099200Y-104864800D02*
X103099200Y-109364800D01*
X137750000Y-108050000D02*
X141250000Y-108050000D01*
X198450000Y-117250000D02*
X194950000Y-117250000D01*
X122250000Y-114850000D02*
X118750000Y-114850000D01*
X156850000Y-111150000D02*
X156850000Y-106650000D01*
X166350000Y-131500000D02*
X166350000Y-127000000D01*
X194950000Y-117250000D02*
X194950000Y-112750000D01*
X141250000Y-112550000D02*
X137750000Y-112550000D01*
X122250000Y-110350000D02*
X122250000Y-114850000D01*
X179350000Y-108050000D02*
X179350000Y-112550000D01*
X175850000Y-108050000D02*
X179350000Y-108050000D01*
X214000000Y-118750000D02*
X214000000Y-114250000D01*
X147250000Y-127000000D02*
X150750000Y-127000000D01*
X150750000Y-131500000D02*
X147250000Y-131500000D01*
X160350000Y-106650000D02*
X160350000Y-111150000D01*
X137750000Y-112550000D02*
X137750000Y-108050000D01*
X150750000Y-127000000D02*
X150750000Y-131500000D01*
X156850000Y-106650000D02*
X160350000Y-106650000D01*
X217500000Y-114250000D02*
X217500000Y-118750000D01*
X99599200Y-104864800D02*
X103099200Y-104864800D01*
X194950000Y-112750000D02*
X198450000Y-112750000D01*
X128250000Y-129250000D02*
X131750000Y-129250000D01*
X103099200Y-109364800D02*
X99599200Y-109364800D01*
X175850000Y-112550000D02*
X175850000Y-108050000D01*
X217500000Y-118750000D02*
X214000000Y-118750000D01*
X214000000Y-114250000D02*
X217500000Y-114250000D01*
X147250000Y-131500000D02*
X147250000Y-127000000D01*
X99599200Y-109364800D02*
X99599200Y-104864800D01*
X118750000Y-114850000D02*
X118750000Y-110350000D01*
X118750000Y-110350000D02*
X122250000Y-110350000D01*
X128250000Y-133750000D02*
X128250000Y-129250000D01*
X169850000Y-127000000D02*
X169850000Y-131500000D01*
X169850000Y-131500000D02*
X166350000Y-131500000D01*
X179350000Y-112550000D02*
X175850000Y-112550000D01*
X198450000Y-112750000D02*
X198450000Y-117250000D01*
X131750000Y-133750000D02*
X128250000Y-133750000D01*
X99624000Y-90170000D02*
X99624000Y-85670000D01*
X103124000Y-85670000D02*
X103124000Y-90170000D01*
X103124000Y-90170000D02*
X99624000Y-90170000D01*
X99624000Y-85670000D02*
X103124000Y-85670000D01*
D10*
X178319348Y-134034052D02*
X178288901Y-134314154D01*
X225460000Y-100326490D02*
X225460000Y-109808112D01*
X82937528Y-63364495D02*
X82937528Y-57057562D01*
D11*
X160350000Y-92150000D02*
X156850000Y-92150000D01*
D10*
X96695647Y-131453701D02*
X98371341Y-134320020D01*
X225204001Y-120128696D02*
X225020912Y-120350648D01*
X169449826Y-135511658D02*
X176819348Y-135511658D01*
D11*
X141250000Y-88950000D02*
X141250000Y-93450000D01*
D10*
X89992869Y-119988423D02*
X91668563Y-122854742D01*
X177658308Y-135255660D02*
X177403500Y-135393876D01*
D11*
X141250000Y-55350000D02*
X137750000Y-55350000D01*
D10*
X178201565Y-134595810D02*
X178063349Y-134850619D01*
X104288864Y-143357278D02*
X104456758Y-143271756D01*
D11*
X122250000Y-72350000D02*
X122250000Y-76850000D01*
D10*
X225460000Y-43436755D02*
X225460000Y-52918378D01*
D11*
X198450000Y-60150000D02*
X194950000Y-60150000D01*
D10*
X136027379Y-37086762D02*
X125619545Y-37086762D01*
X104130206Y-143404468D02*
X104288864Y-143357278D01*
X83245570Y-37394123D02*
X83400937Y-37265961D01*
X103842470Y-143386445D02*
X103981252Y-143413974D01*
D11*
X179350000Y-50850000D02*
X179350000Y-55350000D01*
D10*
X82937528Y-50750629D02*
X82937528Y-44443695D01*
X103597295Y-143222884D02*
X103714328Y-143322532D01*
X116186619Y-136480784D02*
X117862313Y-135510645D01*
X224278471Y-42156190D02*
X220889319Y-40963847D01*
D11*
X217450000Y-80550000D02*
X213950000Y-80550000D01*
D10*
X103981252Y-143413974D02*
X104130206Y-143404468D01*
D11*
X194950000Y-93750000D02*
X198450000Y-93750000D01*
X156850000Y-87650000D02*
X160350000Y-87650000D01*
D10*
X224900000Y-42700000D02*
X224278471Y-42156190D01*
X178319348Y-131597973D02*
X178319348Y-132816013D01*
D11*
X137750000Y-74450000D02*
X137750000Y-69950000D01*
D10*
X178319348Y-129161894D02*
X178319348Y-130379933D01*
D11*
X118750000Y-76850000D02*
X118750000Y-72350000D01*
X122250000Y-91350000D02*
X122250000Y-95850000D01*
D10*
X83579303Y-37169210D02*
X83776462Y-37108075D01*
X178594174Y-122926713D02*
X178916678Y-122332160D01*
X178390391Y-123583911D02*
X178594174Y-122926713D01*
X104456758Y-143271756D02*
X106132452Y-142301617D01*
X197622092Y-120789735D02*
X202889673Y-120789735D01*
X213424836Y-120789735D02*
X218692418Y-120789735D01*
X225460000Y-90844867D02*
X225460000Y-100326490D01*
D11*
X160350000Y-49460000D02*
X160350000Y-53960000D01*
D10*
X91668563Y-122854742D02*
X93344258Y-125721062D01*
X139971738Y-135511658D02*
X147341260Y-135511658D01*
X82937528Y-44443695D02*
X82937528Y-38136762D01*
X224900000Y-42700000D02*
X225460000Y-43436755D01*
D11*
X179350000Y-55350000D02*
X175850000Y-55350000D01*
D10*
X83400937Y-37265961D02*
X83579303Y-37169210D01*
D11*
X118750000Y-91350000D02*
X122250000Y-91350000D01*
D10*
X95019952Y-128587381D02*
X96695647Y-131453701D01*
D11*
X137750000Y-69950000D02*
X141250000Y-69950000D01*
D10*
X192354511Y-120789735D02*
X197622092Y-120789735D01*
D11*
X156850000Y-68550000D02*
X160350000Y-68550000D01*
D10*
X181819348Y-120789735D02*
X187086929Y-120789735D01*
X177880261Y-135072571D02*
X177658308Y-135255660D01*
X103398425Y-142918979D02*
X103491837Y-143088150D01*
D11*
X175850000Y-74350000D02*
X175850000Y-69850000D01*
D10*
X225020912Y-120350648D02*
X224798960Y-120533736D01*
D11*
X141250000Y-93450000D02*
X137750000Y-93450000D01*
D10*
X83020657Y-37727855D02*
X83117409Y-37549489D01*
D11*
X217450000Y-95250000D02*
X217450000Y-99750000D01*
D10*
X106132452Y-142301617D02*
X107808147Y-141331479D01*
D11*
X179350000Y-69850000D02*
X179350000Y-74350000D01*
X141250000Y-74450000D02*
X137750000Y-74450000D01*
D10*
X215525697Y-39885159D02*
X208420758Y-38945561D01*
D11*
X213950000Y-76050000D02*
X217450000Y-76050000D01*
D10*
X177403500Y-135393876D02*
X177121844Y-135481211D01*
D11*
X122250000Y-57750000D02*
X118750000Y-57750000D01*
X194950000Y-79050000D02*
X194950000Y-74550000D01*
X160350000Y-68550000D02*
X160350000Y-73050000D01*
X175850000Y-88950000D02*
X179350000Y-88950000D01*
X213950000Y-95250000D02*
X217450000Y-95250000D01*
X160350000Y-73050000D02*
X156850000Y-73050000D01*
X122250000Y-53250000D02*
X122250000Y-57750000D01*
X198450000Y-98250000D02*
X194950000Y-98250000D01*
D10*
X178319348Y-126725814D02*
X178319348Y-127943854D01*
X178063349Y-134850619D02*
X177880261Y-135072571D01*
X224262495Y-120759288D02*
X223959999Y-120789735D01*
X83135690Y-92617561D02*
X83490297Y-96657663D01*
D11*
X137750000Y-55350000D02*
X137750000Y-50850000D01*
D10*
X178319348Y-132816013D02*
X178319348Y-134034052D01*
D11*
X137750000Y-50850000D02*
X141250000Y-50850000D01*
D10*
X179343884Y-121814271D02*
X179861773Y-121387065D01*
X125619545Y-37086762D02*
X115211711Y-37086762D01*
X225460000Y-109808112D02*
X225460000Y-119289735D01*
X88291758Y-116318073D02*
X89993333Y-119989540D01*
X83117409Y-37549489D02*
X83245570Y-37394123D01*
D11*
X217450000Y-99750000D02*
X213950000Y-99750000D01*
X122250000Y-95850000D02*
X118750000Y-95850000D01*
D10*
X178916678Y-122332160D02*
X179343884Y-121814271D01*
X83490297Y-96657663D02*
X84020972Y-100690825D01*
X103714328Y-143322532D02*
X103842470Y-143386445D01*
X82938210Y-38136762D02*
X82959523Y-37925015D01*
X208157255Y-120789735D02*
X213424836Y-120789735D01*
X125232695Y-135511658D02*
X132602217Y-135511658D01*
X225460000Y-52918378D02*
X225460000Y-62400000D01*
D11*
X118750000Y-53250000D02*
X122250000Y-53250000D01*
D10*
X83776462Y-37108075D02*
X83988210Y-37086762D01*
X112835230Y-138421062D02*
X114510925Y-137450923D01*
X154710782Y-135511658D02*
X162080304Y-135511658D01*
X109483841Y-140361340D02*
X111159536Y-139391201D01*
X179861773Y-121387065D02*
X180456326Y-121064561D01*
D11*
X122250000Y-76850000D02*
X118750000Y-76850000D01*
D10*
X178319348Y-127943854D02*
X178319348Y-129161894D01*
D11*
X156850000Y-49460000D02*
X160350000Y-49460000D01*
D10*
X146435213Y-37086762D02*
X136027379Y-37086762D01*
D11*
X213950000Y-99750000D02*
X213950000Y-95250000D01*
D10*
X218692418Y-120789735D02*
X223959999Y-120789735D01*
X85688004Y-108649127D02*
X86863105Y-112530670D01*
X86863105Y-112530670D02*
X88291758Y-116318073D01*
D11*
X194950000Y-55650000D02*
X198450000Y-55650000D01*
D10*
X178288901Y-134314154D02*
X178201565Y-134595810D01*
X162080304Y-135511658D02*
X169449826Y-135511658D01*
X156843047Y-37086762D02*
X146435213Y-37086762D01*
D11*
X179350000Y-74350000D02*
X175850000Y-74350000D01*
D10*
X178319348Y-130379933D02*
X178319348Y-131597973D01*
D11*
X137750000Y-88950000D02*
X141250000Y-88950000D01*
D10*
X117863173Y-135511658D02*
X125232695Y-135511658D01*
X180456326Y-121064561D02*
X181113524Y-120860778D01*
D11*
X198450000Y-74550000D02*
X198450000Y-79050000D01*
X175850000Y-55350000D02*
X175850000Y-50850000D01*
D10*
X189919538Y-37585374D02*
X178989563Y-37215654D01*
X107808147Y-141331479D02*
X109483841Y-140361340D01*
X115211711Y-37086762D02*
X104803877Y-37086762D01*
D11*
X194950000Y-98250000D02*
X194950000Y-93750000D01*
X213950000Y-57150000D02*
X217450000Y-57150000D01*
X217450000Y-76050000D02*
X217450000Y-80550000D01*
D10*
X225429552Y-119592231D02*
X225342217Y-119873887D01*
D11*
X137750000Y-93450000D02*
X137750000Y-88950000D01*
D10*
X82937528Y-57057562D02*
X82937528Y-50750629D01*
X225460000Y-71881623D02*
X225460000Y-81363245D01*
X101722730Y-140052659D02*
X103398425Y-142918979D01*
D11*
X175850000Y-69850000D02*
X179350000Y-69850000D01*
X179350000Y-88950000D02*
X179350000Y-93450000D01*
D10*
X181113524Y-120860778D02*
X181819348Y-120789735D01*
X225460000Y-62400000D02*
X225460000Y-71881623D01*
X103491837Y-143088150D02*
X103597295Y-143222884D01*
X84020972Y-100690825D02*
X84747083Y-104695246D01*
X94396044Y-37086762D02*
X83988210Y-37086762D01*
X178319348Y-124289735D02*
X178319348Y-125507775D01*
D11*
X175850000Y-93450000D02*
X175850000Y-88950000D01*
X160350000Y-87650000D02*
X160350000Y-92150000D01*
D10*
X208420758Y-38945561D02*
X199807654Y-38170488D01*
X132602217Y-135511658D02*
X139971738Y-135511658D01*
X82937777Y-88592317D02*
X83135690Y-92617561D01*
D11*
X198450000Y-55650000D02*
X198450000Y-60150000D01*
D10*
X147341260Y-135511658D02*
X154710782Y-135511658D01*
D11*
X141250000Y-50850000D02*
X141250000Y-55350000D01*
X160350000Y-53960000D02*
X156850000Y-53960000D01*
D10*
X178319348Y-124289735D02*
X178390391Y-123583911D01*
D11*
X156850000Y-92150000D02*
X156850000Y-87650000D01*
D10*
X98371341Y-134320020D02*
X100047036Y-137186340D01*
X225342217Y-119873887D02*
X225204001Y-120128696D01*
X202889673Y-120789735D02*
X208157255Y-120789735D01*
X82937528Y-69671429D02*
X82937528Y-63364495D01*
D11*
X198450000Y-93750000D02*
X198450000Y-98250000D01*
X141250000Y-69950000D02*
X141250000Y-74450000D01*
D10*
X111159536Y-139391201D02*
X112835230Y-138421062D01*
D11*
X213950000Y-80550000D02*
X213950000Y-76050000D01*
D10*
X225460000Y-81363245D02*
X225460000Y-90844867D01*
X187086929Y-120789735D02*
X192354511Y-120789735D01*
X220889319Y-40963847D02*
X215525697Y-39885159D01*
D11*
X118750000Y-95850000D02*
X118750000Y-91350000D01*
D10*
X177121844Y-135481211D02*
X176819348Y-135511658D01*
D11*
X156850000Y-73050000D02*
X156850000Y-68550000D01*
X217450000Y-61650000D02*
X213950000Y-61650000D01*
D10*
X84747083Y-104695246D02*
X85688004Y-108649127D01*
D11*
X198450000Y-79050000D02*
X194950000Y-79050000D01*
D10*
X167250881Y-37086762D02*
X156843047Y-37086762D01*
X114510925Y-137450923D02*
X116186619Y-136480784D01*
X224544152Y-120671952D02*
X224262495Y-120759288D01*
X100047036Y-137186340D02*
X101722730Y-140052659D01*
D11*
X194950000Y-60150000D02*
X194950000Y-55650000D01*
X213950000Y-61650000D02*
X213950000Y-57150000D01*
D10*
X93344258Y-125721062D02*
X95019952Y-128587381D01*
X178989563Y-37215654D02*
X167250881Y-37086762D01*
D11*
X217450000Y-57150000D02*
X217450000Y-61650000D01*
D10*
X224798960Y-120533736D02*
X224544152Y-120671952D01*
X225459999Y-119289735D02*
X225429552Y-119592231D01*
D11*
X194950000Y-74550000D02*
X198450000Y-74550000D01*
D10*
X199807654Y-38170488D02*
X189919538Y-37585374D01*
D11*
X179350000Y-93450000D02*
X175850000Y-93450000D01*
X175850000Y-50850000D02*
X179350000Y-50850000D01*
X156850000Y-53960000D02*
X156850000Y-49460000D01*
D10*
X178319348Y-125507775D02*
X178319348Y-126725814D01*
X82959523Y-37925015D02*
X83020657Y-37727855D01*
D12*
X104013000Y-93726000D03*
X106553000Y-100076000D03*
D13*
X85526000Y-38862000D03*
X93726000Y-38862000D03*
D14*
X87626000Y-38862000D03*
D15*
X89626000Y-38862000D03*
X91626000Y-38862000D03*
D16*
X86106000Y-67070000D03*
X86106000Y-71120000D03*
D13*
X97718000Y-38862000D03*
X105918000Y-38862000D03*
D14*
X99818000Y-38862000D03*
D15*
X101818000Y-38862000D03*
X103818000Y-38862000D03*
D17*
X113792000Y-125471114D03*
D18*
X109982000Y-118872000D03*
D19*
X129600000Y-59600000D03*
X205800000Y-61800000D03*
X129600000Y-97600000D03*
X205800000Y-100000000D03*
X105000000Y-114800000D03*
D20*
X85344000Y-58876000D03*
X85344000Y-52376000D03*
D21*
X97566005Y-67596130D03*
X95026005Y-67596130D03*
X92486005Y-67596130D03*
X105186005Y-44736130D03*
X105186005Y-47276130D03*
X105186005Y-49816130D03*
X105186005Y-52356130D03*
X105186005Y-54896130D03*
X105186005Y-57436130D03*
X105186005Y-59976130D03*
X105186005Y-62516130D03*
X105186005Y-65056130D03*
X105186005Y-67596130D03*
X105186005Y-70136130D03*
X105186005Y-72676130D03*
X89946005Y-72676130D03*
X89946005Y-70136130D03*
X89946005Y-67596130D03*
X89946005Y-65056130D03*
X89946005Y-62516130D03*
X89946005Y-59976130D03*
X89946005Y-57436130D03*
X89946005Y-54896130D03*
X89946005Y-52356130D03*
X89946005Y-49816130D03*
X89946005Y-47276130D03*
X89946005Y-44736130D03*
D22*
X96610810Y-71993760D03*
X96610810Y-70993000D03*
X94110810Y-71993760D03*
X94110810Y-70993000D03*
D23*
X94107000Y-76454000D03*
X96647000Y-76454000D03*
X99187000Y-76454000D03*
X101727000Y-76454000D03*
D22*
X99210810Y-71993760D03*
X99210810Y-70993000D03*
X101376005Y-71993760D03*
X101376005Y-70993000D03*
D24*
X133800000Y-42480000D03*
X146500000Y-45020000D03*
X152900000Y-41090000D03*
X165600000Y-43630000D03*
X171900000Y-42480000D03*
X184600000Y-45020000D03*
X191000000Y-47280000D03*
X203700000Y-49820000D03*
X210000000Y-48780000D03*
X222700000Y-51320000D03*
X114800000Y-63980000D03*
X127500000Y-66520000D03*
X133800000Y-61580000D03*
X146500000Y-64120000D03*
X152900000Y-60180000D03*
X165600000Y-62720000D03*
X171900000Y-61480000D03*
X184600000Y-64020000D03*
X191000000Y-66180000D03*
X203700000Y-68720000D03*
X210000000Y-67680000D03*
X222700000Y-70220000D03*
X114800000Y-82980000D03*
X127500000Y-85520000D03*
X133800000Y-80580000D03*
X146500000Y-83120000D03*
X152900000Y-79280000D03*
X165600000Y-81820000D03*
X171900000Y-80580000D03*
X184600000Y-83120000D03*
X191000000Y-85380000D03*
X203700000Y-87920000D03*
X210000000Y-86880000D03*
X222700000Y-89420000D03*
X114800000Y-101980000D03*
X127500000Y-104520000D03*
X133800000Y-99680000D03*
X146500000Y-102220000D03*
X152900000Y-98280000D03*
X165600000Y-100820000D03*
X171900000Y-99680000D03*
X184600000Y-102220000D03*
X191000000Y-104380000D03*
X203700000Y-106920000D03*
X210050000Y-105880000D03*
X222750000Y-108420000D03*
D25*
X106584050Y-119503655D03*
X110734346Y-131772178D03*
D24*
X124300000Y-120880000D03*
X137000000Y-123420000D03*
X143300000Y-118630000D03*
X156000000Y-121170000D03*
X162400000Y-118630000D03*
X175100000Y-121170000D03*
X114800000Y-44880000D03*
X127500000Y-47420000D03*
D26*
X118750000Y-56375000D03*
X118750000Y-54625000D03*
X122250000Y-54625000D03*
X122250000Y-56375000D03*
X141250000Y-109425000D03*
X141250000Y-111175000D03*
X137750000Y-111175000D03*
X137750000Y-109425000D03*
X147250000Y-130125000D03*
X147250000Y-128375000D03*
X150750000Y-128375000D03*
X150750000Y-130125000D03*
X160350000Y-108025000D03*
X160350000Y-109775000D03*
X156850000Y-109775000D03*
X156850000Y-108025000D03*
X198450000Y-114125000D03*
X198450000Y-115875000D03*
X194950000Y-115875000D03*
X194950000Y-114125000D03*
X217500000Y-115625000D03*
X217500000Y-117375000D03*
X214000000Y-117375000D03*
X214000000Y-115625000D03*
X128250000Y-132375000D03*
X128250000Y-130625000D03*
X131750000Y-130625000D03*
X131750000Y-132375000D03*
X175850000Y-92075000D03*
X175850000Y-90325000D03*
X179350000Y-90325000D03*
X179350000Y-92075000D03*
X122250000Y-111725000D03*
X122250000Y-113475000D03*
X118750000Y-113475000D03*
X118750000Y-111725000D03*
X213950000Y-98375000D03*
X213950000Y-96625000D03*
X217450000Y-96625000D03*
X217450000Y-98375000D03*
X156850000Y-90775000D03*
X156850000Y-89025000D03*
X160350000Y-89025000D03*
X160350000Y-90775000D03*
X137750000Y-92075000D03*
X137750000Y-90325000D03*
X141250000Y-90325000D03*
X141250000Y-92075000D03*
X118750000Y-94475000D03*
X118750000Y-92725000D03*
X122250000Y-92725000D03*
X122250000Y-94475000D03*
X217450000Y-77425000D03*
X217450000Y-79175000D03*
X213950000Y-79175000D03*
X213950000Y-77425000D03*
X194950000Y-96875000D03*
X194950000Y-95125000D03*
X198450000Y-95125000D03*
X198450000Y-96875000D03*
X179350000Y-109425000D03*
X179350000Y-111175000D03*
X175850000Y-111175000D03*
X175850000Y-109425000D03*
X179350000Y-53975000D03*
X179350000Y-52225000D03*
X175850000Y-52225000D03*
X175850000Y-53975000D03*
X198450000Y-58775000D03*
X198450000Y-57025000D03*
X194950000Y-57025000D03*
X194950000Y-58775000D03*
X160350000Y-52585000D03*
X160350000Y-50835000D03*
X156850000Y-50835000D03*
X156850000Y-52585000D03*
X141250000Y-53975000D03*
X141250000Y-52225000D03*
X137750000Y-52225000D03*
X137750000Y-53975000D03*
X198450000Y-75925000D03*
X198450000Y-77675000D03*
X194950000Y-77675000D03*
X194950000Y-75925000D03*
X179350000Y-71225000D03*
X179350000Y-72975000D03*
X175850000Y-72975000D03*
X175850000Y-71225000D03*
X160350000Y-69925000D03*
X160350000Y-71675000D03*
X156850000Y-71675000D03*
X156850000Y-69925000D03*
X217450000Y-60275000D03*
X217450000Y-58525000D03*
X213950000Y-58525000D03*
X213950000Y-60275000D03*
X141250000Y-71325000D03*
X141250000Y-73075000D03*
X137750000Y-73075000D03*
X137750000Y-71325000D03*
X122250000Y-73725000D03*
X122250000Y-75475000D03*
X118750000Y-75475000D03*
X118750000Y-73725000D03*
X166350000Y-130125000D03*
X166350000Y-128375000D03*
X169850000Y-128375000D03*
X169850000Y-130125000D03*
D27*
X98604087Y-128671956D03*
X100119631Y-127796956D03*
X101869631Y-130828044D03*
X100354087Y-131703044D03*
D28*
X108454600Y-94996000D03*
X108454600Y-99996000D03*
D29*
X101454600Y-103096000D03*
D30*
X101454600Y-91896000D03*
D28*
X93954600Y-97496000D03*
X93954600Y-99996000D03*
D31*
X93954600Y-94996000D03*
D26*
X103099200Y-106239800D03*
X103099200Y-107989800D03*
X99599200Y-107989800D03*
X99599200Y-106239800D03*
X103195000Y-87009000D03*
X103195000Y-88759000D03*
X99695000Y-88759000D03*
X99695000Y-87009000D03*
D32*
X206146400Y-104292400D03*
D33*
X206146400Y-111912400D03*
D32*
X206197200Y-84632800D03*
D33*
X206197200Y-92252800D03*
D32*
X148640800Y-98704400D03*
D33*
X148640800Y-106324400D03*
D32*
X187756800Y-84683600D03*
D33*
X187756800Y-92303600D03*
D32*
X206248000Y-66141600D03*
D33*
X206248000Y-73761600D03*
D32*
X129413000Y-63373000D03*
D33*
X129413000Y-70993000D03*
D32*
X148945600Y-78282800D03*
D33*
X148945600Y-85902800D03*
D32*
X118872000Y-40640000D03*
D33*
X126492000Y-40640000D03*
D18*
X118745000Y-122430443D03*
D17*
X122555000Y-129029557D03*
D32*
X167589200Y-59994800D03*
D33*
X167589200Y-67614800D03*
D32*
X188163200Y-64897000D03*
D33*
X188163200Y-72517000D03*
D32*
X135890000Y-76200000D03*
D33*
X143510000Y-76200000D03*
D32*
X129540000Y-101600000D03*
D33*
X129540000Y-109220000D03*
D32*
X115824000Y-99060000D03*
D33*
X123444000Y-99060000D03*
D32*
X168250000Y-99060000D03*
D33*
X168250000Y-106680000D03*
D32*
X148590000Y-60198000D03*
D33*
X148590000Y-67818000D03*
D32*
X187756800Y-46431200D03*
D33*
X187756800Y-54051200D03*
D32*
X158700000Y-118364000D03*
D33*
X158700000Y-125984000D03*
D32*
X116840000Y-80010000D03*
D33*
X124460000Y-80010000D03*
D32*
X129336800Y-82194400D03*
D33*
X129336800Y-89814400D03*
D32*
X168351200Y-79552800D03*
D33*
X168351200Y-87172800D03*
D32*
X153365200Y-112420400D03*
D33*
X145745200Y-112420400D03*
D32*
X206298800Y-47142400D03*
D33*
X206298800Y-54762400D03*
D32*
X129692400Y-43688000D03*
D33*
X129692400Y-51308000D03*
D32*
X148590000Y-41605200D03*
D33*
X148590000Y-49225200D03*
D32*
X187655200Y-104140000D03*
D33*
X187655200Y-111760000D03*
D32*
X91948000Y-81407000D03*
D33*
X99568000Y-81407000D03*
D32*
X138988800Y-119888000D03*
D33*
X138988800Y-127508000D03*
X126492000Y-40640000D03*
D32*
X118872000Y-40640000D03*
D33*
X129692400Y-51308000D03*
D32*
X129692400Y-43688000D03*
D33*
X148590000Y-49225200D03*
D32*
X148590000Y-41605200D03*
D33*
X145745200Y-112420400D03*
D32*
X153365200Y-112420400D03*
D33*
X187756800Y-54051200D03*
D32*
X187756800Y-46431200D03*
D33*
X206298800Y-54762400D03*
D32*
X206298800Y-47142400D03*
D33*
X129413000Y-70993000D03*
D32*
X129413000Y-63373000D03*
D33*
X143510000Y-76200000D03*
D32*
X135890000Y-76200000D03*
D33*
X148590000Y-67818000D03*
D32*
X148590000Y-60198000D03*
D33*
X167589200Y-67614800D03*
D32*
X167589200Y-59994800D03*
D33*
X188163200Y-72517000D03*
D32*
X188163200Y-64897000D03*
D33*
X206248000Y-73761600D03*
D32*
X206248000Y-66141600D03*
D33*
X124460000Y-80010000D03*
D32*
X116840000Y-80010000D03*
D33*
X129336800Y-89814400D03*
D32*
X129336800Y-82194400D03*
D33*
X148945600Y-85902800D03*
D32*
X148945600Y-78282800D03*
D33*
X168351200Y-87172800D03*
D32*
X168351200Y-79552800D03*
D33*
X187756800Y-92303600D03*
D32*
X187756800Y-84683600D03*
D33*
X206197200Y-92252800D03*
D32*
X206197200Y-84632800D03*
D33*
X123444000Y-99060000D03*
D32*
X115824000Y-99060000D03*
D33*
X129540000Y-109220000D03*
D32*
X129540000Y-101600000D03*
D33*
X148640800Y-106324400D03*
D32*
X148640800Y-98704400D03*
D33*
X168250000Y-106680000D03*
D32*
X168250000Y-99060000D03*
D33*
X187655200Y-111760000D03*
D32*
X187655200Y-104140000D03*
D33*
X99568000Y-81407000D03*
D32*
X91948000Y-81407000D03*
D17*
X122555000Y-129029557D03*
D18*
X118745000Y-122430443D03*
D33*
X138988800Y-127508000D03*
D32*
X138988800Y-119888000D03*
D33*
X158700000Y-125984000D03*
D32*
X158700000Y-118364000D03*
D33*
X206146400Y-111912400D03*
D32*
X206146400Y-104292400D03*
D18*
X109982000Y-118872000D03*
D17*
X113792000Y-125471114D03*
D34*
X110363000Y-99314000D03*
X96139000Y-81280000D03*
X92202000Y-78740000D03*
X145200000Y-42480000D03*
X152900000Y-41090000D03*
X107442000Y-62484000D03*
X109982000Y-107950000D03*
X165275011Y-52070000D03*
X116586000Y-116840000D03*
X127762000Y-52578000D03*
X109728000Y-72390000D03*
X114554000Y-58420000D03*
X166624000Y-52070000D03*
X103505000Y-61341000D03*
X171900000Y-42480000D03*
X166614411Y-107432411D03*
X168148000Y-54864000D03*
X124968000Y-71628000D03*
X148844000Y-71120000D03*
X148590000Y-73660000D03*
X117094000Y-72136000D03*
X189075500Y-75692000D03*
X191000000Y-47280000D03*
X189992000Y-93980000D03*
X111760000Y-96012000D03*
X150368000Y-92710000D03*
X165384762Y-87172800D03*
X110236000Y-94996000D03*
X188722000Y-93980000D03*
X106680000Y-82042000D03*
X146050000Y-96012000D03*
X210185000Y-48895000D03*
X96012000Y-109982000D03*
X130302000Y-112268000D03*
X129286000Y-115316000D03*
X116332000Y-120396000D03*
X94234000Y-109728000D03*
X107696000Y-112776000D03*
X129286000Y-117094000D03*
X130556000Y-105410000D03*
X126200000Y-63980000D03*
X133800000Y-61580000D03*
X171900000Y-61480000D03*
X210000000Y-67680000D03*
X115094089Y-83274089D03*
X126619000Y-78613000D03*
X126111000Y-81153000D03*
X133288411Y-79948411D03*
X152900000Y-79280000D03*
X171900000Y-80580000D03*
X191000000Y-85380000D03*
X210000000Y-86880000D03*
X126238000Y-101854000D03*
X133800000Y-99680000D03*
X152900000Y-98280000D03*
X171900000Y-99680000D03*
X202364430Y-104415570D03*
X210185000Y-106045000D03*
X124300000Y-120880000D03*
X143300000Y-118630000D03*
X99316872Y-69858658D03*
X99822000Y-61214000D03*
X102870000Y-51839061D03*
X101600000Y-54610000D03*
X98042799Y-71656727D03*
X110800000Y-77600000D03*
X181356000Y-52832000D03*
X155448000Y-74422000D03*
X116646589Y-74736589D03*
X120142000Y-77978000D03*
X181356000Y-91567000D03*
X128778000Y-77724000D03*
X171704000Y-114554000D03*
X192532000Y-116332000D03*
X105156000Y-77089000D03*
X136779000Y-108458000D03*
X173990000Y-72898000D03*
X211455000Y-116459000D03*
X117856000Y-77978000D03*
X132969000Y-131445000D03*
X104267000Y-78359000D03*
X175006000Y-108458000D03*
X173482000Y-75449020D03*
X136562029Y-74722511D03*
X118110000Y-110744000D03*
X134874000Y-92964000D03*
X143764000Y-90424000D03*
X188214000Y-97028000D03*
X223774000Y-96012000D03*
X221742000Y-59182000D03*
X171196000Y-113051030D03*
X98425000Y-105029000D03*
X153924000Y-106934000D03*
X224282000Y-59436000D03*
X162941000Y-90053500D03*
X162169500Y-113655500D03*
X224028000Y-81026000D03*
X201422000Y-95250000D03*
X192278000Y-76941011D03*
X190246000Y-98044000D03*
X219710000Y-96520000D03*
X189484000Y-63246000D03*
X123698000Y-95631000D03*
X154940000Y-109728000D03*
X221996000Y-81026000D03*
X154686000Y-72136000D03*
X112950000Y-82931000D03*
X122936000Y-57531000D03*
X152654000Y-129159000D03*
X87122000Y-60706000D03*
X185674000Y-93218000D03*
X103251000Y-132334000D03*
X219202000Y-58674000D03*
X201930000Y-81788000D03*
X97733541Y-86118489D03*
X101600000Y-78359000D03*
X141859000Y-54991000D03*
X161802760Y-51938240D03*
X211328000Y-79248000D03*
X103124000Y-72136000D03*
X222425011Y-96520000D03*
X165770349Y-110962651D03*
X200660000Y-58674000D03*
X171186461Y-129657462D03*
X202692000Y-58674000D03*
X223149501Y-108420000D03*
X222700000Y-89420000D03*
X223099501Y-70220000D03*
X222885000Y-51435000D03*
X189700000Y-106920000D03*
X189484000Y-80324510D03*
X203700000Y-68720000D03*
X183134000Y-113284000D03*
X110490000Y-53340000D03*
X183134000Y-115062000D03*
X189700000Y-87920000D03*
X203700000Y-49820000D03*
X175100000Y-121170000D03*
X170688000Y-64008000D03*
X171196000Y-51308000D03*
X183007000Y-87249000D03*
X170513861Y-108124139D03*
X184600000Y-83120000D03*
X155956000Y-121158000D03*
X184600000Y-102220000D03*
X183642000Y-96012000D03*
X161268023Y-57679977D03*
X183642000Y-89916000D03*
X184600000Y-66482446D03*
X169630683Y-109007317D03*
X165100000Y-55626000D03*
X184658000Y-44958000D03*
X172683777Y-49566223D03*
X165600000Y-62720000D03*
X165735000Y-81915000D03*
X124460000Y-60706000D03*
X165600000Y-43630000D03*
X150368000Y-116170979D03*
X151638000Y-110924000D03*
X137000000Y-123420000D03*
X151600000Y-62720000D03*
X165600000Y-100820000D03*
X110734346Y-131772178D03*
X147066000Y-54102000D03*
X146500000Y-83120000D03*
X132500000Y-102220000D03*
X146500000Y-102220000D03*
X144145000Y-50000980D03*
X115961500Y-109075490D03*
X132080000Y-70866000D03*
X108712000Y-67818000D03*
X146500000Y-64120000D03*
X127254000Y-72898000D03*
X127500000Y-47420000D03*
X127500000Y-104520000D03*
X127500000Y-66520000D03*
X127500000Y-85520000D03*
X114046000Y-96520000D03*
X114868589Y-95443411D03*
X100210810Y-69793380D03*
X103124000Y-66294000D03*
X101600000Y-61793250D03*
X99794398Y-54239500D03*
X101854000Y-67056000D03*
X98001089Y-53805089D03*
X101600000Y-60452000D03*
X97910810Y-70243390D03*
X97790000Y-47498000D03*
X95250000Y-50038000D03*
X162400000Y-118630000D03*
X123698000Y-53848000D03*
X123952000Y-56388000D03*
X136398000Y-53340000D03*
X155194000Y-50964503D03*
X142748000Y-54102000D03*
X161717283Y-52912717D03*
X169975500Y-52578000D03*
X167523500Y-52578000D03*
X164846000Y-52832000D03*
X172698023Y-52048023D03*
X173355000Y-52832000D03*
X174854011Y-53059521D03*
X185928000Y-54864000D03*
X192532000Y-58293000D03*
X181356000Y-54102000D03*
X199910500Y-59092026D03*
X200427977Y-57382023D03*
X212725000Y-59525500D03*
X221234000Y-60960000D03*
X219202000Y-78994000D03*
X220472000Y-63500000D03*
X218694000Y-59423500D03*
X219202000Y-75946000D03*
X116078000Y-92456000D03*
X117348000Y-90424000D03*
X117462500Y-74407766D03*
X115062000Y-77978000D03*
X115062000Y-75438000D03*
X136144000Y-74041000D03*
X123698000Y-75438000D03*
X131826000Y-75438000D03*
X155448000Y-70866000D03*
X142748000Y-72263000D03*
X147574000Y-72898000D03*
X153797000Y-69850000D03*
X164846000Y-71628000D03*
X174498000Y-72009000D03*
X161798000Y-71628000D03*
X193581862Y-76233010D03*
X181102000Y-73152000D03*
X184150000Y-72898000D03*
X212471000Y-78486000D03*
X200660000Y-76962000D03*
X200660000Y-75184000D03*
X135890000Y-90678000D03*
X124206000Y-93980000D03*
X142875000Y-91186000D03*
X153035000Y-91186000D03*
X174625000Y-91313000D03*
X161798000Y-90043000D03*
X192553977Y-95482023D03*
X180340000Y-94742000D03*
X180848000Y-92202000D03*
X191516000Y-96774000D03*
X200025000Y-94500500D03*
X212746977Y-97514023D03*
X220980000Y-117602000D03*
X218948000Y-97409000D03*
X219964000Y-114046000D03*
X220726000Y-98552000D03*
X220726000Y-101092000D03*
X123952000Y-113284000D03*
X136144000Y-109474000D03*
X117292717Y-111307283D03*
X104267000Y-103378000D03*
X104521000Y-87757000D03*
X116078000Y-112268000D03*
X107950000Y-108204000D03*
X155194000Y-108839000D03*
X142748000Y-110223500D03*
X174424717Y-109039283D03*
X173228000Y-109982000D03*
X162814000Y-108204000D03*
X164985500Y-109816211D03*
X167287854Y-110402281D03*
X180721000Y-110236000D03*
X193040000Y-115443000D03*
X212471000Y-116967000D03*
X200025000Y-114935000D03*
X104648000Y-107950000D03*
X98044000Y-86868000D03*
X97254940Y-125984000D03*
X98806000Y-125984000D03*
X98099394Y-105779560D03*
X96393000Y-105791000D03*
X113284000Y-133350000D03*
X115316000Y-133350000D03*
X126746000Y-130556000D03*
X102108000Y-132334000D03*
X104394000Y-133350000D03*
X145542000Y-128270000D03*
X133096000Y-132334000D03*
X164846000Y-128524000D03*
X152146000Y-130048000D03*
X171196000Y-128524000D03*
X91948000Y-95250000D03*
X92389589Y-84769589D03*
X88138000Y-62992000D03*
X103124000Y-41402000D03*
X84328000Y-69469000D03*
X92456000Y-41910000D03*
X155448000Y-56388000D03*
X129032000Y-73660000D03*
X155194000Y-50165000D03*
X126746000Y-133350000D03*
X163830000Y-127889000D03*
X105283000Y-82804000D03*
X136144000Y-54102000D03*
X134817807Y-90613015D03*
X117856000Y-54610000D03*
X219710000Y-115570000D03*
X181610000Y-109220000D03*
X193548000Y-94500500D03*
X126238000Y-114554000D03*
X115570000Y-57658000D03*
X201422000Y-75946000D03*
X184200510Y-109220000D03*
X193421000Y-57785000D03*
X127000000Y-73914000D03*
X117221000Y-55245000D03*
X161798000Y-108839000D03*
X99072489Y-42913511D03*
X164985500Y-108712000D03*
X167386000Y-109474000D03*
X98004440Y-114554000D03*
X114554000Y-53086000D03*
X126746000Y-131445000D03*
X185657789Y-75946000D03*
X145542000Y-130556000D03*
X145796000Y-129286000D03*
X143637000Y-71247000D03*
X171704000Y-108712000D03*
X104140000Y-108966000D03*
X162433000Y-72390000D03*
X200406000Y-114046000D03*
X126394511Y-56896000D03*
X123063000Y-76708000D03*
X184912000Y-115316000D03*
X112014000Y-51308000D03*
X143764000Y-109474000D03*
X211603977Y-97006023D03*
X155483342Y-90205342D03*
X100076000Y-113792000D03*
X212240897Y-60161778D03*
X117094000Y-93472000D03*
X180594000Y-74168000D03*
X155448000Y-52832000D03*
X97028000Y-44450000D03*
X123571000Y-114681000D03*
X186182000Y-57912000D03*
X98298000Y-127000000D03*
X173101000Y-91567000D03*
X104652437Y-86968375D03*
X106703676Y-40917676D03*
X141224000Y-56449020D03*
X174117000Y-54102000D03*
X218186000Y-80264000D03*
X171958000Y-58674000D03*
X164592000Y-130302000D03*
D35*
X104013000Y-93726000D02*
X107184600Y-93726000D01*
X107184600Y-93726000D02*
X108454600Y-94996000D01*
X106553000Y-100076000D02*
X108374600Y-100076000D01*
X108374600Y-100076000D02*
X108454600Y-99996000D01*
X110363000Y-102489000D02*
X110236000Y-102616000D01*
X110363000Y-99314000D02*
X110363000Y-102489000D01*
D36*
X112950000Y-90852000D02*
X112950000Y-108124000D01*
X112950000Y-108124000D02*
X114554000Y-109728000D01*
X114731989Y-116916011D02*
X113106011Y-116916011D01*
X113106011Y-116916011D02*
X106603989Y-110413989D01*
X106603989Y-110413989D02*
X106603989Y-108788011D01*
D35*
X104267000Y-103378000D02*
X104078631Y-103189631D01*
X104078631Y-103189631D02*
X104078631Y-101408516D01*
X104078631Y-101408516D02*
X103508115Y-100838000D01*
X103508115Y-100838000D02*
X98806000Y-100838000D01*
X98806000Y-100838000D02*
X97028000Y-99060000D01*
X97028000Y-99060000D02*
X97028000Y-90551000D01*
X97028000Y-90551000D02*
X97048489Y-90571489D01*
X103230511Y-90571489D02*
X104902000Y-88900000D01*
X97048489Y-90571489D02*
X103230511Y-90571489D01*
D36*
X92267094Y-97496000D02*
X93954600Y-97496000D01*
X83439000Y-88667906D02*
X92267094Y-97496000D01*
X83439000Y-64389000D02*
X83439000Y-88667906D01*
X87122000Y-60706000D02*
X83439000Y-64389000D01*
D35*
X114800000Y-44712000D02*
X118872000Y-40640000D01*
X92202000Y-74932125D02*
X89946005Y-72676130D01*
X92202000Y-78740000D02*
X92202000Y-74932125D01*
X96266000Y-81407000D02*
X99568000Y-81407000D01*
X96139000Y-81280000D02*
X96266000Y-81407000D01*
X132592000Y-43688000D02*
X133800000Y-42480000D01*
X143365479Y-40645479D02*
X145200000Y-42480000D01*
X135634521Y-40645479D02*
X143365479Y-40645479D01*
X129692400Y-43688000D02*
X132592000Y-43688000D01*
X133800000Y-42480000D02*
X135634521Y-40645479D01*
X152900000Y-41090000D02*
X149105200Y-41090000D01*
X102428239Y-62417761D02*
X90044374Y-62417761D01*
X127000000Y-51816000D02*
X127762000Y-52578000D01*
X124206000Y-50347919D02*
X124206000Y-50428446D01*
X107442000Y-70104000D02*
X107442000Y-62484000D01*
X114554000Y-57128481D02*
X115062000Y-56620481D01*
X103505000Y-61341000D02*
X102428239Y-62417761D01*
X125593554Y-51816000D02*
X127000000Y-51816000D01*
X90044374Y-62417761D02*
X89946005Y-62516130D01*
X145745200Y-112420400D02*
X143722071Y-114443529D01*
X109728000Y-72390000D02*
X107442000Y-70104000D01*
X115062000Y-56620481D02*
X115062000Y-53848000D01*
X119516440Y-47625479D02*
X121483560Y-47625479D01*
X116586000Y-50555919D02*
X119516440Y-47625479D01*
X127231664Y-114443529D02*
X124327193Y-117348000D01*
X143722071Y-114443529D02*
X127231664Y-114443529D01*
X117094000Y-117348000D02*
X116586000Y-116840000D01*
X121483560Y-47625479D02*
X124206000Y-50347919D01*
X116586000Y-52324000D02*
X116586000Y-50555919D01*
X124327193Y-117348000D02*
X117094000Y-117348000D01*
X124206000Y-50428446D02*
X125593554Y-51816000D01*
X165275011Y-52070000D02*
X166624000Y-52070000D01*
X109982000Y-102870000D02*
X110236000Y-102616000D01*
X109982000Y-107950000D02*
X109982000Y-102870000D01*
X188480121Y-54774521D02*
X206286679Y-54774521D01*
X114554000Y-58420000D02*
X114554000Y-57128481D01*
X115062000Y-53848000D02*
X116586000Y-52324000D01*
X166614411Y-107432411D02*
X166614411Y-111001782D01*
X166614411Y-111001782D02*
X165602193Y-112014000D01*
X171900000Y-42480000D02*
X168148000Y-46232000D01*
X168148000Y-46232000D02*
X168148000Y-54864000D01*
X165602193Y-112014000D02*
X153771600Y-112014000D01*
X115062000Y-74168000D02*
X117094000Y-72136000D01*
X125780800Y-70815200D02*
X129438400Y-70815200D01*
X200505479Y-71747398D02*
X200505479Y-71981479D01*
X163993808Y-67818000D02*
X164501808Y-67310000D01*
X106934000Y-70479193D02*
X110622807Y-74168000D01*
X193644998Y-70996921D02*
X195716440Y-68925479D01*
X190954966Y-72964041D02*
X193644998Y-72964041D01*
X183163480Y-69625480D02*
X186131200Y-72593200D01*
X200505479Y-71981479D02*
X201918158Y-73394158D01*
X143510000Y-76200000D02*
X146304000Y-76200000D01*
X189075500Y-75692000D02*
X189075500Y-74843507D01*
X148844000Y-71120000D02*
X148590000Y-70866000D01*
X106934000Y-67645921D02*
X106934000Y-70479193D01*
X169599880Y-69625480D02*
X183163480Y-69625480D01*
X197683560Y-68925479D02*
X200505479Y-71747398D01*
X103349423Y-65056130D02*
X104688612Y-66395319D01*
X201918158Y-73394158D02*
X205880558Y-73394158D01*
X167589200Y-67614800D02*
X169599880Y-69625480D01*
X186131200Y-72593200D02*
X188163200Y-72593200D01*
X148590000Y-70866000D02*
X148590000Y-67818000D01*
X89946005Y-65056130D02*
X103349423Y-65056130D01*
X146304000Y-76200000D02*
X148590000Y-73914000D01*
X195716440Y-68925479D02*
X197683560Y-68925479D01*
X148590000Y-67818000D02*
X163993808Y-67818000D01*
X148590000Y-73914000D02*
X148590000Y-73660000D01*
X124968000Y-71628000D02*
X125780800Y-70815200D01*
X104688612Y-66395319D02*
X105683398Y-66395319D01*
X193644998Y-72964041D02*
X193644998Y-70996921D01*
X164501808Y-67310000D02*
X167284400Y-67310000D01*
X105683398Y-66395319D02*
X106934000Y-67645921D01*
X110622807Y-74168000D02*
X115062000Y-74168000D01*
X189075500Y-74843507D02*
X190954966Y-72964041D01*
X92651520Y-70301645D02*
X92651520Y-77919520D01*
X146050000Y-96012000D02*
X149352000Y-92710000D01*
X93091000Y-78359000D02*
X100716807Y-78359000D01*
X104399807Y-82042000D02*
X106680000Y-82042000D01*
X131076679Y-88074521D02*
X129336800Y-89814400D01*
X188722000Y-93980000D02*
X189992000Y-93980000D01*
X146773879Y-88074521D02*
X131076679Y-88074521D01*
X110236000Y-94996000D02*
X110744000Y-94996000D01*
X100716807Y-78359000D02*
X104399807Y-82042000D01*
X168351200Y-87172800D02*
X165384762Y-87172800D01*
X89946005Y-67596130D02*
X92651520Y-70301645D01*
X148945600Y-85902800D02*
X146773879Y-88074521D01*
X149352000Y-92710000D02*
X150368000Y-92710000D01*
X92651520Y-77919520D02*
X93091000Y-78359000D01*
X110744000Y-94996000D02*
X111760000Y-96012000D01*
X208051400Y-48895000D02*
X206298800Y-47142400D01*
X210185000Y-48895000D02*
X208051400Y-48895000D01*
X115316000Y-120396000D02*
X116332000Y-120396000D01*
X125613489Y-102112682D02*
X126446296Y-102945489D01*
X128921000Y-102945489D02*
X130556000Y-104580489D01*
X129286000Y-117094000D02*
X129286000Y-115316000D01*
X94234000Y-109728000D02*
X95758000Y-109728000D01*
X125613489Y-101229489D02*
X125613489Y-102112682D01*
X126446296Y-102945489D02*
X128921000Y-102945489D01*
X129540000Y-111506000D02*
X129540000Y-109220000D01*
X95758000Y-109728000D02*
X96012000Y-109982000D01*
X123444000Y-99060000D02*
X125613489Y-101229489D01*
X130556000Y-104580489D02*
X130556000Y-105410000D01*
X130302000Y-112268000D02*
X129540000Y-111506000D01*
X107696000Y-112776000D02*
X115316000Y-120396000D01*
X124121479Y-62145479D02*
X125956000Y-63980000D01*
X116634521Y-62145479D02*
X124121479Y-62145479D01*
X125956000Y-63980000D02*
X126200000Y-63980000D01*
X126200000Y-63980000D02*
X128653600Y-63980000D01*
X128653600Y-63980000D02*
X129438400Y-63195200D01*
X114800000Y-63980000D02*
X116634521Y-62145479D01*
X152900000Y-60180000D02*
X148608000Y-60180000D01*
X170414800Y-59994800D02*
X171900000Y-61480000D01*
X167589200Y-59994800D02*
X170414800Y-59994800D01*
X188163200Y-64973200D02*
X189793200Y-64973200D01*
X189793200Y-64973200D02*
X191000000Y-66180000D01*
X126619000Y-78613000D02*
X126619000Y-80645000D01*
X126619000Y-80645000D02*
X126111000Y-81153000D01*
X207752800Y-84632800D02*
X210000000Y-86880000D01*
X206197200Y-84632800D02*
X207752800Y-84632800D01*
X125267489Y-97835489D02*
X126238000Y-98806000D01*
X126238000Y-98806000D02*
X126238000Y-101854000D01*
X114800000Y-100084000D02*
X115824000Y-99060000D01*
X114800000Y-101980000D02*
X114800000Y-100084000D01*
X115824000Y-99060000D02*
X117048511Y-97835489D01*
X117048511Y-97835489D02*
X125267489Y-97835489D01*
X191000000Y-104380000D02*
X187895200Y-104380000D01*
X202205570Y-104415570D02*
X202364430Y-104415570D01*
X191000000Y-104380000D02*
X192834521Y-102545479D01*
X192834521Y-102545479D02*
X200335479Y-102545479D01*
X200335479Y-102545479D02*
X202205570Y-104415570D01*
X93969511Y-83428511D02*
X91948000Y-81407000D01*
X108454600Y-94996000D02*
X108454600Y-87024521D01*
X108454600Y-87024521D02*
X107161415Y-87024521D01*
X105336011Y-83428511D02*
X93969511Y-83428511D01*
X107161415Y-87024521D02*
X105975479Y-85838585D01*
X105975479Y-84067979D02*
X105336011Y-83428511D01*
X105975479Y-85838585D02*
X105975479Y-84067979D01*
X109355231Y-119503655D02*
X109982000Y-118876886D01*
X106584050Y-119503655D02*
X109355231Y-119503655D01*
D36*
X104645875Y-51816000D02*
X105186005Y-52356130D01*
X87626000Y-38608000D02*
X87626000Y-40374000D01*
X99316872Y-70886938D02*
X99210810Y-70993000D01*
X98042799Y-71656727D02*
X98042799Y-71392749D01*
X101600000Y-54610000D02*
X99822000Y-56388000D01*
X99822000Y-56388000D02*
X99822000Y-61214000D01*
X90932000Y-42164000D02*
X100030750Y-51262750D01*
X100607061Y-51839061D02*
X102084939Y-51839061D01*
X103759000Y-51816000D02*
X104645875Y-51816000D01*
X87626000Y-40374000D02*
X89416000Y-42164000D01*
X100030750Y-51262750D02*
X100607061Y-51839061D01*
X103735939Y-51839061D02*
X103759000Y-51816000D01*
X98042799Y-71392749D02*
X98442548Y-70993000D01*
X89416000Y-42164000D02*
X90932000Y-42164000D01*
X98442548Y-70993000D02*
X99210810Y-70993000D01*
X102084939Y-51839061D02*
X103735939Y-51839061D01*
X99316872Y-69858658D02*
X99316872Y-70886938D01*
X102084939Y-51839061D02*
X102870000Y-51839061D01*
X132428761Y-113632761D02*
X136303239Y-113632761D01*
X97294489Y-88658489D02*
X97294489Y-86557541D01*
X184912000Y-59436000D02*
X184912000Y-52832000D01*
X112950000Y-82931000D02*
X112950000Y-90852000D01*
X193548000Y-118872000D02*
X194600480Y-117819520D01*
X193089000Y-77675000D02*
X193470000Y-77675000D01*
X199898000Y-79756000D02*
X194056000Y-79756000D01*
X180594000Y-89699705D02*
X180594000Y-90170000D01*
X103124000Y-131318000D02*
X102616000Y-131318000D01*
X123444000Y-92710000D02*
X125349000Y-92710000D01*
X171273000Y-111175000D02*
X173305000Y-111175000D01*
X153791491Y-106050509D02*
X164851509Y-106050509D01*
X115666990Y-110741510D02*
X118400480Y-113475000D01*
X171273000Y-112974030D02*
X171196000Y-113051030D01*
X136525000Y-113411000D02*
X136525000Y-112050480D01*
X193470000Y-77675000D02*
X194600480Y-77675000D01*
X112950000Y-90852000D02*
X114263970Y-90852000D01*
X102141916Y-127287916D02*
X102141916Y-127849772D01*
X102616000Y-128270000D02*
X103339297Y-128993297D01*
X174994980Y-76962000D02*
X191262000Y-76962000D01*
X172942240Y-108616760D02*
X173269228Y-108289772D01*
X150622000Y-74422000D02*
X147320000Y-77724000D01*
X180594000Y-90170000D02*
X182626000Y-90170000D01*
X97395000Y-88759000D02*
X97294489Y-88658489D01*
X122394775Y-91000480D02*
X123444000Y-92049705D01*
X124354985Y-57044985D02*
X123868970Y-57531000D01*
X162938990Y-53074470D02*
X160699520Y-50835000D01*
X115666990Y-109824990D02*
X118267010Y-109824990D01*
X152844500Y-128968500D02*
X152654000Y-129159000D01*
X111345000Y-77055000D02*
X110800000Y-77600000D01*
X136769705Y-54864000D02*
X137605225Y-55699520D01*
X123429000Y-92725000D02*
X122599520Y-92725000D01*
X193040000Y-77724000D02*
X193089000Y-77675000D01*
X112180000Y-76220000D02*
X111345000Y-77055000D01*
X170307000Y-127254000D02*
X170199520Y-127361480D01*
X213650480Y-117724520D02*
X213650480Y-117375000D01*
X174994980Y-76962000D02*
X173482000Y-75449020D01*
X171958000Y-128905000D02*
X171958000Y-129886295D01*
X156464000Y-75438000D02*
X173470980Y-75438000D01*
X153568489Y-90424000D02*
X156692009Y-87300480D01*
X98753940Y-107494060D02*
X98753940Y-123899940D01*
X123444000Y-92049705D02*
X123444000Y-92710000D01*
X103339297Y-129923698D02*
X103632000Y-130216401D01*
X85344000Y-56342750D02*
X89829875Y-51856875D01*
X171958000Y-129886295D02*
X169994775Y-131849520D01*
X211328000Y-79248000D02*
X213600480Y-79248000D01*
X194600480Y-117819520D02*
X194600480Y-116930520D01*
X176824511Y-122641489D02*
X171958000Y-127508000D01*
X200660000Y-58674000D02*
X199011000Y-57025000D01*
X174837772Y-108289772D02*
X175006000Y-108458000D01*
X103104385Y-71199625D02*
X103582380Y-71677620D01*
X152648491Y-106050509D02*
X153791491Y-106050509D01*
X173305000Y-111175000D02*
X175500480Y-111175000D01*
X98753940Y-123899940D02*
X102141916Y-127287916D01*
X162052000Y-88646000D02*
X162052000Y-89154000D01*
X154686000Y-72136000D02*
X155147000Y-71675000D01*
X114650990Y-109824990D02*
X114554000Y-109728000D01*
X224282000Y-59436000D02*
X221996000Y-59436000D01*
X160706480Y-87300480D02*
X162052000Y-88646000D01*
X162169500Y-113655500D02*
X164773186Y-113655500D01*
X180594000Y-90170000D02*
X180439000Y-90325000D01*
X171938923Y-128905000D02*
X171958000Y-128905000D01*
X115105970Y-91694000D02*
X117911705Y-91694000D01*
X136303239Y-113632761D02*
X136525000Y-113411000D01*
X127000000Y-110871000D02*
X127000000Y-113347500D01*
X124236480Y-54864000D02*
X124714000Y-54864000D01*
X133281000Y-131133000D02*
X132969000Y-131445000D01*
X98310889Y-104914889D02*
X98425000Y-105029000D01*
X112200000Y-76220000D02*
X117201000Y-76220000D01*
X124714000Y-56685970D02*
X124354985Y-57044985D01*
X103251000Y-132334000D02*
X103124000Y-132207000D01*
X118110000Y-109982000D02*
X118110000Y-110744000D01*
X156464000Y-75438000D02*
X155448000Y-74422000D01*
X117655480Y-76220000D02*
X118400480Y-75475000D01*
X184658000Y-59436000D02*
X182880000Y-57658000D01*
X97294489Y-86557541D02*
X97514015Y-86338015D01*
X145224500Y-107315000D02*
X136652000Y-107315000D01*
X193223031Y-76891031D02*
X193470000Y-77138000D01*
X152978520Y-54864000D02*
X154181510Y-53661010D01*
X136652000Y-107315000D02*
X135783000Y-107315000D01*
X137400480Y-74408480D02*
X137400480Y-73406000D01*
X95368813Y-97496000D02*
X96266000Y-96598813D01*
X135913520Y-131849520D02*
X134689000Y-130625000D01*
X141912480Y-55044480D02*
X141859000Y-54991000D01*
X137400480Y-74408480D02*
X136876060Y-74408480D01*
X165735000Y-110998000D02*
X165735000Y-106934000D01*
X134712001Y-107349999D02*
X134287737Y-107349999D01*
X173269228Y-108289772D02*
X174837772Y-108289772D01*
X144053260Y-53883260D02*
X142395000Y-52225000D01*
X97904111Y-101445511D02*
X97904111Y-104914889D01*
X182816500Y-90360500D02*
X185674000Y-93218000D01*
X102562144Y-128270000D02*
X102616000Y-128270000D01*
X85344000Y-58876000D02*
X85344000Y-56342750D01*
X96661000Y-88759000D02*
X97395000Y-88759000D01*
X223266000Y-96520000D02*
X223774000Y-96012000D01*
X132192512Y-113869010D02*
X132428761Y-113632761D01*
X202692000Y-58674000D02*
X200660000Y-58674000D01*
X127000000Y-113347500D02*
X127521510Y-113869010D01*
X221996000Y-59436000D02*
X221742000Y-59182000D01*
X182816500Y-90360500D02*
X181610000Y-91567000D01*
X172942240Y-108616760D02*
X175500480Y-111175000D01*
X153791491Y-106050509D02*
X153791491Y-106801491D01*
X103104385Y-70993000D02*
X103104385Y-71199625D01*
X124714000Y-54864000D02*
X124714000Y-56685970D01*
X192327980Y-76891031D02*
X193223031Y-76891031D01*
X103104385Y-70993000D02*
X101376005Y-70993000D01*
X181610000Y-91567000D02*
X181356000Y-91567000D01*
X173305000Y-111175000D02*
X181002000Y-118872000D01*
X156692009Y-87300480D02*
X160706480Y-87300480D01*
X181002000Y-118872000D02*
X212503000Y-118872000D01*
X165770349Y-106460629D02*
X166900489Y-105330489D01*
X181638000Y-52225000D02*
X181638000Y-52550000D01*
X103124000Y-132207000D02*
X103124000Y-131318000D01*
X143764000Y-90424000D02*
X141599520Y-90424000D01*
X173482000Y-75449020D02*
X173470980Y-75438000D01*
X133281000Y-130625000D02*
X132099520Y-130625000D01*
X141912480Y-55699520D02*
X141912480Y-55044480D01*
X155147000Y-71675000D02*
X156500480Y-71675000D01*
X167253686Y-111175000D02*
X171273000Y-111175000D01*
X137400480Y-76948480D02*
X137400480Y-74408480D01*
X193040000Y-78740000D02*
X193040000Y-77724000D01*
X162938990Y-56258990D02*
X162938990Y-54485010D01*
X97904111Y-104914889D02*
X97155000Y-105664000D01*
X162938990Y-54485010D02*
X162938990Y-53074470D01*
X134287737Y-107349999D02*
X132905500Y-108732236D01*
X98753940Y-107494060D02*
X99249680Y-107989800D01*
X153606500Y-128968500D02*
X153013000Y-128375000D01*
X189484000Y-63246000D02*
X187960000Y-63246000D01*
X96266000Y-96598813D02*
X96266000Y-89154000D01*
X134689000Y-130625000D02*
X133281000Y-130625000D01*
X132428761Y-113632761D02*
X132905500Y-113156022D01*
X133663520Y-134099520D02*
X106413520Y-134099520D01*
X189230000Y-97028000D02*
X190246000Y-98044000D01*
X127521510Y-113869010D02*
X132192512Y-113869010D01*
X136876060Y-74408480D02*
X136562029Y-74722511D01*
X154940000Y-109728000D02*
X156500480Y-109728000D01*
X96266000Y-89154000D02*
X96661000Y-88759000D01*
X181638000Y-52550000D02*
X181356000Y-52832000D01*
X162052000Y-89154000D02*
X160699520Y-89154000D01*
X125953990Y-109824990D02*
X127000000Y-110871000D01*
X164338000Y-57658000D02*
X162938990Y-56258990D01*
X199011000Y-57025000D02*
X198799520Y-57025000D01*
X118267010Y-109824990D02*
X118110000Y-109982000D01*
X173990000Y-72898000D02*
X174067000Y-72975000D01*
X163022480Y-88600480D02*
X163022480Y-90088520D01*
X125349000Y-92710000D02*
X134620000Y-92710000D01*
X212931500Y-118443500D02*
X212887530Y-118443500D01*
X97155000Y-105664000D02*
X97155000Y-105895120D01*
X176824511Y-119674511D02*
X176824511Y-122641489D01*
X212931500Y-118443500D02*
X213650480Y-117724520D01*
X181638000Y-52225000D02*
X179699520Y-52225000D01*
X153791491Y-106801491D02*
X153924000Y-106934000D01*
X144053260Y-53883260D02*
X145034000Y-54864000D01*
X201930000Y-81788000D02*
X199898000Y-79756000D01*
X125349000Y-92710000D02*
X125349000Y-93980000D01*
X219202000Y-58674000D02*
X217799520Y-58674000D01*
X143764000Y-90424000D02*
X153568489Y-90424000D01*
X184912000Y-59436000D02*
X184658000Y-59436000D01*
X93954600Y-97496000D02*
X95368813Y-97496000D01*
X171186461Y-129657462D02*
X171938923Y-128905000D01*
X169655969Y-105330489D02*
X172942240Y-108616760D01*
X118605225Y-91000480D02*
X122394775Y-91000480D01*
X179494775Y-88600480D02*
X180594000Y-89699705D01*
X117201000Y-76220000D02*
X117201000Y-75291000D01*
X137605225Y-55699520D02*
X141912480Y-55699520D01*
X117856000Y-77978000D02*
X120142000Y-77978000D01*
X103632000Y-131318000D02*
X103124000Y-131318000D01*
X117911705Y-91694000D02*
X118605225Y-91000480D01*
X134620000Y-92710000D02*
X134874000Y-92964000D01*
X162990980Y-90103480D02*
X162941000Y-90053500D01*
X135230001Y-107867999D02*
X134712001Y-107349999D01*
X103582380Y-71677620D02*
X103124000Y-72136000D01*
X145034000Y-54864000D02*
X152978520Y-54864000D01*
X156487520Y-131849520D02*
X135913520Y-131849520D01*
X222425011Y-96520000D02*
X223266000Y-96520000D01*
X123868970Y-57531000D02*
X122936000Y-57531000D01*
X194056000Y-79756000D02*
X193167000Y-78867000D01*
X155448000Y-74422000D02*
X150622000Y-74422000D01*
X101600000Y-78359000D02*
X104267000Y-78359000D01*
X103632000Y-130216401D02*
X103632000Y-131318000D01*
X163007520Y-90103480D02*
X162990980Y-90103480D01*
X170199520Y-127361480D02*
X170199520Y-128375000D01*
X133281000Y-130625000D02*
X133281000Y-131133000D01*
X97904111Y-104914889D02*
X98310889Y-104914889D01*
X192278000Y-76941011D02*
X192327980Y-76891031D01*
X155005510Y-54485010D02*
X162938990Y-54485010D01*
X171958000Y-127508000D02*
X171704000Y-127254000D01*
X182880000Y-57658000D02*
X164338000Y-57658000D01*
X156487520Y-131849520D02*
X153606500Y-128968500D01*
X97395000Y-88759000D02*
X99274480Y-88759000D01*
X163022480Y-90088520D02*
X163007520Y-90103480D01*
X114650990Y-109824990D02*
X115666990Y-109824990D01*
X114263970Y-90852000D02*
X115105970Y-91694000D01*
X219710000Y-96520000D02*
X217799520Y-96520000D01*
X117201000Y-76220000D02*
X117655480Y-76220000D01*
X193470000Y-77138000D02*
X193470000Y-77675000D01*
X93954600Y-97496000D02*
X97904111Y-101445511D01*
X132905500Y-108732236D02*
X132905500Y-113156022D01*
X125349000Y-93980000D02*
X123698000Y-95631000D01*
X211455000Y-116840000D02*
X211455000Y-116459000D01*
X165770349Y-110962651D02*
X165770349Y-106460629D01*
X151320500Y-107378500D02*
X151320500Y-109093000D01*
X105667000Y-77600000D02*
X105156000Y-77089000D01*
X118267010Y-109824990D02*
X125953990Y-109824990D01*
X147320000Y-77724000D02*
X138176000Y-77724000D01*
X135913520Y-131849520D02*
X133663520Y-134099520D01*
X193130520Y-116930520D02*
X192532000Y-116332000D01*
X224028000Y-81026000D02*
X221996000Y-81026000D01*
X123997480Y-54625000D02*
X124236480Y-54864000D01*
X162605520Y-88600480D02*
X163022480Y-88600480D01*
X97514015Y-86338015D02*
X97733541Y-86118489D01*
X122599520Y-54625000D02*
X123997480Y-54625000D01*
X191262000Y-76962000D02*
X193167000Y-78867000D01*
X162052000Y-89154000D02*
X162605520Y-88600480D01*
X194600480Y-116930520D02*
X193130520Y-116930520D01*
X212887530Y-118443500D02*
X211455000Y-117010970D01*
X194600480Y-116930520D02*
X194600480Y-115875000D01*
X141912480Y-55699520D02*
X142237000Y-55699520D01*
X110800000Y-77600000D02*
X105667000Y-77600000D01*
X171704000Y-114554000D02*
X176824511Y-119674511D01*
X153013000Y-128375000D02*
X151099520Y-128375000D01*
X212503000Y-118872000D02*
X212931500Y-118443500D01*
X103339297Y-128993297D02*
X103339297Y-129923698D01*
X164773186Y-113655500D02*
X167253686Y-111175000D01*
X106413520Y-134099520D02*
X103632000Y-131318000D01*
X184912000Y-60198000D02*
X184912000Y-59436000D01*
X138176000Y-77724000D02*
X128778000Y-77724000D01*
X174067000Y-72975000D02*
X175500480Y-72975000D01*
X201422000Y-95250000D02*
X198799520Y-95250000D01*
X147574000Y-109664500D02*
X145224500Y-107315000D01*
X142395000Y-52225000D02*
X141599520Y-52225000D01*
X171273000Y-111175000D02*
X171273000Y-112974030D01*
X124714000Y-54864000D02*
X136769705Y-54864000D01*
X136652000Y-108331000D02*
X136779000Y-108458000D01*
X102141916Y-127849772D02*
X102562144Y-128270000D01*
X142237000Y-55699520D02*
X144053260Y-53883260D01*
X153606500Y-128968500D02*
X152844500Y-128968500D01*
X136525000Y-112050480D02*
X137400480Y-111175000D01*
X138176000Y-77724000D02*
X137400480Y-76948480D01*
X211455000Y-117010970D02*
X211455000Y-116840000D01*
X136652000Y-107315000D02*
X136652000Y-108331000D01*
X169994775Y-131849520D02*
X156487520Y-131849520D01*
X152648491Y-106050509D02*
X151320500Y-107378500D01*
X180439000Y-90325000D02*
X179699520Y-90325000D01*
X166900489Y-105330489D02*
X169655969Y-105330489D01*
X123444000Y-92710000D02*
X123429000Y-92725000D01*
X187960000Y-63246000D02*
X184912000Y-60198000D01*
X117201000Y-75291000D02*
X116646589Y-74736589D01*
X182626000Y-90170000D02*
X182816500Y-90360500D01*
X165735000Y-106934000D02*
X164851509Y-106050509D01*
X151320500Y-109093000D02*
X150749000Y-109664500D01*
X115666990Y-109824990D02*
X115666990Y-110741510D01*
X184912000Y-52832000D02*
X184305000Y-52225000D01*
X163022480Y-88600480D02*
X179494775Y-88600480D01*
X135783000Y-107315000D02*
X135230001Y-107867999D01*
X171704000Y-127254000D02*
X170307000Y-127254000D01*
X184305000Y-52225000D02*
X181638000Y-52225000D01*
X150749000Y-109664500D02*
X147574000Y-109664500D01*
X97155000Y-105895120D02*
X98753940Y-107494060D01*
X188214000Y-97028000D02*
X189230000Y-97028000D01*
X154181510Y-53661010D02*
X155005510Y-54485010D01*
X171958000Y-127508000D02*
X171958000Y-128905000D01*
D35*
X110490000Y-56596750D02*
X110490000Y-53340000D01*
X195375495Y-107125479D02*
X193666453Y-108834521D01*
X189700000Y-87920000D02*
X189400489Y-87620489D01*
X197683560Y-107125479D02*
X195375495Y-107125479D01*
X189865000Y-109547446D02*
X191092075Y-110774521D01*
X189738000Y-87958000D02*
X189700000Y-87920000D01*
X189738000Y-90424000D02*
X189738000Y-87958000D01*
X193666453Y-108834521D02*
X193666453Y-109255993D01*
X189865000Y-109547446D02*
X189865000Y-107085000D01*
X203700000Y-106920000D02*
X203700000Y-109382446D01*
X201957446Y-111125000D02*
X199715961Y-111125000D01*
X199715961Y-111125000D02*
X199074521Y-110483560D01*
X105664000Y-61422750D02*
X110490000Y-56596750D01*
X201207925Y-92874521D02*
X192188521Y-92874521D01*
X199074521Y-110483560D02*
X199074521Y-108516440D01*
X183134000Y-113284000D02*
X183134000Y-115062000D01*
X203700000Y-87920000D02*
X203700000Y-90382446D01*
X105664000Y-62038135D02*
X105186005Y-62516130D01*
X199074521Y-108516440D02*
X197683560Y-107125479D01*
X203700000Y-109382446D02*
X201957446Y-111125000D01*
X189865000Y-107085000D02*
X189700000Y-106920000D01*
X192147925Y-110774521D02*
X191092075Y-110774521D01*
X189400489Y-80408021D02*
X189484000Y-80324510D01*
X189400489Y-87620489D02*
X189400489Y-80408021D01*
X192188521Y-92874521D02*
X189738000Y-90424000D01*
X193666453Y-109255993D02*
X192147925Y-110774521D01*
X105664000Y-61422750D02*
X105664000Y-62038135D01*
X203700000Y-90382446D02*
X201207925Y-92874521D01*
X165100000Y-55626000D02*
X168910000Y-55626000D01*
X106386816Y-63855319D02*
X106386816Y-62655991D01*
X105186005Y-65056130D02*
X106386816Y-63855319D01*
X170362307Y-51308000D02*
X171196000Y-51308000D01*
X172466000Y-49530000D02*
X172647554Y-49530000D01*
X128300099Y-56199010D02*
X133796727Y-56199010D01*
X168910000Y-55626000D02*
X168910000Y-52760307D01*
X183642000Y-87884000D02*
X183007000Y-87249000D01*
X106386816Y-62655991D02*
X109860807Y-59182000D01*
X184600000Y-64020000D02*
X184600000Y-66482446D01*
X183642000Y-89916000D02*
X183642000Y-87884000D01*
X171196000Y-50800000D02*
X172466000Y-49530000D01*
X109860807Y-59182000D02*
X125317108Y-59182000D01*
X184600000Y-102220000D02*
X184600000Y-96970000D01*
X125317108Y-59182000D02*
X128300099Y-56199010D01*
X168910000Y-52760307D02*
X170362307Y-51308000D01*
X171196000Y-51308000D02*
X171196000Y-50800000D01*
X184600000Y-96970000D02*
X183642000Y-96012000D01*
X133796727Y-56199010D02*
X135255718Y-57658000D01*
X184600000Y-66482446D02*
X182107925Y-68974521D01*
X182107925Y-68974521D02*
X173092075Y-68974521D01*
X169630683Y-109007317D02*
X170513861Y-108124139D01*
X161246046Y-57658000D02*
X161268023Y-57679977D01*
X135255718Y-57658000D02*
X161246046Y-57658000D01*
X170688000Y-66570446D02*
X170688000Y-64008000D01*
X173092075Y-68974521D02*
X170688000Y-66570446D01*
X172647554Y-49530000D02*
X172683777Y-49566223D01*
X148274022Y-62720000D02*
X151600000Y-62720000D01*
X133610530Y-56648530D02*
X135128000Y-58166000D01*
X151638000Y-110998000D02*
X151638000Y-110924000D01*
X150368000Y-112268000D02*
X151638000Y-110998000D01*
X143720022Y-58166000D02*
X148274022Y-62720000D01*
X124460000Y-60674826D02*
X128486296Y-56648530D01*
X135128000Y-58166000D02*
X143720022Y-58166000D01*
X124460000Y-60706000D02*
X124460000Y-60674826D01*
X150368000Y-116170979D02*
X150368000Y-112268000D01*
X128486296Y-56648530D02*
X133610530Y-56648530D01*
X124709318Y-72252511D02*
X123931328Y-71474521D01*
X132715000Y-104897446D02*
X134497554Y-106680000D01*
X145600480Y-52636480D02*
X144711480Y-52636480D01*
X122874521Y-106196967D02*
X125262554Y-108585000D01*
X122874521Y-106116440D02*
X122874521Y-106196967D01*
X137125479Y-103816440D02*
X138516440Y-102425479D01*
X132715000Y-102435000D02*
X132500000Y-102220000D01*
X147066000Y-54102000D02*
X145600480Y-52636480D01*
X118125479Y-106911511D02*
X118125479Y-106116440D01*
X128132511Y-72252511D02*
X124709318Y-72252511D01*
X134497554Y-106680000D02*
X137125479Y-104052075D01*
X121483560Y-104725479D02*
X122874521Y-106116440D01*
X128676467Y-106524511D02*
X132235489Y-106524511D01*
X132080000Y-70866000D02*
X130429000Y-72517000D01*
X137125479Y-104052075D02*
X137125479Y-103816440D01*
X132715000Y-106045000D02*
X132715000Y-104897446D01*
X144145000Y-50000980D02*
X146500000Y-47645980D01*
X141874521Y-103816440D02*
X141874521Y-103896967D01*
X144052075Y-106074521D02*
X145292286Y-106074521D01*
X126615978Y-108585000D02*
X128676467Y-106524511D01*
X123931328Y-71474521D02*
X112368521Y-71474521D01*
X132715000Y-104897446D02*
X132715000Y-102435000D01*
X130429000Y-72517000D02*
X128397000Y-72517000D01*
X112368521Y-71474521D02*
X108712000Y-67818000D01*
X125262554Y-108585000D02*
X126615978Y-108585000D01*
X115961500Y-109075490D02*
X118125479Y-106911511D01*
X144711480Y-52636480D02*
X144145000Y-52070000D01*
X145292286Y-106074521D02*
X146500000Y-104866807D01*
X132235489Y-106524511D02*
X132715000Y-106045000D01*
X118125479Y-106116440D02*
X119516440Y-104725479D01*
X128397000Y-72517000D02*
X128132511Y-72252511D01*
X144145000Y-52070000D02*
X144145000Y-50000980D01*
X146500000Y-104866807D02*
X146500000Y-102220000D01*
X140483560Y-102425479D02*
X141874521Y-103816440D01*
X119516440Y-104725479D02*
X121483560Y-104725479D01*
X146500000Y-47645980D02*
X146500000Y-45020000D01*
X141874521Y-103896967D02*
X144052075Y-106074521D01*
X138516440Y-102425479D02*
X140483560Y-102425479D01*
X127906034Y-73550034D02*
X127254000Y-72898000D01*
X114868589Y-95443411D02*
X114868589Y-95697411D01*
X114868589Y-95697411D02*
X114046000Y-96520000D01*
X127906034Y-85113966D02*
X127906034Y-73550034D01*
X97392005Y-69593380D02*
X98836005Y-68149380D01*
X103124000Y-66294000D02*
X102616000Y-66294000D01*
X94611190Y-70993000D02*
X96010810Y-69593380D01*
X99359987Y-53805089D02*
X99794398Y-54239500D01*
X94110810Y-70993000D02*
X94611190Y-70993000D01*
X101600000Y-60452000D02*
X101600000Y-61793250D01*
X98001089Y-53805089D02*
X99359987Y-53805089D01*
X90424000Y-53802750D02*
X97998750Y-53802750D01*
X90424000Y-54418135D02*
X89946005Y-54896130D01*
X96010810Y-69593380D02*
X97392005Y-69593380D01*
X97998750Y-53802750D02*
X98001089Y-53805089D01*
X98836005Y-68149380D02*
X100210810Y-69524185D01*
X100210810Y-69524185D02*
X100210810Y-69793380D01*
X90424000Y-53802750D02*
X90424000Y-54418135D01*
X102616000Y-66294000D02*
X101854000Y-67056000D01*
X96864810Y-70993000D02*
X97614420Y-70243390D01*
X97614420Y-70243390D02*
X97910810Y-70243390D01*
X99014750Y-48722750D02*
X104092625Y-48722750D01*
X93827319Y-48615319D02*
X95250000Y-50038000D01*
X89104681Y-48615319D02*
X93827319Y-48615319D01*
X104092625Y-48722750D02*
X105186005Y-49816130D01*
X97790000Y-47498000D02*
X99014750Y-48722750D01*
X85344000Y-52376000D02*
X89104681Y-48615319D01*
X162400000Y-118630000D02*
X158966000Y-118630000D01*
X123952000Y-53594000D02*
X123698000Y-53848000D01*
X135001000Y-52705000D02*
X135636000Y-52070000D01*
X123952000Y-56388000D02*
X122474520Y-56388000D01*
X134112000Y-53594000D02*
X135001000Y-52705000D01*
X135636000Y-52070000D02*
X137525480Y-52070000D01*
X123952000Y-53594000D02*
X134112000Y-53594000D01*
X135636000Y-53340000D02*
X136398000Y-53340000D01*
X135001000Y-52705000D02*
X135636000Y-53340000D01*
X155323503Y-50835000D02*
X156625480Y-50835000D01*
X142748000Y-54102000D02*
X141474520Y-54102000D01*
X155194000Y-50964503D02*
X155323503Y-50835000D01*
X172168046Y-52578000D02*
X172698023Y-52048023D01*
X174854011Y-53059521D02*
X174752000Y-52957510D01*
X169975500Y-52578000D02*
X172168046Y-52578000D01*
X164846000Y-52832000D02*
X167269500Y-52832000D01*
X160677717Y-52912717D02*
X160574520Y-52809520D01*
X174752000Y-52957510D02*
X174752000Y-52832000D01*
X167269500Y-52832000D02*
X167523500Y-52578000D01*
X161717283Y-52912717D02*
X160677717Y-52912717D01*
X174752000Y-52832000D02*
X175359000Y-52225000D01*
X173355000Y-52832000D02*
X174752000Y-52832000D01*
X192278000Y-55626000D02*
X193484500Y-56832500D01*
X181356000Y-54102000D02*
X179574520Y-54102000D01*
X193677000Y-57025000D02*
X194725480Y-57025000D01*
X186182000Y-55626000D02*
X192278000Y-55626000D01*
X192532000Y-57785000D02*
X192532000Y-58293000D01*
X193484500Y-56832500D02*
X192532000Y-57785000D01*
X185928000Y-55372000D02*
X185928000Y-54864000D01*
X193484500Y-56832500D02*
X193677000Y-57025000D01*
X186182000Y-55626000D02*
X185928000Y-55372000D01*
X210820000Y-57150000D02*
X212090000Y-58420000D01*
X199641451Y-58822977D02*
X198674520Y-58822977D01*
X199910500Y-59092026D02*
X199641451Y-58822977D01*
X200660000Y-57150000D02*
X210820000Y-57150000D01*
X200660000Y-57150000D02*
X200427977Y-57382023D01*
X212725000Y-58420000D02*
X213725480Y-58420000D01*
X212725000Y-58420000D02*
X212725000Y-59525500D01*
X212090000Y-58420000D02*
X212725000Y-58420000D01*
X219021000Y-79175000D02*
X217674520Y-79175000D01*
X219202000Y-72644000D02*
X216662000Y-70104000D01*
X221234000Y-60960000D02*
X219710000Y-60960000D01*
X218948000Y-59309000D02*
X218821000Y-59309000D01*
X218808500Y-59309000D02*
X218694000Y-59423500D01*
X218948000Y-60198000D02*
X218948000Y-59309000D01*
X216662000Y-67310000D02*
X220472000Y-63500000D01*
X219202000Y-78994000D02*
X219021000Y-79175000D01*
X219202000Y-75946000D02*
X219202000Y-72644000D01*
X219329000Y-60579000D02*
X218948000Y-60198000D01*
X216662000Y-70104000D02*
X216662000Y-67310000D01*
X219710000Y-60960000D02*
X219329000Y-60579000D01*
X218821000Y-59309000D02*
X218808500Y-59309000D01*
X218948000Y-60198000D02*
X217674520Y-60198000D01*
X116078000Y-92456000D02*
X118481000Y-92456000D01*
X117348000Y-90424000D02*
X117348000Y-87630000D01*
X119126000Y-79248000D02*
X118618000Y-79248000D01*
X115062000Y-75438000D02*
X116775000Y-73725000D01*
X116775000Y-73725000D02*
X117159000Y-73725000D01*
X119888000Y-80010000D02*
X119126000Y-79248000D01*
X117159000Y-73725000D02*
X118525480Y-73725000D01*
X117348000Y-87630000D02*
X119888000Y-85090000D01*
X118618000Y-79248000D02*
X118110000Y-78740000D01*
X119888000Y-85090000D02*
X119888000Y-80010000D01*
X115824000Y-78740000D02*
X115062000Y-77978000D01*
X117159000Y-73725000D02*
X117159000Y-74104266D01*
X118110000Y-78740000D02*
X115824000Y-78740000D01*
X117159000Y-74104266D02*
X117462500Y-74407766D01*
X135128000Y-74041000D02*
X136144000Y-74041000D01*
X136701000Y-71325000D02*
X137525480Y-71325000D01*
X132588000Y-74676000D02*
X134399000Y-74676000D01*
X136144000Y-71882000D02*
X136701000Y-71325000D01*
X123698000Y-75438000D02*
X122474520Y-75438000D01*
X131826000Y-75438000D02*
X132588000Y-74676000D01*
X134399000Y-74676000D02*
X135081000Y-73994000D01*
X135081000Y-73994000D02*
X135128000Y-74041000D01*
X136144000Y-72931000D02*
X136144000Y-71882000D01*
X135081000Y-73994000D02*
X136144000Y-72931000D01*
X153797000Y-69850000D02*
X154432000Y-69850000D01*
X142621000Y-72898000D02*
X142748000Y-72771000D01*
X142621000Y-72898000D02*
X141474520Y-72898000D01*
X147574000Y-72898000D02*
X142621000Y-72898000D01*
X153797000Y-69850000D02*
X156625480Y-69850000D01*
X142748000Y-72771000D02*
X142748000Y-72263000D01*
X154432000Y-69850000D02*
X155448000Y-70866000D01*
X161798000Y-71628000D02*
X160574520Y-71628000D01*
X174371000Y-71120000D02*
X175625480Y-71120000D01*
X174371000Y-71882000D02*
X174498000Y-72009000D01*
X174371000Y-71120000D02*
X174371000Y-71882000D01*
X174244000Y-71120000D02*
X174371000Y-71120000D01*
X164846000Y-71628000D02*
X173736000Y-71628000D01*
X173736000Y-71628000D02*
X174244000Y-71120000D01*
X193548000Y-75946000D02*
X194725480Y-75946000D01*
X193177489Y-76316511D02*
X193498361Y-76316511D01*
X193498361Y-76316511D02*
X193581862Y-76233010D01*
X187568511Y-76316511D02*
X193177489Y-76316511D01*
X184150000Y-72898000D02*
X187568511Y-76316511D01*
X181102000Y-73152000D02*
X179574520Y-73152000D01*
X193177489Y-76316511D02*
X193548000Y-75946000D01*
X199898000Y-77724000D02*
X200660000Y-76962000D01*
X210058000Y-75184000D02*
X212344000Y-77470000D01*
X212344000Y-78359000D02*
X212471000Y-78486000D01*
X200660000Y-75184000D02*
X210058000Y-75184000D01*
X212344000Y-77470000D02*
X213725480Y-77470000D01*
X199898000Y-77724000D02*
X198674520Y-77724000D01*
X212344000Y-77470000D02*
X212344000Y-78359000D01*
X124206000Y-93980000D02*
X123711000Y-94475000D01*
X123711000Y-94475000D02*
X122474520Y-94475000D01*
X137397000Y-90678000D02*
X137525480Y-90549520D01*
X135890000Y-90678000D02*
X137397000Y-90678000D01*
X141474520Y-91850480D02*
X142139000Y-91186000D01*
X156625480Y-89025000D02*
X155780506Y-89025000D01*
X155780506Y-89025000D02*
X153619506Y-91186000D01*
X153619506Y-91186000D02*
X153035000Y-91186000D01*
X142139000Y-91186000D02*
X153035000Y-91186000D01*
X161925000Y-90678000D02*
X160574520Y-90678000D01*
X174089000Y-90325000D02*
X173736000Y-90678000D01*
X173736000Y-90678000D02*
X173482000Y-90678000D01*
X175625480Y-90325000D02*
X174089000Y-90325000D01*
X173482000Y-90678000D02*
X174117000Y-91313000D01*
X161925000Y-90678000D02*
X161925000Y-90170000D01*
X161925000Y-90170000D02*
X161798000Y-90043000D01*
X174117000Y-91313000D02*
X174625000Y-91313000D01*
X173482000Y-90678000D02*
X161925000Y-90678000D01*
X187452000Y-96774000D02*
X187452000Y-97536000D01*
X192911000Y-95125000D02*
X194725480Y-95125000D01*
X180848000Y-92202000D02*
X179574520Y-92202000D01*
X185674000Y-94996000D02*
X187452000Y-96774000D01*
X180594000Y-94996000D02*
X180340000Y-94742000D01*
X191516000Y-99314000D02*
X191516000Y-96774000D01*
X187452000Y-97536000D02*
X189230000Y-99314000D01*
X192553977Y-95482023D02*
X192911000Y-95125000D01*
X189230000Y-99314000D02*
X191516000Y-99314000D01*
X180594000Y-94996000D02*
X185674000Y-94996000D01*
X202184000Y-96012000D02*
X202184000Y-94742000D01*
X212366000Y-96625000D02*
X212366000Y-97133046D01*
X202184000Y-94742000D02*
X201942500Y-94500500D01*
X201942500Y-94500500D02*
X200025000Y-94500500D01*
X199313000Y-96012000D02*
X198674520Y-96650480D01*
X212195000Y-96625000D02*
X211582000Y-96012000D01*
X212366000Y-96625000D02*
X212195000Y-96625000D01*
X212366000Y-97133046D02*
X212746977Y-97514023D01*
X202184000Y-96012000D02*
X199313000Y-96012000D01*
X213725480Y-96625000D02*
X212366000Y-96625000D01*
X211582000Y-96012000D02*
X202184000Y-96012000D01*
X218948000Y-98298000D02*
X218948000Y-97409000D01*
X219964000Y-101092000D02*
X220726000Y-101092000D01*
X219555479Y-113637479D02*
X219964000Y-114046000D01*
X220980000Y-117602000D02*
X217727000Y-117602000D01*
X219555479Y-111106453D02*
X219555479Y-113637479D01*
X218694000Y-98552000D02*
X218948000Y-98298000D01*
X216154000Y-107696000D02*
X216154000Y-107704974D01*
X216154000Y-107704974D02*
X219555479Y-111106453D01*
X216154000Y-104902000D02*
X216154000Y-107696000D01*
X216154000Y-104902000D02*
X219964000Y-101092000D01*
X220726000Y-98552000D02*
X218694000Y-98552000D01*
X218694000Y-98552000D02*
X217674520Y-98552000D01*
X136144000Y-109474000D02*
X137525480Y-109474000D01*
X123952000Y-113284000D02*
X122474520Y-113284000D01*
X117710434Y-111725000D02*
X118525480Y-111725000D01*
X112014000Y-112268000D02*
X116078000Y-112268000D01*
X117292717Y-111307283D02*
X117710434Y-111725000D01*
X104521000Y-88519000D02*
X104521000Y-87757000D01*
X104902000Y-88900000D02*
X103348520Y-88900000D01*
X107950000Y-108204000D02*
X112014000Y-112268000D01*
X104902000Y-88900000D02*
X104521000Y-88519000D01*
X153653807Y-108025000D02*
X154865000Y-108025000D01*
X151188807Y-110490000D02*
X153653807Y-108025000D01*
X154865000Y-108025000D02*
X156625480Y-108025000D01*
X154865000Y-108025000D02*
X154865000Y-108510000D01*
X142748000Y-110490000D02*
X142748000Y-110223500D01*
X142748000Y-110490000D02*
X151188807Y-110490000D01*
X141474520Y-110950480D02*
X141935000Y-110490000D01*
X154865000Y-108510000D02*
X155194000Y-108839000D01*
X141935000Y-110490000D02*
X142748000Y-110490000D01*
X167287854Y-110402281D02*
X172807719Y-110402281D01*
X162814000Y-109728000D02*
X164897289Y-109728000D01*
X172807719Y-110402281D02*
X173228000Y-109982000D01*
X162052000Y-109728000D02*
X162005000Y-109775000D01*
X162052000Y-109728000D02*
X162814000Y-109728000D01*
X174810434Y-109425000D02*
X175625480Y-109425000D01*
X162005000Y-109775000D02*
X160574520Y-109775000D01*
X162814000Y-109728000D02*
X162814000Y-108204000D01*
X174424717Y-109039283D02*
X174810434Y-109425000D01*
X164897289Y-109728000D02*
X164985500Y-109816211D01*
X179574520Y-111252000D02*
X180848000Y-111252000D01*
X192532000Y-115062000D02*
X192913000Y-115443000D01*
X180848000Y-111252000D02*
X180848000Y-110363000D01*
X193469000Y-114125000D02*
X194725480Y-114125000D01*
X184287489Y-116723489D02*
X184404000Y-116840000D01*
X192913000Y-115443000D02*
X193040000Y-115443000D01*
X183642000Y-111252000D02*
X184287489Y-111897489D01*
X180848000Y-111252000D02*
X183642000Y-111252000D01*
X190754000Y-116840000D02*
X192532000Y-115062000D01*
X184287489Y-111897489D02*
X184287489Y-116723489D01*
X184404000Y-116840000D02*
X190754000Y-116840000D01*
X180848000Y-110363000D02*
X180721000Y-110236000D01*
X192532000Y-115062000D02*
X193469000Y-114125000D01*
X200279000Y-115189000D02*
X200025000Y-114935000D01*
X212090000Y-115824000D02*
X200279000Y-115824000D01*
X200279000Y-115824000D02*
X198674520Y-115824000D01*
X200279000Y-115824000D02*
X200279000Y-115189000D01*
X213775480Y-115824000D02*
X212090000Y-115824000D01*
X212090000Y-116586000D02*
X212471000Y-116967000D01*
X212090000Y-115824000D02*
X212090000Y-116586000D01*
X104648000Y-107950000D02*
X103323720Y-107950000D01*
X98044000Y-86868000D02*
X98185000Y-87009000D01*
X98185000Y-87009000D02*
X99399480Y-87009000D01*
X98099394Y-105779560D02*
X98491834Y-106172000D01*
X98491834Y-106172000D02*
X99374680Y-106172000D01*
X96774000Y-106426000D02*
X96774000Y-125984000D01*
X96393000Y-106045000D02*
X96774000Y-106426000D01*
X99568000Y-126746000D02*
X99568000Y-127254000D01*
X96393000Y-105791000D02*
X96393000Y-106045000D01*
X98806000Y-125984000D02*
X99568000Y-126746000D01*
X96774000Y-125984000D02*
X97254940Y-125984000D01*
X101981000Y-132842000D02*
X101410784Y-132842000D01*
X102616000Y-132842000D02*
X103124000Y-133350000D01*
X103124000Y-133350000D02*
X104394000Y-133350000D01*
X101410784Y-132842000D02*
X100466455Y-131897671D01*
X126746000Y-130556000D02*
X128025480Y-130556000D01*
X101981000Y-132842000D02*
X102108000Y-132715000D01*
X102108000Y-132715000D02*
X102108000Y-132334000D01*
X113284000Y-133350000D02*
X115316000Y-133350000D01*
X102616000Y-132842000D02*
X101981000Y-132842000D01*
X133096000Y-132334000D02*
X131974520Y-132334000D01*
X145542000Y-128270000D02*
X147025480Y-128270000D01*
X164846000Y-128524000D02*
X166125480Y-128524000D01*
X152146000Y-130048000D02*
X150974520Y-130048000D01*
X171196000Y-128524000D02*
X171196000Y-128764730D01*
X170074520Y-129886210D02*
X170074520Y-130125000D01*
X171196000Y-128764730D02*
X170074520Y-129886210D01*
X91186000Y-94488000D02*
X91948000Y-95250000D01*
X91186000Y-85973178D02*
X91186000Y-94488000D01*
X92389589Y-84769589D02*
X91186000Y-85973178D01*
D36*
X86106000Y-67070000D02*
X86106000Y-65024000D01*
X86106000Y-65024000D02*
X88138000Y-62992000D01*
X105186005Y-43164755D02*
X105186005Y-44736130D01*
D37*
X103124000Y-41402000D02*
X103423250Y-41402000D01*
D36*
X103423250Y-41402000D02*
X105186005Y-43164755D01*
D35*
X101630005Y-71993760D02*
X101630005Y-76073380D01*
X99344005Y-71959380D02*
X99344005Y-76039000D01*
X96804005Y-71916320D02*
X96804005Y-75975940D01*
X94264005Y-71941570D02*
X94264005Y-76041190D01*
D36*
X100838000Y-41910000D02*
X92456000Y-41910000D01*
X86106000Y-71120000D02*
X84455000Y-69469000D01*
X84455000Y-69469000D02*
X84328000Y-69469000D01*
X101818000Y-38862000D02*
X101818000Y-40930000D01*
X101818000Y-40930000D02*
X100838000Y-41910000D01*
X145663520Y-69717520D02*
X148082000Y-72136000D01*
X212090000Y-100330000D02*
X212090000Y-98298000D01*
X125771000Y-132375000D02*
X126746000Y-133350000D01*
X125476000Y-114046000D02*
X125476000Y-112014000D01*
X141273980Y-56399040D02*
X142526750Y-56399040D01*
X219710000Y-115570000D02*
X224474511Y-110805489D01*
X106603989Y-108788011D02*
X105079989Y-108788011D01*
X212598000Y-98298000D02*
X213600480Y-98298000D01*
X122571480Y-77199520D02*
X123063000Y-76708000D01*
X180744520Y-74699520D02*
X180744520Y-74318520D01*
X213360000Y-62738000D02*
X211582000Y-60960000D01*
X225044000Y-102239022D02*
X225044000Y-78486000D01*
X166139520Y-74699520D02*
X180744520Y-74699520D01*
X193421000Y-58547000D02*
X193421000Y-57785000D01*
X184912000Y-115316000D02*
X184912000Y-109931490D01*
X163830000Y-128778000D02*
X163830000Y-127889000D01*
X104652437Y-86968375D02*
X104613323Y-87007489D01*
X117094000Y-126873000D02*
X122596000Y-132375000D01*
X155448000Y-52832000D02*
X155695000Y-52585000D01*
X104209030Y-87009000D02*
X103473520Y-87009000D01*
X220218000Y-80264000D02*
X220218000Y-78486000D01*
X224474511Y-110805489D02*
X224474511Y-102808511D01*
X125476000Y-114554000D02*
X125476000Y-114046000D01*
X219665000Y-77425000D02*
X217799520Y-77425000D01*
X212090000Y-100330000D02*
X211074000Y-100330000D01*
X123968480Y-77199520D02*
X124714000Y-76454000D01*
X105079989Y-108788011D02*
X104902000Y-108966000D01*
X141599520Y-69717520D02*
X145663520Y-69717520D01*
D35*
X91399125Y-44617875D02*
X100375250Y-53594000D01*
D36*
X154843000Y-90775000D02*
X155164000Y-90775000D01*
X137155520Y-69600480D02*
X141482480Y-69600480D01*
X124714000Y-74422000D02*
X124206000Y-73914000D01*
X163830000Y-69850000D02*
X162814000Y-69850000D01*
X112302822Y-48548822D02*
X111252000Y-47498000D01*
X124968000Y-111506000D02*
X122599520Y-111506000D01*
X211582000Y-60960000D02*
X211836000Y-60706000D01*
X112760597Y-77199520D02*
X122571480Y-77199520D01*
D35*
X110231318Y-52715489D02*
X114183489Y-52715489D01*
D36*
X112201480Y-51120520D02*
X112201480Y-50292000D01*
X116599000Y-56375000D02*
X117107000Y-56375000D01*
X219710000Y-115570000D02*
X217849520Y-115570000D01*
X191262000Y-95250000D02*
X192011500Y-94500500D01*
D35*
X109352807Y-53594000D02*
X110231318Y-52715489D01*
D36*
X221996000Y-100330000D02*
X212090000Y-100330000D01*
X193087520Y-98599520D02*
X192786000Y-98298000D01*
X193040000Y-58928000D02*
X193193000Y-58775000D01*
X225044000Y-78486000D02*
X225044000Y-65786000D01*
X154178000Y-91948000D02*
X154178000Y-91440000D01*
X181864000Y-73152000D02*
X182863789Y-73152000D01*
X142537790Y-56388000D02*
X155448000Y-56388000D01*
X181864000Y-71628000D02*
X181356000Y-71120000D01*
X104613323Y-87007489D02*
X104210541Y-87007489D01*
X116586000Y-56388000D02*
X116599000Y-56375000D01*
X220218000Y-77978000D02*
X219665000Y-77425000D01*
X181610000Y-109220000D02*
X179699520Y-109220000D01*
X173609000Y-92075000D02*
X173101000Y-91567000D01*
X190741511Y-94729511D02*
X188411541Y-94729511D01*
X155164000Y-90775000D02*
X155164000Y-90524684D01*
X179699520Y-109220000D02*
X179699520Y-109425000D01*
X112201480Y-50292000D02*
X112201480Y-50195801D01*
D35*
X117856000Y-54610000D02*
X118525480Y-54610000D01*
D36*
X171704000Y-108712000D02*
X170659172Y-109756828D01*
X125476000Y-114046000D02*
X125984000Y-114554000D01*
X104055778Y-106239800D02*
X103448720Y-106239800D01*
X154178000Y-91948000D02*
X145542000Y-91948000D01*
X219582480Y-80899520D02*
X220218000Y-80264000D01*
X116586000Y-58166000D02*
X116586000Y-56388000D01*
X181864000Y-73914000D02*
X181864000Y-73152000D01*
X123941480Y-115199520D02*
X123941480Y-115051480D01*
X200406000Y-114046000D02*
X198799520Y-114046000D01*
X122596000Y-132375000D02*
X125771000Y-132375000D01*
X171958000Y-58674000D02*
X171641520Y-58357520D01*
X165100000Y-130048000D02*
X164211000Y-129159000D01*
X154545000Y-50165000D02*
X155194000Y-50165000D01*
X136525000Y-92837000D02*
X134817807Y-91129807D01*
X114731989Y-116916011D02*
X117094000Y-119278022D01*
X104902000Y-108966000D02*
X100076000Y-113792000D01*
X124206000Y-73914000D02*
X124017000Y-73725000D01*
X170659172Y-109756828D02*
X167668828Y-109756828D01*
X126197000Y-132375000D02*
X126197000Y-131994000D01*
X194209000Y-96875000D02*
X194600480Y-96875000D01*
X141482480Y-69600480D02*
X141599520Y-69717520D01*
X116448480Y-115199520D02*
X123941480Y-115199520D01*
X212267000Y-60275000D02*
X213600480Y-60275000D01*
X162820480Y-73399520D02*
X163830000Y-72390000D01*
X117665500Y-94043500D02*
X117094000Y-93472000D01*
X114731989Y-116916011D02*
X116448480Y-115199520D01*
X117094000Y-119278022D02*
X117094000Y-126873000D01*
X117665500Y-95694500D02*
X118400480Y-94959520D01*
X117665500Y-95694500D02*
X117665500Y-94043500D01*
X192011500Y-94500500D02*
X193548000Y-94500500D01*
X162814000Y-72009000D02*
X162433000Y-72390000D01*
X211836000Y-60706000D02*
X212267000Y-60275000D01*
X155695000Y-52585000D02*
X156500480Y-52585000D01*
X164985500Y-108712000D02*
X163715500Y-107442000D01*
X161036000Y-56388000D02*
X163005520Y-58357520D01*
X135636000Y-93726000D02*
X136525000Y-92837000D01*
X125476000Y-112014000D02*
X124968000Y-111506000D01*
X162814000Y-69850000D02*
X160699520Y-69850000D01*
X200358480Y-98599520D02*
X193087520Y-98599520D01*
X104902000Y-108966000D02*
X104140000Y-108966000D01*
X136144000Y-94234000D02*
X135636000Y-93726000D01*
X112302822Y-50094459D02*
X112302822Y-48548822D01*
X193040000Y-60706000D02*
X193040000Y-58928000D01*
X98004440Y-127087440D02*
X98210560Y-127087440D01*
X97028000Y-44450000D02*
X97536000Y-44450000D01*
X136525000Y-92837000D02*
X137287000Y-92075000D01*
X141599520Y-69717520D02*
X141599520Y-70606520D01*
X173482000Y-92202000D02*
X173609000Y-92075000D01*
X173482000Y-93980000D02*
X156210000Y-93980000D01*
X220218000Y-78486000D02*
X220218000Y-77978000D01*
X163830000Y-72390000D02*
X163830000Y-69850000D01*
X225044000Y-65786000D02*
X221996000Y-62738000D01*
X155164000Y-90524684D02*
X155483342Y-90205342D01*
X160699520Y-107675480D02*
X160699520Y-108025000D01*
X193040000Y-60706000D02*
X188976000Y-60706000D01*
X163830000Y-72390000D02*
X166139520Y-74699520D01*
X148082000Y-72136000D02*
X148125970Y-72136000D01*
X191262000Y-95250000D02*
X190741511Y-94729511D01*
X212267000Y-60275000D02*
X212267000Y-60187881D01*
X212471000Y-98298000D02*
X212598000Y-98298000D01*
X206375520Y-80899520D02*
X217931480Y-80899520D01*
X209930489Y-58800489D02*
X203625481Y-58800489D01*
X193087520Y-98599520D02*
X193087520Y-97075520D01*
X155695000Y-52585000D02*
X153910000Y-50800000D01*
X108505352Y-39116000D02*
X106703676Y-40917676D01*
X218186000Y-80645000D02*
X218186000Y-80264000D01*
X143637000Y-71247000D02*
X142240000Y-71247000D01*
X98004440Y-128072309D02*
X98301580Y-128369449D01*
X133096000Y-73660000D02*
X137155520Y-69600480D01*
X126197000Y-132375000D02*
X127900480Y-132375000D01*
X188976000Y-60706000D02*
X186182000Y-57912000D01*
X201957511Y-97000489D02*
X200358480Y-98599520D01*
X207744489Y-97000489D02*
X201957511Y-97000489D01*
X145973000Y-129463000D02*
X145796000Y-129286000D01*
X148125970Y-72136000D02*
X149389490Y-73399520D01*
X153910000Y-50800000D02*
X154545000Y-50165000D01*
X112201480Y-50195801D02*
X112302822Y-50094459D01*
X211836000Y-60706000D02*
X209930489Y-58800489D01*
X124206000Y-58420000D02*
X116586000Y-58420000D01*
X135636000Y-93726000D02*
X127635000Y-93726000D01*
X141224000Y-56449020D02*
X141273980Y-56399040D01*
X124017000Y-73725000D02*
X122599520Y-73725000D01*
X145973000Y-130125000D02*
X146900480Y-130125000D01*
X211074000Y-100330000D02*
X207744489Y-97000489D01*
X162814000Y-69850000D02*
X162814000Y-72009000D01*
X193193000Y-58775000D02*
X193421000Y-58547000D01*
X166000480Y-130302000D02*
X166000480Y-130125000D01*
X142526750Y-56399040D02*
X142537790Y-56388000D01*
X125730000Y-56896000D02*
X124206000Y-58420000D01*
X143256000Y-94234000D02*
X136144000Y-94234000D01*
X134817807Y-91129807D02*
X134817807Y-90613015D01*
X181078480Y-74699520D02*
X181864000Y-73914000D01*
X165100000Y-130302000D02*
X165100000Y-130048000D01*
X105283000Y-82804000D02*
X107156117Y-82804000D01*
X217931480Y-80899520D02*
X218186000Y-80645000D01*
X112014000Y-51308000D02*
X112201480Y-51120520D01*
X224474511Y-102808511D02*
X225044000Y-102239022D01*
X124714000Y-76454000D02*
X124714000Y-74422000D01*
X162306000Y-107442000D02*
X161798000Y-107950000D01*
X161798000Y-107950000D02*
X161798000Y-108839000D01*
X145542000Y-130556000D02*
X145973000Y-130125000D01*
X127635000Y-93726000D02*
X124841000Y-96520000D01*
X104210541Y-87007489D02*
X104209030Y-87009000D01*
X117107000Y-56375000D02*
X118400480Y-56375000D01*
X167668828Y-109756828D02*
X167386000Y-109474000D01*
X192786000Y-98298000D02*
X194209000Y-96875000D01*
X126197000Y-131994000D02*
X126746000Y-131445000D01*
X122571480Y-77199520D02*
X123968480Y-77199520D01*
X123941480Y-115051480D02*
X123571000Y-114681000D01*
X164592000Y-130302000D02*
X165100000Y-130302000D01*
X188411541Y-94729511D02*
X187662030Y-93980000D01*
X154178000Y-91440000D02*
X154843000Y-90775000D01*
X111506000Y-39116000D02*
X108505352Y-39116000D01*
X184912000Y-109931490D02*
X184200510Y-109220000D01*
X181356000Y-71120000D02*
X179699520Y-71120000D01*
X162306000Y-107442000D02*
X160933000Y-107442000D01*
X203625481Y-58800489D02*
X201719970Y-60706000D01*
X98004440Y-127087440D02*
X98004440Y-128072309D01*
X117107000Y-55359000D02*
X117221000Y-55245000D01*
X97536000Y-44450000D02*
X99072489Y-42913511D01*
X160933000Y-107442000D02*
X160699520Y-107675480D01*
X201719970Y-60706000D02*
X193040000Y-60706000D01*
X164211000Y-129159000D02*
X163830000Y-128778000D01*
X111506000Y-47244000D02*
X111506000Y-39116000D01*
X174117000Y-54102000D02*
X175500480Y-54102000D01*
X136144000Y-54102000D02*
X137400480Y-54102000D01*
X125771000Y-132375000D02*
X126197000Y-132375000D01*
X98210560Y-127087440D02*
X98298000Y-127000000D01*
X107156117Y-82804000D02*
X112760597Y-77199520D01*
X180744520Y-74699520D02*
X181078480Y-74699520D01*
X116586000Y-58420000D02*
X116586000Y-58166000D01*
X201422000Y-75946000D02*
X206375520Y-80899520D01*
D35*
X89946005Y-44736130D02*
X91280870Y-44736130D01*
D36*
X165100000Y-130302000D02*
X166000480Y-130302000D01*
X180744520Y-74318520D02*
X180594000Y-74168000D01*
X122599520Y-111506000D02*
X122599520Y-111725000D01*
X111252000Y-47498000D02*
X111506000Y-47244000D01*
X124841000Y-96520000D02*
X117348000Y-96520000D01*
X181864000Y-73152000D02*
X181864000Y-71628000D01*
X211603977Y-97006023D02*
X211603977Y-97430977D01*
X145542000Y-91948000D02*
X143256000Y-94234000D01*
X163005520Y-58357520D02*
X171641520Y-58357520D01*
X173482000Y-93980000D02*
X173482000Y-92202000D01*
X126394511Y-56896000D02*
X125730000Y-56896000D01*
X129032000Y-73660000D02*
X133096000Y-73660000D01*
X141599520Y-70606520D02*
X141599520Y-71325000D01*
X98004440Y-114554000D02*
X98004440Y-127087440D01*
X145973000Y-130125000D02*
X145973000Y-129463000D01*
X143764000Y-109474000D02*
X141599520Y-109474000D01*
X173609000Y-92075000D02*
X175500480Y-92075000D01*
X156210000Y-93980000D02*
X154178000Y-91948000D01*
X193193000Y-58775000D02*
X194600480Y-58775000D01*
X161036000Y-56388000D02*
X155448000Y-56388000D01*
D35*
X114183489Y-52715489D02*
X114554000Y-53086000D01*
X100375250Y-53594000D02*
X109352807Y-53594000D01*
X91280870Y-44736130D02*
X91399125Y-44617875D01*
D36*
X117348000Y-96520000D02*
X117094000Y-96266000D01*
X124206000Y-73914000D02*
X127000000Y-73914000D01*
X217931480Y-80899520D02*
X219582480Y-80899520D01*
X182863789Y-73152000D02*
X185657789Y-75946000D01*
X106603989Y-108788011D02*
X104055778Y-106239800D01*
X201422000Y-75946000D02*
X198799520Y-75946000D01*
X123941480Y-115199520D02*
X124830480Y-115199520D01*
X116078000Y-57658000D02*
X115570000Y-57658000D01*
X212090000Y-98298000D02*
X212598000Y-98298000D01*
X155164000Y-90775000D02*
X156500480Y-90775000D01*
X221996000Y-62738000D02*
X213360000Y-62738000D01*
X124830480Y-115199520D02*
X125476000Y-114554000D01*
X163715500Y-107442000D02*
X162306000Y-107442000D01*
X117107000Y-56375000D02*
X117107000Y-55359000D01*
X224474511Y-102808511D02*
X221996000Y-100330000D01*
X225044000Y-78486000D02*
X220218000Y-78486000D01*
X212267000Y-60187881D02*
X212240897Y-60161778D01*
X117094000Y-96266000D02*
X117665500Y-95694500D01*
X125984000Y-114554000D02*
X126238000Y-114554000D01*
X116586000Y-58166000D02*
X116078000Y-57658000D01*
X193087520Y-97075520D02*
X191262000Y-95250000D01*
X118400480Y-94959520D02*
X118400480Y-94475000D01*
X142240000Y-71247000D02*
X141599520Y-70606520D01*
X211603977Y-97430977D02*
X212471000Y-98298000D01*
X187662030Y-93980000D02*
X173482000Y-93980000D01*
X149389490Y-73399520D02*
X162820480Y-73399520D01*
G04 #@! TA.AperFunction,Conductor*
G36*
X93580845Y-49268821D02*
G01*
X93601820Y-49285724D01*
X94012547Y-49696452D01*
X94414751Y-50098656D01*
X94448776Y-50160968D01*
X94451054Y-50175454D01*
X94451254Y-50177492D01*
X94454163Y-50207160D01*
X94511418Y-50379273D01*
X94515065Y-50385295D01*
X94515066Y-50385297D01*
X94600981Y-50527160D01*
X94605380Y-50534424D01*
X94610269Y-50539487D01*
X94610270Y-50539488D01*
X94663838Y-50594959D01*
X94731382Y-50664902D01*
X94798497Y-50708821D01*
X94873963Y-50758204D01*
X94883159Y-50764222D01*
X94889763Y-50766678D01*
X94889765Y-50766679D01*
X95046558Y-50824990D01*
X95046560Y-50824990D01*
X95053168Y-50827448D01*
X95129492Y-50837632D01*
X95225980Y-50850507D01*
X95225984Y-50850507D01*
X95232961Y-50851438D01*
X95239972Y-50850800D01*
X95239976Y-50850800D01*
X95392558Y-50836913D01*
X95413600Y-50834998D01*
X95420302Y-50832820D01*
X95420304Y-50832820D01*
X95579409Y-50781124D01*
X95579412Y-50781123D01*
X95586108Y-50778947D01*
X95703745Y-50708821D01*
X95735860Y-50689677D01*
X95735862Y-50689676D01*
X95741912Y-50686069D01*
X95873266Y-50560982D01*
X95973643Y-50409902D01*
X95991453Y-50363017D01*
X95993016Y-50358903D01*
X96035906Y-50302326D01*
X96102575Y-50277917D01*
X96171856Y-50293427D01*
X96199899Y-50314553D01*
X99871593Y-53986247D01*
X99879137Y-53994537D01*
X99883250Y-54001018D01*
X99889027Y-54006443D01*
X99932917Y-54047658D01*
X99935750Y-54050404D01*
X99955481Y-54070135D01*
X99958623Y-54072572D01*
X99958683Y-54072619D01*
X99967695Y-54080317D01*
X99986044Y-54097547D01*
X99999929Y-54110586D01*
X100006872Y-54114403D01*
X100017681Y-54120345D01*
X100034203Y-54131198D01*
X100050209Y-54143614D01*
X100057487Y-54146764D01*
X100057488Y-54146764D01*
X100090787Y-54161174D01*
X100101437Y-54166391D01*
X100140190Y-54187695D01*
X100147865Y-54189666D01*
X100147866Y-54189666D01*
X100159812Y-54192733D01*
X100178516Y-54199137D01*
X100188710Y-54203548D01*
X100197105Y-54207181D01*
X100204928Y-54208420D01*
X100204938Y-54208423D01*
X100240774Y-54214099D01*
X100252394Y-54216505D01*
X100284209Y-54224673D01*
X100295220Y-54227500D01*
X100315474Y-54227500D01*
X100335184Y-54229051D01*
X100355193Y-54232220D01*
X100363085Y-54231474D01*
X100381830Y-54229702D01*
X100399212Y-54228059D01*
X100411069Y-54227500D01*
X100605629Y-54227500D01*
X100673750Y-54247502D01*
X100720243Y-54301158D01*
X100730347Y-54371432D01*
X100700853Y-54436012D01*
X100694724Y-54442595D01*
X99333089Y-55804230D01*
X99318677Y-55816616D01*
X99307082Y-55825149D01*
X99307079Y-55825152D01*
X99301182Y-55829492D01*
X99296443Y-55835070D01*
X99296440Y-55835073D01*
X99266965Y-55869768D01*
X99260035Y-55877284D01*
X99254340Y-55882979D01*
X99252060Y-55885861D01*
X99236719Y-55905251D01*
X99233928Y-55908655D01*
X99206053Y-55941466D01*
X99186667Y-55964285D01*
X99183339Y-55970801D01*
X99179972Y-55975850D01*
X99176805Y-55980979D01*
X99172266Y-55986716D01*
X99141345Y-56052875D01*
X99139442Y-56056769D01*
X99106231Y-56121808D01*
X99104492Y-56128916D01*
X99102393Y-56134559D01*
X99100476Y-56140322D01*
X99097378Y-56146950D01*
X99095888Y-56154112D01*
X99095888Y-56154113D01*
X99095658Y-56155221D01*
X99082815Y-56216967D01*
X99082514Y-56218412D01*
X99081544Y-56222696D01*
X99064192Y-56293610D01*
X99063500Y-56304764D01*
X99063464Y-56304762D01*
X99063225Y-56308755D01*
X99062851Y-56312947D01*
X99061360Y-56320115D01*
X99061558Y-56327432D01*
X99063454Y-56397521D01*
X99063500Y-56400928D01*
X99063500Y-60911717D01*
X99055901Y-60954812D01*
X99048832Y-60974235D01*
X99031197Y-61022685D01*
X99008463Y-61202640D01*
X99026163Y-61383160D01*
X99083418Y-61555273D01*
X99087065Y-61561295D01*
X99087066Y-61561297D01*
X99106260Y-61592990D01*
X99124439Y-61661620D01*
X99102628Y-61729183D01*
X99047752Y-61774229D01*
X98998484Y-61784261D01*
X91190498Y-61784261D01*
X91122377Y-61764259D01*
X91084706Y-61726701D01*
X91049736Y-61672645D01*
X91049734Y-61672642D01*
X91046928Y-61668305D01*
X90893673Y-61499880D01*
X90714968Y-61358748D01*
X90708340Y-61355089D01*
X90707656Y-61354399D01*
X90706136Y-61353389D01*
X90706344Y-61353075D01*
X90658368Y-61304663D01*
X90643590Y-61235221D01*
X90668701Y-61168814D01*
X90696059Y-61142199D01*
X90838694Y-61040459D01*
X90838696Y-61040457D01*
X90842898Y-61037460D01*
X91004198Y-60876722D01*
X91010453Y-60868018D01*
X91134060Y-60695999D01*
X91137078Y-60691799D01*
X91145142Y-60675484D01*
X91235678Y-60492298D01*
X91235679Y-60492296D01*
X91237972Y-60487656D01*
X91304169Y-60269776D01*
X91306969Y-60248507D01*
X91333455Y-60047331D01*
X91333456Y-60047324D01*
X91333892Y-60044009D01*
X91334255Y-60029177D01*
X91335469Y-59979495D01*
X91335469Y-59979490D01*
X91335551Y-59976130D01*
X91328040Y-59884771D01*
X91317316Y-59754332D01*
X91317315Y-59754326D01*
X91316892Y-59749181D01*
X91284411Y-59619867D01*
X91262677Y-59533338D01*
X91262676Y-59533334D01*
X91261418Y-59528327D01*
X91259359Y-59523591D01*
X91172677Y-59324236D01*
X91172675Y-59324233D01*
X91170617Y-59319499D01*
X91057118Y-59144056D01*
X91049736Y-59132645D01*
X91049734Y-59132642D01*
X91046928Y-59128305D01*
X90893673Y-58959880D01*
X90714968Y-58818748D01*
X90708340Y-58815089D01*
X90707656Y-58814399D01*
X90706136Y-58813389D01*
X90706344Y-58813075D01*
X90658368Y-58764663D01*
X90643590Y-58695221D01*
X90668701Y-58628814D01*
X90696059Y-58602199D01*
X90838694Y-58500459D01*
X90838696Y-58500457D01*
X90842898Y-58497460D01*
X91004198Y-58336722D01*
X91010453Y-58328018D01*
X91134060Y-58155999D01*
X91137078Y-58151799D01*
X91152864Y-58119860D01*
X91235678Y-57952298D01*
X91235679Y-57952296D01*
X91237972Y-57947656D01*
X91293012Y-57766498D01*
X91302667Y-57734720D01*
X91302667Y-57734719D01*
X91304169Y-57729776D01*
X91310808Y-57679347D01*
X91333455Y-57507331D01*
X91333456Y-57507324D01*
X91333892Y-57504009D01*
X91334553Y-57476976D01*
X91335469Y-57439495D01*
X91335469Y-57439490D01*
X91335551Y-57436130D01*
X91325027Y-57308131D01*
X91317316Y-57214332D01*
X91317315Y-57214326D01*
X91316892Y-57209181D01*
X91282272Y-57071350D01*
X91262677Y-56993338D01*
X91262676Y-56993334D01*
X91261418Y-56988327D01*
X91258936Y-56982619D01*
X91172677Y-56784236D01*
X91172675Y-56784233D01*
X91170617Y-56779499D01*
X91086607Y-56649639D01*
X91049736Y-56592645D01*
X91049734Y-56592642D01*
X91046928Y-56588305D01*
X90893673Y-56419880D01*
X90714968Y-56278748D01*
X90707854Y-56274821D01*
X90707011Y-56273970D01*
X90706136Y-56273389D01*
X90706256Y-56273208D01*
X90657881Y-56224391D01*
X90643105Y-56154949D01*
X90668219Y-56088543D01*
X90695573Y-56061932D01*
X90714108Y-56048711D01*
X90722509Y-56038011D01*
X90715520Y-56024855D01*
X89958817Y-55268152D01*
X89944873Y-55260538D01*
X89943040Y-55260669D01*
X89936425Y-55264920D01*
X89173515Y-56027830D01*
X89166755Y-56040210D01*
X89172036Y-56047264D01*
X89186703Y-56055835D01*
X89235427Y-56107473D01*
X89248498Y-56177256D01*
X89221767Y-56243028D01*
X89198786Y-56265383D01*
X89027584Y-56393925D01*
X89023449Y-56397030D01*
X88996115Y-56425633D01*
X88878731Y-56548469D01*
X88866125Y-56561660D01*
X88863211Y-56565932D01*
X88863210Y-56565933D01*
X88804499Y-56652001D01*
X88737802Y-56749775D01*
X88641926Y-56956322D01*
X88640544Y-56961304D01*
X88640544Y-56961305D01*
X88636265Y-56976736D01*
X88581072Y-57175755D01*
X88556874Y-57402180D01*
X88557171Y-57407332D01*
X88557171Y-57407336D01*
X88560205Y-57459959D01*
X88569982Y-57629517D01*
X88571117Y-57634554D01*
X88571118Y-57634560D01*
X88618793Y-57846111D01*
X88620044Y-57851661D01*
X88621988Y-57856447D01*
X88621989Y-57856452D01*
X88703548Y-58057307D01*
X88705716Y-58062645D01*
X88824697Y-58256804D01*
X88973791Y-58428923D01*
X89117149Y-58547941D01*
X89139792Y-58566739D01*
X89148994Y-58574379D01*
X89153445Y-58576980D01*
X89153455Y-58576987D01*
X89186271Y-58596163D01*
X89234994Y-58647802D01*
X89248064Y-58717585D01*
X89221331Y-58783357D01*
X89198358Y-58805705D01*
X89023449Y-58937030D01*
X89004673Y-58956678D01*
X88876644Y-59090653D01*
X88866125Y-59101660D01*
X88863211Y-59105932D01*
X88863210Y-59105933D01*
X88819070Y-59170640D01*
X88737802Y-59289775D01*
X88641926Y-59496322D01*
X88640544Y-59501304D01*
X88640544Y-59501305D01*
X88632781Y-59529297D01*
X88581072Y-59715755D01*
X88556874Y-59942180D01*
X88557171Y-59947332D01*
X88557171Y-59947336D01*
X88561514Y-60022650D01*
X88569982Y-60169517D01*
X88571117Y-60174554D01*
X88571118Y-60174560D01*
X88617541Y-60380553D01*
X88620044Y-60391661D01*
X88621988Y-60396447D01*
X88621989Y-60396452D01*
X88694041Y-60573893D01*
X88705716Y-60602645D01*
X88824697Y-60796804D01*
X88973791Y-60968923D01*
X89096322Y-61070650D01*
X89139792Y-61106739D01*
X89148994Y-61114379D01*
X89153445Y-61116980D01*
X89153455Y-61116987D01*
X89186271Y-61136163D01*
X89234994Y-61187802D01*
X89248064Y-61257585D01*
X89221331Y-61323357D01*
X89198358Y-61345705D01*
X89023449Y-61477030D01*
X89005848Y-61495448D01*
X88892493Y-61614068D01*
X88866125Y-61641660D01*
X88863211Y-61645932D01*
X88863210Y-61645933D01*
X88819095Y-61710603D01*
X88737802Y-61829775D01*
X88641926Y-62036322D01*
X88640544Y-62041304D01*
X88640544Y-62041305D01*
X88608223Y-62157851D01*
X88570744Y-62218149D01*
X88506615Y-62248612D01*
X88444540Y-62242878D01*
X88351160Y-62209627D01*
X88330424Y-62202243D01*
X88330422Y-62202243D01*
X88323790Y-62199881D01*
X88316802Y-62199048D01*
X88316799Y-62199047D01*
X88154179Y-62179656D01*
X88143680Y-62178404D01*
X88136677Y-62179140D01*
X88136676Y-62179140D01*
X87970288Y-62196628D01*
X87970286Y-62196629D01*
X87963288Y-62197364D01*
X87791579Y-62255818D01*
X87761643Y-62274235D01*
X87643095Y-62347166D01*
X87643092Y-62347168D01*
X87637088Y-62350862D01*
X87632053Y-62355793D01*
X87632050Y-62355795D01*
X87517983Y-62467498D01*
X87507493Y-62477771D01*
X87409235Y-62630238D01*
X87406825Y-62636860D01*
X87403692Y-62643170D01*
X87402021Y-62642340D01*
X87379269Y-62678050D01*
X85617089Y-64440230D01*
X85602677Y-64452616D01*
X85591082Y-64461149D01*
X85591077Y-64461154D01*
X85585182Y-64465492D01*
X85580443Y-64471070D01*
X85580440Y-64471073D01*
X85550965Y-64505768D01*
X85544035Y-64513284D01*
X85538340Y-64518979D01*
X85536060Y-64521861D01*
X85520719Y-64541251D01*
X85517928Y-64544655D01*
X85478452Y-64591121D01*
X85470667Y-64600285D01*
X85467339Y-64606801D01*
X85463972Y-64611850D01*
X85460805Y-64616979D01*
X85456266Y-64622716D01*
X85425345Y-64688875D01*
X85423442Y-64692769D01*
X85390231Y-64757808D01*
X85388492Y-64764916D01*
X85386393Y-64770559D01*
X85384476Y-64776322D01*
X85381378Y-64782950D01*
X85379888Y-64790112D01*
X85379888Y-64790113D01*
X85378611Y-64796254D01*
X85367366Y-64850318D01*
X85366514Y-64854412D01*
X85365544Y-64858696D01*
X85348192Y-64929610D01*
X85347500Y-64940764D01*
X85347464Y-64940762D01*
X85347225Y-64944755D01*
X85346851Y-64948947D01*
X85345360Y-64956115D01*
X85345558Y-64963432D01*
X85347454Y-65033521D01*
X85347500Y-65036928D01*
X85347500Y-65435500D01*
X85327498Y-65503621D01*
X85273842Y-65550114D01*
X85221500Y-65561500D01*
X85057866Y-65561500D01*
X84995684Y-65568255D01*
X84859295Y-65619385D01*
X84742739Y-65706739D01*
X84655385Y-65823295D01*
X84604255Y-65959684D01*
X84597500Y-66021866D01*
X84597500Y-68118134D01*
X84604255Y-68180316D01*
X84655385Y-68316705D01*
X84742739Y-68433261D01*
X84859295Y-68520615D01*
X84995684Y-68571745D01*
X85057866Y-68578500D01*
X87154134Y-68578500D01*
X87216316Y-68571745D01*
X87352705Y-68520615D01*
X87469261Y-68433261D01*
X87556615Y-68316705D01*
X87607745Y-68180316D01*
X87614500Y-68118134D01*
X87614500Y-66021866D01*
X87607745Y-65959684D01*
X87556615Y-65823295D01*
X87469261Y-65706739D01*
X87352705Y-65619385D01*
X87216316Y-65568255D01*
X87154134Y-65561500D01*
X86990500Y-65561500D01*
X86922379Y-65541498D01*
X86875886Y-65487842D01*
X86864500Y-65435500D01*
X86864500Y-65390371D01*
X86884502Y-65322250D01*
X86901405Y-65301276D01*
X88452179Y-63750502D01*
X88476753Y-63731370D01*
X88629912Y-63640069D01*
X88761266Y-63514982D01*
X88765167Y-63509110D01*
X88769691Y-63503719D01*
X88771059Y-63504867D01*
X88818469Y-63465043D01*
X88888890Y-63456018D01*
X88953011Y-63486499D01*
X88964284Y-63497949D01*
X88970400Y-63505009D01*
X88970404Y-63505013D01*
X88973791Y-63508923D01*
X89148994Y-63654379D01*
X89153445Y-63656980D01*
X89153455Y-63656987D01*
X89186271Y-63676163D01*
X89234994Y-63727802D01*
X89248064Y-63797585D01*
X89221331Y-63863357D01*
X89198358Y-63885705D01*
X89023449Y-64017030D01*
X89006597Y-64034665D01*
X88880391Y-64166732D01*
X88866125Y-64181660D01*
X88863211Y-64185932D01*
X88863210Y-64185933D01*
X88833272Y-64229821D01*
X88737802Y-64369775D01*
X88641926Y-64576322D01*
X88640544Y-64581304D01*
X88640544Y-64581305D01*
X88616198Y-64669093D01*
X88581072Y-64795755D01*
X88556874Y-65022180D01*
X88557171Y-65027332D01*
X88557171Y-65027336D01*
X88559213Y-65062750D01*
X88569982Y-65249517D01*
X88571117Y-65254554D01*
X88571118Y-65254560D01*
X88618556Y-65465060D01*
X88620044Y-65471661D01*
X88621988Y-65476447D01*
X88621989Y-65476452D01*
X88703772Y-65677858D01*
X88705716Y-65682645D01*
X88824697Y-65876804D01*
X88973791Y-66048923D01*
X89148994Y-66194379D01*
X89153445Y-66196980D01*
X89153455Y-66196987D01*
X89186271Y-66216163D01*
X89234994Y-66267802D01*
X89248064Y-66337585D01*
X89221331Y-66403357D01*
X89198358Y-66425705D01*
X89023449Y-66557030D01*
X88991014Y-66590971D01*
X88879831Y-66707318D01*
X88866125Y-66721660D01*
X88863214Y-66725928D01*
X88863210Y-66725933D01*
X88830921Y-66773267D01*
X88737802Y-66909775D01*
X88641926Y-67116322D01*
X88640544Y-67121304D01*
X88640544Y-67121305D01*
X88637038Y-67133949D01*
X88581072Y-67335755D01*
X88556874Y-67562180D01*
X88557171Y-67567332D01*
X88557171Y-67567336D01*
X88559596Y-67609386D01*
X88569982Y-67789517D01*
X88571117Y-67794554D01*
X88571118Y-67794560D01*
X88617307Y-67999516D01*
X88620044Y-68011661D01*
X88621988Y-68016447D01*
X88621989Y-68016452D01*
X88703668Y-68217601D01*
X88705716Y-68222645D01*
X88769334Y-68326460D01*
X88821995Y-68412394D01*
X88824697Y-68416804D01*
X88973791Y-68588923D01*
X89148994Y-68734379D01*
X89153445Y-68736980D01*
X89153455Y-68736987D01*
X89186271Y-68756163D01*
X89234994Y-68807802D01*
X89248064Y-68877585D01*
X89221331Y-68943357D01*
X89198358Y-68965705D01*
X89023449Y-69097030D01*
X88978643Y-69143917D01*
X88869794Y-69257821D01*
X88866125Y-69261660D01*
X88863211Y-69265932D01*
X88863210Y-69265933D01*
X88820065Y-69329182D01*
X88737802Y-69449775D01*
X88641926Y-69656322D01*
X88640544Y-69661304D01*
X88640544Y-69661305D01*
X88620159Y-69734812D01*
X88581072Y-69875755D01*
X88556874Y-70102180D01*
X88557171Y-70107332D01*
X88557171Y-70107336D01*
X88560806Y-70170377D01*
X88569982Y-70329517D01*
X88571117Y-70334554D01*
X88571118Y-70334560D01*
X88618906Y-70546612D01*
X88620044Y-70551661D01*
X88621988Y-70556447D01*
X88621989Y-70556452D01*
X88699606Y-70747598D01*
X88705716Y-70762645D01*
X88824697Y-70956804D01*
X88973791Y-71128923D01*
X89119480Y-71249876D01*
X89143379Y-71269717D01*
X89148994Y-71274379D01*
X89153445Y-71276980D01*
X89153455Y-71276987D01*
X89186271Y-71296163D01*
X89234994Y-71347802D01*
X89248064Y-71417585D01*
X89221331Y-71483357D01*
X89198358Y-71505705D01*
X89023449Y-71637030D01*
X88983551Y-71678781D01*
X88913445Y-71752143D01*
X88866125Y-71801660D01*
X88863211Y-71805932D01*
X88863210Y-71805933D01*
X88844269Y-71833700D01*
X88737802Y-71989775D01*
X88641926Y-72196322D01*
X88640544Y-72201304D01*
X88640544Y-72201305D01*
X88638203Y-72209745D01*
X88581072Y-72415755D01*
X88556874Y-72642180D01*
X88557171Y-72647332D01*
X88557171Y-72647336D01*
X88560847Y-72711090D01*
X88569982Y-72869517D01*
X88571117Y-72874554D01*
X88571118Y-72874560D01*
X88615559Y-73071759D01*
X88620044Y-73091661D01*
X88621988Y-73096447D01*
X88621989Y-73096452D01*
X88691258Y-73267039D01*
X88705716Y-73302645D01*
X88824697Y-73496804D01*
X88973791Y-73668923D01*
X89148994Y-73814379D01*
X89153446Y-73816981D01*
X89153451Y-73816984D01*
X89304615Y-73905317D01*
X89345602Y-73929268D01*
X89558334Y-74010502D01*
X89563400Y-74011533D01*
X89563401Y-74011533D01*
X89588616Y-74016663D01*
X89781477Y-74055901D01*
X89909293Y-74060588D01*
X90003875Y-74064057D01*
X90003880Y-74064057D01*
X90009039Y-74064246D01*
X90014159Y-74063590D01*
X90014161Y-74063590D01*
X90104624Y-74052001D01*
X90234908Y-74035311D01*
X90239859Y-74033826D01*
X90239862Y-74033825D01*
X90279283Y-74021998D01*
X90296956Y-74016696D01*
X90367950Y-74016280D01*
X90422257Y-74048287D01*
X91531595Y-75157625D01*
X91565621Y-75219937D01*
X91568500Y-75246720D01*
X91568500Y-78193331D01*
X91548411Y-78261586D01*
X91477054Y-78372310D01*
X91477050Y-78372319D01*
X91473235Y-78378238D01*
X91470826Y-78384858D01*
X91470825Y-78384859D01*
X91414404Y-78539873D01*
X91411197Y-78548685D01*
X91388463Y-78728640D01*
X91406163Y-78909160D01*
X91463418Y-79081273D01*
X91467065Y-79087295D01*
X91467066Y-79087297D01*
X91552000Y-79227540D01*
X91557380Y-79236424D01*
X91562269Y-79241487D01*
X91562270Y-79241488D01*
X91576174Y-79255886D01*
X91683382Y-79366902D01*
X91759270Y-79416562D01*
X91808843Y-79449001D01*
X91835159Y-79466222D01*
X91841763Y-79468678D01*
X91841765Y-79468679D01*
X91998558Y-79526990D01*
X91998560Y-79526990D01*
X92005168Y-79529448D01*
X92088995Y-79540633D01*
X92177980Y-79552507D01*
X92177984Y-79552507D01*
X92184961Y-79553438D01*
X92191972Y-79552800D01*
X92191976Y-79552800D01*
X92334459Y-79539832D01*
X92365600Y-79536998D01*
X92372302Y-79534820D01*
X92372304Y-79534820D01*
X92531409Y-79483124D01*
X92531412Y-79483123D01*
X92538108Y-79480947D01*
X92634513Y-79423478D01*
X92687860Y-79391677D01*
X92687862Y-79391676D01*
X92693912Y-79388069D01*
X92825266Y-79262982D01*
X92925643Y-79111902D01*
X92938865Y-79077095D01*
X92981754Y-79020517D01*
X93048422Y-78996108D01*
X93060612Y-78995901D01*
X93063111Y-78995980D01*
X93070943Y-78997220D01*
X93078835Y-78996474D01*
X93078836Y-78996474D01*
X93114961Y-78993059D01*
X93126819Y-78992500D01*
X100402213Y-78992500D01*
X100470334Y-79012502D01*
X100491308Y-79029405D01*
X103896150Y-82434247D01*
X103903694Y-82442537D01*
X103907807Y-82449018D01*
X103913584Y-82454443D01*
X103957474Y-82495658D01*
X103960316Y-82498413D01*
X103980038Y-82518135D01*
X103983162Y-82520558D01*
X103983166Y-82520562D01*
X103983231Y-82520612D01*
X103992252Y-82528317D01*
X104024486Y-82558586D01*
X104031433Y-82562405D01*
X104037847Y-82567065D01*
X104035886Y-82569765D01*
X104075142Y-82610023D01*
X104089359Y-82679581D01*
X104063713Y-82745784D01*
X104006346Y-82787612D01*
X103963803Y-82795011D01*
X100989657Y-82795011D01*
X100921536Y-82775009D01*
X100875043Y-82721353D01*
X100864939Y-82651079D01*
X100888831Y-82593446D01*
X100913229Y-82560892D01*
X100913230Y-82560890D01*
X100918615Y-82553705D01*
X100969745Y-82417316D01*
X100976500Y-82355134D01*
X100976500Y-80458866D01*
X100969745Y-80396684D01*
X100918615Y-80260295D01*
X100831261Y-80143739D01*
X100714705Y-80056385D01*
X100578316Y-80005255D01*
X100516134Y-79998500D01*
X98619866Y-79998500D01*
X98557684Y-80005255D01*
X98421295Y-80056385D01*
X98304739Y-80143739D01*
X98217385Y-80260295D01*
X98166255Y-80396684D01*
X98159500Y-80458866D01*
X98159500Y-80647500D01*
X98139498Y-80715621D01*
X98085842Y-80762114D01*
X98033500Y-80773500D01*
X96827959Y-80773500D01*
X96759838Y-80753498D01*
X96738553Y-80736284D01*
X96653778Y-80650915D01*
X96653774Y-80650912D01*
X96648815Y-80645918D01*
X96637697Y-80638862D01*
X96547357Y-80581531D01*
X96495666Y-80548727D01*
X96456897Y-80534922D01*
X96331425Y-80490243D01*
X96331420Y-80490242D01*
X96324790Y-80487881D01*
X96317802Y-80487048D01*
X96317799Y-80487047D01*
X96189672Y-80471769D01*
X96144680Y-80466404D01*
X96137677Y-80467140D01*
X96137676Y-80467140D01*
X95971288Y-80484628D01*
X95971286Y-80484629D01*
X95964288Y-80485364D01*
X95792579Y-80543818D01*
X95742354Y-80574717D01*
X95644095Y-80635166D01*
X95644092Y-80635168D01*
X95638088Y-80638862D01*
X95633053Y-80643793D01*
X95633050Y-80643795D01*
X95513525Y-80760843D01*
X95508493Y-80765771D01*
X95410235Y-80918238D01*
X95407826Y-80924858D01*
X95407824Y-80924861D01*
X95352236Y-81077588D01*
X95348197Y-81088685D01*
X95325463Y-81268640D01*
X95343163Y-81449160D01*
X95400418Y-81621273D01*
X95404065Y-81627295D01*
X95404066Y-81627297D01*
X95489000Y-81767540D01*
X95494380Y-81776424D01*
X95499269Y-81781487D01*
X95499270Y-81781488D01*
X95576121Y-81861068D01*
X95620382Y-81906902D01*
X95659439Y-81932460D01*
X95747886Y-81990338D01*
X95772159Y-82006222D01*
X95778763Y-82008678D01*
X95778765Y-82008679D01*
X95935558Y-82066990D01*
X95935560Y-82066990D01*
X95942168Y-82069448D01*
X96025995Y-82080633D01*
X96114980Y-82092507D01*
X96114984Y-82092507D01*
X96121961Y-82093438D01*
X96128972Y-82092800D01*
X96128976Y-82092800D01*
X96271459Y-82079832D01*
X96302600Y-82076998D01*
X96309300Y-82074821D01*
X96309305Y-82074820D01*
X96395950Y-82046667D01*
X96434886Y-82040500D01*
X98033500Y-82040500D01*
X98101621Y-82060502D01*
X98148114Y-82114158D01*
X98159500Y-82166500D01*
X98159500Y-82355134D01*
X98166255Y-82417316D01*
X98217385Y-82553705D01*
X98222770Y-82560890D01*
X98222771Y-82560892D01*
X98247169Y-82593446D01*
X98272017Y-82659953D01*
X98256964Y-82729335D01*
X98206789Y-82779565D01*
X98146343Y-82795011D01*
X94284106Y-82795011D01*
X94215985Y-82775009D01*
X94195011Y-82758106D01*
X93339299Y-81902394D01*
X93305273Y-81840082D01*
X93307836Y-81776672D01*
X93329408Y-81705671D01*
X93359640Y-81476041D01*
X93359920Y-81464584D01*
X93361245Y-81410365D01*
X93361245Y-81410361D01*
X93361327Y-81407000D01*
X93353312Y-81309509D01*
X93342773Y-81181318D01*
X93342772Y-81181312D01*
X93342349Y-81176167D01*
X93306034Y-81031592D01*
X93287184Y-80956544D01*
X93287183Y-80956540D01*
X93285925Y-80951533D01*
X93283866Y-80946797D01*
X93195630Y-80743868D01*
X93195628Y-80743865D01*
X93193570Y-80739131D01*
X93067764Y-80544665D01*
X93058517Y-80534502D01*
X92986602Y-80455469D01*
X92911887Y-80373358D01*
X92907836Y-80370159D01*
X92907832Y-80370155D01*
X92734177Y-80233011D01*
X92734172Y-80233008D01*
X92730123Y-80229810D01*
X92725607Y-80227317D01*
X92725604Y-80227315D01*
X92531879Y-80120373D01*
X92531875Y-80120371D01*
X92527355Y-80117876D01*
X92522486Y-80116152D01*
X92522482Y-80116150D01*
X92313903Y-80042288D01*
X92313899Y-80042287D01*
X92309028Y-80040562D01*
X92303935Y-80039655D01*
X92303932Y-80039654D01*
X92086095Y-80000851D01*
X92086089Y-80000850D01*
X92081006Y-79999945D01*
X92008096Y-79999054D01*
X91854581Y-79997179D01*
X91854579Y-79997179D01*
X91849411Y-79997116D01*
X91620464Y-80032150D01*
X91400314Y-80104106D01*
X91395726Y-80106494D01*
X91395722Y-80106496D01*
X91203749Y-80206431D01*
X91194872Y-80211052D01*
X91190739Y-80214155D01*
X91190736Y-80214157D01*
X91018778Y-80343267D01*
X91009655Y-80350117D01*
X91006083Y-80353855D01*
X90875748Y-80490243D01*
X90849639Y-80517564D01*
X90846725Y-80521836D01*
X90846724Y-80521837D01*
X90833279Y-80541547D01*
X90719119Y-80708899D01*
X90621602Y-80918981D01*
X90559707Y-81142169D01*
X90535095Y-81372469D01*
X90535392Y-81377622D01*
X90535392Y-81377625D01*
X90547181Y-81582081D01*
X90548427Y-81603697D01*
X90549564Y-81608743D01*
X90549565Y-81608749D01*
X90578527Y-81737259D01*
X90599346Y-81829642D01*
X90601288Y-81834424D01*
X90601289Y-81834428D01*
X90684540Y-82039450D01*
X90686484Y-82044237D01*
X90807501Y-82241719D01*
X90959147Y-82416784D01*
X91090591Y-82525911D01*
X91129949Y-82558586D01*
X91137349Y-82564730D01*
X91337322Y-82681584D01*
X91553694Y-82764209D01*
X91558760Y-82765240D01*
X91558761Y-82765240D01*
X91563401Y-82766184D01*
X91780656Y-82810385D01*
X91911324Y-82815176D01*
X92006949Y-82818683D01*
X92006953Y-82818683D01*
X92012113Y-82818872D01*
X92017233Y-82818216D01*
X92017235Y-82818216D01*
X92236719Y-82790099D01*
X92236720Y-82790099D01*
X92241847Y-82789442D01*
X92246798Y-82787957D01*
X92246801Y-82787956D01*
X92317985Y-82766600D01*
X92388980Y-82766184D01*
X92443287Y-82798191D01*
X93465854Y-83820758D01*
X93473398Y-83829048D01*
X93477511Y-83835529D01*
X93483288Y-83840954D01*
X93527178Y-83882169D01*
X93530020Y-83884924D01*
X93549741Y-83904645D01*
X93552936Y-83907123D01*
X93561958Y-83914829D01*
X93594190Y-83945097D01*
X93601139Y-83948917D01*
X93611943Y-83954857D01*
X93628467Y-83965710D01*
X93644470Y-83978124D01*
X93685054Y-83995687D01*
X93695684Y-84000894D01*
X93734451Y-84022206D01*
X93742128Y-84024177D01*
X93742133Y-84024179D01*
X93754069Y-84027243D01*
X93772777Y-84033648D01*
X93791366Y-84041692D01*
X93799194Y-84042932D01*
X93799201Y-84042934D01*
X93835035Y-84048610D01*
X93846655Y-84051016D01*
X93881800Y-84060039D01*
X93889481Y-84062011D01*
X93909735Y-84062011D01*
X93929445Y-84063562D01*
X93949454Y-84066731D01*
X93957346Y-84065985D01*
X93993472Y-84062570D01*
X94005330Y-84062011D01*
X105021417Y-84062011D01*
X105089538Y-84082013D01*
X105110512Y-84098916D01*
X105305074Y-84293478D01*
X105339100Y-84355790D01*
X105341979Y-84382573D01*
X105341979Y-85759818D01*
X105341452Y-85771001D01*
X105339777Y-85778494D01*
X105340026Y-85786420D01*
X105340026Y-85786421D01*
X105341917Y-85846571D01*
X105341979Y-85850530D01*
X105341979Y-85878441D01*
X105342476Y-85882375D01*
X105342476Y-85882376D01*
X105342484Y-85882441D01*
X105343417Y-85894278D01*
X105344806Y-85938474D01*
X105349775Y-85955577D01*
X105350457Y-85957924D01*
X105354466Y-85977285D01*
X105357005Y-85997382D01*
X105359924Y-86004753D01*
X105359924Y-86004755D01*
X105373283Y-86038497D01*
X105377128Y-86049727D01*
X105378395Y-86054089D01*
X105389461Y-86092178D01*
X105393494Y-86098997D01*
X105393496Y-86099002D01*
X105399772Y-86109613D01*
X105408467Y-86127361D01*
X105415927Y-86146202D01*
X105420589Y-86152618D01*
X105420589Y-86152619D01*
X105441915Y-86181972D01*
X105448431Y-86191892D01*
X105466150Y-86221852D01*
X105470937Y-86229947D01*
X105485258Y-86244268D01*
X105498098Y-86259301D01*
X105510007Y-86275692D01*
X105536760Y-86297824D01*
X105544084Y-86303883D01*
X105552863Y-86311873D01*
X106657763Y-87416774D01*
X106665303Y-87425060D01*
X106669415Y-87431539D01*
X106675192Y-87436964D01*
X106680846Y-87442273D01*
X106716942Y-87476169D01*
X106719066Y-87478164D01*
X106721908Y-87480919D01*
X106741645Y-87500656D01*
X106744842Y-87503136D01*
X106753862Y-87510839D01*
X106786094Y-87541107D01*
X106793040Y-87544926D01*
X106793043Y-87544928D01*
X106803849Y-87550869D01*
X106820368Y-87561720D01*
X106836374Y-87574135D01*
X106843643Y-87577280D01*
X106843647Y-87577283D01*
X106876952Y-87591695D01*
X106887602Y-87596912D01*
X106926355Y-87618216D01*
X106934030Y-87620187D01*
X106934031Y-87620187D01*
X106945977Y-87623254D01*
X106964681Y-87629658D01*
X106973486Y-87633468D01*
X106983270Y-87637702D01*
X106991093Y-87638941D01*
X106991103Y-87638944D01*
X107026939Y-87644620D01*
X107038559Y-87647026D01*
X107073704Y-87656049D01*
X107081385Y-87658021D01*
X107101639Y-87658021D01*
X107121349Y-87659572D01*
X107141358Y-87662741D01*
X107149250Y-87661995D01*
X107185376Y-87658580D01*
X107197234Y-87658021D01*
X107695100Y-87658021D01*
X107763221Y-87678023D01*
X107809714Y-87731679D01*
X107821100Y-87784021D01*
X107821100Y-93162405D01*
X107801098Y-93230526D01*
X107747442Y-93277019D01*
X107677168Y-93287123D01*
X107612588Y-93257629D01*
X107608805Y-93254107D01*
X107607175Y-93252670D01*
X107604370Y-93249865D01*
X107601173Y-93247385D01*
X107592151Y-93239680D01*
X107589667Y-93237347D01*
X107559921Y-93209414D01*
X107552975Y-93205595D01*
X107552972Y-93205593D01*
X107542166Y-93199652D01*
X107525647Y-93188801D01*
X107521216Y-93185364D01*
X107509641Y-93176386D01*
X107502372Y-93173241D01*
X107502368Y-93173238D01*
X107469063Y-93158826D01*
X107458413Y-93153609D01*
X107419660Y-93132305D01*
X107400037Y-93127267D01*
X107381334Y-93120863D01*
X107370020Y-93115967D01*
X107370019Y-93115967D01*
X107362745Y-93112819D01*
X107354922Y-93111580D01*
X107354912Y-93111577D01*
X107319076Y-93105901D01*
X107307456Y-93103495D01*
X107272311Y-93094472D01*
X107272310Y-93094472D01*
X107264630Y-93092500D01*
X107244376Y-93092500D01*
X107224665Y-93090949D01*
X107212486Y-93089020D01*
X107204657Y-93087780D01*
X107196765Y-93088526D01*
X107160639Y-93091941D01*
X107148781Y-93092500D01*
X105575815Y-93092500D01*
X105507694Y-93072498D01*
X105459407Y-93014720D01*
X105452512Y-92998075D01*
X105452511Y-92998073D01*
X105450616Y-92993498D01*
X105318328Y-92777624D01*
X105153898Y-92585102D01*
X105139743Y-92573012D01*
X105123943Y-92559518D01*
X104961376Y-92420672D01*
X104745502Y-92288384D01*
X104740932Y-92286491D01*
X104740928Y-92286489D01*
X104516164Y-92193389D01*
X104516162Y-92193388D01*
X104511591Y-92191495D01*
X104404888Y-92165878D01*
X104270216Y-92133546D01*
X104270210Y-92133545D01*
X104265403Y-92132391D01*
X104013000Y-92112526D01*
X103760597Y-92132391D01*
X103755790Y-92133545D01*
X103755784Y-92133546D01*
X103729332Y-92139897D01*
X103714557Y-92143444D01*
X103643650Y-92139897D01*
X103585916Y-92098577D01*
X103559686Y-92032604D01*
X103559274Y-92015209D01*
X103560019Y-91998800D01*
X103567086Y-91843183D01*
X103566402Y-91837271D01*
X103539767Y-91607071D01*
X103539766Y-91607067D01*
X103539185Y-91602044D01*
X103536941Y-91594112D01*
X103474466Y-91373331D01*
X103473090Y-91368468D01*
X103470956Y-91363891D01*
X103470952Y-91363881D01*
X103446647Y-91311759D01*
X103435986Y-91241568D01*
X103464966Y-91176755D01*
X103496689Y-91150065D01*
X103501527Y-91147203D01*
X103519287Y-91138501D01*
X103538128Y-91131041D01*
X103548420Y-91123564D01*
X103573898Y-91105053D01*
X103583818Y-91098537D01*
X103615046Y-91080069D01*
X103615049Y-91080067D01*
X103621873Y-91076031D01*
X103636194Y-91061710D01*
X103651228Y-91048869D01*
X103653086Y-91047519D01*
X103667618Y-91036961D01*
X103695809Y-91002884D01*
X103703799Y-90994105D01*
X105299184Y-89398720D01*
X105317454Y-89383604D01*
X105324270Y-89378972D01*
X105329345Y-89373216D01*
X105329809Y-89372844D01*
X105332495Y-89370399D01*
X105332899Y-89369982D01*
X105339107Y-89365472D01*
X105367298Y-89331395D01*
X105375288Y-89322616D01*
X105378134Y-89319770D01*
X105380559Y-89316644D01*
X105380564Y-89316638D01*
X105387933Y-89307137D01*
X105392982Y-89301034D01*
X105424875Y-89264859D01*
X105424877Y-89264856D01*
X105430120Y-89258909D01*
X105433602Y-89252074D01*
X105433958Y-89251601D01*
X105435950Y-89248567D01*
X105436241Y-89248057D01*
X105441133Y-89242144D01*
X105444400Y-89235201D01*
X105444729Y-89234733D01*
X105446632Y-89231628D01*
X105446909Y-89231106D01*
X105451613Y-89225041D01*
X105473922Y-89173487D01*
X105477285Y-89166341D01*
X105499185Y-89123361D01*
X105502785Y-89116296D01*
X105504459Y-89108807D01*
X105504686Y-89108259D01*
X105505858Y-89104837D01*
X105506015Y-89104263D01*
X105509283Y-89097318D01*
X105510721Y-89089781D01*
X105510926Y-89089237D01*
X105512000Y-89085746D01*
X105512136Y-89085182D01*
X105515181Y-89078145D01*
X105517229Y-89065213D01*
X105523967Y-89022671D01*
X105525450Y-89014896D01*
X105537701Y-88960091D01*
X105537460Y-88952419D01*
X105537543Y-88951834D01*
X105537828Y-88948205D01*
X105537837Y-88947632D01*
X105539275Y-88940094D01*
X105538793Y-88932432D01*
X105538856Y-88931857D01*
X105539028Y-88928213D01*
X105539019Y-88927634D01*
X105540219Y-88920057D01*
X105539473Y-88912163D01*
X105534935Y-88864149D01*
X105534438Y-88856252D01*
X105532922Y-88808032D01*
X105532673Y-88800110D01*
X105530533Y-88792742D01*
X105530467Y-88792147D01*
X105529847Y-88788594D01*
X105529707Y-88788012D01*
X105529225Y-88780350D01*
X105526853Y-88773051D01*
X105526771Y-88772474D01*
X105526033Y-88768908D01*
X105525878Y-88768343D01*
X105525157Y-88760708D01*
X105519476Y-88744926D01*
X105506134Y-88707868D01*
X105503688Y-88700342D01*
X105503448Y-88699516D01*
X105488018Y-88646406D01*
X105484113Y-88639803D01*
X105483903Y-88639248D01*
X105482410Y-88635941D01*
X105482134Y-88635420D01*
X105479764Y-88628125D01*
X105475653Y-88621647D01*
X105475427Y-88621101D01*
X105473830Y-88617841D01*
X105473537Y-88617328D01*
X105470939Y-88610111D01*
X105439372Y-88563662D01*
X105435142Y-88556997D01*
X105410581Y-88515466D01*
X105410579Y-88515464D01*
X105406542Y-88508637D01*
X105401115Y-88503210D01*
X105400777Y-88502729D01*
X105398508Y-88499896D01*
X105398111Y-88499460D01*
X105394000Y-88492982D01*
X105388402Y-88487725D01*
X105388047Y-88487252D01*
X105385696Y-88484499D01*
X105385283Y-88484073D01*
X105380972Y-88477730D01*
X105338853Y-88440597D01*
X105333083Y-88435178D01*
X105230611Y-88332706D01*
X105196585Y-88270394D01*
X105201650Y-88199579D01*
X105214757Y-88173885D01*
X105240743Y-88134772D01*
X105244643Y-88128902D01*
X105309055Y-87959338D01*
X105310263Y-87950746D01*
X105333748Y-87783639D01*
X105333748Y-87783636D01*
X105334299Y-87779717D01*
X105334616Y-87757000D01*
X105314397Y-87576745D01*
X105302150Y-87541576D01*
X105298638Y-87470667D01*
X105316193Y-87430414D01*
X105321107Y-87423019D01*
X105376080Y-87340277D01*
X105431113Y-87195404D01*
X105437992Y-87177295D01*
X105437993Y-87177293D01*
X105440492Y-87170713D01*
X105444050Y-87145398D01*
X105465185Y-86995014D01*
X105465185Y-86995011D01*
X105465736Y-86991092D01*
X105465889Y-86980113D01*
X105465998Y-86972337D01*
X105465998Y-86972332D01*
X105466053Y-86968375D01*
X105445834Y-86788120D01*
X105440248Y-86772078D01*
X105388501Y-86623481D01*
X105388499Y-86623478D01*
X105386182Y-86616823D01*
X105365442Y-86583632D01*
X105293796Y-86468973D01*
X105290063Y-86462999D01*
X105284797Y-86457696D01*
X105167215Y-86339290D01*
X105167211Y-86339287D01*
X105162252Y-86334293D01*
X105136883Y-86318193D01*
X105094583Y-86291349D01*
X105009103Y-86237102D01*
X104959348Y-86219385D01*
X104844862Y-86178618D01*
X104844857Y-86178617D01*
X104838227Y-86176256D01*
X104831239Y-86175423D01*
X104831236Y-86175422D01*
X104708135Y-86160743D01*
X104658117Y-86154779D01*
X104651114Y-86155515D01*
X104651113Y-86155515D01*
X104484725Y-86173003D01*
X104484723Y-86173004D01*
X104477725Y-86173739D01*
X104415406Y-86194954D01*
X104344474Y-86197972D01*
X104299236Y-86176502D01*
X104248892Y-86138771D01*
X104248890Y-86138770D01*
X104241705Y-86133385D01*
X104105316Y-86082255D01*
X104043134Y-86075500D01*
X103758000Y-86075500D01*
X103689879Y-86055498D01*
X103643386Y-86001842D01*
X103632000Y-85949500D01*
X103632000Y-85678702D01*
X103632002Y-85677932D01*
X103632263Y-85635157D01*
X103632476Y-85600348D01*
X103630010Y-85591719D01*
X103630009Y-85591714D01*
X103624361Y-85571952D01*
X103620783Y-85555191D01*
X103617870Y-85534848D01*
X103617867Y-85534838D01*
X103616595Y-85525955D01*
X103605979Y-85502605D01*
X103599536Y-85485093D01*
X103594954Y-85469063D01*
X103592488Y-85460435D01*
X103576726Y-85435452D01*
X103568596Y-85420386D01*
X103556367Y-85393490D01*
X103539626Y-85374061D01*
X103528521Y-85359053D01*
X103519630Y-85344961D01*
X103514840Y-85337369D01*
X103492703Y-85317818D01*
X103480659Y-85305626D01*
X103480501Y-85305442D01*
X103476928Y-85301296D01*
X103467239Y-85290051D01*
X103467237Y-85290050D01*
X103461381Y-85283253D01*
X103453853Y-85278374D01*
X103453850Y-85278371D01*
X103439861Y-85269304D01*
X103424987Y-85258014D01*
X103412502Y-85246988D01*
X103405772Y-85241044D01*
X103397646Y-85237229D01*
X103397645Y-85237228D01*
X103391979Y-85234568D01*
X103379034Y-85228490D01*
X103364065Y-85220176D01*
X103339273Y-85204107D01*
X103314709Y-85196761D01*
X103297264Y-85190099D01*
X103292827Y-85188016D01*
X103274052Y-85179201D01*
X103244870Y-85174657D01*
X103228151Y-85170874D01*
X103208464Y-85164986D01*
X103208461Y-85164985D01*
X103199859Y-85162413D01*
X103190884Y-85162358D01*
X103190883Y-85162358D01*
X103184190Y-85162317D01*
X103165444Y-85162203D01*
X103164672Y-85162170D01*
X103163577Y-85162000D01*
X103132702Y-85162000D01*
X103131932Y-85161998D01*
X103058284Y-85161548D01*
X103058283Y-85161548D01*
X103054348Y-85161524D01*
X103053004Y-85161908D01*
X103051659Y-85162000D01*
X99632702Y-85162000D01*
X99631932Y-85161998D01*
X99631078Y-85161993D01*
X99554348Y-85161524D01*
X99545719Y-85163990D01*
X99545714Y-85163991D01*
X99525952Y-85169639D01*
X99509191Y-85173217D01*
X99488848Y-85176130D01*
X99488838Y-85176133D01*
X99479955Y-85177405D01*
X99456605Y-85188021D01*
X99439093Y-85194464D01*
X99431057Y-85196761D01*
X99414435Y-85201512D01*
X99389452Y-85217274D01*
X99374386Y-85225404D01*
X99347490Y-85237633D01*
X99328061Y-85254374D01*
X99313053Y-85265479D01*
X99291369Y-85279160D01*
X99285427Y-85285888D01*
X99271819Y-85301296D01*
X99259626Y-85313341D01*
X99246026Y-85325060D01*
X99237253Y-85332619D01*
X99232374Y-85340147D01*
X99232371Y-85340150D01*
X99223304Y-85354139D01*
X99212014Y-85369013D01*
X99208836Y-85372612D01*
X99195044Y-85388228D01*
X99191229Y-85396354D01*
X99191228Y-85396355D01*
X99191174Y-85396471D01*
X99182490Y-85414966D01*
X99174176Y-85429935D01*
X99158107Y-85454727D01*
X99155535Y-85463327D01*
X99150761Y-85479290D01*
X99144099Y-85496736D01*
X99133201Y-85519948D01*
X99128708Y-85548805D01*
X99128658Y-85549128D01*
X99124874Y-85565849D01*
X99118986Y-85585536D01*
X99118985Y-85585539D01*
X99116413Y-85594141D01*
X99116206Y-85628127D01*
X99116203Y-85628546D01*
X99116170Y-85629328D01*
X99116000Y-85630423D01*
X99116000Y-85661298D01*
X99115998Y-85662068D01*
X99115787Y-85696686D01*
X99115524Y-85739652D01*
X99115908Y-85740996D01*
X99116000Y-85742341D01*
X99116000Y-85949500D01*
X99095998Y-86017621D01*
X99042342Y-86064114D01*
X98990000Y-86075500D01*
X98846866Y-86075500D01*
X98784684Y-86082255D01*
X98777288Y-86085027D01*
X98777282Y-86085029D01*
X98704260Y-86112404D01*
X98633453Y-86117587D01*
X98571084Y-86083666D01*
X98536955Y-86021410D01*
X98534816Y-86008467D01*
X98527723Y-85945233D01*
X98526938Y-85938234D01*
X98524264Y-85930555D01*
X98469605Y-85773595D01*
X98469603Y-85773592D01*
X98467286Y-85766937D01*
X98454075Y-85745794D01*
X98374900Y-85619087D01*
X98371167Y-85613113D01*
X98352327Y-85594141D01*
X98248319Y-85489404D01*
X98248315Y-85489401D01*
X98243356Y-85484407D01*
X98232503Y-85477519D01*
X98184079Y-85446789D01*
X98090207Y-85387216D01*
X98054420Y-85374473D01*
X97925966Y-85328732D01*
X97925961Y-85328731D01*
X97919331Y-85326370D01*
X97912343Y-85325537D01*
X97912340Y-85325536D01*
X97789110Y-85310842D01*
X97739221Y-85304893D01*
X97732218Y-85305629D01*
X97732217Y-85305629D01*
X97565829Y-85323117D01*
X97565827Y-85323118D01*
X97558829Y-85323853D01*
X97387120Y-85382307D01*
X97334045Y-85414959D01*
X97238636Y-85473655D01*
X97238633Y-85473657D01*
X97232629Y-85477351D01*
X97227594Y-85482282D01*
X97227591Y-85482284D01*
X97108066Y-85599332D01*
X97103034Y-85604260D01*
X97004776Y-85756727D01*
X97002366Y-85763349D01*
X96999233Y-85769659D01*
X96997562Y-85768829D01*
X96974810Y-85804539D01*
X96805578Y-85973771D01*
X96791166Y-85986157D01*
X96779571Y-85994690D01*
X96779566Y-85994695D01*
X96773671Y-85999033D01*
X96768932Y-86004611D01*
X96768929Y-86004614D01*
X96739454Y-86039309D01*
X96732524Y-86046825D01*
X96726829Y-86052520D01*
X96724549Y-86055402D01*
X96709208Y-86074792D01*
X96706417Y-86078196D01*
X96672186Y-86118489D01*
X96659156Y-86133826D01*
X96655828Y-86140342D01*
X96652461Y-86145391D01*
X96649294Y-86150520D01*
X96644755Y-86156257D01*
X96613834Y-86222416D01*
X96611946Y-86226280D01*
X96578720Y-86291349D01*
X96576981Y-86298457D01*
X96574882Y-86304100D01*
X96572965Y-86309863D01*
X96569867Y-86316491D01*
X96556516Y-86380681D01*
X96555003Y-86387953D01*
X96554033Y-86392237D01*
X96536681Y-86463151D01*
X96536333Y-86468753D01*
X96536333Y-86468756D01*
X96535989Y-86474303D01*
X96535989Y-86474305D01*
X96535953Y-86474303D01*
X96535714Y-86478296D01*
X96535340Y-86482488D01*
X96533849Y-86489656D01*
X96534047Y-86496973D01*
X96535943Y-86567062D01*
X96535989Y-86570469D01*
X96535989Y-87909118D01*
X96515987Y-87977239D01*
X96462331Y-88023732D01*
X96452991Y-88027553D01*
X96416691Y-88040729D01*
X96412545Y-88042152D01*
X96350064Y-88062393D01*
X96350062Y-88062394D01*
X96343101Y-88064649D01*
X96336846Y-88068445D01*
X96331372Y-88070951D01*
X96325942Y-88073670D01*
X96319063Y-88076167D01*
X96312943Y-88080180D01*
X96312942Y-88080180D01*
X96304733Y-88085562D01*
X96258016Y-88116191D01*
X96254327Y-88118518D01*
X96248033Y-88122338D01*
X96196693Y-88153491D01*
X96196688Y-88153495D01*
X96191892Y-88156405D01*
X96183516Y-88163803D01*
X96183493Y-88163777D01*
X96180503Y-88166426D01*
X96177264Y-88169134D01*
X96171148Y-88173144D01*
X96166121Y-88178451D01*
X96166117Y-88178454D01*
X96117872Y-88229383D01*
X96115494Y-88231825D01*
X95777089Y-88570230D01*
X95762677Y-88582616D01*
X95751082Y-88591149D01*
X95751077Y-88591154D01*
X95745182Y-88595492D01*
X95740443Y-88601070D01*
X95740440Y-88601073D01*
X95710965Y-88635768D01*
X95704035Y-88643284D01*
X95698340Y-88648979D01*
X95696060Y-88651861D01*
X95680719Y-88671251D01*
X95677928Y-88674655D01*
X95640940Y-88718193D01*
X95630667Y-88730285D01*
X95627339Y-88736801D01*
X95623972Y-88741850D01*
X95620804Y-88746980D01*
X95616266Y-88752716D01*
X95585345Y-88818875D01*
X95583442Y-88822769D01*
X95550231Y-88887808D01*
X95548492Y-88894916D01*
X95546393Y-88900559D01*
X95544476Y-88906322D01*
X95541378Y-88912950D01*
X95539888Y-88920112D01*
X95539888Y-88920113D01*
X95526514Y-88984412D01*
X95525544Y-88988696D01*
X95508192Y-89059610D01*
X95507500Y-89070764D01*
X95507464Y-89070762D01*
X95507225Y-89074755D01*
X95506851Y-89078947D01*
X95505360Y-89086115D01*
X95506190Y-89116806D01*
X95507454Y-89163521D01*
X95507500Y-89166928D01*
X95507500Y-93522975D01*
X95487498Y-93591096D01*
X95433842Y-93637589D01*
X95363568Y-93647693D01*
X95305935Y-93623801D01*
X95282123Y-93605955D01*
X95201305Y-93545385D01*
X95064916Y-93494255D01*
X95002734Y-93487500D01*
X92906466Y-93487500D01*
X92844284Y-93494255D01*
X92707895Y-93545385D01*
X92591339Y-93632739D01*
X92503985Y-93749295D01*
X92452855Y-93885684D01*
X92446100Y-93947866D01*
X92446100Y-94390473D01*
X92426098Y-94458594D01*
X92372442Y-94505087D01*
X92302168Y-94515191D01*
X92277833Y-94509172D01*
X92183531Y-94475593D01*
X92133790Y-94457881D01*
X92084007Y-94451945D01*
X92018734Y-94424018D01*
X92009830Y-94415926D01*
X91856404Y-94262499D01*
X91822379Y-94200187D01*
X91819500Y-94173404D01*
X91819500Y-86287772D01*
X91839502Y-86219651D01*
X91856405Y-86198677D01*
X92449766Y-85605316D01*
X92512078Y-85571290D01*
X92527426Y-85568932D01*
X92553189Y-85566587D01*
X92559891Y-85564409D01*
X92559893Y-85564409D01*
X92718998Y-85512713D01*
X92719001Y-85512712D01*
X92725697Y-85510536D01*
X92881501Y-85417658D01*
X93012855Y-85292571D01*
X93113232Y-85141491D01*
X93172262Y-84986095D01*
X93175144Y-84978509D01*
X93175145Y-84978507D01*
X93177644Y-84971927D01*
X93178624Y-84964955D01*
X93202337Y-84796228D01*
X93202337Y-84796225D01*
X93202888Y-84792306D01*
X93203205Y-84769589D01*
X93182986Y-84589334D01*
X93180669Y-84582680D01*
X93125653Y-84424695D01*
X93125651Y-84424692D01*
X93123334Y-84418037D01*
X93027215Y-84264213D01*
X93009266Y-84246138D01*
X92904367Y-84140504D01*
X92904363Y-84140501D01*
X92899404Y-84135507D01*
X92888286Y-84128451D01*
X92816959Y-84083186D01*
X92746255Y-84038316D01*
X92706554Y-84024179D01*
X92582014Y-83979832D01*
X92582009Y-83979831D01*
X92575379Y-83977470D01*
X92568391Y-83976637D01*
X92568388Y-83976636D01*
X92425803Y-83959634D01*
X92395269Y-83955993D01*
X92388266Y-83956729D01*
X92388265Y-83956729D01*
X92221877Y-83974217D01*
X92221875Y-83974218D01*
X92214877Y-83974953D01*
X92043168Y-84033407D01*
X91989001Y-84066731D01*
X91894684Y-84124755D01*
X91894681Y-84124757D01*
X91888677Y-84128451D01*
X91883642Y-84133382D01*
X91883639Y-84133384D01*
X91772542Y-84242179D01*
X91759082Y-84255360D01*
X91660824Y-84407827D01*
X91658415Y-84414447D01*
X91658413Y-84414450D01*
X91615057Y-84533569D01*
X91598786Y-84578274D01*
X91591727Y-84634156D01*
X91563346Y-84699230D01*
X91555816Y-84707458D01*
X91169368Y-85093905D01*
X90793742Y-85469531D01*
X90785463Y-85477065D01*
X90778982Y-85481178D01*
X90740171Y-85522508D01*
X90732357Y-85530829D01*
X90729602Y-85533671D01*
X90709865Y-85553408D01*
X90707385Y-85556605D01*
X90699682Y-85565625D01*
X90669414Y-85597857D01*
X90665595Y-85604803D01*
X90665593Y-85604806D01*
X90659652Y-85615612D01*
X90648801Y-85632131D01*
X90636386Y-85648137D01*
X90633241Y-85655406D01*
X90633238Y-85655410D01*
X90618826Y-85688715D01*
X90613609Y-85699365D01*
X90592305Y-85738118D01*
X90590334Y-85745793D01*
X90590334Y-85745794D01*
X90587267Y-85757740D01*
X90580863Y-85776444D01*
X90572819Y-85795033D01*
X90571580Y-85802856D01*
X90571577Y-85802866D01*
X90565901Y-85838702D01*
X90563495Y-85850322D01*
X90556276Y-85878441D01*
X90552500Y-85893148D01*
X90552500Y-85913402D01*
X90550949Y-85933112D01*
X90547780Y-85953121D01*
X90548526Y-85961013D01*
X90551941Y-85997139D01*
X90552500Y-86008997D01*
X90552500Y-94404535D01*
X90532498Y-94472656D01*
X90478842Y-94519149D01*
X90408568Y-94529253D01*
X90343988Y-94499759D01*
X90337405Y-94493630D01*
X84234405Y-88390630D01*
X84200379Y-88328318D01*
X84197500Y-88301535D01*
X84197500Y-86146892D01*
X84217502Y-86078771D01*
X84271158Y-86032278D01*
X84341432Y-86022174D01*
X84406012Y-86051668D01*
X84427301Y-86075481D01*
X84429558Y-86079335D01*
X84432411Y-86082902D01*
X84432412Y-86082904D01*
X84593898Y-86284831D01*
X84601816Y-86294732D01*
X84605157Y-86297853D01*
X84798320Y-86478296D01*
X84803364Y-86483008D01*
X85029979Y-86640216D01*
X85034055Y-86642244D01*
X85034057Y-86642245D01*
X85272827Y-86761032D01*
X85272830Y-86761033D01*
X85276914Y-86763065D01*
X85538998Y-86848980D01*
X85543489Y-86849760D01*
X85543490Y-86849760D01*
X85806957Y-86895506D01*
X85806965Y-86895507D01*
X85810738Y-86896162D01*
X85814575Y-86896353D01*
X85896305Y-86900422D01*
X85896313Y-86900422D01*
X85897876Y-86900500D01*
X86070070Y-86900500D01*
X86072338Y-86900335D01*
X86072350Y-86900335D01*
X86206603Y-86890594D01*
X86275083Y-86885625D01*
X86279538Y-86884641D01*
X86279541Y-86884641D01*
X86539947Y-86827148D01*
X86539950Y-86827147D01*
X86544403Y-86826164D01*
X86802319Y-86728449D01*
X86823281Y-86716806D01*
X87039435Y-86596743D01*
X87039436Y-86596742D01*
X87043428Y-86594525D01*
X87195724Y-86478296D01*
X87259046Y-86429970D01*
X87259047Y-86429969D01*
X87262678Y-86427198D01*
X87265873Y-86423930D01*
X87452283Y-86233242D01*
X87452287Y-86233237D01*
X87455477Y-86229974D01*
X87459341Y-86224666D01*
X87615100Y-86010676D01*
X87615102Y-86010673D01*
X87617787Y-86006984D01*
X87746206Y-85762899D01*
X87838045Y-85502832D01*
X87863230Y-85375053D01*
X87890499Y-85236704D01*
X87890500Y-85236698D01*
X87891380Y-85232232D01*
X87891897Y-85221853D01*
X87904867Y-84961336D01*
X87904867Y-84961330D01*
X87905094Y-84956767D01*
X87878898Y-84682208D01*
X87877613Y-84676954D01*
X87814429Y-84418744D01*
X87813343Y-84414306D01*
X87709801Y-84158674D01*
X87707500Y-84154744D01*
X87707497Y-84154738D01*
X87572745Y-83924597D01*
X87572740Y-83924590D01*
X87570442Y-83920665D01*
X87555002Y-83901358D01*
X87401036Y-83708834D01*
X87401035Y-83708833D01*
X87398184Y-83705268D01*
X87284594Y-83599158D01*
X87199972Y-83520108D01*
X87199969Y-83520106D01*
X87196636Y-83516992D01*
X86970021Y-83359784D01*
X86937643Y-83343676D01*
X86727173Y-83238968D01*
X86727170Y-83238967D01*
X86723086Y-83236935D01*
X86461002Y-83151020D01*
X86456510Y-83150240D01*
X86193043Y-83104494D01*
X86193035Y-83104493D01*
X86189262Y-83103838D01*
X86179029Y-83103329D01*
X86103695Y-83099578D01*
X86103687Y-83099578D01*
X86102124Y-83099500D01*
X85929930Y-83099500D01*
X85927662Y-83099665D01*
X85927650Y-83099665D01*
X85793397Y-83109406D01*
X85724917Y-83114375D01*
X85720462Y-83115359D01*
X85720459Y-83115359D01*
X85460053Y-83172852D01*
X85460050Y-83172853D01*
X85455597Y-83173836D01*
X85197681Y-83271551D01*
X85193694Y-83273765D01*
X85193693Y-83273766D01*
X84962184Y-83402358D01*
X84956572Y-83405475D01*
X84737322Y-83572802D01*
X84734129Y-83576068D01*
X84734127Y-83576070D01*
X84547717Y-83766758D01*
X84547713Y-83766763D01*
X84544523Y-83770026D01*
X84541836Y-83773718D01*
X84541834Y-83773720D01*
X84425371Y-83933723D01*
X84369111Y-83977028D01*
X84298369Y-83983041D01*
X84235607Y-83949855D01*
X84200750Y-83888004D01*
X84197500Y-83859573D01*
X84197500Y-70588371D01*
X84217502Y-70520250D01*
X84271158Y-70473757D01*
X84341432Y-70463653D01*
X84406012Y-70493147D01*
X84412595Y-70499276D01*
X84560595Y-70647276D01*
X84594621Y-70709588D01*
X84597500Y-70736371D01*
X84597500Y-72168134D01*
X84604255Y-72230316D01*
X84655385Y-72366705D01*
X84742739Y-72483261D01*
X84859295Y-72570615D01*
X84995684Y-72621745D01*
X85057866Y-72628500D01*
X87154134Y-72628500D01*
X87216316Y-72621745D01*
X87352705Y-72570615D01*
X87469261Y-72483261D01*
X87556615Y-72366705D01*
X87607745Y-72230316D01*
X87614500Y-72168134D01*
X87614500Y-70071866D01*
X87607745Y-70009684D01*
X87556615Y-69873295D01*
X87469261Y-69756739D01*
X87352705Y-69669385D01*
X87216316Y-69618255D01*
X87154134Y-69611500D01*
X85722371Y-69611500D01*
X85654250Y-69591498D01*
X85633276Y-69574595D01*
X85038770Y-68980089D01*
X85026384Y-68965677D01*
X85017851Y-68954082D01*
X85017846Y-68954077D01*
X85013508Y-68948182D01*
X85007930Y-68943443D01*
X85007927Y-68943440D01*
X84973232Y-68913965D01*
X84965716Y-68907035D01*
X84960021Y-68901340D01*
X84951421Y-68894536D01*
X84937749Y-68883719D01*
X84934345Y-68880928D01*
X84884297Y-68838409D01*
X84884295Y-68838408D01*
X84878715Y-68833667D01*
X84872199Y-68830339D01*
X84867150Y-68826972D01*
X84862021Y-68823805D01*
X84856284Y-68819266D01*
X84790125Y-68788345D01*
X84786225Y-68786439D01*
X84727708Y-68756558D01*
X84727706Y-68756557D01*
X84721192Y-68753231D01*
X84714088Y-68751493D01*
X84707288Y-68748964D01*
X84695979Y-68744117D01*
X84690608Y-68741497D01*
X84684666Y-68737727D01*
X84678037Y-68735367D01*
X84678034Y-68735365D01*
X84520425Y-68679243D01*
X84520420Y-68679242D01*
X84513790Y-68676881D01*
X84506802Y-68676048D01*
X84506799Y-68676047D01*
X84376064Y-68660458D01*
X84333680Y-68655404D01*
X84326675Y-68656140D01*
X84322622Y-68656112D01*
X84254642Y-68635635D01*
X84208524Y-68581657D01*
X84197500Y-68530115D01*
X84197500Y-64755371D01*
X84217502Y-64687250D01*
X84234405Y-64666276D01*
X87436179Y-61464502D01*
X87460753Y-61445370D01*
X87613912Y-61354069D01*
X87745266Y-61228982D01*
X87845643Y-61077902D01*
X87895481Y-60946705D01*
X87907555Y-60914920D01*
X87907556Y-60914918D01*
X87910055Y-60908338D01*
X87911035Y-60901366D01*
X87934748Y-60732639D01*
X87934748Y-60732636D01*
X87935299Y-60728717D01*
X87935616Y-60706000D01*
X87915397Y-60525745D01*
X87911968Y-60515899D01*
X87858064Y-60361106D01*
X87858062Y-60361103D01*
X87855745Y-60354448D01*
X87812895Y-60285873D01*
X87763359Y-60206598D01*
X87759626Y-60200624D01*
X87754605Y-60195568D01*
X87636778Y-60076915D01*
X87636774Y-60076912D01*
X87631815Y-60071918D01*
X87620697Y-60064862D01*
X87540454Y-60013939D01*
X87478666Y-59974727D01*
X87426788Y-59956254D01*
X87314425Y-59916243D01*
X87314420Y-59916242D01*
X87307790Y-59913881D01*
X87300802Y-59913048D01*
X87300799Y-59913047D01*
X87177698Y-59898368D01*
X87127680Y-59892404D01*
X87120677Y-59893140D01*
X87120676Y-59893140D01*
X87077307Y-59897698D01*
X87016582Y-59904081D01*
X86946744Y-59891309D01*
X86894898Y-59842807D01*
X86877503Y-59773974D01*
X86892477Y-59719389D01*
X86893733Y-59717437D01*
X87001083Y-59479129D01*
X87014234Y-59432500D01*
X87070760Y-59232076D01*
X87070761Y-59232073D01*
X87072030Y-59227572D01*
X87089007Y-59094118D01*
X87104616Y-58971421D01*
X87104616Y-58971417D01*
X87105014Y-58968291D01*
X87105135Y-58963699D01*
X87106637Y-58906318D01*
X87107431Y-58876000D01*
X87103246Y-58819684D01*
X87088407Y-58620000D01*
X87088406Y-58619996D01*
X87088061Y-58615348D01*
X87082052Y-58588789D01*
X87034957Y-58380663D01*
X87030377Y-58360423D01*
X87021160Y-58336722D01*
X86937340Y-58121176D01*
X86937339Y-58121173D01*
X86935647Y-58116823D01*
X86916295Y-58082963D01*
X86817675Y-57910415D01*
X86805951Y-57889902D01*
X86644138Y-57684643D01*
X86453763Y-57505557D01*
X86239009Y-57356576D01*
X86234825Y-57354512D01*
X86234817Y-57354508D01*
X86172772Y-57323911D01*
X86120523Y-57275843D01*
X86102500Y-57210905D01*
X86102500Y-56709121D01*
X86122502Y-56641000D01*
X86139405Y-56620026D01*
X88418908Y-54340523D01*
X88481220Y-54306497D01*
X88552035Y-54311562D01*
X88608871Y-54354109D01*
X88633682Y-54420629D01*
X88629420Y-54463290D01*
X88582947Y-54630866D01*
X88581016Y-54640986D01*
X88557925Y-54857060D01*
X88557673Y-54867349D01*
X88570181Y-55084280D01*
X88571617Y-55094500D01*
X88619387Y-55306469D01*
X88622466Y-55316297D01*
X88704220Y-55517632D01*
X88708863Y-55526823D01*
X88793339Y-55664676D01*
X88803795Y-55674136D01*
X88812573Y-55670352D01*
X89585663Y-54897262D01*
X90310413Y-54897262D01*
X90310544Y-54899095D01*
X90314795Y-54905710D01*
X91075325Y-55666240D01*
X91087335Y-55672799D01*
X91099074Y-55663831D01*
X91133630Y-55615741D01*
X91138941Y-55606902D01*
X91235211Y-55412113D01*
X91239010Y-55402517D01*
X91302175Y-55194621D01*
X91304354Y-55184540D01*
X91332954Y-54967305D01*
X91333473Y-54960632D01*
X91334967Y-54899495D01*
X91334773Y-54892776D01*
X91316821Y-54674424D01*
X91315136Y-54664244D01*
X91262201Y-54453501D01*
X91258881Y-54443750D01*
X91172234Y-54244473D01*
X91167367Y-54235398D01*
X91098088Y-54128308D01*
X91087403Y-54119105D01*
X91077836Y-54123509D01*
X90318027Y-54883318D01*
X90310413Y-54897262D01*
X89585663Y-54897262D01*
X90718120Y-53764805D01*
X90725141Y-53751949D01*
X90717612Y-53741616D01*
X90710166Y-53736669D01*
X90707885Y-53735410D01*
X90707142Y-53734660D01*
X90705858Y-53733807D01*
X90706034Y-53733542D01*
X90657913Y-53684979D01*
X90643139Y-53615536D01*
X90668254Y-53549130D01*
X90695607Y-53522521D01*
X90842898Y-53417460D01*
X91004198Y-53256722D01*
X91023924Y-53229271D01*
X91134060Y-53075999D01*
X91137078Y-53071799D01*
X91140037Y-53065813D01*
X91235678Y-52872298D01*
X91235679Y-52872296D01*
X91237972Y-52867656D01*
X91283897Y-52716500D01*
X91302667Y-52654720D01*
X91302667Y-52654719D01*
X91304169Y-52649776D01*
X91306969Y-52628509D01*
X91333455Y-52427331D01*
X91333456Y-52427324D01*
X91333892Y-52424009D01*
X91333974Y-52420657D01*
X91335469Y-52359495D01*
X91335469Y-52359490D01*
X91335551Y-52356130D01*
X91326351Y-52244227D01*
X91317316Y-52134332D01*
X91317315Y-52134326D01*
X91316892Y-52129181D01*
X91285193Y-52002980D01*
X91262677Y-51913338D01*
X91262676Y-51913334D01*
X91261418Y-51908327D01*
X91251569Y-51885675D01*
X91172677Y-51704236D01*
X91172675Y-51704233D01*
X91170617Y-51699499D01*
X91074447Y-51550843D01*
X91049736Y-51512645D01*
X91049734Y-51512642D01*
X91046928Y-51508305D01*
X90893673Y-51339880D01*
X90714968Y-51198748D01*
X90708340Y-51195089D01*
X90707656Y-51194399D01*
X90706136Y-51193389D01*
X90706344Y-51193075D01*
X90658368Y-51144663D01*
X90643590Y-51075221D01*
X90668701Y-51008814D01*
X90696059Y-50982199D01*
X90838694Y-50880459D01*
X90838696Y-50880457D01*
X90842898Y-50877460D01*
X91004198Y-50716722D01*
X91009876Y-50708821D01*
X91134060Y-50535999D01*
X91137078Y-50531799D01*
X91142836Y-50520150D01*
X91235678Y-50332298D01*
X91235679Y-50332296D01*
X91237972Y-50327656D01*
X91283827Y-50176731D01*
X91302667Y-50114720D01*
X91302667Y-50114719D01*
X91304169Y-50109776D01*
X91305633Y-50098656D01*
X91333455Y-49887331D01*
X91333456Y-49887324D01*
X91333892Y-49884009D01*
X91334367Y-49864576D01*
X91335469Y-49819495D01*
X91335469Y-49819490D01*
X91335551Y-49816130D01*
X91326532Y-49706431D01*
X91317316Y-49594332D01*
X91317315Y-49594326D01*
X91316892Y-49589181D01*
X91291020Y-49486177D01*
X91270759Y-49405514D01*
X91273564Y-49334573D01*
X91314277Y-49276409D01*
X91379972Y-49249490D01*
X91392963Y-49248819D01*
X93512724Y-49248819D01*
X93580845Y-49268821D01*
G37*
G04 #@! TD.AperFunction*
G04 #@! TA.AperFunction,Conductor*
G36*
X103102950Y-65709632D02*
G01*
X103123924Y-65726535D01*
X104037529Y-66640140D01*
X104071555Y-66702452D01*
X104066490Y-66773267D01*
X104052526Y-66800234D01*
X103977802Y-66909775D01*
X103881926Y-67116322D01*
X103880544Y-67121304D01*
X103880544Y-67121305D01*
X103877038Y-67133949D01*
X103821072Y-67335755D01*
X103796874Y-67562180D01*
X103797171Y-67567332D01*
X103797171Y-67567336D01*
X103799596Y-67609386D01*
X103809982Y-67789517D01*
X103811117Y-67794554D01*
X103811118Y-67794560D01*
X103857307Y-67999516D01*
X103860044Y-68011661D01*
X103861988Y-68016447D01*
X103861989Y-68016452D01*
X103943668Y-68217601D01*
X103945716Y-68222645D01*
X104009334Y-68326460D01*
X104061995Y-68412394D01*
X104064697Y-68416804D01*
X104213791Y-68588923D01*
X104388994Y-68734379D01*
X104393445Y-68736980D01*
X104393455Y-68736987D01*
X104426271Y-68756163D01*
X104474994Y-68807802D01*
X104488064Y-68877585D01*
X104461331Y-68943357D01*
X104438358Y-68965705D01*
X104263449Y-69097030D01*
X104218643Y-69143917D01*
X104109794Y-69257821D01*
X104106125Y-69261660D01*
X104103211Y-69265932D01*
X104103210Y-69265933D01*
X104060065Y-69329182D01*
X103977802Y-69449775D01*
X103881926Y-69656322D01*
X103880544Y-69661304D01*
X103880544Y-69661305D01*
X103860159Y-69734812D01*
X103821072Y-69875755D01*
X103796874Y-70102180D01*
X103797171Y-70107332D01*
X103797171Y-70107336D01*
X103809194Y-70315857D01*
X103793146Y-70385016D01*
X103742256Y-70434521D01*
X103672680Y-70448653D01*
X103606509Y-70422926D01*
X103596749Y-70414582D01*
X103567151Y-70386543D01*
X103567150Y-70386542D01*
X103561838Y-70381510D01*
X103555511Y-70377835D01*
X103555502Y-70377828D01*
X103553617Y-70376733D01*
X103535338Y-70363815D01*
X103533679Y-70362406D01*
X103533676Y-70362404D01*
X103528100Y-70357667D01*
X103521586Y-70354341D01*
X103521582Y-70354338D01*
X103470649Y-70328330D01*
X103464666Y-70325068D01*
X103415226Y-70296351D01*
X103415224Y-70296350D01*
X103408895Y-70292674D01*
X103401891Y-70290553D01*
X103401887Y-70290551D01*
X103399810Y-70289922D01*
X103379034Y-70281549D01*
X103370577Y-70277231D01*
X103307890Y-70261892D01*
X103301373Y-70260109D01*
X103239618Y-70241405D01*
X103230368Y-70240831D01*
X103230139Y-70240817D01*
X103208002Y-70237449D01*
X103204231Y-70236526D01*
X103204219Y-70236524D01*
X103198775Y-70235192D01*
X103190924Y-70234705D01*
X103189560Y-70234620D01*
X103189550Y-70234620D01*
X103187621Y-70234500D01*
X103132220Y-70234500D01*
X103124418Y-70234258D01*
X103063087Y-70230453D01*
X103050125Y-70232680D01*
X103028789Y-70234500D01*
X101331712Y-70234500D01*
X101261969Y-70242631D01*
X101207594Y-70248970D01*
X101207590Y-70248971D01*
X101200324Y-70249818D01*
X101193449Y-70252313D01*
X101193447Y-70252314D01*
X101042509Y-70307103D01*
X101034068Y-70310167D01*
X101027951Y-70314178D01*
X101027948Y-70314179D01*
X100892608Y-70402912D01*
X100886153Y-70407144D01*
X100881122Y-70412455D01*
X100881117Y-70412459D01*
X100846755Y-70448733D01*
X100779864Y-70485659D01*
X100761426Y-70489327D01*
X100742150Y-70493161D01*
X100742149Y-70493161D01*
X100729980Y-70495582D01*
X100666802Y-70537797D01*
X100624587Y-70600975D01*
X100622166Y-70613144D01*
X100622166Y-70613145D01*
X100616286Y-70642705D01*
X100613505Y-70656688D01*
X100613505Y-71033540D01*
X100612586Y-71033540D01*
X100612342Y-71034572D01*
X100613505Y-71034572D01*
X100613505Y-71329312D01*
X100614712Y-71335380D01*
X100620228Y-71363109D01*
X100624587Y-71385025D01*
X100631479Y-71395340D01*
X100631481Y-71395344D01*
X100650213Y-71423378D01*
X100671428Y-71491131D01*
X100650213Y-71563382D01*
X100631481Y-71591416D01*
X100631479Y-71591420D01*
X100624587Y-71601735D01*
X100622166Y-71613904D01*
X100622166Y-71613905D01*
X100618183Y-71633932D01*
X100613505Y-71657448D01*
X100613505Y-72330072D01*
X100614712Y-72336140D01*
X100619260Y-72359002D01*
X100624587Y-72385785D01*
X100631480Y-72396101D01*
X100636287Y-72403295D01*
X100666802Y-72448963D01*
X100677115Y-72455854D01*
X100706140Y-72475248D01*
X100729980Y-72491178D01*
X100742149Y-72493599D01*
X100742150Y-72493599D01*
X100774281Y-72499990D01*
X100785693Y-72502260D01*
X100870505Y-72502260D01*
X100938626Y-72522262D01*
X100985119Y-72575918D01*
X100996505Y-72628260D01*
X100996505Y-75427183D01*
X100976503Y-75495304D01*
X100951883Y-75523267D01*
X100948191Y-75525852D01*
X100798852Y-75675191D01*
X100677714Y-75848195D01*
X100675393Y-75853173D01*
X100675391Y-75853176D01*
X100591727Y-76032595D01*
X100588458Y-76039605D01*
X100587036Y-76044913D01*
X100587035Y-76044915D01*
X100578707Y-76075996D01*
X100541755Y-76136619D01*
X100477894Y-76167640D01*
X100407400Y-76159212D01*
X100352653Y-76114009D01*
X100335293Y-76075996D01*
X100326965Y-76044915D01*
X100326964Y-76044913D01*
X100325542Y-76039605D01*
X100322273Y-76032595D01*
X100238609Y-75853176D01*
X100238607Y-75853173D01*
X100236286Y-75848195D01*
X100115148Y-75675191D01*
X100014410Y-75574453D01*
X99980384Y-75512141D01*
X99977505Y-75485358D01*
X99977505Y-71919524D01*
X99974304Y-71894186D01*
X99973310Y-71878394D01*
X99973310Y-71657448D01*
X99968632Y-71633932D01*
X99964649Y-71613905D01*
X99964649Y-71613904D01*
X99962228Y-71601735D01*
X99955336Y-71591420D01*
X99955334Y-71591416D01*
X99936602Y-71563382D01*
X99915387Y-71495629D01*
X99936602Y-71423378D01*
X99955334Y-71395344D01*
X99955336Y-71395340D01*
X99962228Y-71385025D01*
X99966588Y-71363109D01*
X99972103Y-71335380D01*
X99973310Y-71329312D01*
X99973310Y-71301870D01*
X99985162Y-71248521D01*
X99997514Y-71222092D01*
X99999445Y-71218140D01*
X100029313Y-71159648D01*
X100029314Y-71159646D01*
X100032641Y-71153130D01*
X100034380Y-71146026D01*
X100036479Y-71140381D01*
X100038398Y-71134612D01*
X100041494Y-71127988D01*
X100043566Y-71118029D01*
X100056358Y-71056526D01*
X100057329Y-71052237D01*
X100058120Y-71049005D01*
X100074680Y-70981328D01*
X100075372Y-70970174D01*
X100075408Y-70970176D01*
X100075647Y-70966183D01*
X100076021Y-70961991D01*
X100077512Y-70954823D01*
X100075418Y-70877417D01*
X100075372Y-70874010D01*
X100075372Y-70161925D01*
X100083584Y-70117181D01*
X100102427Y-70067578D01*
X100102428Y-70067576D01*
X100104927Y-70060996D01*
X100106135Y-70052404D01*
X100129620Y-69885297D01*
X100129620Y-69885294D01*
X100130171Y-69881375D01*
X100130488Y-69858658D01*
X100110269Y-69678403D01*
X100106453Y-69667445D01*
X100052936Y-69513764D01*
X100052934Y-69513761D01*
X100050617Y-69507106D01*
X100040534Y-69490970D01*
X99958231Y-69359256D01*
X99954498Y-69353282D01*
X99949536Y-69348285D01*
X99831650Y-69229573D01*
X99831646Y-69229570D01*
X99826687Y-69224576D01*
X99818541Y-69219406D01*
X99735314Y-69166589D01*
X99673538Y-69127385D01*
X99613993Y-69106182D01*
X99509297Y-69068901D01*
X99509292Y-69068900D01*
X99502662Y-69066539D01*
X99495674Y-69065706D01*
X99495671Y-69065705D01*
X99358805Y-69049385D01*
X99322552Y-69045062D01*
X99315549Y-69045798D01*
X99315548Y-69045798D01*
X99149160Y-69063286D01*
X99149158Y-69063287D01*
X99142160Y-69064022D01*
X98970451Y-69122476D01*
X98920265Y-69153351D01*
X98821967Y-69213824D01*
X98821964Y-69213826D01*
X98815960Y-69217520D01*
X98810925Y-69222451D01*
X98810922Y-69222453D01*
X98695919Y-69335073D01*
X98686365Y-69344429D01*
X98588107Y-69496896D01*
X98577041Y-69527298D01*
X98534949Y-69584468D01*
X98468628Y-69609807D01*
X98399136Y-69595267D01*
X98391127Y-69590588D01*
X98356591Y-69568671D01*
X98267476Y-69512117D01*
X98233790Y-69500122D01*
X98103235Y-69453633D01*
X98103230Y-69453632D01*
X98096600Y-69451271D01*
X98089612Y-69450438D01*
X98089609Y-69450437D01*
X97966508Y-69435758D01*
X97916490Y-69429794D01*
X97909487Y-69430530D01*
X97909486Y-69430530D01*
X97743098Y-69448018D01*
X97743096Y-69448019D01*
X97736098Y-69448754D01*
X97564389Y-69507208D01*
X97531737Y-69527296D01*
X97415900Y-69598559D01*
X97415897Y-69598561D01*
X97409898Y-69602252D01*
X97387729Y-69623961D01*
X97358163Y-69652914D01*
X97321067Y-69677005D01*
X97321120Y-69677101D01*
X97319813Y-69677819D01*
X97316394Y-69680040D01*
X97314178Y-69680917D01*
X97314172Y-69680920D01*
X97306803Y-69683838D01*
X97300388Y-69688499D01*
X97271032Y-69709827D01*
X97261115Y-69716341D01*
X97223058Y-69738848D01*
X97208737Y-69753169D01*
X97193704Y-69766009D01*
X97177313Y-69777918D01*
X97161070Y-69797553D01*
X97149132Y-69811983D01*
X97141142Y-69820764D01*
X96514309Y-70447596D01*
X96451997Y-70481621D01*
X96425214Y-70484500D01*
X96020498Y-70484500D01*
X96014430Y-70485707D01*
X95976955Y-70493161D01*
X95976954Y-70493161D01*
X95964785Y-70495582D01*
X95901607Y-70537797D01*
X95859392Y-70600975D01*
X95856971Y-70613144D01*
X95856971Y-70613145D01*
X95851091Y-70642705D01*
X95848310Y-70656688D01*
X95848310Y-71329312D01*
X95849517Y-71335380D01*
X95855033Y-71363109D01*
X95859392Y-71385025D01*
X95866284Y-71395340D01*
X95866286Y-71395344D01*
X95885018Y-71423378D01*
X95906233Y-71491131D01*
X95885018Y-71563382D01*
X95866286Y-71591416D01*
X95866284Y-71591420D01*
X95859392Y-71601735D01*
X95856971Y-71613904D01*
X95856971Y-71613905D01*
X95852988Y-71633932D01*
X95848310Y-71657448D01*
X95848310Y-72330072D01*
X95849517Y-72336140D01*
X95854065Y-72359002D01*
X95859392Y-72385785D01*
X95866285Y-72396101D01*
X95871092Y-72403295D01*
X95901607Y-72448963D01*
X95911920Y-72455854D01*
X95940945Y-72475248D01*
X95964785Y-72491178D01*
X95976954Y-72493599D01*
X95976955Y-72493599D01*
X96009086Y-72499990D01*
X96020498Y-72502260D01*
X96044505Y-72502260D01*
X96112626Y-72522262D01*
X96159119Y-72575918D01*
X96170505Y-72628260D01*
X96170505Y-75264145D01*
X96150503Y-75332266D01*
X96097754Y-75378340D01*
X96046180Y-75402389D01*
X96046176Y-75402391D01*
X96041195Y-75404714D01*
X95868191Y-75525852D01*
X95718852Y-75675191D01*
X95597714Y-75848195D01*
X95595393Y-75853173D01*
X95595391Y-75853176D01*
X95511727Y-76032595D01*
X95508458Y-76039605D01*
X95507036Y-76044913D01*
X95507035Y-76044915D01*
X95498707Y-76075996D01*
X95461755Y-76136619D01*
X95397894Y-76167640D01*
X95327400Y-76159212D01*
X95272653Y-76114009D01*
X95255293Y-76075996D01*
X95246965Y-76044915D01*
X95246964Y-76044913D01*
X95245542Y-76039605D01*
X95242273Y-76032595D01*
X95158609Y-75853176D01*
X95158607Y-75853173D01*
X95156286Y-75848195D01*
X95035148Y-75675191D01*
X94934410Y-75574453D01*
X94900384Y-75512141D01*
X94897505Y-75485358D01*
X94897505Y-71901714D01*
X94893114Y-71866959D01*
X94904419Y-71796871D01*
X94942555Y-71750341D01*
X95038038Y-71678781D01*
X95050595Y-71666224D01*
X95127096Y-71564149D01*
X95135634Y-71548554D01*
X95180788Y-71428106D01*
X95184415Y-71412851D01*
X95189941Y-71361986D01*
X95190310Y-71355172D01*
X95190310Y-71265115D01*
X95185835Y-71249876D01*
X95184445Y-71248671D01*
X95176762Y-71247000D01*
X93982810Y-71247000D01*
X93914689Y-71226998D01*
X93868196Y-71173342D01*
X93856810Y-71121000D01*
X93856810Y-70720885D01*
X94364810Y-70720885D01*
X94369285Y-70736124D01*
X94370675Y-70737329D01*
X94378358Y-70739000D01*
X95172194Y-70739000D01*
X95187433Y-70734525D01*
X95188638Y-70733135D01*
X95190309Y-70725452D01*
X95190309Y-70630831D01*
X95189939Y-70624010D01*
X95184415Y-70573148D01*
X95180789Y-70557896D01*
X95135634Y-70437446D01*
X95127096Y-70421851D01*
X95050595Y-70319776D01*
X95038034Y-70307215D01*
X94935959Y-70230714D01*
X94920364Y-70222176D01*
X94799916Y-70177022D01*
X94784661Y-70173395D01*
X94733796Y-70167869D01*
X94726982Y-70167500D01*
X94382925Y-70167500D01*
X94367686Y-70171975D01*
X94366481Y-70173365D01*
X94364810Y-70181048D01*
X94364810Y-70720885D01*
X93856810Y-70720885D01*
X93856810Y-70185616D01*
X93852335Y-70170377D01*
X93850945Y-70169172D01*
X93843262Y-70167501D01*
X93494641Y-70167501D01*
X93487820Y-70167871D01*
X93436958Y-70173395D01*
X93421704Y-70177021D01*
X93417221Y-70178702D01*
X93346414Y-70183884D01*
X93284046Y-70149961D01*
X93255844Y-70107108D01*
X93253718Y-70101739D01*
X93249871Y-70090503D01*
X93239749Y-70055662D01*
X93239749Y-70055661D01*
X93237538Y-70048052D01*
X93233505Y-70041233D01*
X93233503Y-70041228D01*
X93227227Y-70030617D01*
X93218532Y-70012869D01*
X93211072Y-69994028D01*
X93185084Y-69958258D01*
X93178568Y-69948338D01*
X93160100Y-69917110D01*
X93160098Y-69917107D01*
X93156062Y-69910283D01*
X93141741Y-69895962D01*
X93128900Y-69880928D01*
X93127136Y-69878500D01*
X93116992Y-69864538D01*
X93082915Y-69836347D01*
X93074136Y-69828357D01*
X92444643Y-69198864D01*
X92410617Y-69136552D01*
X92415682Y-69065737D01*
X92458229Y-69008901D01*
X92524749Y-68984090D01*
X92538352Y-68983854D01*
X92541191Y-68983958D01*
X92543877Y-68984057D01*
X92543881Y-68984057D01*
X92549039Y-68984246D01*
X92554159Y-68983590D01*
X92554161Y-68983590D01*
X92656669Y-68970458D01*
X92774908Y-68955311D01*
X92779857Y-68953826D01*
X92779863Y-68953825D01*
X92923751Y-68910656D01*
X92993018Y-68889875D01*
X93005762Y-68883632D01*
X93107752Y-68833667D01*
X93197512Y-68789694D01*
X93201716Y-68786696D01*
X93201720Y-68786693D01*
X93325995Y-68698048D01*
X93382898Y-68657460D01*
X93544198Y-68496722D01*
X93551745Y-68486220D01*
X93654533Y-68343174D01*
X93710528Y-68299526D01*
X93781231Y-68293080D01*
X93844196Y-68325883D01*
X93864288Y-68350865D01*
X93901994Y-68412394D01*
X93901997Y-68412399D01*
X93904697Y-68416804D01*
X94053791Y-68588923D01*
X94228994Y-68734379D01*
X94233446Y-68736981D01*
X94233451Y-68736984D01*
X94421144Y-68846663D01*
X94425602Y-68849268D01*
X94638334Y-68930502D01*
X94643400Y-68931533D01*
X94643401Y-68931533D01*
X94650892Y-68933057D01*
X94861477Y-68975901D01*
X94989293Y-68980588D01*
X95083875Y-68984057D01*
X95083880Y-68984057D01*
X95089039Y-68984246D01*
X95094159Y-68983590D01*
X95094161Y-68983590D01*
X95196669Y-68970458D01*
X95314908Y-68955311D01*
X95319857Y-68953826D01*
X95319863Y-68953825D01*
X95463751Y-68910656D01*
X95533018Y-68889875D01*
X95545762Y-68883632D01*
X95647752Y-68833667D01*
X95737512Y-68789694D01*
X95741716Y-68786696D01*
X95741720Y-68786693D01*
X95865995Y-68698048D01*
X95922898Y-68657460D01*
X96084198Y-68496722D01*
X96091745Y-68486220D01*
X96194533Y-68343174D01*
X96250528Y-68299526D01*
X96321231Y-68293080D01*
X96384196Y-68325883D01*
X96404288Y-68350865D01*
X96441994Y-68412394D01*
X96441997Y-68412399D01*
X96444697Y-68416804D01*
X96593791Y-68588923D01*
X96768994Y-68734379D01*
X96773446Y-68736981D01*
X96773451Y-68736984D01*
X96961144Y-68846663D01*
X96965602Y-68849268D01*
X97178334Y-68930502D01*
X97183400Y-68931533D01*
X97183401Y-68931533D01*
X97190892Y-68933057D01*
X97401477Y-68975901D01*
X97529293Y-68980588D01*
X97623875Y-68984057D01*
X97623880Y-68984057D01*
X97629039Y-68984246D01*
X97634159Y-68983590D01*
X97634161Y-68983590D01*
X97736669Y-68970458D01*
X97854908Y-68955311D01*
X97859857Y-68953826D01*
X97859863Y-68953825D01*
X98003751Y-68910656D01*
X98073018Y-68889875D01*
X98085762Y-68883632D01*
X98187752Y-68833667D01*
X98277512Y-68789694D01*
X98281716Y-68786696D01*
X98281720Y-68786693D01*
X98405995Y-68698048D01*
X98462898Y-68657460D01*
X98624198Y-68496722D01*
X98631745Y-68486220D01*
X98754060Y-68315999D01*
X98757078Y-68311799D01*
X98759448Y-68307005D01*
X98855678Y-68112298D01*
X98855679Y-68112296D01*
X98857972Y-68107656D01*
X98924169Y-67889776D01*
X98925375Y-67880615D01*
X98953455Y-67667331D01*
X98953456Y-67667324D01*
X98953892Y-67664009D01*
X98955046Y-67616806D01*
X98955469Y-67599495D01*
X98955469Y-67599490D01*
X98955551Y-67596130D01*
X98944593Y-67462848D01*
X98937316Y-67374332D01*
X98937315Y-67374326D01*
X98936892Y-67369181D01*
X98900273Y-67223393D01*
X98882677Y-67153338D01*
X98882676Y-67153334D01*
X98881418Y-67148327D01*
X98875242Y-67134123D01*
X98792677Y-66944236D01*
X98792675Y-66944233D01*
X98790617Y-66939499D01*
X98682175Y-66771873D01*
X98669736Y-66752645D01*
X98669734Y-66752642D01*
X98666928Y-66748305D01*
X98513673Y-66579880D01*
X98334968Y-66438748D01*
X98135612Y-66328697D01*
X97983808Y-66274940D01*
X97925834Y-66254410D01*
X97925830Y-66254409D01*
X97920959Y-66252684D01*
X97915866Y-66251777D01*
X97915863Y-66251776D01*
X97701862Y-66213657D01*
X97701856Y-66213656D01*
X97696773Y-66212751D01*
X97609703Y-66211687D01*
X97474244Y-66210032D01*
X97474242Y-66210032D01*
X97469075Y-66209969D01*
X97243981Y-66244413D01*
X97027534Y-66315159D01*
X97022942Y-66317549D01*
X97022943Y-66317549D01*
X96855632Y-66404646D01*
X96825549Y-66420306D01*
X96821416Y-66423409D01*
X96821413Y-66423411D01*
X96653667Y-66549358D01*
X96643449Y-66557030D01*
X96611014Y-66590971D01*
X96499831Y-66707318D01*
X96486125Y-66721660D01*
X96448039Y-66777492D01*
X96399789Y-66848224D01*
X96344878Y-66893226D01*
X96274353Y-66901397D01*
X96210606Y-66870143D01*
X96189909Y-66845659D01*
X96129736Y-66752645D01*
X96129734Y-66752642D01*
X96126928Y-66748305D01*
X95973673Y-66579880D01*
X95794968Y-66438748D01*
X95595612Y-66328697D01*
X95443808Y-66274940D01*
X95385834Y-66254410D01*
X95385830Y-66254409D01*
X95380959Y-66252684D01*
X95375866Y-66251777D01*
X95375863Y-66251776D01*
X95161862Y-66213657D01*
X95161856Y-66213656D01*
X95156773Y-66212751D01*
X95069703Y-66211687D01*
X94934244Y-66210032D01*
X94934242Y-66210032D01*
X94929075Y-66209969D01*
X94703981Y-66244413D01*
X94487534Y-66315159D01*
X94482942Y-66317549D01*
X94482943Y-66317549D01*
X94315632Y-66404646D01*
X94285549Y-66420306D01*
X94281416Y-66423409D01*
X94281413Y-66423411D01*
X94113667Y-66549358D01*
X94103449Y-66557030D01*
X94071014Y-66590971D01*
X93959831Y-66707318D01*
X93946125Y-66721660D01*
X93908039Y-66777492D01*
X93859789Y-66848224D01*
X93804878Y-66893226D01*
X93734353Y-66901397D01*
X93670606Y-66870143D01*
X93649909Y-66845659D01*
X93589736Y-66752645D01*
X93589734Y-66752642D01*
X93586928Y-66748305D01*
X93433673Y-66579880D01*
X93254968Y-66438748D01*
X93055612Y-66328697D01*
X92903808Y-66274940D01*
X92845834Y-66254410D01*
X92845830Y-66254409D01*
X92840959Y-66252684D01*
X92835866Y-66251777D01*
X92835863Y-66251776D01*
X92621862Y-66213657D01*
X92621856Y-66213656D01*
X92616773Y-66212751D01*
X92529703Y-66211687D01*
X92394244Y-66210032D01*
X92394242Y-66210032D01*
X92389075Y-66209969D01*
X92163981Y-66244413D01*
X91947534Y-66315159D01*
X91942942Y-66317549D01*
X91942943Y-66317549D01*
X91775632Y-66404646D01*
X91745549Y-66420306D01*
X91741416Y-66423409D01*
X91741413Y-66423411D01*
X91573667Y-66549358D01*
X91563449Y-66557030D01*
X91531014Y-66590971D01*
X91419831Y-66707318D01*
X91406125Y-66721660D01*
X91368039Y-66777492D01*
X91319789Y-66848224D01*
X91264878Y-66893226D01*
X91194353Y-66901397D01*
X91130606Y-66870143D01*
X91109909Y-66845659D01*
X91049736Y-66752645D01*
X91049734Y-66752642D01*
X91046928Y-66748305D01*
X90893673Y-66579880D01*
X90714968Y-66438748D01*
X90708340Y-66435089D01*
X90707656Y-66434399D01*
X90706136Y-66433389D01*
X90706344Y-66433075D01*
X90658368Y-66384663D01*
X90643590Y-66315221D01*
X90668701Y-66248814D01*
X90696059Y-66222199D01*
X90838694Y-66120459D01*
X90838696Y-66120457D01*
X90842898Y-66117460D01*
X91004198Y-65956722D01*
X91008441Y-65950818D01*
X91100072Y-65823298D01*
X91137078Y-65771799D01*
X91139366Y-65767170D01*
X91139370Y-65767163D01*
X91143006Y-65759805D01*
X91191119Y-65707597D01*
X91255964Y-65689630D01*
X103034829Y-65689630D01*
X103102950Y-65709632D01*
G37*
G04 #@! TD.AperFunction*
G04 #@! TA.AperFunction,Conductor*
G36*
X103840295Y-54247502D02*
G01*
X103886788Y-54301158D01*
X103896892Y-54371432D01*
X103886462Y-54406550D01*
X103885133Y-54409414D01*
X103881926Y-54416322D01*
X103821072Y-54635755D01*
X103796874Y-54862180D01*
X103797171Y-54867332D01*
X103797171Y-54867336D01*
X103800698Y-54928502D01*
X103809982Y-55089517D01*
X103811117Y-55094554D01*
X103811118Y-55094560D01*
X103857063Y-55298432D01*
X103860044Y-55311661D01*
X103861988Y-55316447D01*
X103861989Y-55316452D01*
X103943680Y-55517632D01*
X103945716Y-55522645D01*
X104011028Y-55629225D01*
X104057733Y-55705439D01*
X104064697Y-55716804D01*
X104213791Y-55888923D01*
X104318930Y-55976211D01*
X104384975Y-56031042D01*
X104388994Y-56034379D01*
X104393445Y-56036980D01*
X104393455Y-56036987D01*
X104426271Y-56056163D01*
X104474994Y-56107802D01*
X104488064Y-56177585D01*
X104461331Y-56243357D01*
X104438358Y-56265705D01*
X104263449Y-56397030D01*
X104236115Y-56425633D01*
X104118731Y-56548469D01*
X104106125Y-56561660D01*
X104103211Y-56565932D01*
X104103210Y-56565933D01*
X104044499Y-56652001D01*
X103977802Y-56749775D01*
X103881926Y-56956322D01*
X103880544Y-56961304D01*
X103880544Y-56961305D01*
X103876265Y-56976736D01*
X103821072Y-57175755D01*
X103796874Y-57402180D01*
X103797171Y-57407332D01*
X103797171Y-57407336D01*
X103800205Y-57459959D01*
X103809982Y-57629517D01*
X103811117Y-57634554D01*
X103811118Y-57634560D01*
X103858793Y-57846111D01*
X103860044Y-57851661D01*
X103861988Y-57856447D01*
X103861989Y-57856452D01*
X103943548Y-58057307D01*
X103945716Y-58062645D01*
X104064697Y-58256804D01*
X104213791Y-58428923D01*
X104357149Y-58547941D01*
X104379792Y-58566739D01*
X104388994Y-58574379D01*
X104393445Y-58576980D01*
X104393455Y-58576987D01*
X104426271Y-58596163D01*
X104474994Y-58647802D01*
X104488064Y-58717585D01*
X104461331Y-58783357D01*
X104438358Y-58805705D01*
X104263449Y-58937030D01*
X104244673Y-58956678D01*
X104116644Y-59090653D01*
X104106125Y-59101660D01*
X104103211Y-59105932D01*
X104103210Y-59105933D01*
X104059070Y-59170640D01*
X103977802Y-59289775D01*
X103881926Y-59496322D01*
X103880544Y-59501304D01*
X103880544Y-59501305D01*
X103872781Y-59529297D01*
X103821072Y-59715755D01*
X103796874Y-59942180D01*
X103797171Y-59947332D01*
X103797171Y-59947336D01*
X103801514Y-60022650D01*
X103809982Y-60169517D01*
X103811117Y-60174554D01*
X103811118Y-60174560D01*
X103840852Y-60306498D01*
X103860044Y-60391661D01*
X103861694Y-60395725D01*
X103862973Y-60466479D01*
X103825676Y-60526889D01*
X103761639Y-60557545D01*
X103704401Y-60552346D01*
X103704282Y-60552852D01*
X103700687Y-60552009D01*
X103699193Y-60551873D01*
X103698671Y-60551687D01*
X103690790Y-60548881D01*
X103683802Y-60548048D01*
X103683799Y-60548047D01*
X103555462Y-60532744D01*
X103510680Y-60527404D01*
X103503677Y-60528140D01*
X103503676Y-60528140D01*
X103337288Y-60545628D01*
X103337286Y-60545629D01*
X103330288Y-60546364D01*
X103158579Y-60604818D01*
X103111845Y-60633569D01*
X103010095Y-60696166D01*
X103010092Y-60696168D01*
X103004088Y-60699862D01*
X102999053Y-60704793D01*
X102999050Y-60704795D01*
X102891296Y-60810316D01*
X102874493Y-60826771D01*
X102776235Y-60979238D01*
X102773826Y-60985858D01*
X102773824Y-60985861D01*
X102718857Y-61136882D01*
X102714197Y-61149685D01*
X102707138Y-61205567D01*
X102678757Y-61270641D01*
X102671227Y-61278869D01*
X102202738Y-61747357D01*
X102140426Y-61781382D01*
X102113643Y-61784261D01*
X100648842Y-61784261D01*
X100580721Y-61764259D01*
X100534228Y-61710603D01*
X100524124Y-61640329D01*
X100539983Y-61598783D01*
X100538525Y-61598033D01*
X100541741Y-61591774D01*
X100545643Y-61585902D01*
X100590514Y-61467779D01*
X100607555Y-61422920D01*
X100607556Y-61422918D01*
X100610055Y-61416338D01*
X100611087Y-61408993D01*
X100634748Y-61240639D01*
X100634748Y-61240636D01*
X100635299Y-61236717D01*
X100635494Y-61222750D01*
X100635561Y-61217962D01*
X100635561Y-61217957D01*
X100635616Y-61214000D01*
X100615397Y-61033745D01*
X100611546Y-61022685D01*
X100587509Y-60953662D01*
X100580500Y-60912225D01*
X100580500Y-56754371D01*
X100600502Y-56686250D01*
X100617405Y-56665276D01*
X101914179Y-55368502D01*
X101938753Y-55349370D01*
X102091912Y-55258069D01*
X102223266Y-55132982D01*
X102323643Y-54981902D01*
X102371067Y-54857060D01*
X102385555Y-54818920D01*
X102385556Y-54818918D01*
X102388055Y-54812338D01*
X102391369Y-54788760D01*
X102412748Y-54636639D01*
X102412748Y-54636636D01*
X102413299Y-54632717D01*
X102413616Y-54610000D01*
X102393397Y-54429745D01*
X102381275Y-54394935D01*
X102377763Y-54324026D01*
X102413145Y-54262474D01*
X102476187Y-54229822D01*
X102500267Y-54227500D01*
X103772174Y-54227500D01*
X103840295Y-54247502D01*
G37*
G04 #@! TD.AperFunction*
M02*
