G04 #@! TF.GenerationSoftware,KiCad,Pcbnew,(6.0.0-0)*
G04 #@! TF.CreationDate,2022-05-31T22:11:55-04:00*
G04 #@! TF.ProjectId,Lily58,4c696c79-3538-42e6-9b69-6361645f7063,rev?*
G04 #@! TF.SameCoordinates,Original*
G04 #@! TF.FileFunction,Soldermask,Top*
G04 #@! TF.FilePolarity,Negative*
%FSLAX46Y46*%
G04 Gerber Fmt 4.6, Leading zero omitted, Abs format (unit mm)*
G04 Created by KiCad (PCBNEW (6.0.0-0)) date 2022-05-31 22:11:55*
%MOMM*%
%LPD*%
G01*
G04 APERTURE LIST*
G04 Aperture macros list*
%AMHorizOval*
0 Thick line with rounded ends*
0 $1 width*
0 $2 $3 position (X,Y) of the first rounded end (center of the circle)*
0 $4 $5 position (X,Y) of the second rounded end (center of the circle)*
0 Add line between two ends*
20,1,$1,$2,$3,$4,$5,0*
0 Add two circle primitives to create the rounded ends*
1,1,$1,$2,$3*
1,1,$1,$4,$5*%
%AMRotRect*
0 Rectangle, with rotation*
0 The origin of the aperture is its center*
0 $1 length*
0 $2 width*
0 $3 Rotation angle, in degrees counterclockwise*
0 Add horizontal line*
21,1,$1,$2,0,0,$3*%
G04 Aperture macros list end*
G04 #@! TA.AperFunction,Profile*
%ADD10C,0.200000*%
G04 #@! TD*
G04 #@! TA.AperFunction,Profile*
%ADD11C,0.150000*%
G04 #@! TD*
%ADD12C,1.700000*%
%ADD13C,4.000000*%
%ADD14C,2.200000*%
%ADD15O,2.200000X3.500000*%
%ADD16R,1.500000X2.500000*%
%ADD17O,1.500000X2.500000*%
%ADD18R,2.000000X2.000000*%
%ADD19RotRect,1.800000X1.800000X120.000000*%
%ADD20HorizOval,1.800000X0.000000X0.000000X0.000000X0.000000X0*%
%ADD21C,4.900000*%
%ADD22C,2.500000*%
%ADD23C,1.752600*%
%ADD24R,1.143000X0.635000*%
%ADD25C,1.397000*%
%ADD26R,2.550000X2.500000*%
%ADD27C,1.800000*%
%ADD28C,3.000000*%
%ADD29RotRect,2.550000X2.500000X120.000000*%
%ADD30R,1.600000X0.850000*%
%ADD31RotRect,1.600000X0.850000X120.000000*%
%ADD32C,2.000000*%
%ADD33R,3.200000X2.000000*%
%ADD34O,3.200000X2.000000*%
%ADD35O,1.800000X1.800000*%
%ADD36R,1.800000X1.800000*%
G04 APERTURE END LIST*
D10*
X104807833Y-37086762D02*
X94400000Y-37086762D01*
X82937528Y-82285296D02*
X82937528Y-75978362D01*
X82937528Y-75978362D02*
X82937528Y-69671429D01*
X82937528Y-88592229D02*
X82937528Y-82285296D01*
D11*
X118750000Y-57750000D02*
X118750000Y-53250000D01*
X101310889Y-127109431D02*
X103060889Y-130140520D01*
X103060889Y-130140520D02*
X99163775Y-132390520D01*
X97413775Y-129359431D02*
X101310889Y-127109431D01*
X99163775Y-132390520D02*
X97413775Y-129359431D01*
X118750000Y-72350000D02*
X122250000Y-72350000D01*
X131750000Y-129250000D02*
X131750000Y-133750000D01*
X166350000Y-127000000D02*
X169850000Y-127000000D01*
X160350000Y-111150000D02*
X156850000Y-111150000D01*
X141250000Y-108050000D02*
X141250000Y-112550000D01*
X103099200Y-104864800D02*
X103099200Y-109364800D01*
X137750000Y-108050000D02*
X141250000Y-108050000D01*
X198450000Y-117250000D02*
X194950000Y-117250000D01*
X122250000Y-114850000D02*
X118750000Y-114850000D01*
X156850000Y-111150000D02*
X156850000Y-106650000D01*
X166350000Y-131500000D02*
X166350000Y-127000000D01*
X194950000Y-117250000D02*
X194950000Y-112750000D01*
X141250000Y-112550000D02*
X137750000Y-112550000D01*
X122250000Y-110350000D02*
X122250000Y-114850000D01*
X179350000Y-108050000D02*
X179350000Y-112550000D01*
X175850000Y-108050000D02*
X179350000Y-108050000D01*
X214000000Y-118750000D02*
X214000000Y-114250000D01*
X147250000Y-127000000D02*
X150750000Y-127000000D01*
X150750000Y-131500000D02*
X147250000Y-131500000D01*
X160350000Y-106650000D02*
X160350000Y-111150000D01*
X137750000Y-112550000D02*
X137750000Y-108050000D01*
X150750000Y-127000000D02*
X150750000Y-131500000D01*
X156850000Y-106650000D02*
X160350000Y-106650000D01*
X217500000Y-114250000D02*
X217500000Y-118750000D01*
X99599200Y-104864800D02*
X103099200Y-104864800D01*
X194950000Y-112750000D02*
X198450000Y-112750000D01*
X128250000Y-129250000D02*
X131750000Y-129250000D01*
X103099200Y-109364800D02*
X99599200Y-109364800D01*
X175850000Y-112550000D02*
X175850000Y-108050000D01*
X217500000Y-118750000D02*
X214000000Y-118750000D01*
X214000000Y-114250000D02*
X217500000Y-114250000D01*
X147250000Y-131500000D02*
X147250000Y-127000000D01*
X99599200Y-109364800D02*
X99599200Y-104864800D01*
X118750000Y-114850000D02*
X118750000Y-110350000D01*
X118750000Y-110350000D02*
X122250000Y-110350000D01*
X128250000Y-133750000D02*
X128250000Y-129250000D01*
X169850000Y-127000000D02*
X169850000Y-131500000D01*
X169850000Y-131500000D02*
X166350000Y-131500000D01*
X179350000Y-112550000D02*
X175850000Y-112550000D01*
X198450000Y-112750000D02*
X198450000Y-117250000D01*
X131750000Y-133750000D02*
X128250000Y-133750000D01*
X99624000Y-90170000D02*
X99624000Y-85670000D01*
X103124000Y-85670000D02*
X103124000Y-90170000D01*
X103124000Y-90170000D02*
X99624000Y-90170000D01*
X99624000Y-85670000D02*
X103124000Y-85670000D01*
D10*
X178319348Y-134034052D02*
X178288901Y-134314154D01*
X225460000Y-100326490D02*
X225460000Y-109808112D01*
X82937528Y-63364495D02*
X82937528Y-57057562D01*
D11*
X160350000Y-92150000D02*
X156850000Y-92150000D01*
D10*
X96695647Y-131453701D02*
X98371341Y-134320020D01*
X225204001Y-120128696D02*
X225020912Y-120350648D01*
X169449826Y-135511658D02*
X176819348Y-135511658D01*
D11*
X141250000Y-88950000D02*
X141250000Y-93450000D01*
D10*
X89992869Y-119988423D02*
X91668563Y-122854742D01*
X177658308Y-135255660D02*
X177403500Y-135393876D01*
D11*
X141250000Y-55350000D02*
X137750000Y-55350000D01*
D10*
X178201565Y-134595810D02*
X178063349Y-134850619D01*
X104288864Y-143357278D02*
X104456758Y-143271756D01*
D11*
X122250000Y-72350000D02*
X122250000Y-76850000D01*
D10*
X225460000Y-43436755D02*
X225460000Y-52918378D01*
D11*
X198450000Y-60150000D02*
X194950000Y-60150000D01*
D10*
X136027379Y-37086762D02*
X125619545Y-37086762D01*
X104130206Y-143404468D02*
X104288864Y-143357278D01*
X83245570Y-37394123D02*
X83400937Y-37265961D01*
X103842470Y-143386445D02*
X103981252Y-143413974D01*
D11*
X179350000Y-50850000D02*
X179350000Y-55350000D01*
D10*
X82937528Y-50750629D02*
X82937528Y-44443695D01*
X103597295Y-143222884D02*
X103714328Y-143322532D01*
X116186619Y-136480784D02*
X117862313Y-135510645D01*
X224278471Y-42156190D02*
X220889319Y-40963847D01*
D11*
X217450000Y-80550000D02*
X213950000Y-80550000D01*
D10*
X103981252Y-143413974D02*
X104130206Y-143404468D01*
D11*
X194950000Y-93750000D02*
X198450000Y-93750000D01*
X156850000Y-87650000D02*
X160350000Y-87650000D01*
D10*
X224900000Y-42700000D02*
X224278471Y-42156190D01*
X178319348Y-131597973D02*
X178319348Y-132816013D01*
D11*
X137750000Y-74450000D02*
X137750000Y-69950000D01*
D10*
X178319348Y-129161894D02*
X178319348Y-130379933D01*
D11*
X118750000Y-76850000D02*
X118750000Y-72350000D01*
X122250000Y-91350000D02*
X122250000Y-95850000D01*
D10*
X83579303Y-37169210D02*
X83776462Y-37108075D01*
X178594174Y-122926713D02*
X178916678Y-122332160D01*
X178390391Y-123583911D02*
X178594174Y-122926713D01*
X104456758Y-143271756D02*
X106132452Y-142301617D01*
X197622092Y-120789735D02*
X202889673Y-120789735D01*
X213424836Y-120789735D02*
X218692418Y-120789735D01*
X225460000Y-90844867D02*
X225460000Y-100326490D01*
D11*
X160350000Y-49460000D02*
X160350000Y-53960000D01*
D10*
X91668563Y-122854742D02*
X93344258Y-125721062D01*
X139971738Y-135511658D02*
X147341260Y-135511658D01*
X82937528Y-44443695D02*
X82937528Y-38136762D01*
X224900000Y-42700000D02*
X225460000Y-43436755D01*
D11*
X179350000Y-55350000D02*
X175850000Y-55350000D01*
D10*
X83400937Y-37265961D02*
X83579303Y-37169210D01*
D11*
X118750000Y-91350000D02*
X122250000Y-91350000D01*
D10*
X95019952Y-128587381D02*
X96695647Y-131453701D01*
D11*
X137750000Y-69950000D02*
X141250000Y-69950000D01*
D10*
X192354511Y-120789735D02*
X197622092Y-120789735D01*
D11*
X156850000Y-68550000D02*
X160350000Y-68550000D01*
D10*
X181819348Y-120789735D02*
X187086929Y-120789735D01*
X177880261Y-135072571D02*
X177658308Y-135255660D01*
X103398425Y-142918979D02*
X103491837Y-143088150D01*
D11*
X175850000Y-74350000D02*
X175850000Y-69850000D01*
D10*
X225020912Y-120350648D02*
X224798960Y-120533736D01*
D11*
X141250000Y-93450000D02*
X137750000Y-93450000D01*
D10*
X83020657Y-37727855D02*
X83117409Y-37549489D01*
D11*
X217450000Y-95250000D02*
X217450000Y-99750000D01*
D10*
X106132452Y-142301617D02*
X107808147Y-141331479D01*
D11*
X179350000Y-69850000D02*
X179350000Y-74350000D01*
X141250000Y-74450000D02*
X137750000Y-74450000D01*
D10*
X215525697Y-39885159D02*
X208420758Y-38945561D01*
D11*
X213950000Y-76050000D02*
X217450000Y-76050000D01*
D10*
X177403500Y-135393876D02*
X177121844Y-135481211D01*
D11*
X122250000Y-57750000D02*
X118750000Y-57750000D01*
X194950000Y-79050000D02*
X194950000Y-74550000D01*
X160350000Y-68550000D02*
X160350000Y-73050000D01*
X175850000Y-88950000D02*
X179350000Y-88950000D01*
X213950000Y-95250000D02*
X217450000Y-95250000D01*
X160350000Y-73050000D02*
X156850000Y-73050000D01*
X122250000Y-53250000D02*
X122250000Y-57750000D01*
X198450000Y-98250000D02*
X194950000Y-98250000D01*
D10*
X178319348Y-126725814D02*
X178319348Y-127943854D01*
X178063349Y-134850619D02*
X177880261Y-135072571D01*
X224262495Y-120759288D02*
X223959999Y-120789735D01*
X83135690Y-92617561D02*
X83490297Y-96657663D01*
D11*
X137750000Y-55350000D02*
X137750000Y-50850000D01*
D10*
X178319348Y-132816013D02*
X178319348Y-134034052D01*
D11*
X137750000Y-50850000D02*
X141250000Y-50850000D01*
D10*
X179343884Y-121814271D02*
X179861773Y-121387065D01*
X125619545Y-37086762D02*
X115211711Y-37086762D01*
X225460000Y-109808112D02*
X225460000Y-119289735D01*
X88291758Y-116318073D02*
X89993333Y-119989540D01*
X83117409Y-37549489D02*
X83245570Y-37394123D01*
D11*
X217450000Y-99750000D02*
X213950000Y-99750000D01*
X122250000Y-95850000D02*
X118750000Y-95850000D01*
D10*
X178916678Y-122332160D02*
X179343884Y-121814271D01*
X83490297Y-96657663D02*
X84020972Y-100690825D01*
X103714328Y-143322532D02*
X103842470Y-143386445D01*
X82938210Y-38136762D02*
X82959523Y-37925015D01*
X208157255Y-120789735D02*
X213424836Y-120789735D01*
X125232695Y-135511658D02*
X132602217Y-135511658D01*
X225460000Y-52918378D02*
X225460000Y-62400000D01*
D11*
X118750000Y-53250000D02*
X122250000Y-53250000D01*
D10*
X83776462Y-37108075D02*
X83988210Y-37086762D01*
X112835230Y-138421062D02*
X114510925Y-137450923D01*
X154710782Y-135511658D02*
X162080304Y-135511658D01*
X109483841Y-140361340D02*
X111159536Y-139391201D01*
X179861773Y-121387065D02*
X180456326Y-121064561D01*
D11*
X122250000Y-76850000D02*
X118750000Y-76850000D01*
D10*
X178319348Y-127943854D02*
X178319348Y-129161894D01*
D11*
X156850000Y-49460000D02*
X160350000Y-49460000D01*
D10*
X146435213Y-37086762D02*
X136027379Y-37086762D01*
D11*
X213950000Y-99750000D02*
X213950000Y-95250000D01*
D10*
X218692418Y-120789735D02*
X223959999Y-120789735D01*
X85688004Y-108649127D02*
X86863105Y-112530670D01*
X86863105Y-112530670D02*
X88291758Y-116318073D01*
D11*
X194950000Y-55650000D02*
X198450000Y-55650000D01*
D10*
X178288901Y-134314154D02*
X178201565Y-134595810D01*
X162080304Y-135511658D02*
X169449826Y-135511658D01*
X156843047Y-37086762D02*
X146435213Y-37086762D01*
D11*
X179350000Y-74350000D02*
X175850000Y-74350000D01*
D10*
X178319348Y-130379933D02*
X178319348Y-131597973D01*
D11*
X137750000Y-88950000D02*
X141250000Y-88950000D01*
D10*
X117863173Y-135511658D02*
X125232695Y-135511658D01*
X180456326Y-121064561D02*
X181113524Y-120860778D01*
D11*
X198450000Y-74550000D02*
X198450000Y-79050000D01*
X175850000Y-55350000D02*
X175850000Y-50850000D01*
D10*
X189919538Y-37585374D02*
X178989563Y-37215654D01*
X107808147Y-141331479D02*
X109483841Y-140361340D01*
X115211711Y-37086762D02*
X104803877Y-37086762D01*
D11*
X194950000Y-98250000D02*
X194950000Y-93750000D01*
X213950000Y-57150000D02*
X217450000Y-57150000D01*
X217450000Y-76050000D02*
X217450000Y-80550000D01*
D10*
X225429552Y-119592231D02*
X225342217Y-119873887D01*
D11*
X137750000Y-93450000D02*
X137750000Y-88950000D01*
D10*
X82937528Y-57057562D02*
X82937528Y-50750629D01*
X225460000Y-71881623D02*
X225460000Y-81363245D01*
X101722730Y-140052659D02*
X103398425Y-142918979D01*
D11*
X175850000Y-69850000D02*
X179350000Y-69850000D01*
X179350000Y-88950000D02*
X179350000Y-93450000D01*
D10*
X181113524Y-120860778D02*
X181819348Y-120789735D01*
X225460000Y-62400000D02*
X225460000Y-71881623D01*
X103491837Y-143088150D02*
X103597295Y-143222884D01*
X84020972Y-100690825D02*
X84747083Y-104695246D01*
X94396044Y-37086762D02*
X83988210Y-37086762D01*
X178319348Y-124289735D02*
X178319348Y-125507775D01*
D11*
X175850000Y-93450000D02*
X175850000Y-88950000D01*
X160350000Y-87650000D02*
X160350000Y-92150000D01*
D10*
X208420758Y-38945561D02*
X199807654Y-38170488D01*
X132602217Y-135511658D02*
X139971738Y-135511658D01*
X82937777Y-88592317D02*
X83135690Y-92617561D01*
D11*
X198450000Y-55650000D02*
X198450000Y-60150000D01*
D10*
X147341260Y-135511658D02*
X154710782Y-135511658D01*
D11*
X141250000Y-50850000D02*
X141250000Y-55350000D01*
X160350000Y-53960000D02*
X156850000Y-53960000D01*
D10*
X178319348Y-124289735D02*
X178390391Y-123583911D01*
D11*
X156850000Y-92150000D02*
X156850000Y-87650000D01*
D10*
X98371341Y-134320020D02*
X100047036Y-137186340D01*
X225342217Y-119873887D02*
X225204001Y-120128696D01*
X202889673Y-120789735D02*
X208157255Y-120789735D01*
X82937528Y-69671429D02*
X82937528Y-63364495D01*
D11*
X198450000Y-93750000D02*
X198450000Y-98250000D01*
X141250000Y-69950000D02*
X141250000Y-74450000D01*
D10*
X111159536Y-139391201D02*
X112835230Y-138421062D01*
D11*
X213950000Y-80550000D02*
X213950000Y-76050000D01*
D10*
X225460000Y-81363245D02*
X225460000Y-90844867D01*
X187086929Y-120789735D02*
X192354511Y-120789735D01*
X220889319Y-40963847D02*
X215525697Y-39885159D01*
D11*
X118750000Y-95850000D02*
X118750000Y-91350000D01*
D10*
X177121844Y-135481211D02*
X176819348Y-135511658D01*
D11*
X156850000Y-73050000D02*
X156850000Y-68550000D01*
X217450000Y-61650000D02*
X213950000Y-61650000D01*
D10*
X84747083Y-104695246D02*
X85688004Y-108649127D01*
D11*
X198450000Y-79050000D02*
X194950000Y-79050000D01*
D10*
X167250881Y-37086762D02*
X156843047Y-37086762D01*
X114510925Y-137450923D02*
X116186619Y-136480784D01*
X224544152Y-120671952D02*
X224262495Y-120759288D01*
X100047036Y-137186340D02*
X101722730Y-140052659D01*
D11*
X194950000Y-60150000D02*
X194950000Y-55650000D01*
X213950000Y-61650000D02*
X213950000Y-57150000D01*
D10*
X93344258Y-125721062D02*
X95019952Y-128587381D01*
X178989563Y-37215654D02*
X167250881Y-37086762D01*
D11*
X217450000Y-57150000D02*
X217450000Y-61650000D01*
D10*
X224798960Y-120533736D02*
X224544152Y-120671952D01*
X225459999Y-119289735D02*
X225429552Y-119592231D01*
D11*
X194950000Y-74550000D02*
X198450000Y-74550000D01*
D10*
X199807654Y-38170488D02*
X189919538Y-37585374D01*
D11*
X179350000Y-93450000D02*
X175850000Y-93450000D01*
X175850000Y-50850000D02*
X179350000Y-50850000D01*
X156850000Y-53960000D02*
X156850000Y-49460000D01*
D10*
X178319348Y-125507775D02*
X178319348Y-126725814D01*
X82959523Y-37925015D02*
X83020657Y-37727855D01*
D12*
X101473000Y-102616000D03*
X101473000Y-92456000D03*
D13*
X101473000Y-97536000D03*
D14*
X104013000Y-93726000D03*
X106553000Y-100076000D03*
D15*
X85526000Y-38862000D03*
X93726000Y-38862000D03*
D16*
X87626000Y-38862000D03*
D17*
X89626000Y-38862000D03*
X91626000Y-38862000D03*
D18*
X86106000Y-67070000D03*
X86106000Y-71120000D03*
D15*
X97718000Y-38862000D03*
X105918000Y-38862000D03*
D16*
X99818000Y-38862000D03*
D17*
X101818000Y-38862000D03*
X103818000Y-38862000D03*
D19*
X113792000Y-125471114D03*
D20*
X109982000Y-118872000D03*
D21*
X129600000Y-59600000D03*
X205800000Y-61800000D03*
X129600000Y-97600000D03*
X205800000Y-100000000D03*
X105000000Y-114800000D03*
D22*
X85344000Y-58876000D03*
X85344000Y-52376000D03*
D23*
X97566005Y-67596130D03*
X95026005Y-67596130D03*
X92486005Y-67596130D03*
X105186005Y-44736130D03*
X105186005Y-47276130D03*
X105186005Y-49816130D03*
X105186005Y-52356130D03*
X105186005Y-54896130D03*
X105186005Y-57436130D03*
X105186005Y-59976130D03*
X105186005Y-62516130D03*
X105186005Y-65056130D03*
X105186005Y-67596130D03*
X105186005Y-70136130D03*
X105186005Y-72676130D03*
X89946005Y-72676130D03*
X89946005Y-70136130D03*
X89946005Y-67596130D03*
X89946005Y-65056130D03*
X89946005Y-62516130D03*
X89946005Y-59976130D03*
X89946005Y-57436130D03*
X89946005Y-54896130D03*
X89946005Y-52356130D03*
X89946005Y-49816130D03*
X89946005Y-47276130D03*
X89946005Y-44736130D03*
D24*
X96610810Y-71993760D03*
X96610810Y-70993000D03*
X94110810Y-71993760D03*
X94110810Y-70993000D03*
D25*
X94107000Y-76454000D03*
X96647000Y-76454000D03*
X99187000Y-76454000D03*
X101727000Y-76454000D03*
D24*
X99210810Y-71993760D03*
X99210810Y-70993000D03*
X101376005Y-71993760D03*
X101376005Y-70993000D03*
D26*
X133800000Y-42480000D03*
X146500000Y-45020000D03*
D13*
X139500000Y-47600000D03*
D27*
X134420000Y-47600000D03*
D28*
X142040000Y-42520000D03*
D27*
X144580000Y-47600000D03*
D28*
X135690000Y-45060000D03*
X143310000Y-45060000D03*
X136960000Y-42520000D03*
D26*
X152900000Y-41090000D03*
X165600000Y-43630000D03*
D28*
X162410000Y-43670000D03*
D27*
X153520000Y-46210000D03*
D28*
X156060000Y-41130000D03*
D13*
X158600000Y-46210000D03*
D28*
X161140000Y-41130000D03*
X154790000Y-43670000D03*
D27*
X163680000Y-46210000D03*
D26*
X171900000Y-42480000D03*
X184600000Y-45020000D03*
D28*
X181410000Y-45060000D03*
X173790000Y-45060000D03*
X180140000Y-42520000D03*
D27*
X182680000Y-47600000D03*
D13*
X177600000Y-47600000D03*
D27*
X172520000Y-47600000D03*
D28*
X175060000Y-42520000D03*
D26*
X191000000Y-47280000D03*
X203700000Y-49820000D03*
D13*
X196700000Y-52400000D03*
D27*
X191620000Y-52400000D03*
X201780000Y-52400000D03*
D28*
X199240000Y-47320000D03*
X200510000Y-49860000D03*
X192890000Y-49860000D03*
X194160000Y-47320000D03*
D26*
X210000000Y-48780000D03*
X222700000Y-51320000D03*
D28*
X218240000Y-48820000D03*
X213160000Y-48820000D03*
X211890000Y-51360000D03*
D27*
X220780000Y-53900000D03*
D13*
X215700000Y-53900000D03*
D27*
X210620000Y-53900000D03*
D28*
X219510000Y-51360000D03*
D26*
X114800000Y-63980000D03*
X127500000Y-66520000D03*
D13*
X120500000Y-69100000D03*
D28*
X116690000Y-66560000D03*
X123040000Y-64020000D03*
D27*
X125580000Y-69100000D03*
D28*
X124310000Y-66560000D03*
X117960000Y-64020000D03*
D27*
X115420000Y-69100000D03*
D26*
X133800000Y-61580000D03*
X146500000Y-64120000D03*
D27*
X134420000Y-66700000D03*
D28*
X143310000Y-64160000D03*
D13*
X139500000Y-66700000D03*
D27*
X144580000Y-66700000D03*
D28*
X136960000Y-61620000D03*
X135690000Y-64160000D03*
X142040000Y-61620000D03*
D26*
X152900000Y-60180000D03*
X165600000Y-62720000D03*
D27*
X153520000Y-65300000D03*
X163680000Y-65300000D03*
D28*
X161140000Y-60220000D03*
X154790000Y-62760000D03*
D13*
X158600000Y-65300000D03*
D28*
X162410000Y-62760000D03*
X156060000Y-60220000D03*
D26*
X171900000Y-61480000D03*
X184600000Y-64020000D03*
D13*
X177600000Y-66600000D03*
D27*
X172520000Y-66600000D03*
X182680000Y-66600000D03*
D28*
X180140000Y-61520000D03*
X175060000Y-61520000D03*
X173790000Y-64060000D03*
X181410000Y-64060000D03*
D26*
X191000000Y-66180000D03*
X203700000Y-68720000D03*
D28*
X194160000Y-66220000D03*
X200510000Y-68760000D03*
X192890000Y-68760000D03*
D27*
X201780000Y-71300000D03*
D28*
X199240000Y-66220000D03*
D13*
X196700000Y-71300000D03*
D27*
X191620000Y-71300000D03*
D26*
X210000000Y-67680000D03*
X222700000Y-70220000D03*
D28*
X218240000Y-67720000D03*
D13*
X215700000Y-72800000D03*
D28*
X211890000Y-70260000D03*
D27*
X220780000Y-72800000D03*
D28*
X213160000Y-67720000D03*
D27*
X210620000Y-72800000D03*
D28*
X219510000Y-70260000D03*
D26*
X114800000Y-82980000D03*
X127500000Y-85520000D03*
D27*
X115420000Y-88100000D03*
D28*
X116690000Y-85560000D03*
X123040000Y-83020000D03*
D13*
X120500000Y-88100000D03*
D28*
X117960000Y-83020000D03*
D27*
X125580000Y-88100000D03*
D28*
X124310000Y-85560000D03*
D26*
X133800000Y-80580000D03*
X146500000Y-83120000D03*
D27*
X144580000Y-85700000D03*
D28*
X136960000Y-80620000D03*
D27*
X134420000Y-85700000D03*
D28*
X135690000Y-83160000D03*
X143310000Y-83160000D03*
D13*
X139500000Y-85700000D03*
D28*
X142040000Y-80620000D03*
D26*
X152900000Y-79280000D03*
X165600000Y-81820000D03*
D28*
X156060000Y-79320000D03*
X161140000Y-79320000D03*
X154790000Y-81860000D03*
D27*
X163680000Y-84400000D03*
X153520000Y-84400000D03*
D28*
X162410000Y-81860000D03*
D13*
X158600000Y-84400000D03*
D26*
X171900000Y-80580000D03*
X184600000Y-83120000D03*
D27*
X182680000Y-85700000D03*
D28*
X180140000Y-80620000D03*
X175060000Y-80620000D03*
D27*
X172520000Y-85700000D03*
D13*
X177600000Y-85700000D03*
D28*
X173790000Y-83160000D03*
X181410000Y-83160000D03*
D26*
X191000000Y-85380000D03*
X203700000Y-87920000D03*
D28*
X200510000Y-87960000D03*
X199240000Y-85420000D03*
X194160000Y-85420000D03*
D13*
X196700000Y-90500000D03*
D28*
X192890000Y-87960000D03*
D27*
X191620000Y-90500000D03*
X201780000Y-90500000D03*
D26*
X210000000Y-86880000D03*
X222700000Y-89420000D03*
D27*
X210620000Y-92000000D03*
D28*
X219510000Y-89460000D03*
D13*
X215700000Y-92000000D03*
D28*
X218240000Y-86920000D03*
X211890000Y-89460000D03*
D27*
X220780000Y-92000000D03*
D28*
X213160000Y-86920000D03*
D26*
X114800000Y-101980000D03*
X127500000Y-104520000D03*
D27*
X115420000Y-107100000D03*
D28*
X123040000Y-102020000D03*
X116690000Y-104560000D03*
X117960000Y-102020000D03*
X124310000Y-104560000D03*
D27*
X125580000Y-107100000D03*
D13*
X120500000Y-107100000D03*
D26*
X133800000Y-99680000D03*
X146500000Y-102220000D03*
D27*
X144580000Y-104800000D03*
D28*
X143310000Y-102260000D03*
X142040000Y-99720000D03*
X135690000Y-102260000D03*
X136960000Y-99720000D03*
D27*
X134420000Y-104800000D03*
D13*
X139500000Y-104800000D03*
D26*
X152900000Y-98280000D03*
X165600000Y-100820000D03*
D28*
X161140000Y-98320000D03*
D27*
X163680000Y-103400000D03*
X153520000Y-103400000D03*
D13*
X158600000Y-103400000D03*
D28*
X162410000Y-100860000D03*
X154790000Y-100860000D03*
X156060000Y-98320000D03*
D26*
X171900000Y-99680000D03*
X184600000Y-102220000D03*
D27*
X182680000Y-104800000D03*
D28*
X180140000Y-99720000D03*
D27*
X172520000Y-104800000D03*
D28*
X173790000Y-102260000D03*
X181410000Y-102260000D03*
D13*
X177600000Y-104800000D03*
D28*
X175060000Y-99720000D03*
D26*
X191000000Y-104380000D03*
X203700000Y-106920000D03*
D27*
X201780000Y-109500000D03*
D13*
X196700000Y-109500000D03*
D28*
X194160000Y-104420000D03*
X200510000Y-106960000D03*
X199240000Y-104420000D03*
D27*
X191620000Y-109500000D03*
D28*
X192890000Y-106960000D03*
D26*
X210050000Y-105880000D03*
X222750000Y-108420000D03*
D28*
X219560000Y-108460000D03*
X218290000Y-105920000D03*
D27*
X220830000Y-111000000D03*
D28*
X213210000Y-105920000D03*
D13*
X215750000Y-111000000D03*
D28*
X211940000Y-108460000D03*
D27*
X210670000Y-111000000D03*
D29*
X106584050Y-119503655D03*
X110734346Y-131772178D03*
D27*
X107540000Y-131399409D03*
D28*
X105294705Y-122430443D03*
X109104705Y-129029557D03*
X108129409Y-122260295D03*
X110669409Y-126659705D03*
D27*
X102460000Y-122600591D03*
D13*
X105000000Y-127000000D03*
D26*
X124300000Y-120880000D03*
X137000000Y-123420000D03*
D27*
X124920000Y-126000000D03*
D28*
X133810000Y-123460000D03*
X127460000Y-120920000D03*
X132540000Y-120920000D03*
X126190000Y-123460000D03*
D27*
X135080000Y-126000000D03*
D13*
X130000000Y-126000000D03*
D26*
X143300000Y-118630000D03*
X156000000Y-121170000D03*
D28*
X145190000Y-121210000D03*
X151540000Y-118670000D03*
X152810000Y-121210000D03*
D27*
X154080000Y-123750000D03*
D13*
X149000000Y-123750000D03*
D28*
X146460000Y-118670000D03*
D27*
X143920000Y-123750000D03*
D26*
X162400000Y-118630000D03*
X175100000Y-121170000D03*
D28*
X164290000Y-121210000D03*
X170640000Y-118670000D03*
D27*
X163020000Y-123750000D03*
X173180000Y-123750000D03*
D28*
X171910000Y-121210000D03*
X165560000Y-118670000D03*
D13*
X168100000Y-123750000D03*
D14*
X86000000Y-85000000D03*
X108000000Y-85000000D03*
D26*
X114800000Y-44880000D03*
X127500000Y-47420000D03*
D27*
X115420000Y-50000000D03*
D13*
X120500000Y-50000000D03*
D28*
X123040000Y-44920000D03*
X116690000Y-47460000D03*
X124310000Y-47460000D03*
D27*
X125580000Y-50000000D03*
D28*
X117960000Y-44920000D03*
D30*
X118750000Y-56375000D03*
X118750000Y-54625000D03*
X122250000Y-54625000D03*
X122250000Y-56375000D03*
X141250000Y-109425000D03*
X141250000Y-111175000D03*
X137750000Y-111175000D03*
X137750000Y-109425000D03*
X147250000Y-130125000D03*
X147250000Y-128375000D03*
X150750000Y-128375000D03*
X150750000Y-130125000D03*
X160350000Y-108025000D03*
X160350000Y-109775000D03*
X156850000Y-109775000D03*
X156850000Y-108025000D03*
X198450000Y-114125000D03*
X198450000Y-115875000D03*
X194950000Y-115875000D03*
X194950000Y-114125000D03*
X217500000Y-115625000D03*
X217500000Y-117375000D03*
X214000000Y-117375000D03*
X214000000Y-115625000D03*
X128250000Y-132375000D03*
X128250000Y-130625000D03*
X131750000Y-130625000D03*
X131750000Y-132375000D03*
X175850000Y-92075000D03*
X175850000Y-90325000D03*
X179350000Y-90325000D03*
X179350000Y-92075000D03*
X122250000Y-111725000D03*
X122250000Y-113475000D03*
X118750000Y-113475000D03*
X118750000Y-111725000D03*
X213950000Y-98375000D03*
X213950000Y-96625000D03*
X217450000Y-96625000D03*
X217450000Y-98375000D03*
X156850000Y-90775000D03*
X156850000Y-89025000D03*
X160350000Y-89025000D03*
X160350000Y-90775000D03*
X137750000Y-92075000D03*
X137750000Y-90325000D03*
X141250000Y-90325000D03*
X141250000Y-92075000D03*
X118750000Y-94475000D03*
X118750000Y-92725000D03*
X122250000Y-92725000D03*
X122250000Y-94475000D03*
X217450000Y-77425000D03*
X217450000Y-79175000D03*
X213950000Y-79175000D03*
X213950000Y-77425000D03*
X194950000Y-96875000D03*
X194950000Y-95125000D03*
X198450000Y-95125000D03*
X198450000Y-96875000D03*
X179350000Y-109425000D03*
X179350000Y-111175000D03*
X175850000Y-111175000D03*
X175850000Y-109425000D03*
X179350000Y-53975000D03*
X179350000Y-52225000D03*
X175850000Y-52225000D03*
X175850000Y-53975000D03*
X198450000Y-58775000D03*
X198450000Y-57025000D03*
X194950000Y-57025000D03*
X194950000Y-58775000D03*
X160350000Y-52585000D03*
X160350000Y-50835000D03*
X156850000Y-50835000D03*
X156850000Y-52585000D03*
X141250000Y-53975000D03*
X141250000Y-52225000D03*
X137750000Y-52225000D03*
X137750000Y-53975000D03*
X198450000Y-75925000D03*
X198450000Y-77675000D03*
X194950000Y-77675000D03*
X194950000Y-75925000D03*
X179350000Y-71225000D03*
X179350000Y-72975000D03*
X175850000Y-72975000D03*
X175850000Y-71225000D03*
X160350000Y-69925000D03*
X160350000Y-71675000D03*
X156850000Y-71675000D03*
X156850000Y-69925000D03*
X217450000Y-60275000D03*
X217450000Y-58525000D03*
X213950000Y-58525000D03*
X213950000Y-60275000D03*
X141250000Y-71325000D03*
X141250000Y-73075000D03*
X137750000Y-73075000D03*
X137750000Y-71325000D03*
X122250000Y-73725000D03*
X122250000Y-75475000D03*
X118750000Y-75475000D03*
X118750000Y-73725000D03*
X166350000Y-130125000D03*
X166350000Y-128375000D03*
X169850000Y-128375000D03*
X169850000Y-130125000D03*
D31*
X98604087Y-128671956D03*
X100119631Y-127796956D03*
X101869631Y-130828044D03*
X100354087Y-131703044D03*
D32*
X108454600Y-94996000D03*
X108454600Y-99996000D03*
D33*
X101454600Y-103096000D03*
D34*
X101454600Y-91896000D03*
D32*
X93954600Y-97496000D03*
X93954600Y-99996000D03*
D18*
X93954600Y-94996000D03*
D30*
X103099200Y-106239800D03*
X103099200Y-107989800D03*
X99599200Y-107989800D03*
X99599200Y-106239800D03*
X103195000Y-87009000D03*
X103195000Y-88759000D03*
X99695000Y-88759000D03*
X99695000Y-87009000D03*
D35*
X206146400Y-104292400D03*
D36*
X206146400Y-111912400D03*
D35*
X206197200Y-84632800D03*
D36*
X206197200Y-92252800D03*
D35*
X148640800Y-98704400D03*
D36*
X148640800Y-106324400D03*
D35*
X187756800Y-84683600D03*
D36*
X187756800Y-92303600D03*
D35*
X206248000Y-66141600D03*
D36*
X206248000Y-73761600D03*
D35*
X129413000Y-63373000D03*
D36*
X129413000Y-70993000D03*
D35*
X148945600Y-78282800D03*
D36*
X148945600Y-85902800D03*
D35*
X118872000Y-40640000D03*
D36*
X126492000Y-40640000D03*
D20*
X118745000Y-122430443D03*
D19*
X122555000Y-129029557D03*
D35*
X167589200Y-59994800D03*
D36*
X167589200Y-67614800D03*
D35*
X188163200Y-64897000D03*
D36*
X188163200Y-72517000D03*
D35*
X135890000Y-76200000D03*
D36*
X143510000Y-76200000D03*
D35*
X129540000Y-101600000D03*
D36*
X129540000Y-109220000D03*
D35*
X115824000Y-99060000D03*
D36*
X123444000Y-99060000D03*
D35*
X168250000Y-99060000D03*
D36*
X168250000Y-106680000D03*
D35*
X148590000Y-60198000D03*
D36*
X148590000Y-67818000D03*
D35*
X187756800Y-46431200D03*
D36*
X187756800Y-54051200D03*
D35*
X158700000Y-118364000D03*
D36*
X158700000Y-125984000D03*
D35*
X116840000Y-80010000D03*
D36*
X124460000Y-80010000D03*
D35*
X129336800Y-82194400D03*
D36*
X129336800Y-89814400D03*
D35*
X168351200Y-79552800D03*
D36*
X168351200Y-87172800D03*
D35*
X153365200Y-112420400D03*
D36*
X145745200Y-112420400D03*
D35*
X206298800Y-47142400D03*
D36*
X206298800Y-54762400D03*
D35*
X129692400Y-43688000D03*
D36*
X129692400Y-51308000D03*
D35*
X148590000Y-41605200D03*
D36*
X148590000Y-49225200D03*
D35*
X187655200Y-104140000D03*
D36*
X187655200Y-111760000D03*
D35*
X91948000Y-81407000D03*
D36*
X99568000Y-81407000D03*
D35*
X138988800Y-119888000D03*
D36*
X138988800Y-127508000D03*
X126492000Y-40640000D03*
D35*
X118872000Y-40640000D03*
D36*
X129692400Y-51308000D03*
D35*
X129692400Y-43688000D03*
D36*
X148590000Y-49225200D03*
D35*
X148590000Y-41605200D03*
D36*
X145745200Y-112420400D03*
D35*
X153365200Y-112420400D03*
D36*
X187756800Y-54051200D03*
D35*
X187756800Y-46431200D03*
D36*
X206298800Y-54762400D03*
D35*
X206298800Y-47142400D03*
D36*
X129413000Y-70993000D03*
D35*
X129413000Y-63373000D03*
D36*
X143510000Y-76200000D03*
D35*
X135890000Y-76200000D03*
D36*
X148590000Y-67818000D03*
D35*
X148590000Y-60198000D03*
D36*
X167589200Y-67614800D03*
D35*
X167589200Y-59994800D03*
D36*
X188163200Y-72517000D03*
D35*
X188163200Y-64897000D03*
D36*
X206248000Y-73761600D03*
D35*
X206248000Y-66141600D03*
D36*
X124460000Y-80010000D03*
D35*
X116840000Y-80010000D03*
D36*
X129336800Y-89814400D03*
D35*
X129336800Y-82194400D03*
D36*
X148945600Y-85902800D03*
D35*
X148945600Y-78282800D03*
D36*
X168351200Y-87172800D03*
D35*
X168351200Y-79552800D03*
D36*
X187756800Y-92303600D03*
D35*
X187756800Y-84683600D03*
D36*
X206197200Y-92252800D03*
D35*
X206197200Y-84632800D03*
D36*
X123444000Y-99060000D03*
D35*
X115824000Y-99060000D03*
D36*
X129540000Y-109220000D03*
D35*
X129540000Y-101600000D03*
D36*
X148640800Y-106324400D03*
D35*
X148640800Y-98704400D03*
D36*
X168250000Y-106680000D03*
D35*
X168250000Y-99060000D03*
D36*
X187655200Y-111760000D03*
D35*
X187655200Y-104140000D03*
D36*
X99568000Y-81407000D03*
D35*
X91948000Y-81407000D03*
D19*
X122555000Y-129029557D03*
D20*
X118745000Y-122430443D03*
D36*
X138988800Y-127508000D03*
D35*
X138988800Y-119888000D03*
D36*
X158700000Y-125984000D03*
D35*
X158700000Y-118364000D03*
D36*
X206146400Y-111912400D03*
D35*
X206146400Y-104292400D03*
D20*
X109982000Y-118872000D03*
D19*
X113792000Y-125471114D03*
M02*
