G04 #@! TF.GenerationSoftware,KiCad,Pcbnew,(6.0.0-0)*
G04 #@! TF.CreationDate,2022-05-31T22:11:55-04:00*
G04 #@! TF.ProjectId,Lily58,4c696c79-3538-42e6-9b69-6361645f7063,rev?*
G04 #@! TF.SameCoordinates,Original*
G04 #@! TF.FileFunction,Legend,Top*
G04 #@! TF.FilePolarity,Positive*
%FSLAX46Y46*%
G04 Gerber Fmt 4.6, Leading zero omitted, Abs format (unit mm)*
G04 Created by KiCad (PCBNEW (6.0.0-0)) date 2022-05-31 22:11:55*
%MOMM*%
%LPD*%
G01*
G04 APERTURE LIST*
G04 Aperture macros list*
%AMHorizOval*
0 Thick line with rounded ends*
0 $1 width*
0 $2 $3 position (X,Y) of the first rounded end (center of the circle)*
0 $4 $5 position (X,Y) of the second rounded end (center of the circle)*
0 Add line between two ends*
20,1,$1,$2,$3,$4,$5,0*
0 Add two circle primitives to create the rounded ends*
1,1,$1,$2,$3*
1,1,$1,$4,$5*%
%AMRotRect*
0 Rectangle, with rotation*
0 The origin of the aperture is its center*
0 $1 length*
0 $2 width*
0 $3 Rotation angle, in degrees counterclockwise*
0 Add horizontal line*
21,1,$1,$2,0,0,$3*%
G04 Aperture macros list end*
G04 #@! TA.AperFunction,Profile*
%ADD10C,0.200000*%
G04 #@! TD*
G04 #@! TA.AperFunction,Profile*
%ADD11C,0.150000*%
G04 #@! TD*
%ADD12C,0.125000*%
%ADD13C,0.150000*%
%ADD14C,0.300000*%
%ADD15C,0.120000*%
%ADD16C,0.381000*%
%ADD17RotRect,1.800000X1.800000X120.000000*%
%ADD18C,1.752600*%
%ADD19C,1.397000*%
%ADD20C,4.000000*%
%ADD21C,1.800000*%
%ADD22C,2.200000*%
%ADD23R,1.800000X1.800000*%
%ADD24C,1.700000*%
%ADD25O,2.200000X3.500000*%
%ADD26R,1.500000X2.500000*%
%ADD27O,1.500000X2.500000*%
%ADD28R,2.000000X2.000000*%
%ADD29HorizOval,1.800000X0.000000X0.000000X0.000000X0.000000X0*%
%ADD30C,4.900000*%
%ADD31C,2.500000*%
%ADD32R,1.143000X0.635000*%
%ADD33R,2.550000X2.500000*%
%ADD34C,3.000000*%
%ADD35RotRect,2.550000X2.500000X120.000000*%
%ADD36R,1.600000X0.850000*%
%ADD37RotRect,1.600000X0.850000X120.000000*%
%ADD38C,2.000000*%
%ADD39R,3.200000X2.000000*%
%ADD40O,3.200000X2.000000*%
%ADD41O,1.800000X1.800000*%
G04 APERTURE END LIST*
D10*
X104807833Y-37086762D02*
X94400000Y-37086762D01*
X82937528Y-82285296D02*
X82937528Y-75978362D01*
X82937528Y-75978362D02*
X82937528Y-69671429D01*
X82937528Y-88592229D02*
X82937528Y-82285296D01*
D11*
X118750000Y-57750000D02*
X118750000Y-53250000D01*
X101310889Y-127109431D02*
X103060889Y-130140520D01*
X103060889Y-130140520D02*
X99163775Y-132390520D01*
X97413775Y-129359431D02*
X101310889Y-127109431D01*
X99163775Y-132390520D02*
X97413775Y-129359431D01*
X118750000Y-72350000D02*
X122250000Y-72350000D01*
X131750000Y-129250000D02*
X131750000Y-133750000D01*
X166350000Y-127000000D02*
X169850000Y-127000000D01*
X160350000Y-111150000D02*
X156850000Y-111150000D01*
X141250000Y-108050000D02*
X141250000Y-112550000D01*
X103099200Y-104864800D02*
X103099200Y-109364800D01*
X137750000Y-108050000D02*
X141250000Y-108050000D01*
X198450000Y-117250000D02*
X194950000Y-117250000D01*
X122250000Y-114850000D02*
X118750000Y-114850000D01*
X156850000Y-111150000D02*
X156850000Y-106650000D01*
X166350000Y-131500000D02*
X166350000Y-127000000D01*
X194950000Y-117250000D02*
X194950000Y-112750000D01*
X141250000Y-112550000D02*
X137750000Y-112550000D01*
X122250000Y-110350000D02*
X122250000Y-114850000D01*
X179350000Y-108050000D02*
X179350000Y-112550000D01*
X175850000Y-108050000D02*
X179350000Y-108050000D01*
X214000000Y-118750000D02*
X214000000Y-114250000D01*
X147250000Y-127000000D02*
X150750000Y-127000000D01*
X150750000Y-131500000D02*
X147250000Y-131500000D01*
X160350000Y-106650000D02*
X160350000Y-111150000D01*
X137750000Y-112550000D02*
X137750000Y-108050000D01*
X150750000Y-127000000D02*
X150750000Y-131500000D01*
X156850000Y-106650000D02*
X160350000Y-106650000D01*
X217500000Y-114250000D02*
X217500000Y-118750000D01*
X99599200Y-104864800D02*
X103099200Y-104864800D01*
X194950000Y-112750000D02*
X198450000Y-112750000D01*
X128250000Y-129250000D02*
X131750000Y-129250000D01*
X103099200Y-109364800D02*
X99599200Y-109364800D01*
X175850000Y-112550000D02*
X175850000Y-108050000D01*
X217500000Y-118750000D02*
X214000000Y-118750000D01*
X214000000Y-114250000D02*
X217500000Y-114250000D01*
X147250000Y-131500000D02*
X147250000Y-127000000D01*
X99599200Y-109364800D02*
X99599200Y-104864800D01*
X118750000Y-114850000D02*
X118750000Y-110350000D01*
X118750000Y-110350000D02*
X122250000Y-110350000D01*
X128250000Y-133750000D02*
X128250000Y-129250000D01*
X169850000Y-127000000D02*
X169850000Y-131500000D01*
X169850000Y-131500000D02*
X166350000Y-131500000D01*
X179350000Y-112550000D02*
X175850000Y-112550000D01*
X198450000Y-112750000D02*
X198450000Y-117250000D01*
X131750000Y-133750000D02*
X128250000Y-133750000D01*
X99624000Y-90170000D02*
X99624000Y-85670000D01*
X103124000Y-85670000D02*
X103124000Y-90170000D01*
X103124000Y-90170000D02*
X99624000Y-90170000D01*
X99624000Y-85670000D02*
X103124000Y-85670000D01*
D10*
X178319348Y-134034052D02*
X178288901Y-134314154D01*
X225460000Y-100326490D02*
X225460000Y-109808112D01*
X82937528Y-63364495D02*
X82937528Y-57057562D01*
D11*
X160350000Y-92150000D02*
X156850000Y-92150000D01*
D10*
X96695647Y-131453701D02*
X98371341Y-134320020D01*
X225204001Y-120128696D02*
X225020912Y-120350648D01*
X169449826Y-135511658D02*
X176819348Y-135511658D01*
D11*
X141250000Y-88950000D02*
X141250000Y-93450000D01*
D10*
X89992869Y-119988423D02*
X91668563Y-122854742D01*
X177658308Y-135255660D02*
X177403500Y-135393876D01*
D11*
X141250000Y-55350000D02*
X137750000Y-55350000D01*
D10*
X178201565Y-134595810D02*
X178063349Y-134850619D01*
X104288864Y-143357278D02*
X104456758Y-143271756D01*
D11*
X122250000Y-72350000D02*
X122250000Y-76850000D01*
D10*
X225460000Y-43436755D02*
X225460000Y-52918378D01*
D11*
X198450000Y-60150000D02*
X194950000Y-60150000D01*
D10*
X136027379Y-37086762D02*
X125619545Y-37086762D01*
X104130206Y-143404468D02*
X104288864Y-143357278D01*
X83245570Y-37394123D02*
X83400937Y-37265961D01*
X103842470Y-143386445D02*
X103981252Y-143413974D01*
D11*
X179350000Y-50850000D02*
X179350000Y-55350000D01*
D10*
X82937528Y-50750629D02*
X82937528Y-44443695D01*
X103597295Y-143222884D02*
X103714328Y-143322532D01*
X116186619Y-136480784D02*
X117862313Y-135510645D01*
X224278471Y-42156190D02*
X220889319Y-40963847D01*
D11*
X217450000Y-80550000D02*
X213950000Y-80550000D01*
D10*
X103981252Y-143413974D02*
X104130206Y-143404468D01*
D11*
X194950000Y-93750000D02*
X198450000Y-93750000D01*
X156850000Y-87650000D02*
X160350000Y-87650000D01*
D10*
X224900000Y-42700000D02*
X224278471Y-42156190D01*
X178319348Y-131597973D02*
X178319348Y-132816013D01*
D11*
X137750000Y-74450000D02*
X137750000Y-69950000D01*
D10*
X178319348Y-129161894D02*
X178319348Y-130379933D01*
D11*
X118750000Y-76850000D02*
X118750000Y-72350000D01*
X122250000Y-91350000D02*
X122250000Y-95850000D01*
D10*
X83579303Y-37169210D02*
X83776462Y-37108075D01*
X178594174Y-122926713D02*
X178916678Y-122332160D01*
X178390391Y-123583911D02*
X178594174Y-122926713D01*
X104456758Y-143271756D02*
X106132452Y-142301617D01*
X197622092Y-120789735D02*
X202889673Y-120789735D01*
X213424836Y-120789735D02*
X218692418Y-120789735D01*
X225460000Y-90844867D02*
X225460000Y-100326490D01*
D11*
X160350000Y-49460000D02*
X160350000Y-53960000D01*
D10*
X91668563Y-122854742D02*
X93344258Y-125721062D01*
X139971738Y-135511658D02*
X147341260Y-135511658D01*
X82937528Y-44443695D02*
X82937528Y-38136762D01*
X224900000Y-42700000D02*
X225460000Y-43436755D01*
D11*
X179350000Y-55350000D02*
X175850000Y-55350000D01*
D10*
X83400937Y-37265961D02*
X83579303Y-37169210D01*
D11*
X118750000Y-91350000D02*
X122250000Y-91350000D01*
D10*
X95019952Y-128587381D02*
X96695647Y-131453701D01*
D11*
X137750000Y-69950000D02*
X141250000Y-69950000D01*
D10*
X192354511Y-120789735D02*
X197622092Y-120789735D01*
D11*
X156850000Y-68550000D02*
X160350000Y-68550000D01*
D10*
X181819348Y-120789735D02*
X187086929Y-120789735D01*
X177880261Y-135072571D02*
X177658308Y-135255660D01*
X103398425Y-142918979D02*
X103491837Y-143088150D01*
D11*
X175850000Y-74350000D02*
X175850000Y-69850000D01*
D10*
X225020912Y-120350648D02*
X224798960Y-120533736D01*
D11*
X141250000Y-93450000D02*
X137750000Y-93450000D01*
D10*
X83020657Y-37727855D02*
X83117409Y-37549489D01*
D11*
X217450000Y-95250000D02*
X217450000Y-99750000D01*
D10*
X106132452Y-142301617D02*
X107808147Y-141331479D01*
D11*
X179350000Y-69850000D02*
X179350000Y-74350000D01*
X141250000Y-74450000D02*
X137750000Y-74450000D01*
D10*
X215525697Y-39885159D02*
X208420758Y-38945561D01*
D11*
X213950000Y-76050000D02*
X217450000Y-76050000D01*
D10*
X177403500Y-135393876D02*
X177121844Y-135481211D01*
D11*
X122250000Y-57750000D02*
X118750000Y-57750000D01*
X194950000Y-79050000D02*
X194950000Y-74550000D01*
X160350000Y-68550000D02*
X160350000Y-73050000D01*
X175850000Y-88950000D02*
X179350000Y-88950000D01*
X213950000Y-95250000D02*
X217450000Y-95250000D01*
X160350000Y-73050000D02*
X156850000Y-73050000D01*
X122250000Y-53250000D02*
X122250000Y-57750000D01*
X198450000Y-98250000D02*
X194950000Y-98250000D01*
D10*
X178319348Y-126725814D02*
X178319348Y-127943854D01*
X178063349Y-134850619D02*
X177880261Y-135072571D01*
X224262495Y-120759288D02*
X223959999Y-120789735D01*
X83135690Y-92617561D02*
X83490297Y-96657663D01*
D11*
X137750000Y-55350000D02*
X137750000Y-50850000D01*
D10*
X178319348Y-132816013D02*
X178319348Y-134034052D01*
D11*
X137750000Y-50850000D02*
X141250000Y-50850000D01*
D10*
X179343884Y-121814271D02*
X179861773Y-121387065D01*
X125619545Y-37086762D02*
X115211711Y-37086762D01*
X225460000Y-109808112D02*
X225460000Y-119289735D01*
X88291758Y-116318073D02*
X89993333Y-119989540D01*
X83117409Y-37549489D02*
X83245570Y-37394123D01*
D11*
X217450000Y-99750000D02*
X213950000Y-99750000D01*
X122250000Y-95850000D02*
X118750000Y-95850000D01*
D10*
X178916678Y-122332160D02*
X179343884Y-121814271D01*
X83490297Y-96657663D02*
X84020972Y-100690825D01*
X103714328Y-143322532D02*
X103842470Y-143386445D01*
X82938210Y-38136762D02*
X82959523Y-37925015D01*
X208157255Y-120789735D02*
X213424836Y-120789735D01*
X125232695Y-135511658D02*
X132602217Y-135511658D01*
X225460000Y-52918378D02*
X225460000Y-62400000D01*
D11*
X118750000Y-53250000D02*
X122250000Y-53250000D01*
D10*
X83776462Y-37108075D02*
X83988210Y-37086762D01*
X112835230Y-138421062D02*
X114510925Y-137450923D01*
X154710782Y-135511658D02*
X162080304Y-135511658D01*
X109483841Y-140361340D02*
X111159536Y-139391201D01*
X179861773Y-121387065D02*
X180456326Y-121064561D01*
D11*
X122250000Y-76850000D02*
X118750000Y-76850000D01*
D10*
X178319348Y-127943854D02*
X178319348Y-129161894D01*
D11*
X156850000Y-49460000D02*
X160350000Y-49460000D01*
D10*
X146435213Y-37086762D02*
X136027379Y-37086762D01*
D11*
X213950000Y-99750000D02*
X213950000Y-95250000D01*
D10*
X218692418Y-120789735D02*
X223959999Y-120789735D01*
X85688004Y-108649127D02*
X86863105Y-112530670D01*
X86863105Y-112530670D02*
X88291758Y-116318073D01*
D11*
X194950000Y-55650000D02*
X198450000Y-55650000D01*
D10*
X178288901Y-134314154D02*
X178201565Y-134595810D01*
X162080304Y-135511658D02*
X169449826Y-135511658D01*
X156843047Y-37086762D02*
X146435213Y-37086762D01*
D11*
X179350000Y-74350000D02*
X175850000Y-74350000D01*
D10*
X178319348Y-130379933D02*
X178319348Y-131597973D01*
D11*
X137750000Y-88950000D02*
X141250000Y-88950000D01*
D10*
X117863173Y-135511658D02*
X125232695Y-135511658D01*
X180456326Y-121064561D02*
X181113524Y-120860778D01*
D11*
X198450000Y-74550000D02*
X198450000Y-79050000D01*
X175850000Y-55350000D02*
X175850000Y-50850000D01*
D10*
X189919538Y-37585374D02*
X178989563Y-37215654D01*
X107808147Y-141331479D02*
X109483841Y-140361340D01*
X115211711Y-37086762D02*
X104803877Y-37086762D01*
D11*
X194950000Y-98250000D02*
X194950000Y-93750000D01*
X213950000Y-57150000D02*
X217450000Y-57150000D01*
X217450000Y-76050000D02*
X217450000Y-80550000D01*
D10*
X225429552Y-119592231D02*
X225342217Y-119873887D01*
D11*
X137750000Y-93450000D02*
X137750000Y-88950000D01*
D10*
X82937528Y-57057562D02*
X82937528Y-50750629D01*
X225460000Y-71881623D02*
X225460000Y-81363245D01*
X101722730Y-140052659D02*
X103398425Y-142918979D01*
D11*
X175850000Y-69850000D02*
X179350000Y-69850000D01*
X179350000Y-88950000D02*
X179350000Y-93450000D01*
D10*
X181113524Y-120860778D02*
X181819348Y-120789735D01*
X225460000Y-62400000D02*
X225460000Y-71881623D01*
X103491837Y-143088150D02*
X103597295Y-143222884D01*
X84020972Y-100690825D02*
X84747083Y-104695246D01*
X94396044Y-37086762D02*
X83988210Y-37086762D01*
X178319348Y-124289735D02*
X178319348Y-125507775D01*
D11*
X175850000Y-93450000D02*
X175850000Y-88950000D01*
X160350000Y-87650000D02*
X160350000Y-92150000D01*
D10*
X208420758Y-38945561D02*
X199807654Y-38170488D01*
X132602217Y-135511658D02*
X139971738Y-135511658D01*
X82937777Y-88592317D02*
X83135690Y-92617561D01*
D11*
X198450000Y-55650000D02*
X198450000Y-60150000D01*
D10*
X147341260Y-135511658D02*
X154710782Y-135511658D01*
D11*
X141250000Y-50850000D02*
X141250000Y-55350000D01*
X160350000Y-53960000D02*
X156850000Y-53960000D01*
D10*
X178319348Y-124289735D02*
X178390391Y-123583911D01*
D11*
X156850000Y-92150000D02*
X156850000Y-87650000D01*
D10*
X98371341Y-134320020D02*
X100047036Y-137186340D01*
X225342217Y-119873887D02*
X225204001Y-120128696D01*
X202889673Y-120789735D02*
X208157255Y-120789735D01*
X82937528Y-69671429D02*
X82937528Y-63364495D01*
D11*
X198450000Y-93750000D02*
X198450000Y-98250000D01*
X141250000Y-69950000D02*
X141250000Y-74450000D01*
D10*
X111159536Y-139391201D02*
X112835230Y-138421062D01*
D11*
X213950000Y-80550000D02*
X213950000Y-76050000D01*
D10*
X225460000Y-81363245D02*
X225460000Y-90844867D01*
X187086929Y-120789735D02*
X192354511Y-120789735D01*
X220889319Y-40963847D02*
X215525697Y-39885159D01*
D11*
X118750000Y-95850000D02*
X118750000Y-91350000D01*
D10*
X177121844Y-135481211D02*
X176819348Y-135511658D01*
D11*
X156850000Y-73050000D02*
X156850000Y-68550000D01*
X217450000Y-61650000D02*
X213950000Y-61650000D01*
D10*
X84747083Y-104695246D02*
X85688004Y-108649127D01*
D11*
X198450000Y-79050000D02*
X194950000Y-79050000D01*
D10*
X167250881Y-37086762D02*
X156843047Y-37086762D01*
X114510925Y-137450923D02*
X116186619Y-136480784D01*
X224544152Y-120671952D02*
X224262495Y-120759288D01*
X100047036Y-137186340D02*
X101722730Y-140052659D01*
D11*
X194950000Y-60150000D02*
X194950000Y-55650000D01*
X213950000Y-61650000D02*
X213950000Y-57150000D01*
D10*
X93344258Y-125721062D02*
X95019952Y-128587381D01*
X178989563Y-37215654D02*
X167250881Y-37086762D01*
D11*
X217450000Y-57150000D02*
X217450000Y-61650000D01*
D10*
X224798960Y-120533736D02*
X224544152Y-120671952D01*
X225459999Y-119289735D02*
X225429552Y-119592231D01*
D11*
X194950000Y-74550000D02*
X198450000Y-74550000D01*
D10*
X199807654Y-38170488D02*
X189919538Y-37585374D01*
D11*
X179350000Y-93450000D02*
X175850000Y-93450000D01*
X175850000Y-50850000D02*
X179350000Y-50850000D01*
X156850000Y-53960000D02*
X156850000Y-49460000D01*
D10*
X178319348Y-125507775D02*
X178319348Y-126725814D01*
X82959523Y-37925015D02*
X83020657Y-37727855D01*
D12*
X113850000Y-79016666D02*
X113516666Y-79016666D01*
X113516666Y-78316666D01*
X114083333Y-78650000D02*
X114316666Y-78650000D01*
X114416666Y-79016666D02*
X114083333Y-79016666D01*
X114083333Y-78316666D01*
X114416666Y-78316666D01*
X114716666Y-79016666D02*
X114716666Y-78316666D01*
X114883333Y-78316666D01*
X114983333Y-78350000D01*
X115050000Y-78416666D01*
X115083333Y-78483333D01*
X115116666Y-78616666D01*
X115116666Y-78716666D01*
X115083333Y-78850000D01*
X115050000Y-78916666D01*
X114983333Y-78983333D01*
X114883333Y-79016666D01*
X114716666Y-79016666D01*
X113766666Y-75850000D02*
X113700000Y-75816666D01*
X113600000Y-75816666D01*
X113500000Y-75850000D01*
X113433333Y-75916666D01*
X113400000Y-75983333D01*
X113366666Y-76116666D01*
X113366666Y-76216666D01*
X113400000Y-76350000D01*
X113433333Y-76416666D01*
X113500000Y-76483333D01*
X113600000Y-76516666D01*
X113666666Y-76516666D01*
X113766666Y-76483333D01*
X113800000Y-76450000D01*
X113800000Y-76216666D01*
X113666666Y-76216666D01*
X114100000Y-76516666D02*
X114100000Y-75816666D01*
X114500000Y-76516666D01*
X114500000Y-75816666D01*
X114833333Y-76516666D02*
X114833333Y-75816666D01*
X115000000Y-75816666D01*
X115100000Y-75850000D01*
X115166666Y-75916666D01*
X115200000Y-75983333D01*
X115233333Y-76116666D01*
X115233333Y-76216666D01*
X115200000Y-76350000D01*
X115166666Y-76416666D01*
X115100000Y-76483333D01*
X115000000Y-76516666D01*
X114833333Y-76516666D01*
X113266666Y-80916666D02*
X113500000Y-81616666D01*
X113733333Y-80916666D01*
X114366666Y-81550000D02*
X114333333Y-81583333D01*
X114233333Y-81616666D01*
X114166666Y-81616666D01*
X114066666Y-81583333D01*
X114000000Y-81516666D01*
X113966666Y-81450000D01*
X113933333Y-81316666D01*
X113933333Y-81216666D01*
X113966666Y-81083333D01*
X114000000Y-81016666D01*
X114066666Y-80950000D01*
X114166666Y-80916666D01*
X114233333Y-80916666D01*
X114333333Y-80950000D01*
X114366666Y-80983333D01*
X115066666Y-81550000D02*
X115033333Y-81583333D01*
X114933333Y-81616666D01*
X114866666Y-81616666D01*
X114766666Y-81583333D01*
X114700000Y-81516666D01*
X114666666Y-81450000D01*
X114633333Y-81316666D01*
X114633333Y-81216666D01*
X114666666Y-81083333D01*
X114700000Y-81016666D01*
X114766666Y-80950000D01*
X114866666Y-80916666D01*
X114933333Y-80916666D01*
X115033333Y-80950000D01*
X115066666Y-80983333D01*
D13*
X85179332Y-88975717D02*
X85823282Y-88803171D01*
X86145258Y-88716898D02*
X86086937Y-88683226D01*
X86053265Y-88741548D01*
X86111586Y-88775219D01*
X86145258Y-88716898D01*
X86053265Y-88741548D01*
X85413501Y-89849650D02*
X85919463Y-89714078D01*
X85999131Y-89643432D01*
X86020478Y-89539115D01*
X85971179Y-89355129D01*
X85900533Y-89275461D01*
X85459498Y-89837325D02*
X85388852Y-89757657D01*
X85327228Y-89527675D01*
X85348576Y-89423357D01*
X85428244Y-89352711D01*
X85520237Y-89328062D01*
X85624554Y-89349409D01*
X85695200Y-89429077D01*
X85756824Y-89659059D01*
X85827470Y-89738728D01*
X85570420Y-90251294D02*
X85549073Y-90355611D01*
X85598372Y-90539597D01*
X85669018Y-90619265D01*
X85773336Y-90640612D01*
X85819332Y-90628288D01*
X85899000Y-90557642D01*
X85920348Y-90453324D01*
X85883373Y-90315335D01*
X85904720Y-90211017D01*
X85984389Y-90140371D01*
X86030385Y-90128046D01*
X86134703Y-90149393D01*
X86205349Y-90229062D01*
X86242323Y-90367051D01*
X86220976Y-90471369D01*
X85783243Y-91229544D02*
X85804590Y-91125227D01*
X85838262Y-91066905D01*
X85917930Y-90996259D01*
X86193909Y-90922311D01*
X86298226Y-90943658D01*
X86356548Y-90977330D01*
X86427194Y-91056998D01*
X86464168Y-91194988D01*
X86442821Y-91299305D01*
X86409149Y-91357626D01*
X86329481Y-91428272D01*
X86053502Y-91502221D01*
X85949184Y-91480874D01*
X85890863Y-91447202D01*
X85820217Y-91367534D01*
X85783243Y-91229544D01*
X85980438Y-91965488D02*
X86624389Y-91792942D01*
X86440403Y-91842240D02*
X86544721Y-91863588D01*
X86603042Y-91897259D01*
X86673688Y-91976927D01*
X86698337Y-92068920D01*
X86285254Y-92919089D02*
X86214608Y-92839421D01*
X86165309Y-92655435D01*
X86186656Y-92551117D01*
X86266324Y-92480471D01*
X86634296Y-92381873D01*
X86738614Y-92403220D01*
X86809260Y-92482889D01*
X86858559Y-92666874D01*
X86837212Y-92771192D01*
X86757543Y-92841838D01*
X86665550Y-92866487D01*
X86450310Y-92431172D01*
X87006455Y-93218832D02*
X86362505Y-93391378D01*
X86914462Y-93243482D02*
X86972783Y-93277153D01*
X87043429Y-93356822D01*
X87080404Y-93494811D01*
X87059056Y-93599129D01*
X86979388Y-93669774D01*
X86473427Y-93805346D01*
X87793467Y-94684114D02*
X86329718Y-94188945D01*
X86991065Y-95737198D02*
X86867818Y-95277233D01*
X87833744Y-95018414D01*
X87077338Y-96059173D02*
X87721289Y-95886627D01*
X88043264Y-95800354D02*
X87984943Y-95766682D01*
X87951271Y-95825004D01*
X88009592Y-95858675D01*
X88043264Y-95800354D01*
X87951271Y-95825004D01*
X87237560Y-96657127D02*
X87258907Y-96552810D01*
X87338575Y-96482164D01*
X88166511Y-96260319D01*
X87955458Y-96760560D02*
X87373131Y-97163089D01*
X88078706Y-97220525D02*
X87373131Y-97163089D01*
X87118500Y-97132719D01*
X87060178Y-97099047D01*
X86989533Y-97019379D01*
X88622526Y-97962188D02*
X88499279Y-97502224D01*
X88026989Y-97579474D01*
X88085310Y-97613146D01*
X88155956Y-97692814D01*
X88217580Y-97922797D01*
X88196233Y-98027114D01*
X88162561Y-98085435D01*
X88082893Y-98156081D01*
X87852910Y-98217705D01*
X87748593Y-98196358D01*
X87690272Y-98162686D01*
X87619626Y-98083018D01*
X87558002Y-97853036D01*
X87579349Y-97748718D01*
X87613021Y-97690397D01*
X88368779Y-98671065D02*
X88390126Y-98566747D01*
X88423798Y-98508426D01*
X88503466Y-98437780D01*
X88549462Y-98425455D01*
X88653780Y-98446802D01*
X88712101Y-98480474D01*
X88782747Y-98560142D01*
X88832046Y-98744128D01*
X88810699Y-98848446D01*
X88777027Y-98906767D01*
X88697359Y-98977413D01*
X88651362Y-98989738D01*
X88547045Y-98968391D01*
X88488724Y-98934719D01*
X88418078Y-98855051D01*
X88368779Y-98671065D01*
X88298133Y-98591397D01*
X88239812Y-98557725D01*
X88135494Y-98536378D01*
X87951508Y-98585677D01*
X87871840Y-98656323D01*
X87838168Y-98714644D01*
X87816821Y-98818961D01*
X87866120Y-99002947D01*
X87936766Y-99082615D01*
X87995087Y-99116287D01*
X88099405Y-99137634D01*
X88283391Y-99088335D01*
X88363059Y-99017689D01*
X88396731Y-98959368D01*
X88418078Y-98855051D01*
X88394313Y-99502304D02*
X88591509Y-100238247D01*
X89402285Y-101056276D02*
X89423632Y-100951959D01*
X89386658Y-100813969D01*
X89303688Y-100688305D01*
X89187045Y-100620961D01*
X89082727Y-100599614D01*
X88886417Y-100602916D01*
X88748428Y-100639891D01*
X88576766Y-100735186D01*
X88497098Y-100805832D01*
X88429755Y-100922474D01*
X88420732Y-101072788D01*
X88445382Y-101164781D01*
X88528352Y-101290446D01*
X88586674Y-101324118D01*
X88908649Y-101237845D01*
X88859350Y-101053859D01*
X88642577Y-101900725D02*
X88663924Y-101796407D01*
X88743592Y-101725761D01*
X89571529Y-101503916D01*
X88778149Y-102406686D02*
X88799496Y-102302368D01*
X88833168Y-102244047D01*
X88912836Y-102173401D01*
X89188815Y-102099453D01*
X89293133Y-102120800D01*
X89351454Y-102154472D01*
X89422100Y-102234140D01*
X89459074Y-102372129D01*
X89437727Y-102476447D01*
X89404055Y-102534768D01*
X89324387Y-102605414D01*
X89048408Y-102679362D01*
X88944090Y-102658015D01*
X88885769Y-102624343D01*
X88815123Y-102544675D01*
X88778149Y-102406686D01*
X89594646Y-102878090D02*
X88999994Y-103234622D01*
X89509258Y-103295361D01*
X89098592Y-103602594D01*
X89791841Y-103614034D01*
X89614460Y-104055954D02*
X89811656Y-104791897D01*
X90072892Y-105214888D02*
X90159165Y-105536863D01*
X89690178Y-105810424D02*
X89566931Y-105350460D01*
X90532857Y-105091641D01*
X90656104Y-105551605D01*
X90445051Y-106051847D02*
X89801101Y-106224393D01*
X90353058Y-106076496D02*
X90411379Y-106110168D01*
X90482025Y-106189836D01*
X90518999Y-106327825D01*
X90497652Y-106432143D01*
X90417984Y-106502789D01*
X89912023Y-106638361D01*
X90192189Y-107499969D02*
X90121543Y-107420301D01*
X90072244Y-107236315D01*
X90093591Y-107131997D01*
X90127263Y-107073676D01*
X90206931Y-107003030D01*
X90482910Y-106929082D01*
X90587228Y-106950429D01*
X90645549Y-106984101D01*
X90716195Y-107063769D01*
X90765494Y-107247755D01*
X90744147Y-107352072D01*
X90625087Y-107827664D02*
X90822282Y-108563608D01*
X91518834Y-108771358D02*
X90614532Y-109260160D01*
X91353778Y-109259275D01*
X90713130Y-109628131D01*
X91740679Y-109599295D01*
X90873351Y-110226085D02*
X91517301Y-110053539D01*
X91839277Y-109967266D02*
X91780956Y-109933595D01*
X91747284Y-109991916D01*
X91805605Y-110025588D01*
X91839277Y-109967266D01*
X91747284Y-109991916D01*
X90996598Y-110686050D02*
X91640549Y-110513504D01*
X91456563Y-110562803D02*
X91560880Y-110584150D01*
X91619202Y-110617822D01*
X91689847Y-110697490D01*
X91714497Y-110789483D01*
X91301414Y-111639651D02*
X91230768Y-111559983D01*
X91181469Y-111375997D01*
X91202816Y-111271679D01*
X91282484Y-111201034D01*
X91650456Y-111102436D01*
X91754773Y-111123783D01*
X91825419Y-111203451D01*
X91874718Y-111387437D01*
X91853371Y-111491755D01*
X91773703Y-111562400D01*
X91681710Y-111587050D01*
X91466470Y-111151735D01*
X91415638Y-112249930D02*
X91436985Y-112145612D01*
X91516654Y-112074966D01*
X92344590Y-111853122D01*
X91658830Y-112973549D02*
X91588184Y-112893881D01*
X91538886Y-112709895D01*
X91560233Y-112605577D01*
X91639901Y-112534931D01*
X92007873Y-112436333D01*
X92112190Y-112457680D01*
X92182836Y-112537349D01*
X92232135Y-112721335D01*
X92210788Y-112825652D01*
X92131120Y-112896298D01*
X92039127Y-112920947D01*
X91823887Y-112485632D01*
X91769753Y-113387517D02*
X91748406Y-113491835D01*
X91797705Y-113675820D01*
X91868351Y-113755489D01*
X91972668Y-113776836D01*
X92018665Y-113764511D01*
X92098333Y-113693865D01*
X92119680Y-113589547D01*
X92082706Y-113451558D01*
X92104053Y-113347240D01*
X92183721Y-113276595D01*
X92229717Y-113264270D01*
X92334035Y-113285617D01*
X92404681Y-113365285D01*
X92441655Y-113503274D01*
X92420308Y-113607592D01*
X91979273Y-114169457D02*
X91957926Y-114273775D01*
X92007225Y-114457760D01*
X92077871Y-114537429D01*
X92182188Y-114558776D01*
X92228185Y-114546451D01*
X92307853Y-114475805D01*
X92329200Y-114371487D01*
X92292226Y-114233498D01*
X92313573Y-114129180D01*
X92393241Y-114058534D01*
X92439238Y-114046210D01*
X92543555Y-114067557D01*
X92614201Y-114147225D01*
X92651175Y-114285214D01*
X92629828Y-114389532D01*
X87509542Y-101316941D02*
X86927215Y-101719470D01*
X87632789Y-101776906D01*
X87223008Y-102823385D02*
X87075111Y-102271427D01*
X87149060Y-102547406D02*
X88114986Y-102288587D01*
X87952347Y-102233568D01*
X87835704Y-102166225D01*
X87765059Y-102086556D01*
X155987714Y-70175380D02*
X155416285Y-70175380D01*
X155702000Y-70175380D02*
X155702000Y-69175380D01*
X155606761Y-69318238D01*
X155511523Y-69413476D01*
X155416285Y-69461095D01*
X192382238Y-39820380D02*
X192382238Y-38820380D01*
X192477476Y-39439428D02*
X192763190Y-39820380D01*
X192763190Y-39153714D02*
X192382238Y-39534666D01*
X193620333Y-39820380D02*
X193620333Y-39296571D01*
X193572714Y-39201333D01*
X193477476Y-39153714D01*
X193287000Y-39153714D01*
X193191761Y-39201333D01*
X193620333Y-39772761D02*
X193525095Y-39820380D01*
X193287000Y-39820380D01*
X193191761Y-39772761D01*
X193144142Y-39677523D01*
X193144142Y-39582285D01*
X193191761Y-39487047D01*
X193287000Y-39439428D01*
X193525095Y-39439428D01*
X193620333Y-39391809D01*
X193953666Y-39153714D02*
X194334619Y-39153714D01*
X194096523Y-38820380D02*
X194096523Y-39677523D01*
X194144142Y-39772761D01*
X194239380Y-39820380D01*
X194334619Y-39820380D01*
X195096523Y-39820380D02*
X195096523Y-39296571D01*
X195048904Y-39201333D01*
X194953666Y-39153714D01*
X194763190Y-39153714D01*
X194667952Y-39201333D01*
X195096523Y-39772761D02*
X195001285Y-39820380D01*
X194763190Y-39820380D01*
X194667952Y-39772761D01*
X194620333Y-39677523D01*
X194620333Y-39582285D01*
X194667952Y-39487047D01*
X194763190Y-39439428D01*
X195001285Y-39439428D01*
X195096523Y-39391809D01*
X195763190Y-38820380D02*
X195858428Y-38820380D01*
X195953666Y-38868000D01*
X196001285Y-38915619D01*
X196048904Y-39010857D01*
X196096523Y-39201333D01*
X196096523Y-39439428D01*
X196048904Y-39629904D01*
X196001285Y-39725142D01*
X195953666Y-39772761D01*
X195858428Y-39820380D01*
X195763190Y-39820380D01*
X195667952Y-39772761D01*
X195620333Y-39725142D01*
X195572714Y-39629904D01*
X195525095Y-39439428D01*
X195525095Y-39201333D01*
X195572714Y-39010857D01*
X195620333Y-38915619D01*
X195667952Y-38868000D01*
X195763190Y-38820380D01*
X197001285Y-38820380D02*
X196525095Y-38820380D01*
X196477476Y-39296571D01*
X196525095Y-39248952D01*
X196620333Y-39201333D01*
X196858428Y-39201333D01*
X196953666Y-39248952D01*
X197001285Y-39296571D01*
X197048904Y-39391809D01*
X197048904Y-39629904D01*
X197001285Y-39725142D01*
X196953666Y-39772761D01*
X196858428Y-39820380D01*
X196620333Y-39820380D01*
X196525095Y-39772761D01*
X196477476Y-39725142D01*
X198001285Y-39820380D02*
X197429857Y-39820380D01*
X197715571Y-39820380D02*
X197715571Y-38820380D01*
X197620333Y-38963238D01*
X197525095Y-39058476D01*
X197429857Y-39106095D01*
X198620333Y-38820380D02*
X198715571Y-38820380D01*
X198810809Y-38868000D01*
X198858428Y-38915619D01*
X198906047Y-39010857D01*
X198953666Y-39201333D01*
X198953666Y-39439428D01*
X198906047Y-39629904D01*
X198858428Y-39725142D01*
X198810809Y-39772761D01*
X198715571Y-39820380D01*
X198620333Y-39820380D01*
X198525095Y-39772761D01*
X198477476Y-39725142D01*
X198429857Y-39629904D01*
X198382238Y-39439428D01*
X198382238Y-39201333D01*
X198429857Y-39010857D01*
X198477476Y-38915619D01*
X198525095Y-38868000D01*
X198620333Y-38820380D01*
X200096523Y-38772761D02*
X199239380Y-40058476D01*
X200906047Y-39820380D02*
X200429857Y-39820380D01*
X200429857Y-38820380D01*
X201239380Y-39820380D02*
X201239380Y-39153714D01*
X201239380Y-38820380D02*
X201191761Y-38868000D01*
X201239380Y-38915619D01*
X201287000Y-38868000D01*
X201239380Y-38820380D01*
X201239380Y-38915619D01*
X201858428Y-39820380D02*
X201763190Y-39772761D01*
X201715571Y-39677523D01*
X201715571Y-38820380D01*
X202144142Y-39153714D02*
X202382238Y-39820380D01*
X202620333Y-39153714D02*
X202382238Y-39820380D01*
X202287000Y-40058476D01*
X202239380Y-40106095D01*
X202144142Y-40153714D01*
X203477476Y-38820380D02*
X203001285Y-38820380D01*
X202953666Y-39296571D01*
X203001285Y-39248952D01*
X203096523Y-39201333D01*
X203334619Y-39201333D01*
X203429857Y-39248952D01*
X203477476Y-39296571D01*
X203525095Y-39391809D01*
X203525095Y-39629904D01*
X203477476Y-39725142D01*
X203429857Y-39772761D01*
X203334619Y-39820380D01*
X203096523Y-39820380D01*
X203001285Y-39772761D01*
X202953666Y-39725142D01*
X204096523Y-39248952D02*
X204001285Y-39201333D01*
X203953666Y-39153714D01*
X203906047Y-39058476D01*
X203906047Y-39010857D01*
X203953666Y-38915619D01*
X204001285Y-38868000D01*
X204096523Y-38820380D01*
X204287000Y-38820380D01*
X204382238Y-38868000D01*
X204429857Y-38915619D01*
X204477476Y-39010857D01*
X204477476Y-39058476D01*
X204429857Y-39153714D01*
X204382238Y-39201333D01*
X204287000Y-39248952D01*
X204096523Y-39248952D01*
X204001285Y-39296571D01*
X203953666Y-39344190D01*
X203906047Y-39439428D01*
X203906047Y-39629904D01*
X203953666Y-39725142D01*
X204001285Y-39772761D01*
X204096523Y-39820380D01*
X204287000Y-39820380D01*
X204382238Y-39772761D01*
X204429857Y-39725142D01*
X204477476Y-39629904D01*
X204477476Y-39439428D01*
X204429857Y-39344190D01*
X204382238Y-39296571D01*
X204287000Y-39248952D01*
X206429857Y-39296571D02*
X207191761Y-39296571D01*
X207191761Y-39582285D02*
X206429857Y-39582285D01*
X207667952Y-39153714D02*
X208429857Y-39439428D01*
X207667952Y-39725142D01*
X192739380Y-40763714D02*
X192739380Y-41763714D01*
X192739380Y-41382761D02*
X192644142Y-41430380D01*
X192453666Y-41430380D01*
X192358428Y-41382761D01*
X192310809Y-41335142D01*
X192263190Y-41239904D01*
X192263190Y-40954190D01*
X192310809Y-40858952D01*
X192358428Y-40811333D01*
X192453666Y-40763714D01*
X192644142Y-40763714D01*
X192739380Y-40811333D01*
X193072714Y-40763714D02*
X193453666Y-40763714D01*
X193215571Y-40430380D02*
X193215571Y-41287523D01*
X193263190Y-41382761D01*
X193358428Y-41430380D01*
X193453666Y-41430380D01*
X193787000Y-41430380D02*
X193787000Y-40430380D01*
X193882238Y-41049428D02*
X194167952Y-41430380D01*
X194167952Y-40763714D02*
X193787000Y-41144666D01*
X194596523Y-41430380D02*
X194596523Y-40430380D01*
X194596523Y-40811333D02*
X194691761Y-40763714D01*
X194882238Y-40763714D01*
X194977476Y-40811333D01*
X195025095Y-40858952D01*
X195072714Y-40954190D01*
X195072714Y-41239904D01*
X195025095Y-41335142D01*
X194977476Y-41382761D01*
X194882238Y-41430380D01*
X194691761Y-41430380D01*
X194596523Y-41382761D01*
X196215571Y-40382761D02*
X195358428Y-41668476D01*
X197025095Y-41430380D02*
X196548904Y-41430380D01*
X196548904Y-40430380D01*
X197358428Y-41430380D02*
X197358428Y-40763714D01*
X197358428Y-40430380D02*
X197310809Y-40478000D01*
X197358428Y-40525619D01*
X197406047Y-40478000D01*
X197358428Y-40430380D01*
X197358428Y-40525619D01*
X197977476Y-41430380D02*
X197882238Y-41382761D01*
X197834619Y-41287523D01*
X197834619Y-40430380D01*
X198263190Y-40763714D02*
X198501285Y-41430380D01*
X198739380Y-40763714D02*
X198501285Y-41430380D01*
X198406047Y-41668476D01*
X198358428Y-41716095D01*
X198263190Y-41763714D01*
X199596523Y-40430380D02*
X199120333Y-40430380D01*
X199072714Y-40906571D01*
X199120333Y-40858952D01*
X199215571Y-40811333D01*
X199453666Y-40811333D01*
X199548904Y-40858952D01*
X199596523Y-40906571D01*
X199644142Y-41001809D01*
X199644142Y-41239904D01*
X199596523Y-41335142D01*
X199548904Y-41382761D01*
X199453666Y-41430380D01*
X199215571Y-41430380D01*
X199120333Y-41382761D01*
X199072714Y-41335142D01*
X200215571Y-40858952D02*
X200120333Y-40811333D01*
X200072714Y-40763714D01*
X200025095Y-40668476D01*
X200025095Y-40620857D01*
X200072714Y-40525619D01*
X200120333Y-40478000D01*
X200215571Y-40430380D01*
X200406047Y-40430380D01*
X200501285Y-40478000D01*
X200548904Y-40525619D01*
X200596523Y-40620857D01*
X200596523Y-40668476D01*
X200548904Y-40763714D01*
X200501285Y-40811333D01*
X200406047Y-40858952D01*
X200215571Y-40858952D01*
X200120333Y-40906571D01*
X200072714Y-40954190D01*
X200025095Y-41049428D01*
X200025095Y-41239904D01*
X200072714Y-41335142D01*
X200120333Y-41382761D01*
X200215571Y-41430380D01*
X200406047Y-41430380D01*
X200501285Y-41382761D01*
X200548904Y-41335142D01*
X200596523Y-41239904D01*
X200596523Y-41049428D01*
X200548904Y-40954190D01*
X200501285Y-40906571D01*
X200406047Y-40858952D01*
X201025095Y-41049428D02*
X201787000Y-41049428D01*
X202787000Y-40478000D02*
X202691761Y-40430380D01*
X202548904Y-40430380D01*
X202406047Y-40478000D01*
X202310809Y-40573238D01*
X202263190Y-40668476D01*
X202215571Y-40858952D01*
X202215571Y-41001809D01*
X202263190Y-41192285D01*
X202310809Y-41287523D01*
X202406047Y-41382761D01*
X202548904Y-41430380D01*
X202644142Y-41430380D01*
X202787000Y-41382761D01*
X202834619Y-41335142D01*
X202834619Y-41001809D01*
X202644142Y-41001809D01*
X203406047Y-41430380D02*
X203310809Y-41382761D01*
X203263190Y-41287523D01*
X203263190Y-40430380D01*
X203929857Y-41430380D02*
X203834619Y-41382761D01*
X203787000Y-41335142D01*
X203739380Y-41239904D01*
X203739380Y-40954190D01*
X203787000Y-40858952D01*
X203834619Y-40811333D01*
X203929857Y-40763714D01*
X204072714Y-40763714D01*
X204167952Y-40811333D01*
X204215571Y-40858952D01*
X204263190Y-40954190D01*
X204263190Y-41239904D01*
X204215571Y-41335142D01*
X204167952Y-41382761D01*
X204072714Y-41430380D01*
X203929857Y-41430380D01*
X204596523Y-40763714D02*
X204787000Y-41430380D01*
X204977476Y-40954190D01*
X205167952Y-41430380D01*
X205358428Y-40763714D01*
X206501285Y-40906571D02*
X207263190Y-40906571D01*
X207263190Y-41192285D02*
X206501285Y-41192285D01*
X207739380Y-40763714D02*
X208501285Y-41049428D01*
X207739380Y-41335142D01*
X188572714Y-43040380D02*
X188477476Y-42992761D01*
X188429857Y-42945142D01*
X188382238Y-42849904D01*
X188382238Y-42564190D01*
X188429857Y-42468952D01*
X188477476Y-42421333D01*
X188572714Y-42373714D01*
X188715571Y-42373714D01*
X188810809Y-42421333D01*
X188858428Y-42468952D01*
X188906047Y-42564190D01*
X188906047Y-42849904D01*
X188858428Y-42945142D01*
X188810809Y-42992761D01*
X188715571Y-43040380D01*
X188572714Y-43040380D01*
X189334619Y-43040380D02*
X189334619Y-42373714D01*
X189334619Y-42564190D02*
X189382238Y-42468952D01*
X189429857Y-42421333D01*
X189525095Y-42373714D01*
X189620333Y-42373714D01*
X189858428Y-42373714D02*
X190096523Y-43040380D01*
X190334619Y-42373714D01*
X190715571Y-43040380D02*
X190715571Y-42373714D01*
X190715571Y-42040380D02*
X190667952Y-42088000D01*
X190715571Y-42135619D01*
X190763190Y-42088000D01*
X190715571Y-42040380D01*
X190715571Y-42135619D01*
X191144142Y-42992761D02*
X191239380Y-43040380D01*
X191429857Y-43040380D01*
X191525095Y-42992761D01*
X191572714Y-42897523D01*
X191572714Y-42849904D01*
X191525095Y-42754666D01*
X191429857Y-42707047D01*
X191287000Y-42707047D01*
X191191761Y-42659428D01*
X191144142Y-42564190D01*
X191144142Y-42516571D01*
X191191761Y-42421333D01*
X191287000Y-42373714D01*
X191429857Y-42373714D01*
X191525095Y-42421333D01*
X192382238Y-42992761D02*
X192287000Y-43040380D01*
X192096523Y-43040380D01*
X192001285Y-42992761D01*
X191953666Y-42897523D01*
X191953666Y-42516571D01*
X192001285Y-42421333D01*
X192096523Y-42373714D01*
X192287000Y-42373714D01*
X192382238Y-42421333D01*
X192429857Y-42516571D01*
X192429857Y-42611809D01*
X191953666Y-42707047D01*
X192763190Y-42373714D02*
X193001285Y-43040380D01*
X193239380Y-42373714D01*
X194048904Y-43040380D02*
X194048904Y-42516571D01*
X194001285Y-42421333D01*
X193906047Y-42373714D01*
X193715571Y-42373714D01*
X193620333Y-42421333D01*
X194048904Y-42992761D02*
X193953666Y-43040380D01*
X193715571Y-43040380D01*
X193620333Y-42992761D01*
X193572714Y-42897523D01*
X193572714Y-42802285D01*
X193620333Y-42707047D01*
X193715571Y-42659428D01*
X193953666Y-42659428D01*
X194048904Y-42611809D01*
X194525095Y-42373714D02*
X194525095Y-43040380D01*
X194525095Y-42468952D02*
X194572714Y-42421333D01*
X194667952Y-42373714D01*
X194810809Y-42373714D01*
X194906047Y-42421333D01*
X194953666Y-42516571D01*
X194953666Y-43040380D01*
X195382238Y-42992761D02*
X195477476Y-43040380D01*
X195667952Y-43040380D01*
X195763190Y-42992761D01*
X195810809Y-42897523D01*
X195810809Y-42849904D01*
X195763190Y-42754666D01*
X195667952Y-42707047D01*
X195525095Y-42707047D01*
X195429857Y-42659428D01*
X195382238Y-42564190D01*
X195382238Y-42516571D01*
X195429857Y-42421333D01*
X195525095Y-42373714D01*
X195667952Y-42373714D01*
X195763190Y-42421333D01*
X196953666Y-41992761D02*
X196096523Y-43278476D01*
X197763190Y-43040380D02*
X197287000Y-43040380D01*
X197287000Y-42040380D01*
X198096523Y-43040380D02*
X198096523Y-42373714D01*
X198096523Y-42040380D02*
X198048904Y-42088000D01*
X198096523Y-42135619D01*
X198144142Y-42088000D01*
X198096523Y-42040380D01*
X198096523Y-42135619D01*
X198715571Y-43040380D02*
X198620333Y-42992761D01*
X198572714Y-42897523D01*
X198572714Y-42040380D01*
X199001285Y-42373714D02*
X199239380Y-43040380D01*
X199477476Y-42373714D02*
X199239380Y-43040380D01*
X199144142Y-43278476D01*
X199096523Y-43326095D01*
X199001285Y-43373714D01*
X200334619Y-42040380D02*
X199858428Y-42040380D01*
X199810809Y-42516571D01*
X199858428Y-42468952D01*
X199953666Y-42421333D01*
X200191761Y-42421333D01*
X200287000Y-42468952D01*
X200334619Y-42516571D01*
X200382238Y-42611809D01*
X200382238Y-42849904D01*
X200334619Y-42945142D01*
X200287000Y-42992761D01*
X200191761Y-43040380D01*
X199953666Y-43040380D01*
X199858428Y-42992761D01*
X199810809Y-42945142D01*
X200953666Y-42468952D02*
X200858428Y-42421333D01*
X200810809Y-42373714D01*
X200763190Y-42278476D01*
X200763190Y-42230857D01*
X200810809Y-42135619D01*
X200858428Y-42088000D01*
X200953666Y-42040380D01*
X201144142Y-42040380D01*
X201239380Y-42088000D01*
X201287000Y-42135619D01*
X201334619Y-42230857D01*
X201334619Y-42278476D01*
X201287000Y-42373714D01*
X201239380Y-42421333D01*
X201144142Y-42468952D01*
X200953666Y-42468952D01*
X200858428Y-42516571D01*
X200810809Y-42564190D01*
X200763190Y-42659428D01*
X200763190Y-42849904D01*
X200810809Y-42945142D01*
X200858428Y-42992761D01*
X200953666Y-43040380D01*
X201144142Y-43040380D01*
X201239380Y-42992761D01*
X201287000Y-42945142D01*
X201334619Y-42849904D01*
X201334619Y-42659428D01*
X201287000Y-42564190D01*
X201239380Y-42516571D01*
X201144142Y-42468952D01*
X201763190Y-42659428D02*
X202525095Y-42659428D01*
X203525095Y-42088000D02*
X203429857Y-42040380D01*
X203287000Y-42040380D01*
X203144142Y-42088000D01*
X203048904Y-42183238D01*
X203001285Y-42278476D01*
X202953666Y-42468952D01*
X202953666Y-42611809D01*
X203001285Y-42802285D01*
X203048904Y-42897523D01*
X203144142Y-42992761D01*
X203287000Y-43040380D01*
X203382238Y-43040380D01*
X203525095Y-42992761D01*
X203572714Y-42945142D01*
X203572714Y-42611809D01*
X203382238Y-42611809D01*
X204144142Y-43040380D02*
X204048904Y-42992761D01*
X204001285Y-42897523D01*
X204001285Y-42040380D01*
X204667952Y-43040380D02*
X204572714Y-42992761D01*
X204525095Y-42945142D01*
X204477476Y-42849904D01*
X204477476Y-42564190D01*
X204525095Y-42468952D01*
X204572714Y-42421333D01*
X204667952Y-42373714D01*
X204810809Y-42373714D01*
X204906047Y-42421333D01*
X204953666Y-42468952D01*
X205001285Y-42564190D01*
X205001285Y-42849904D01*
X204953666Y-42945142D01*
X204906047Y-42992761D01*
X204810809Y-43040380D01*
X204667952Y-43040380D01*
X205334619Y-42373714D02*
X205525095Y-43040380D01*
X205715571Y-42564190D01*
X205906047Y-43040380D01*
X206096523Y-42373714D01*
X206477476Y-42659428D02*
X207239380Y-42659428D01*
X207715571Y-42516571D02*
X208048904Y-42516571D01*
X208191761Y-43040380D02*
X207715571Y-43040380D01*
X207715571Y-42040380D01*
X208191761Y-42040380D01*
X208620333Y-42373714D02*
X208620333Y-43040380D01*
X208620333Y-42468952D02*
X208667952Y-42421333D01*
X208763190Y-42373714D01*
X208906047Y-42373714D01*
X209001285Y-42421333D01*
X209048904Y-42516571D01*
X209048904Y-43040380D01*
X209953666Y-42992761D02*
X209858428Y-43040380D01*
X209667952Y-43040380D01*
X209572714Y-42992761D01*
X209525095Y-42945142D01*
X209477476Y-42849904D01*
X209477476Y-42564190D01*
X209525095Y-42468952D01*
X209572714Y-42421333D01*
X209667952Y-42373714D01*
X209858428Y-42373714D01*
X209953666Y-42421333D01*
X211144142Y-42516571D02*
X211906047Y-42516571D01*
X211906047Y-42802285D02*
X211144142Y-42802285D01*
X212382238Y-42373714D02*
X213144142Y-42659428D01*
X212382238Y-42945142D01*
X187548904Y-44650380D02*
X187548904Y-43983714D01*
X187548904Y-43650380D02*
X187501285Y-43698000D01*
X187548904Y-43745619D01*
X187596523Y-43698000D01*
X187548904Y-43650380D01*
X187548904Y-43745619D01*
X188453666Y-44650380D02*
X188453666Y-44126571D01*
X188406047Y-44031333D01*
X188310809Y-43983714D01*
X188120333Y-43983714D01*
X188025095Y-44031333D01*
X188453666Y-44602761D02*
X188358428Y-44650380D01*
X188120333Y-44650380D01*
X188025095Y-44602761D01*
X187977476Y-44507523D01*
X187977476Y-44412285D01*
X188025095Y-44317047D01*
X188120333Y-44269428D01*
X188358428Y-44269428D01*
X188453666Y-44221809D01*
X188882238Y-44602761D02*
X188977476Y-44650380D01*
X189167952Y-44650380D01*
X189263190Y-44602761D01*
X189310809Y-44507523D01*
X189310809Y-44459904D01*
X189263190Y-44364666D01*
X189167952Y-44317047D01*
X189025095Y-44317047D01*
X188929857Y-44269428D01*
X188882238Y-44174190D01*
X188882238Y-44126571D01*
X188929857Y-44031333D01*
X189025095Y-43983714D01*
X189167952Y-43983714D01*
X189263190Y-44031333D01*
X189882238Y-44650380D02*
X189787000Y-44602761D01*
X189739380Y-44555142D01*
X189691761Y-44459904D01*
X189691761Y-44174190D01*
X189739380Y-44078952D01*
X189787000Y-44031333D01*
X189882238Y-43983714D01*
X190025095Y-43983714D01*
X190120333Y-44031333D01*
X190167952Y-44078952D01*
X190215571Y-44174190D01*
X190215571Y-44459904D01*
X190167952Y-44555142D01*
X190120333Y-44602761D01*
X190025095Y-44650380D01*
X189882238Y-44650380D01*
X190644142Y-44650380D02*
X190644142Y-43983714D01*
X190644142Y-44174190D02*
X190691761Y-44078952D01*
X190739380Y-44031333D01*
X190834619Y-43983714D01*
X190929857Y-43983714D01*
X191644142Y-44602761D02*
X191548904Y-44650380D01*
X191358428Y-44650380D01*
X191263190Y-44602761D01*
X191215571Y-44507523D01*
X191215571Y-44126571D01*
X191263190Y-44031333D01*
X191358428Y-43983714D01*
X191548904Y-43983714D01*
X191644142Y-44031333D01*
X191691761Y-44126571D01*
X191691761Y-44221809D01*
X191215571Y-44317047D01*
X192120333Y-43983714D02*
X192120333Y-44650380D01*
X192120333Y-44078952D02*
X192167952Y-44031333D01*
X192263190Y-43983714D01*
X192406047Y-43983714D01*
X192501285Y-44031333D01*
X192548904Y-44126571D01*
X192548904Y-44650380D01*
X193739380Y-43602761D02*
X192882238Y-44888476D01*
X194548904Y-44650380D02*
X194072714Y-44650380D01*
X194072714Y-43650380D01*
X194882238Y-44650380D02*
X194882238Y-43983714D01*
X194882238Y-43650380D02*
X194834619Y-43698000D01*
X194882238Y-43745619D01*
X194929857Y-43698000D01*
X194882238Y-43650380D01*
X194882238Y-43745619D01*
X195501285Y-44650380D02*
X195406047Y-44602761D01*
X195358428Y-44507523D01*
X195358428Y-43650380D01*
X195787000Y-43983714D02*
X196025095Y-44650380D01*
X196263190Y-43983714D02*
X196025095Y-44650380D01*
X195929857Y-44888476D01*
X195882238Y-44936095D01*
X195787000Y-44983714D01*
X197120333Y-43650380D02*
X196644142Y-43650380D01*
X196596523Y-44126571D01*
X196644142Y-44078952D01*
X196739380Y-44031333D01*
X196977476Y-44031333D01*
X197072714Y-44078952D01*
X197120333Y-44126571D01*
X197167952Y-44221809D01*
X197167952Y-44459904D01*
X197120333Y-44555142D01*
X197072714Y-44602761D01*
X196977476Y-44650380D01*
X196739380Y-44650380D01*
X196644142Y-44602761D01*
X196596523Y-44555142D01*
X197739380Y-44078952D02*
X197644142Y-44031333D01*
X197596523Y-43983714D01*
X197548904Y-43888476D01*
X197548904Y-43840857D01*
X197596523Y-43745619D01*
X197644142Y-43698000D01*
X197739380Y-43650380D01*
X197929857Y-43650380D01*
X198025095Y-43698000D01*
X198072714Y-43745619D01*
X198120333Y-43840857D01*
X198120333Y-43888476D01*
X198072714Y-43983714D01*
X198025095Y-44031333D01*
X197929857Y-44078952D01*
X197739380Y-44078952D01*
X197644142Y-44126571D01*
X197596523Y-44174190D01*
X197548904Y-44269428D01*
X197548904Y-44459904D01*
X197596523Y-44555142D01*
X197644142Y-44602761D01*
X197739380Y-44650380D01*
X197929857Y-44650380D01*
X198025095Y-44602761D01*
X198072714Y-44555142D01*
X198120333Y-44459904D01*
X198120333Y-44269428D01*
X198072714Y-44174190D01*
X198025095Y-44126571D01*
X197929857Y-44078952D01*
X198548904Y-44269428D02*
X199310809Y-44269428D01*
X200310809Y-43698000D02*
X200215571Y-43650380D01*
X200072714Y-43650380D01*
X199929857Y-43698000D01*
X199834619Y-43793238D01*
X199787000Y-43888476D01*
X199739380Y-44078952D01*
X199739380Y-44221809D01*
X199787000Y-44412285D01*
X199834619Y-44507523D01*
X199929857Y-44602761D01*
X200072714Y-44650380D01*
X200167952Y-44650380D01*
X200310809Y-44602761D01*
X200358428Y-44555142D01*
X200358428Y-44221809D01*
X200167952Y-44221809D01*
X200929857Y-44650380D02*
X200834619Y-44602761D01*
X200787000Y-44507523D01*
X200787000Y-43650380D01*
X201453666Y-44650380D02*
X201358428Y-44602761D01*
X201310809Y-44555142D01*
X201263190Y-44459904D01*
X201263190Y-44174190D01*
X201310809Y-44078952D01*
X201358428Y-44031333D01*
X201453666Y-43983714D01*
X201596523Y-43983714D01*
X201691761Y-44031333D01*
X201739380Y-44078952D01*
X201787000Y-44174190D01*
X201787000Y-44459904D01*
X201739380Y-44555142D01*
X201691761Y-44602761D01*
X201596523Y-44650380D01*
X201453666Y-44650380D01*
X202120333Y-43983714D02*
X202310809Y-44650380D01*
X202501285Y-44174190D01*
X202691761Y-44650380D01*
X202882238Y-43983714D01*
X203263190Y-44269428D02*
X204025095Y-44269428D01*
X204501285Y-44126571D02*
X204834619Y-44126571D01*
X204977476Y-44650380D02*
X204501285Y-44650380D01*
X204501285Y-43650380D01*
X204977476Y-43650380D01*
X205406047Y-43983714D02*
X205406047Y-44650380D01*
X205406047Y-44078952D02*
X205453666Y-44031333D01*
X205548904Y-43983714D01*
X205691761Y-43983714D01*
X205787000Y-44031333D01*
X205834619Y-44126571D01*
X205834619Y-44650380D01*
X206739380Y-44602761D02*
X206644142Y-44650380D01*
X206453666Y-44650380D01*
X206358428Y-44602761D01*
X206310809Y-44555142D01*
X206263190Y-44459904D01*
X206263190Y-44174190D01*
X206310809Y-44078952D01*
X206358428Y-44031333D01*
X206453666Y-43983714D01*
X206644142Y-43983714D01*
X206739380Y-44031333D01*
X207167952Y-44269428D02*
X207929857Y-44269428D01*
X208310809Y-43650380D02*
X208548904Y-44650380D01*
X208739380Y-43936095D01*
X208929857Y-44650380D01*
X209167952Y-43650380D01*
X209548904Y-44650380D02*
X209548904Y-43983714D01*
X209548904Y-43650380D02*
X209501285Y-43698000D01*
X209548904Y-43745619D01*
X209596523Y-43698000D01*
X209548904Y-43650380D01*
X209548904Y-43745619D01*
X210025095Y-44650380D02*
X210025095Y-43983714D01*
X210025095Y-44174190D02*
X210072714Y-44078952D01*
X210120333Y-44031333D01*
X210215571Y-43983714D01*
X210310809Y-43983714D01*
X211025095Y-44602761D02*
X210929857Y-44650380D01*
X210739380Y-44650380D01*
X210644142Y-44602761D01*
X210596523Y-44507523D01*
X210596523Y-44126571D01*
X210644142Y-44031333D01*
X210739380Y-43983714D01*
X210929857Y-43983714D01*
X211025095Y-44031333D01*
X211072714Y-44126571D01*
X211072714Y-44221809D01*
X210596523Y-44317047D01*
X211644142Y-44650380D02*
X211548904Y-44602761D01*
X211501285Y-44507523D01*
X211501285Y-43650380D01*
X212406047Y-44602761D02*
X212310809Y-44650380D01*
X212120333Y-44650380D01*
X212025095Y-44602761D01*
X211977476Y-44507523D01*
X211977476Y-44126571D01*
X212025095Y-44031333D01*
X212120333Y-43983714D01*
X212310809Y-43983714D01*
X212406047Y-44031333D01*
X212453666Y-44126571D01*
X212453666Y-44221809D01*
X211977476Y-44317047D01*
X212834619Y-44602761D02*
X212929857Y-44650380D01*
X213120333Y-44650380D01*
X213215571Y-44602761D01*
X213263190Y-44507523D01*
X213263190Y-44459904D01*
X213215571Y-44364666D01*
X213120333Y-44317047D01*
X212977476Y-44317047D01*
X212882238Y-44269428D01*
X212834619Y-44174190D01*
X212834619Y-44126571D01*
X212882238Y-44031333D01*
X212977476Y-43983714D01*
X213120333Y-43983714D01*
X213215571Y-44031333D01*
X213644142Y-44602761D02*
X213739380Y-44650380D01*
X213929857Y-44650380D01*
X214025095Y-44602761D01*
X214072714Y-44507523D01*
X214072714Y-44459904D01*
X214025095Y-44364666D01*
X213929857Y-44317047D01*
X213787000Y-44317047D01*
X213691761Y-44269428D01*
X213644142Y-44174190D01*
X213644142Y-44126571D01*
X213691761Y-44031333D01*
X213787000Y-43983714D01*
X213929857Y-43983714D01*
X214025095Y-44031333D01*
X109751761Y-100274095D02*
X109799380Y-100131238D01*
X109799380Y-99893142D01*
X109751761Y-99797904D01*
X109704142Y-99750285D01*
X109608904Y-99702666D01*
X109513666Y-99702666D01*
X109418428Y-99750285D01*
X109370809Y-99797904D01*
X109323190Y-99893142D01*
X109275571Y-100083619D01*
X109227952Y-100178857D01*
X109180333Y-100226476D01*
X109085095Y-100274095D01*
X108989857Y-100274095D01*
X108894619Y-100226476D01*
X108847000Y-100178857D01*
X108799380Y-100083619D01*
X108799380Y-99845523D01*
X108847000Y-99702666D01*
X108799380Y-99369333D02*
X109799380Y-99131238D01*
X109085095Y-98940761D01*
X109799380Y-98750285D01*
X108799380Y-98512190D01*
X108894619Y-98178857D02*
X108847000Y-98131238D01*
X108799380Y-98036000D01*
X108799380Y-97797904D01*
X108847000Y-97702666D01*
X108894619Y-97655047D01*
X108989857Y-97607428D01*
X109085095Y-97607428D01*
X109227952Y-97655047D01*
X109799380Y-98226476D01*
X109799380Y-97607428D01*
X108799380Y-96702666D02*
X108799380Y-97178857D01*
X109275571Y-97226476D01*
X109227952Y-97178857D01*
X109180333Y-97083619D01*
X109180333Y-96845523D01*
X109227952Y-96750285D01*
X109275571Y-96702666D01*
X109370809Y-96655047D01*
X109608904Y-96655047D01*
X109704142Y-96702666D01*
X109751761Y-96750285D01*
X109799380Y-96845523D01*
X109799380Y-97083619D01*
X109751761Y-97178857D01*
X109704142Y-97226476D01*
X109799380Y-96226476D02*
X108799380Y-96226476D01*
X109180333Y-96226476D02*
X109132714Y-96131238D01*
X109132714Y-95940761D01*
X109180333Y-95845523D01*
X109227952Y-95797904D01*
X109323190Y-95750285D01*
X109608904Y-95750285D01*
X109704142Y-95797904D01*
X109751761Y-95845523D01*
X109799380Y-95940761D01*
X109799380Y-96131238D01*
X109751761Y-96226476D01*
X109799380Y-94797904D02*
X109799380Y-95369333D01*
X109799380Y-95083619D02*
X108799380Y-95083619D01*
X108942238Y-95178857D01*
X109037476Y-95274095D01*
X109085095Y-95369333D01*
X85229238Y-41838571D02*
X85372095Y-41886190D01*
X85419714Y-41933809D01*
X85467333Y-42029047D01*
X85467333Y-42171904D01*
X85419714Y-42267142D01*
X85372095Y-42314761D01*
X85276857Y-42362380D01*
X84895904Y-42362380D01*
X84895904Y-41362380D01*
X85229238Y-41362380D01*
X85324476Y-41410000D01*
X85372095Y-41457619D01*
X85419714Y-41552857D01*
X85419714Y-41648095D01*
X85372095Y-41743333D01*
X85324476Y-41790952D01*
X85229238Y-41838571D01*
X84895904Y-41838571D01*
X86324476Y-42362380D02*
X86324476Y-41838571D01*
X86276857Y-41743333D01*
X86181619Y-41695714D01*
X85991142Y-41695714D01*
X85895904Y-41743333D01*
X86324476Y-42314761D02*
X86229238Y-42362380D01*
X85991142Y-42362380D01*
X85895904Y-42314761D01*
X85848285Y-42219523D01*
X85848285Y-42124285D01*
X85895904Y-42029047D01*
X85991142Y-41981428D01*
X86229238Y-41981428D01*
X86324476Y-41933809D01*
X87229238Y-42314761D02*
X87134000Y-42362380D01*
X86943523Y-42362380D01*
X86848285Y-42314761D01*
X86800666Y-42267142D01*
X86753047Y-42171904D01*
X86753047Y-41886190D01*
X86800666Y-41790952D01*
X86848285Y-41743333D01*
X86943523Y-41695714D01*
X87134000Y-41695714D01*
X87229238Y-41743333D01*
X87657809Y-42362380D02*
X87657809Y-41362380D01*
X87753047Y-41981428D02*
X88038761Y-42362380D01*
X88038761Y-41695714D02*
X87657809Y-42076666D01*
X88610190Y-42362380D02*
X88514952Y-42314761D01*
X88467333Y-42219523D01*
X88467333Y-41362380D01*
X88991142Y-42362380D02*
X88991142Y-41695714D01*
X88991142Y-41362380D02*
X88943523Y-41410000D01*
X88991142Y-41457619D01*
X89038761Y-41410000D01*
X88991142Y-41362380D01*
X88991142Y-41457619D01*
X89895904Y-41695714D02*
X89895904Y-42505238D01*
X89848285Y-42600476D01*
X89800666Y-42648095D01*
X89705428Y-42695714D01*
X89562571Y-42695714D01*
X89467333Y-42648095D01*
X89895904Y-42314761D02*
X89800666Y-42362380D01*
X89610190Y-42362380D01*
X89514952Y-42314761D01*
X89467333Y-42267142D01*
X89419714Y-42171904D01*
X89419714Y-41886190D01*
X89467333Y-41790952D01*
X89514952Y-41743333D01*
X89610190Y-41695714D01*
X89800666Y-41695714D01*
X89895904Y-41743333D01*
X90372095Y-42362380D02*
X90372095Y-41362380D01*
X90800666Y-42362380D02*
X90800666Y-41838571D01*
X90753047Y-41743333D01*
X90657809Y-41695714D01*
X90514952Y-41695714D01*
X90419714Y-41743333D01*
X90372095Y-41790952D01*
X91134000Y-41695714D02*
X91514952Y-41695714D01*
X91276857Y-41362380D02*
X91276857Y-42219523D01*
X91324476Y-42314761D01*
X91419714Y-42362380D01*
X91514952Y-42362380D01*
X84036571Y-67617619D02*
X84084190Y-67474761D01*
X84131809Y-67427142D01*
X84227047Y-67379523D01*
X84369904Y-67379523D01*
X84465142Y-67427142D01*
X84512761Y-67474761D01*
X84560380Y-67570000D01*
X84560380Y-67950952D01*
X83560380Y-67950952D01*
X83560380Y-67617619D01*
X83608000Y-67522380D01*
X83655619Y-67474761D01*
X83750857Y-67427142D01*
X83846095Y-67427142D01*
X83941333Y-67474761D01*
X83988952Y-67522380D01*
X84036571Y-67617619D01*
X84036571Y-67950952D01*
X84179428Y-66950952D02*
X84179428Y-66189047D01*
X84036571Y-71667619D02*
X84084190Y-71524761D01*
X84131809Y-71477142D01*
X84227047Y-71429523D01*
X84369904Y-71429523D01*
X84465142Y-71477142D01*
X84512761Y-71524761D01*
X84560380Y-71620000D01*
X84560380Y-72000952D01*
X83560380Y-72000952D01*
X83560380Y-71667619D01*
X83608000Y-71572380D01*
X83655619Y-71524761D01*
X83750857Y-71477142D01*
X83846095Y-71477142D01*
X83941333Y-71524761D01*
X83988952Y-71572380D01*
X84036571Y-71667619D01*
X84036571Y-72000952D01*
X84179428Y-71000952D02*
X84179428Y-70239047D01*
X84560380Y-70620000D02*
X83798476Y-70620000D01*
X108228095Y-38314380D02*
X108418571Y-38314380D01*
X108513809Y-38362000D01*
X108609047Y-38457238D01*
X108656666Y-38647714D01*
X108656666Y-38981047D01*
X108609047Y-39171523D01*
X108513809Y-39266761D01*
X108418571Y-39314380D01*
X108228095Y-39314380D01*
X108132857Y-39266761D01*
X108037619Y-39171523D01*
X107990000Y-38981047D01*
X107990000Y-38647714D01*
X108037619Y-38457238D01*
X108132857Y-38362000D01*
X108228095Y-38314380D01*
X109085238Y-38647714D02*
X109085238Y-39314380D01*
X109085238Y-38742952D02*
X109132857Y-38695333D01*
X109228095Y-38647714D01*
X109370952Y-38647714D01*
X109466190Y-38695333D01*
X109513809Y-38790571D01*
X109513809Y-39314380D01*
X109990000Y-38933428D02*
X110751904Y-38933428D01*
X111418571Y-38314380D02*
X111609047Y-38314380D01*
X111704285Y-38362000D01*
X111799523Y-38457238D01*
X111847142Y-38647714D01*
X111847142Y-38981047D01*
X111799523Y-39171523D01*
X111704285Y-39266761D01*
X111609047Y-39314380D01*
X111418571Y-39314380D01*
X111323333Y-39266761D01*
X111228095Y-39171523D01*
X111180476Y-38981047D01*
X111180476Y-38647714D01*
X111228095Y-38457238D01*
X111323333Y-38362000D01*
X111418571Y-38314380D01*
X112132857Y-38647714D02*
X112513809Y-38647714D01*
X112275714Y-39314380D02*
X112275714Y-38457238D01*
X112323333Y-38362000D01*
X112418571Y-38314380D01*
X112513809Y-38314380D01*
X112704285Y-38647714D02*
X113085238Y-38647714D01*
X112847142Y-39314380D02*
X112847142Y-38457238D01*
X112894761Y-38362000D01*
X112990000Y-38314380D01*
X113085238Y-38314380D01*
X110746833Y-124231968D02*
X109880807Y-124731968D01*
X109761760Y-124525772D01*
X109731570Y-124378244D01*
X109766430Y-124248147D01*
X109825099Y-124159288D01*
X109966247Y-124022811D01*
X110089965Y-123951382D01*
X110278731Y-123897384D01*
X110385020Y-123891004D01*
X110515117Y-123925863D01*
X110627785Y-124025772D01*
X110746833Y-124231968D01*
X109487095Y-123859563D02*
X109422047Y-123842133D01*
X109333188Y-123783464D01*
X109214141Y-123577268D01*
X109207761Y-123470980D01*
X109225191Y-123405931D01*
X109283860Y-123317072D01*
X109366338Y-123269453D01*
X109513866Y-123239264D01*
X110294452Y-123448422D01*
X109984928Y-122912311D01*
X108690331Y-122670003D02*
X108785569Y-122834960D01*
X108874428Y-122893629D01*
X108939476Y-122911059D01*
X109110813Y-122922109D01*
X109299580Y-122868110D01*
X109629495Y-122677634D01*
X109688164Y-122588776D01*
X109705593Y-122523727D01*
X109699214Y-122417439D01*
X109603976Y-122252482D01*
X109515117Y-122193813D01*
X109450068Y-122176383D01*
X109343780Y-122182763D01*
X109137584Y-122301810D01*
X109078915Y-122390669D01*
X109061485Y-122455717D01*
X109067865Y-122562005D01*
X109163103Y-122726963D01*
X109251961Y-122785632D01*
X109317010Y-122803062D01*
X109423298Y-122796682D01*
X112669277Y-126421739D02*
X111803252Y-126921739D01*
X112383563Y-125926868D02*
X112102977Y-126583736D01*
X111517538Y-126426868D02*
X112298124Y-126636025D01*
X85705904Y-56787904D02*
X85324952Y-57054571D01*
X85705904Y-57245047D02*
X84905904Y-57245047D01*
X84905904Y-56940285D01*
X84944000Y-56864095D01*
X84982095Y-56826000D01*
X85058285Y-56787904D01*
X85172571Y-56787904D01*
X85248761Y-56826000D01*
X85286857Y-56864095D01*
X85324952Y-56940285D01*
X85324952Y-57245047D01*
X85286857Y-56445047D02*
X85286857Y-56178380D01*
X85705904Y-56064095D02*
X85705904Y-56445047D01*
X84905904Y-56445047D01*
X84905904Y-56064095D01*
X85667809Y-55759333D02*
X85705904Y-55645047D01*
X85705904Y-55454571D01*
X85667809Y-55378380D01*
X85629714Y-55340285D01*
X85553523Y-55302190D01*
X85477333Y-55302190D01*
X85401142Y-55340285D01*
X85363047Y-55378380D01*
X85324952Y-55454571D01*
X85286857Y-55606952D01*
X85248761Y-55683142D01*
X85210666Y-55721238D01*
X85134476Y-55759333D01*
X85058285Y-55759333D01*
X84982095Y-55721238D01*
X84944000Y-55683142D01*
X84905904Y-55606952D01*
X84905904Y-55416476D01*
X84944000Y-55302190D01*
X85286857Y-54959333D02*
X85286857Y-54692666D01*
X85705904Y-54578380D02*
X85705904Y-54959333D01*
X84905904Y-54959333D01*
X84905904Y-54578380D01*
X84905904Y-54349809D02*
X84905904Y-53892666D01*
X85705904Y-54121238D02*
X84905904Y-54121238D01*
X102303196Y-69698034D02*
X102379386Y-69698034D01*
X102455576Y-69736130D01*
X102493672Y-69774225D01*
X102531767Y-69850415D01*
X102569862Y-70002796D01*
X102569862Y-70193272D01*
X102531767Y-70345653D01*
X102493672Y-70421844D01*
X102455576Y-70459939D01*
X102379386Y-70498034D01*
X102303196Y-70498034D01*
X102227005Y-70459939D01*
X102188910Y-70421844D01*
X102150815Y-70345653D01*
X102112719Y-70193272D01*
X102112719Y-70002796D01*
X102150815Y-69850415D01*
X102188910Y-69774225D01*
X102227005Y-69736130D01*
X102303196Y-69698034D01*
X103331767Y-70498034D02*
X102874624Y-70498034D01*
X103103196Y-70498034D02*
X103103196Y-69698034D01*
X103027005Y-69812320D01*
X102950815Y-69888510D01*
X102874624Y-69926606D01*
X103827005Y-69698034D02*
X103903196Y-69698034D01*
X103979386Y-69736130D01*
X104017481Y-69774225D01*
X104055576Y-69850415D01*
X104093672Y-70002796D01*
X104093672Y-70193272D01*
X104055576Y-70345653D01*
X104017481Y-70421844D01*
X103979386Y-70459939D01*
X103903196Y-70498034D01*
X103827005Y-70498034D01*
X103750815Y-70459939D01*
X103712719Y-70421844D01*
X103674624Y-70345653D01*
X103636529Y-70193272D01*
X103636529Y-70002796D01*
X103674624Y-69850415D01*
X103712719Y-69774225D01*
X103750815Y-69736130D01*
X103827005Y-69698034D01*
D14*
X92246285Y-58225571D02*
X92246285Y-59225571D01*
X92246285Y-58368428D02*
X92317714Y-58297000D01*
X92460571Y-58225571D01*
X92674857Y-58225571D01*
X92817714Y-58297000D01*
X92889142Y-58439857D01*
X92889142Y-59225571D01*
X93603428Y-59225571D02*
X93603428Y-58225571D01*
X93603428Y-57725571D02*
X93532000Y-57797000D01*
X93603428Y-57868428D01*
X93674857Y-57797000D01*
X93603428Y-57725571D01*
X93603428Y-57868428D01*
X94960571Y-59154142D02*
X94817714Y-59225571D01*
X94532000Y-59225571D01*
X94389142Y-59154142D01*
X94317714Y-59082714D01*
X94246285Y-58939857D01*
X94246285Y-58511285D01*
X94317714Y-58368428D01*
X94389142Y-58297000D01*
X94532000Y-58225571D01*
X94817714Y-58225571D01*
X94960571Y-58297000D01*
X96174857Y-59154142D02*
X96032000Y-59225571D01*
X95746285Y-59225571D01*
X95603428Y-59154142D01*
X95532000Y-59011285D01*
X95532000Y-58439857D01*
X95603428Y-58297000D01*
X95746285Y-58225571D01*
X96032000Y-58225571D01*
X96174857Y-58297000D01*
X96246285Y-58439857D01*
X96246285Y-58582714D01*
X95532000Y-58725571D01*
X96889142Y-59082714D02*
X96960571Y-59154142D01*
X96889142Y-59225571D01*
X96817714Y-59154142D01*
X96889142Y-59082714D01*
X96889142Y-59225571D01*
X96889142Y-58654142D02*
X96817714Y-57797000D01*
X96889142Y-57725571D01*
X96960571Y-57797000D01*
X96889142Y-58654142D01*
X96889142Y-57725571D01*
X97603428Y-58225571D02*
X97603428Y-59225571D01*
X97603428Y-58368428D02*
X97674857Y-58297000D01*
X97817714Y-58225571D01*
X98032000Y-58225571D01*
X98174857Y-58297000D01*
X98246285Y-58439857D01*
X98246285Y-59225571D01*
X99603428Y-59225571D02*
X99603428Y-58439857D01*
X99532000Y-58297000D01*
X99389142Y-58225571D01*
X99103428Y-58225571D01*
X98960571Y-58297000D01*
X99603428Y-59154142D02*
X99460571Y-59225571D01*
X99103428Y-59225571D01*
X98960571Y-59154142D01*
X98889142Y-59011285D01*
X98889142Y-58868428D01*
X98960571Y-58725571D01*
X99103428Y-58654142D01*
X99460571Y-58654142D01*
X99603428Y-58582714D01*
X100317714Y-58225571D02*
X100317714Y-59225571D01*
X100317714Y-58368428D02*
X100389142Y-58297000D01*
X100532000Y-58225571D01*
X100746285Y-58225571D01*
X100889142Y-58297000D01*
X100960571Y-58439857D01*
X100960571Y-59225571D01*
X101889142Y-59225571D02*
X101746285Y-59154142D01*
X101674857Y-59082714D01*
X101603428Y-58939857D01*
X101603428Y-58511285D01*
X101674857Y-58368428D01*
X101746285Y-58297000D01*
X101889142Y-58225571D01*
X102103428Y-58225571D01*
X102246285Y-58297000D01*
X102317714Y-58368428D01*
X102389142Y-58511285D01*
X102389142Y-58939857D01*
X102317714Y-59082714D01*
X102246285Y-59154142D01*
X102103428Y-59225571D01*
X101889142Y-59225571D01*
D13*
X91495481Y-70498034D02*
X91038338Y-70498034D01*
X91266910Y-70498034D02*
X91266910Y-69698034D01*
X91190719Y-69812320D01*
X91114529Y-69888510D01*
X91038338Y-69926606D01*
X91990719Y-69698034D02*
X92066910Y-69698034D01*
X92143100Y-69736130D01*
X92181195Y-69774225D01*
X92219291Y-69850415D01*
X92257386Y-70002796D01*
X92257386Y-70193272D01*
X92219291Y-70345653D01*
X92181195Y-70421844D01*
X92143100Y-70459939D01*
X92066910Y-70498034D01*
X91990719Y-70498034D01*
X91914529Y-70459939D01*
X91876434Y-70421844D01*
X91838338Y-70345653D01*
X91800243Y-70193272D01*
X91800243Y-70002796D01*
X91838338Y-69850415D01*
X91876434Y-69774225D01*
X91914529Y-69736130D01*
X91990719Y-69698034D01*
X92943100Y-69964701D02*
X92943100Y-70498034D01*
X92752624Y-69659939D02*
X92562148Y-70231368D01*
X93057386Y-70231368D01*
X102569862Y-67958034D02*
X102112719Y-67958034D01*
X102341291Y-67958034D02*
X102341291Y-67158034D01*
X102265100Y-67272320D01*
X102188910Y-67348510D01*
X102112719Y-67386606D01*
X103331767Y-67958034D02*
X102874624Y-67958034D01*
X103103196Y-67958034D02*
X103103196Y-67158034D01*
X103027005Y-67272320D01*
X102950815Y-67348510D01*
X102874624Y-67386606D01*
X104093672Y-67958034D02*
X103636529Y-67958034D01*
X103865100Y-67958034D02*
X103865100Y-67158034D01*
X103788910Y-67272320D01*
X103712719Y-67348510D01*
X103636529Y-67386606D01*
X91228815Y-46768034D02*
X91305005Y-46768034D01*
X91381195Y-46806130D01*
X91419291Y-46844225D01*
X91457386Y-46920415D01*
X91495481Y-47072796D01*
X91495481Y-47263272D01*
X91457386Y-47415653D01*
X91419291Y-47491844D01*
X91381195Y-47529939D01*
X91305005Y-47568034D01*
X91228815Y-47568034D01*
X91152624Y-47529939D01*
X91114529Y-47491844D01*
X91076434Y-47415653D01*
X91038338Y-47263272D01*
X91038338Y-47072796D01*
X91076434Y-46920415D01*
X91114529Y-46844225D01*
X91152624Y-46806130D01*
X91228815Y-46768034D01*
X91990719Y-46768034D02*
X92066910Y-46768034D01*
X92143100Y-46806130D01*
X92181195Y-46844225D01*
X92219291Y-46920415D01*
X92257386Y-47072796D01*
X92257386Y-47263272D01*
X92219291Y-47415653D01*
X92181195Y-47491844D01*
X92143100Y-47529939D01*
X92066910Y-47568034D01*
X91990719Y-47568034D01*
X91914529Y-47529939D01*
X91876434Y-47491844D01*
X91838338Y-47415653D01*
X91800243Y-47263272D01*
X91800243Y-47072796D01*
X91838338Y-46920415D01*
X91876434Y-46844225D01*
X91914529Y-46806130D01*
X91990719Y-46768034D01*
X92714529Y-47110891D02*
X92638338Y-47072796D01*
X92600243Y-47034701D01*
X92562148Y-46958510D01*
X92562148Y-46920415D01*
X92600243Y-46844225D01*
X92638338Y-46806130D01*
X92714529Y-46768034D01*
X92866910Y-46768034D01*
X92943100Y-46806130D01*
X92981195Y-46844225D01*
X93019291Y-46920415D01*
X93019291Y-46958510D01*
X92981195Y-47034701D01*
X92943100Y-47072796D01*
X92866910Y-47110891D01*
X92714529Y-47110891D01*
X92638338Y-47148987D01*
X92600243Y-47187082D01*
X92562148Y-47263272D01*
X92562148Y-47415653D01*
X92600243Y-47491844D01*
X92638338Y-47529939D01*
X92714529Y-47568034D01*
X92866910Y-47568034D01*
X92943100Y-47529939D01*
X92981195Y-47491844D01*
X93019291Y-47415653D01*
X93019291Y-47263272D01*
X92981195Y-47187082D01*
X92943100Y-47148987D01*
X92866910Y-47110891D01*
X91228815Y-44298034D02*
X91305005Y-44298034D01*
X91381195Y-44336130D01*
X91419291Y-44374225D01*
X91457386Y-44450415D01*
X91495481Y-44602796D01*
X91495481Y-44793272D01*
X91457386Y-44945653D01*
X91419291Y-45021844D01*
X91381195Y-45059939D01*
X91305005Y-45098034D01*
X91228815Y-45098034D01*
X91152624Y-45059939D01*
X91114529Y-45021844D01*
X91076434Y-44945653D01*
X91038338Y-44793272D01*
X91038338Y-44602796D01*
X91076434Y-44450415D01*
X91114529Y-44374225D01*
X91152624Y-44336130D01*
X91228815Y-44298034D01*
X91990719Y-44298034D02*
X92066910Y-44298034D01*
X92143100Y-44336130D01*
X92181195Y-44374225D01*
X92219291Y-44450415D01*
X92257386Y-44602796D01*
X92257386Y-44793272D01*
X92219291Y-44945653D01*
X92181195Y-45021844D01*
X92143100Y-45059939D01*
X92066910Y-45098034D01*
X91990719Y-45098034D01*
X91914529Y-45059939D01*
X91876434Y-45021844D01*
X91838338Y-44945653D01*
X91800243Y-44793272D01*
X91800243Y-44602796D01*
X91838338Y-44450415D01*
X91876434Y-44374225D01*
X91914529Y-44336130D01*
X91990719Y-44298034D01*
X92943100Y-44298034D02*
X92790719Y-44298034D01*
X92714529Y-44336130D01*
X92676434Y-44374225D01*
X92600243Y-44488510D01*
X92562148Y-44640891D01*
X92562148Y-44945653D01*
X92600243Y-45021844D01*
X92638338Y-45059939D01*
X92714529Y-45098034D01*
X92866910Y-45098034D01*
X92943100Y-45059939D01*
X92981195Y-45021844D01*
X93019291Y-44945653D01*
X93019291Y-44755177D01*
X92981195Y-44678987D01*
X92943100Y-44640891D01*
X92866910Y-44602796D01*
X92714529Y-44602796D01*
X92638338Y-44640891D01*
X92600243Y-44678987D01*
X92562148Y-44755177D01*
X91495481Y-51956130D02*
X91419290Y-51918034D01*
X91305005Y-51918034D01*
X91190719Y-51956130D01*
X91114528Y-52032320D01*
X91076433Y-52108510D01*
X91038338Y-52260891D01*
X91038338Y-52375177D01*
X91076433Y-52527558D01*
X91114528Y-52603749D01*
X91190719Y-52679939D01*
X91305005Y-52718034D01*
X91381195Y-52718034D01*
X91495481Y-52679939D01*
X91533576Y-52641844D01*
X91533576Y-52375177D01*
X91381195Y-52375177D01*
X91876433Y-52718034D02*
X91876433Y-51918034D01*
X92333576Y-52718034D01*
X92333576Y-51918034D01*
X92714528Y-52718034D02*
X92714528Y-51918034D01*
X92905005Y-51918034D01*
X93019290Y-51956130D01*
X93095481Y-52032320D01*
X93133576Y-52108510D01*
X93171671Y-52260891D01*
X93171671Y-52375177D01*
X93133576Y-52527558D01*
X93095481Y-52603749D01*
X93019290Y-52679939D01*
X92905005Y-52718034D01*
X92714528Y-52718034D01*
X91228815Y-62078034D02*
X91305005Y-62078034D01*
X91381195Y-62116130D01*
X91419291Y-62154225D01*
X91457386Y-62230415D01*
X91495481Y-62382796D01*
X91495481Y-62573272D01*
X91457386Y-62725653D01*
X91419291Y-62801844D01*
X91381195Y-62839939D01*
X91305005Y-62878034D01*
X91228815Y-62878034D01*
X91152624Y-62839939D01*
X91114529Y-62801844D01*
X91076434Y-62725653D01*
X91038338Y-62573272D01*
X91038338Y-62382796D01*
X91076434Y-62230415D01*
X91114529Y-62154225D01*
X91152624Y-62116130D01*
X91228815Y-62078034D01*
X91800243Y-62154225D02*
X91838338Y-62116130D01*
X91914529Y-62078034D01*
X92105005Y-62078034D01*
X92181195Y-62116130D01*
X92219291Y-62154225D01*
X92257386Y-62230415D01*
X92257386Y-62306606D01*
X92219291Y-62420891D01*
X91762148Y-62878034D01*
X92257386Y-62878034D01*
X92943100Y-62344701D02*
X92943100Y-62878034D01*
X92752624Y-62039939D02*
X92562148Y-62611368D01*
X93057386Y-62611368D01*
X102569862Y-65418034D02*
X102112719Y-65418034D01*
X102341291Y-65418034D02*
X102341291Y-64618034D01*
X102265100Y-64732320D01*
X102188910Y-64808510D01*
X102112719Y-64846606D01*
X103331767Y-65418034D02*
X102874624Y-65418034D01*
X103103196Y-65418034D02*
X103103196Y-64618034D01*
X103027005Y-64732320D01*
X102950815Y-64808510D01*
X102874624Y-64846606D01*
X103598434Y-64618034D02*
X104093672Y-64618034D01*
X103827005Y-64922796D01*
X103941291Y-64922796D01*
X104017481Y-64960891D01*
X104055576Y-64998987D01*
X104093672Y-65075177D01*
X104093672Y-65265653D01*
X104055576Y-65341844D01*
X104017481Y-65379939D01*
X103941291Y-65418034D01*
X103712719Y-65418034D01*
X103636529Y-65379939D01*
X103598434Y-65341844D01*
X91495481Y-49416130D02*
X91419290Y-49378034D01*
X91305005Y-49378034D01*
X91190719Y-49416130D01*
X91114528Y-49492320D01*
X91076433Y-49568510D01*
X91038338Y-49720891D01*
X91038338Y-49835177D01*
X91076433Y-49987558D01*
X91114528Y-50063749D01*
X91190719Y-50139939D01*
X91305005Y-50178034D01*
X91381195Y-50178034D01*
X91495481Y-50139939D01*
X91533576Y-50101844D01*
X91533576Y-49835177D01*
X91381195Y-49835177D01*
X91876433Y-50178034D02*
X91876433Y-49378034D01*
X92333576Y-50178034D01*
X92333576Y-49378034D01*
X92714528Y-50178034D02*
X92714528Y-49378034D01*
X92905005Y-49378034D01*
X93019290Y-49416130D01*
X93095481Y-49492320D01*
X93133576Y-49568510D01*
X93171671Y-49720891D01*
X93171671Y-49835177D01*
X93133576Y-49987558D01*
X93095481Y-50063749D01*
X93019290Y-50139939D01*
X92905005Y-50178034D01*
X92714528Y-50178034D01*
X102487339Y-45098034D02*
X102220672Y-44717082D01*
X102030196Y-45098034D02*
X102030196Y-44298034D01*
X102334958Y-44298034D01*
X102411148Y-44336130D01*
X102449243Y-44374225D01*
X102487339Y-44450415D01*
X102487339Y-44564701D01*
X102449243Y-44640891D01*
X102411148Y-44678987D01*
X102334958Y-44717082D01*
X102030196Y-44717082D01*
X102792100Y-44869463D02*
X103173053Y-44869463D01*
X102715910Y-45098034D02*
X102982577Y-44298034D01*
X103249243Y-45098034D01*
X103439720Y-44298034D02*
X103630196Y-45098034D01*
X103782577Y-44526606D01*
X103934958Y-45098034D01*
X104125434Y-44298034D01*
X102715909Y-50178034D02*
X102449243Y-49797082D01*
X102258766Y-50178034D02*
X102258766Y-49378034D01*
X102563528Y-49378034D01*
X102639719Y-49416130D01*
X102677814Y-49454225D01*
X102715909Y-49530415D01*
X102715909Y-49644701D01*
X102677814Y-49720891D01*
X102639719Y-49758987D01*
X102563528Y-49797082D01*
X102258766Y-49797082D01*
X103020671Y-50139939D02*
X103134957Y-50178034D01*
X103325433Y-50178034D01*
X103401624Y-50139939D01*
X103439719Y-50101844D01*
X103477814Y-50025653D01*
X103477814Y-49949463D01*
X103439719Y-49873272D01*
X103401624Y-49835177D01*
X103325433Y-49797082D01*
X103173052Y-49758987D01*
X103096862Y-49720891D01*
X103058766Y-49682796D01*
X103020671Y-49606606D01*
X103020671Y-49530415D01*
X103058766Y-49454225D01*
X103096862Y-49416130D01*
X103173052Y-49378034D01*
X103363528Y-49378034D01*
X103477814Y-49416130D01*
X103706385Y-49378034D02*
X104163528Y-49378034D01*
X103934957Y-50178034D02*
X103934957Y-49378034D01*
X91228815Y-54468034D02*
X91305005Y-54468034D01*
X91381195Y-54506130D01*
X91419291Y-54544225D01*
X91457386Y-54620415D01*
X91495481Y-54772796D01*
X91495481Y-54963272D01*
X91457386Y-55115653D01*
X91419291Y-55191844D01*
X91381195Y-55229939D01*
X91305005Y-55268034D01*
X91228815Y-55268034D01*
X91152624Y-55229939D01*
X91114529Y-55191844D01*
X91076434Y-55115653D01*
X91038338Y-54963272D01*
X91038338Y-54772796D01*
X91076434Y-54620415D01*
X91114529Y-54544225D01*
X91152624Y-54506130D01*
X91228815Y-54468034D01*
X92257386Y-55268034D02*
X91800243Y-55268034D01*
X92028815Y-55268034D02*
X92028815Y-54468034D01*
X91952624Y-54582320D01*
X91876434Y-54658510D01*
X91800243Y-54696606D01*
X92524053Y-54468034D02*
X93057386Y-54468034D01*
X92714529Y-55268034D01*
X91228815Y-59568034D02*
X91305005Y-59568034D01*
X91381195Y-59606130D01*
X91419291Y-59644225D01*
X91457386Y-59720415D01*
X91495481Y-59872796D01*
X91495481Y-60063272D01*
X91457386Y-60215653D01*
X91419291Y-60291844D01*
X91381195Y-60329939D01*
X91305005Y-60368034D01*
X91228815Y-60368034D01*
X91152624Y-60329939D01*
X91114529Y-60291844D01*
X91076434Y-60215653D01*
X91038338Y-60063272D01*
X91038338Y-59872796D01*
X91076434Y-59720415D01*
X91114529Y-59644225D01*
X91152624Y-59606130D01*
X91228815Y-59568034D01*
X91800243Y-59644225D02*
X91838338Y-59606130D01*
X91914529Y-59568034D01*
X92105005Y-59568034D01*
X92181195Y-59606130D01*
X92219291Y-59644225D01*
X92257386Y-59720415D01*
X92257386Y-59796606D01*
X92219291Y-59910891D01*
X91762148Y-60368034D01*
X92257386Y-60368034D01*
X92562148Y-59644225D02*
X92600243Y-59606130D01*
X92676434Y-59568034D01*
X92866910Y-59568034D01*
X92943100Y-59606130D01*
X92981195Y-59644225D01*
X93019291Y-59720415D01*
X93019291Y-59796606D01*
X92981195Y-59910891D01*
X92524053Y-60368034D01*
X93019291Y-60368034D01*
X102411148Y-46876130D02*
X102334957Y-46838034D01*
X102220672Y-46838034D01*
X102106386Y-46876130D01*
X102030195Y-46952320D01*
X101992100Y-47028510D01*
X101954005Y-47180891D01*
X101954005Y-47295177D01*
X101992100Y-47447558D01*
X102030195Y-47523749D01*
X102106386Y-47599939D01*
X102220672Y-47638034D01*
X102296862Y-47638034D01*
X102411148Y-47599939D01*
X102449243Y-47561844D01*
X102449243Y-47295177D01*
X102296862Y-47295177D01*
X102792100Y-47638034D02*
X102792100Y-46838034D01*
X103249243Y-47638034D01*
X103249243Y-46838034D01*
X103630195Y-47638034D02*
X103630195Y-46838034D01*
X103820672Y-46838034D01*
X103934957Y-46876130D01*
X104011148Y-46952320D01*
X104049243Y-47028510D01*
X104087338Y-47180891D01*
X104087338Y-47295177D01*
X104049243Y-47447558D01*
X104011148Y-47523749D01*
X103934957Y-47599939D01*
X103820672Y-47638034D01*
X103630195Y-47638034D01*
X102569862Y-62878034D02*
X102112719Y-62878034D01*
X102341291Y-62878034D02*
X102341291Y-62078034D01*
X102265100Y-62192320D01*
X102188910Y-62268510D01*
X102112719Y-62306606D01*
X103331767Y-62878034D02*
X102874624Y-62878034D01*
X103103196Y-62878034D02*
X103103196Y-62078034D01*
X103027005Y-62192320D01*
X102950815Y-62268510D01*
X102874624Y-62306606D01*
X104055576Y-62078034D02*
X103674624Y-62078034D01*
X103636529Y-62458987D01*
X103674624Y-62420891D01*
X103750815Y-62382796D01*
X103941291Y-62382796D01*
X104017481Y-62420891D01*
X104055576Y-62458987D01*
X104093672Y-62535177D01*
X104093672Y-62725653D01*
X104055576Y-62801844D01*
X104017481Y-62839939D01*
X103941291Y-62878034D01*
X103750815Y-62878034D01*
X103674624Y-62839939D01*
X103636529Y-62801844D01*
X91495481Y-65418034D02*
X91038338Y-65418034D01*
X91266910Y-65418034D02*
X91266910Y-64618034D01*
X91190719Y-64732320D01*
X91114529Y-64808510D01*
X91038338Y-64846606D01*
X91990719Y-64618034D02*
X92066910Y-64618034D01*
X92143100Y-64656130D01*
X92181195Y-64694225D01*
X92219291Y-64770415D01*
X92257386Y-64922796D01*
X92257386Y-65113272D01*
X92219291Y-65265653D01*
X92181195Y-65341844D01*
X92143100Y-65379939D01*
X92066910Y-65418034D01*
X91990719Y-65418034D01*
X91914529Y-65379939D01*
X91876434Y-65341844D01*
X91838338Y-65265653D01*
X91800243Y-65113272D01*
X91800243Y-64922796D01*
X91838338Y-64770415D01*
X91876434Y-64694225D01*
X91914529Y-64656130D01*
X91990719Y-64618034D01*
X92752624Y-64618034D02*
X92828815Y-64618034D01*
X92905005Y-64656130D01*
X92943100Y-64694225D01*
X92981195Y-64770415D01*
X93019291Y-64922796D01*
X93019291Y-65113272D01*
X92981195Y-65265653D01*
X92943100Y-65341844D01*
X92905005Y-65379939D01*
X92828815Y-65418034D01*
X92752624Y-65418034D01*
X92676434Y-65379939D01*
X92638338Y-65341844D01*
X92600243Y-65265653D01*
X92562148Y-65113272D01*
X92562148Y-64922796D01*
X92600243Y-64770415D01*
X92638338Y-64694225D01*
X92676434Y-64656130D01*
X92752624Y-64618034D01*
X91228815Y-57068034D02*
X91305005Y-57068034D01*
X91381195Y-57106130D01*
X91419291Y-57144225D01*
X91457386Y-57220415D01*
X91495481Y-57372796D01*
X91495481Y-57563272D01*
X91457386Y-57715653D01*
X91419291Y-57791844D01*
X91381195Y-57829939D01*
X91305005Y-57868034D01*
X91228815Y-57868034D01*
X91152624Y-57829939D01*
X91114529Y-57791844D01*
X91076434Y-57715653D01*
X91038338Y-57563272D01*
X91038338Y-57372796D01*
X91076434Y-57220415D01*
X91114529Y-57144225D01*
X91152624Y-57106130D01*
X91228815Y-57068034D01*
X91800243Y-57144225D02*
X91838338Y-57106130D01*
X91914529Y-57068034D01*
X92105005Y-57068034D01*
X92181195Y-57106130D01*
X92219291Y-57144225D01*
X92257386Y-57220415D01*
X92257386Y-57296606D01*
X92219291Y-57410891D01*
X91762148Y-57868034D01*
X92257386Y-57868034D01*
X92752624Y-57068034D02*
X92828815Y-57068034D01*
X92905005Y-57106130D01*
X92943100Y-57144225D01*
X92981195Y-57220415D01*
X93019291Y-57372796D01*
X93019291Y-57563272D01*
X92981195Y-57715653D01*
X92943100Y-57791844D01*
X92905005Y-57829939D01*
X92828815Y-57868034D01*
X92752624Y-57868034D01*
X92676434Y-57829939D01*
X92638338Y-57791844D01*
X92600243Y-57715653D01*
X92562148Y-57563272D01*
X92562148Y-57372796D01*
X92600243Y-57220415D01*
X92638338Y-57144225D01*
X92676434Y-57106130D01*
X92752624Y-57068034D01*
X100930900Y-79202589D02*
X101511471Y-79202589D01*
X101627585Y-79241294D01*
X101704995Y-79318703D01*
X101743700Y-79434818D01*
X101743700Y-79512227D01*
X101201833Y-78467199D02*
X101743700Y-78467199D01*
X101201833Y-78815541D02*
X101627585Y-78815541D01*
X101704995Y-78776837D01*
X101743700Y-78699427D01*
X101743700Y-78583313D01*
X101704995Y-78505903D01*
X101666290Y-78467199D01*
X101743700Y-78080151D02*
X101201833Y-78080151D01*
X101279243Y-78080151D02*
X101240538Y-78041446D01*
X101201833Y-77964037D01*
X101201833Y-77847922D01*
X101240538Y-77770513D01*
X101317947Y-77731808D01*
X101743700Y-77731808D01*
X101317947Y-77731808D02*
X101240538Y-77693103D01*
X101201833Y-77615694D01*
X101201833Y-77499580D01*
X101240538Y-77422170D01*
X101317947Y-77383465D01*
X101743700Y-77383465D01*
X101201833Y-76996418D02*
X102014633Y-76996418D01*
X101240538Y-76996418D02*
X101201833Y-76919008D01*
X101201833Y-76764189D01*
X101240538Y-76686780D01*
X101279243Y-76648075D01*
X101356652Y-76609370D01*
X101588881Y-76609370D01*
X101666290Y-76648075D01*
X101704995Y-76686780D01*
X101743700Y-76764189D01*
X101743700Y-76919008D01*
X101704995Y-76996418D01*
X101704995Y-75951389D02*
X101743700Y-76028799D01*
X101743700Y-76183618D01*
X101704995Y-76261027D01*
X101627585Y-76299732D01*
X101317947Y-76299732D01*
X101240538Y-76261027D01*
X101201833Y-76183618D01*
X101201833Y-76028799D01*
X101240538Y-75951389D01*
X101317947Y-75912684D01*
X101395357Y-75912684D01*
X101472766Y-76299732D01*
X101743700Y-75564341D02*
X101201833Y-75564341D01*
X101356652Y-75564341D02*
X101279243Y-75525637D01*
X101240538Y-75486932D01*
X101201833Y-75409522D01*
X101201833Y-75332113D01*
X101821109Y-75254703D02*
X101821109Y-74635427D01*
X101743700Y-74441903D02*
X100930900Y-74441903D01*
X101743700Y-73977446D01*
X100930900Y-73977446D01*
X100930900Y-73435580D02*
X100930900Y-73280760D01*
X100969605Y-73203351D01*
X101047014Y-73125941D01*
X101201833Y-73087237D01*
X101472766Y-73087237D01*
X101627585Y-73125941D01*
X101704995Y-73203351D01*
X101743700Y-73280760D01*
X101743700Y-73435580D01*
X101704995Y-73512989D01*
X101627585Y-73590399D01*
X101472766Y-73629103D01*
X101201833Y-73629103D01*
X101047014Y-73590399D01*
X100969605Y-73512989D01*
X100930900Y-73435580D01*
X101821109Y-72932418D02*
X101821109Y-72313141D01*
X101704995Y-72158322D02*
X101743700Y-72042208D01*
X101743700Y-71848684D01*
X101704995Y-71771275D01*
X101666290Y-71732570D01*
X101588881Y-71693865D01*
X101511471Y-71693865D01*
X101434062Y-71732570D01*
X101395357Y-71771275D01*
X101356652Y-71848684D01*
X101317947Y-72003503D01*
X101279243Y-72080913D01*
X101240538Y-72119618D01*
X101163128Y-72158322D01*
X101085719Y-72158322D01*
X101008309Y-72119618D01*
X100969605Y-72080913D01*
X100930900Y-72003503D01*
X100930900Y-71809980D01*
X100969605Y-71693865D01*
X101743700Y-71345522D02*
X101201833Y-71345522D01*
X101279243Y-71345522D02*
X101240538Y-71306818D01*
X101201833Y-71229408D01*
X101201833Y-71113294D01*
X101240538Y-71035884D01*
X101317947Y-70997180D01*
X101743700Y-70997180D01*
X101317947Y-70997180D02*
X101240538Y-70958475D01*
X101201833Y-70881065D01*
X101201833Y-70764951D01*
X101240538Y-70687541D01*
X101317947Y-70648837D01*
X101743700Y-70648837D01*
X101743700Y-69913446D02*
X101317947Y-69913446D01*
X101240538Y-69952151D01*
X101201833Y-70029560D01*
X101201833Y-70184380D01*
X101240538Y-70261789D01*
X101704995Y-69913446D02*
X101743700Y-69990856D01*
X101743700Y-70184380D01*
X101704995Y-70261789D01*
X101627585Y-70300494D01*
X101550176Y-70300494D01*
X101472766Y-70261789D01*
X101434062Y-70184380D01*
X101434062Y-69990856D01*
X101395357Y-69913446D01*
X101743700Y-69410284D02*
X101704995Y-69487694D01*
X101627585Y-69526399D01*
X100930900Y-69526399D01*
X101743700Y-68984532D02*
X101704995Y-69061941D01*
X101627585Y-69100646D01*
X100930900Y-69100646D01*
X120333333Y-58702380D02*
X119857142Y-58702380D01*
X119857142Y-57702380D01*
X121190476Y-58702380D02*
X120619047Y-58702380D01*
X120904761Y-58702380D02*
X120904761Y-57702380D01*
X120809523Y-57845238D01*
X120714285Y-57940476D01*
X120619047Y-57988095D01*
X124285714Y-56827380D02*
X123714285Y-56827380D01*
X124000000Y-56827380D02*
X124000000Y-55827380D01*
X123904761Y-55970238D01*
X123809523Y-56065476D01*
X123714285Y-56113095D01*
X138857142Y-108002380D02*
X138380952Y-108002380D01*
X138380952Y-107002380D01*
X139142857Y-107097619D02*
X139190476Y-107050000D01*
X139285714Y-107002380D01*
X139523809Y-107002380D01*
X139619047Y-107050000D01*
X139666666Y-107097619D01*
X139714285Y-107192857D01*
X139714285Y-107288095D01*
X139666666Y-107430952D01*
X139095238Y-108002380D01*
X139714285Y-108002380D01*
X140333333Y-107002380D02*
X140428571Y-107002380D01*
X140523809Y-107050000D01*
X140571428Y-107097619D01*
X140619047Y-107192857D01*
X140666666Y-107383333D01*
X140666666Y-107621428D01*
X140619047Y-107811904D01*
X140571428Y-107907142D01*
X140523809Y-107954761D01*
X140428571Y-108002380D01*
X140333333Y-108002380D01*
X140238095Y-107954761D01*
X140190476Y-107907142D01*
X140142857Y-107811904D01*
X140095238Y-107621428D01*
X140095238Y-107383333D01*
X140142857Y-107192857D01*
X140190476Y-107097619D01*
X140238095Y-107050000D01*
X140333333Y-107002380D01*
X136285714Y-109877380D02*
X135714285Y-109877380D01*
X136000000Y-109877380D02*
X136000000Y-108877380D01*
X135904761Y-109020238D01*
X135809523Y-109115476D01*
X135714285Y-109163095D01*
X148357142Y-132452380D02*
X147880952Y-132452380D01*
X147880952Y-131452380D01*
X148642857Y-131547619D02*
X148690476Y-131500000D01*
X148785714Y-131452380D01*
X149023809Y-131452380D01*
X149119047Y-131500000D01*
X149166666Y-131547619D01*
X149214285Y-131642857D01*
X149214285Y-131738095D01*
X149166666Y-131880952D01*
X148595238Y-132452380D01*
X149214285Y-132452380D01*
X149690476Y-132452380D02*
X149880952Y-132452380D01*
X149976190Y-132404761D01*
X150023809Y-132357142D01*
X150119047Y-132214285D01*
X150166666Y-132023809D01*
X150166666Y-131642857D01*
X150119047Y-131547619D01*
X150071428Y-131500000D01*
X149976190Y-131452380D01*
X149785714Y-131452380D01*
X149690476Y-131500000D01*
X149642857Y-131547619D01*
X149595238Y-131642857D01*
X149595238Y-131880952D01*
X149642857Y-131976190D01*
X149690476Y-132023809D01*
X149785714Y-132071428D01*
X149976190Y-132071428D01*
X150071428Y-132023809D01*
X150119047Y-131976190D01*
X150166666Y-131880952D01*
X152785714Y-130577380D02*
X152214285Y-130577380D01*
X152500000Y-130577380D02*
X152500000Y-129577380D01*
X152404761Y-129720238D01*
X152309523Y-129815476D01*
X152214285Y-129863095D01*
X157957142Y-106602380D02*
X157480952Y-106602380D01*
X157480952Y-105602380D01*
X158242857Y-105697619D02*
X158290476Y-105650000D01*
X158385714Y-105602380D01*
X158623809Y-105602380D01*
X158719047Y-105650000D01*
X158766666Y-105697619D01*
X158814285Y-105792857D01*
X158814285Y-105888095D01*
X158766666Y-106030952D01*
X158195238Y-106602380D01*
X158814285Y-106602380D01*
X159766666Y-106602380D02*
X159195238Y-106602380D01*
X159480952Y-106602380D02*
X159480952Y-105602380D01*
X159385714Y-105745238D01*
X159290476Y-105840476D01*
X159195238Y-105888095D01*
X155385714Y-108477380D02*
X154814285Y-108477380D01*
X155100000Y-108477380D02*
X155100000Y-107477380D01*
X155004761Y-107620238D01*
X154909523Y-107715476D01*
X154814285Y-107763095D01*
X196057142Y-112702380D02*
X195580952Y-112702380D01*
X195580952Y-111702380D01*
X196342857Y-111797619D02*
X196390476Y-111750000D01*
X196485714Y-111702380D01*
X196723809Y-111702380D01*
X196819047Y-111750000D01*
X196866666Y-111797619D01*
X196914285Y-111892857D01*
X196914285Y-111988095D01*
X196866666Y-112130952D01*
X196295238Y-112702380D01*
X196914285Y-112702380D01*
X197247619Y-111702380D02*
X197866666Y-111702380D01*
X197533333Y-112083333D01*
X197676190Y-112083333D01*
X197771428Y-112130952D01*
X197819047Y-112178571D01*
X197866666Y-112273809D01*
X197866666Y-112511904D01*
X197819047Y-112607142D01*
X197771428Y-112654761D01*
X197676190Y-112702380D01*
X197390476Y-112702380D01*
X197295238Y-112654761D01*
X197247619Y-112607142D01*
X193485714Y-114577380D02*
X192914285Y-114577380D01*
X193200000Y-114577380D02*
X193200000Y-113577380D01*
X193104761Y-113720238D01*
X193009523Y-113815476D01*
X192914285Y-113863095D01*
X215107142Y-114202380D02*
X214630952Y-114202380D01*
X214630952Y-113202380D01*
X215392857Y-113297619D02*
X215440476Y-113250000D01*
X215535714Y-113202380D01*
X215773809Y-113202380D01*
X215869047Y-113250000D01*
X215916666Y-113297619D01*
X215964285Y-113392857D01*
X215964285Y-113488095D01*
X215916666Y-113630952D01*
X215345238Y-114202380D01*
X215964285Y-114202380D01*
X216821428Y-113535714D02*
X216821428Y-114202380D01*
X216583333Y-113154761D02*
X216345238Y-113869047D01*
X216964285Y-113869047D01*
X212535714Y-116077380D02*
X211964285Y-116077380D01*
X212250000Y-116077380D02*
X212250000Y-115077380D01*
X212154761Y-115220238D01*
X212059523Y-115315476D01*
X211964285Y-115363095D01*
X129357142Y-134702380D02*
X128880952Y-134702380D01*
X128880952Y-133702380D01*
X129642857Y-133797619D02*
X129690476Y-133750000D01*
X129785714Y-133702380D01*
X130023809Y-133702380D01*
X130119047Y-133750000D01*
X130166666Y-133797619D01*
X130214285Y-133892857D01*
X130214285Y-133988095D01*
X130166666Y-134130952D01*
X129595238Y-134702380D01*
X130214285Y-134702380D01*
X130785714Y-134130952D02*
X130690476Y-134083333D01*
X130642857Y-134035714D01*
X130595238Y-133940476D01*
X130595238Y-133892857D01*
X130642857Y-133797619D01*
X130690476Y-133750000D01*
X130785714Y-133702380D01*
X130976190Y-133702380D01*
X131071428Y-133750000D01*
X131119047Y-133797619D01*
X131166666Y-133892857D01*
X131166666Y-133940476D01*
X131119047Y-134035714D01*
X131071428Y-134083333D01*
X130976190Y-134130952D01*
X130785714Y-134130952D01*
X130690476Y-134178571D01*
X130642857Y-134226190D01*
X130595238Y-134321428D01*
X130595238Y-134511904D01*
X130642857Y-134607142D01*
X130690476Y-134654761D01*
X130785714Y-134702380D01*
X130976190Y-134702380D01*
X131071428Y-134654761D01*
X131119047Y-134607142D01*
X131166666Y-134511904D01*
X131166666Y-134321428D01*
X131119047Y-134226190D01*
X131071428Y-134178571D01*
X130976190Y-134130952D01*
X133785714Y-132827380D02*
X133214285Y-132827380D01*
X133500000Y-132827380D02*
X133500000Y-131827380D01*
X133404761Y-131970238D01*
X133309523Y-132065476D01*
X133214285Y-132113095D01*
X176957142Y-94402380D02*
X176480952Y-94402380D01*
X176480952Y-93402380D01*
X177814285Y-94402380D02*
X177242857Y-94402380D01*
X177528571Y-94402380D02*
X177528571Y-93402380D01*
X177433333Y-93545238D01*
X177338095Y-93640476D01*
X177242857Y-93688095D01*
X178671428Y-93402380D02*
X178480952Y-93402380D01*
X178385714Y-93450000D01*
X178338095Y-93497619D01*
X178242857Y-93640476D01*
X178195238Y-93830952D01*
X178195238Y-94211904D01*
X178242857Y-94307142D01*
X178290476Y-94354761D01*
X178385714Y-94402380D01*
X178576190Y-94402380D01*
X178671428Y-94354761D01*
X178719047Y-94307142D01*
X178766666Y-94211904D01*
X178766666Y-93973809D01*
X178719047Y-93878571D01*
X178671428Y-93830952D01*
X178576190Y-93783333D01*
X178385714Y-93783333D01*
X178290476Y-93830952D01*
X178242857Y-93878571D01*
X178195238Y-93973809D01*
X181385714Y-92527380D02*
X180814285Y-92527380D01*
X181100000Y-92527380D02*
X181100000Y-91527380D01*
X181004761Y-91670238D01*
X180909523Y-91765476D01*
X180814285Y-91813095D01*
X119857142Y-110302380D02*
X119380952Y-110302380D01*
X119380952Y-109302380D01*
X120714285Y-110302380D02*
X120142857Y-110302380D01*
X120428571Y-110302380D02*
X120428571Y-109302380D01*
X120333333Y-109445238D01*
X120238095Y-109540476D01*
X120142857Y-109588095D01*
X121190476Y-110302380D02*
X121380952Y-110302380D01*
X121476190Y-110254761D01*
X121523809Y-110207142D01*
X121619047Y-110064285D01*
X121666666Y-109873809D01*
X121666666Y-109492857D01*
X121619047Y-109397619D01*
X121571428Y-109350000D01*
X121476190Y-109302380D01*
X121285714Y-109302380D01*
X121190476Y-109350000D01*
X121142857Y-109397619D01*
X121095238Y-109492857D01*
X121095238Y-109730952D01*
X121142857Y-109826190D01*
X121190476Y-109873809D01*
X121285714Y-109921428D01*
X121476190Y-109921428D01*
X121571428Y-109873809D01*
X121619047Y-109826190D01*
X121666666Y-109730952D01*
X117285714Y-112177380D02*
X116714285Y-112177380D01*
X117000000Y-112177380D02*
X117000000Y-111177380D01*
X116904761Y-111320238D01*
X116809523Y-111415476D01*
X116714285Y-111463095D01*
X215057142Y-100702380D02*
X214580952Y-100702380D01*
X214580952Y-99702380D01*
X215914285Y-100702380D02*
X215342857Y-100702380D01*
X215628571Y-100702380D02*
X215628571Y-99702380D01*
X215533333Y-99845238D01*
X215438095Y-99940476D01*
X215342857Y-99988095D01*
X216485714Y-100130952D02*
X216390476Y-100083333D01*
X216342857Y-100035714D01*
X216295238Y-99940476D01*
X216295238Y-99892857D01*
X216342857Y-99797619D01*
X216390476Y-99750000D01*
X216485714Y-99702380D01*
X216676190Y-99702380D01*
X216771428Y-99750000D01*
X216819047Y-99797619D01*
X216866666Y-99892857D01*
X216866666Y-99940476D01*
X216819047Y-100035714D01*
X216771428Y-100083333D01*
X216676190Y-100130952D01*
X216485714Y-100130952D01*
X216390476Y-100178571D01*
X216342857Y-100226190D01*
X216295238Y-100321428D01*
X216295238Y-100511904D01*
X216342857Y-100607142D01*
X216390476Y-100654761D01*
X216485714Y-100702380D01*
X216676190Y-100702380D01*
X216771428Y-100654761D01*
X216819047Y-100607142D01*
X216866666Y-100511904D01*
X216866666Y-100321428D01*
X216819047Y-100226190D01*
X216771428Y-100178571D01*
X216676190Y-100130952D01*
X219485714Y-98827380D02*
X218914285Y-98827380D01*
X219200000Y-98827380D02*
X219200000Y-97827380D01*
X219104761Y-97970238D01*
X219009523Y-98065476D01*
X218914285Y-98113095D01*
X157957142Y-93102380D02*
X157480952Y-93102380D01*
X157480952Y-92102380D01*
X158814285Y-93102380D02*
X158242857Y-93102380D01*
X158528571Y-93102380D02*
X158528571Y-92102380D01*
X158433333Y-92245238D01*
X158338095Y-92340476D01*
X158242857Y-92388095D01*
X159719047Y-92102380D02*
X159242857Y-92102380D01*
X159195238Y-92578571D01*
X159242857Y-92530952D01*
X159338095Y-92483333D01*
X159576190Y-92483333D01*
X159671428Y-92530952D01*
X159719047Y-92578571D01*
X159766666Y-92673809D01*
X159766666Y-92911904D01*
X159719047Y-93007142D01*
X159671428Y-93054761D01*
X159576190Y-93102380D01*
X159338095Y-93102380D01*
X159242857Y-93054761D01*
X159195238Y-93007142D01*
X162385714Y-91227380D02*
X161814285Y-91227380D01*
X162100000Y-91227380D02*
X162100000Y-90227380D01*
X162004761Y-90370238D01*
X161909523Y-90465476D01*
X161814285Y-90513095D01*
X138857142Y-94402380D02*
X138380952Y-94402380D01*
X138380952Y-93402380D01*
X139714285Y-94402380D02*
X139142857Y-94402380D01*
X139428571Y-94402380D02*
X139428571Y-93402380D01*
X139333333Y-93545238D01*
X139238095Y-93640476D01*
X139142857Y-93688095D01*
X140571428Y-93735714D02*
X140571428Y-94402380D01*
X140333333Y-93354761D02*
X140095238Y-94069047D01*
X140714285Y-94069047D01*
X143285714Y-92527380D02*
X142714285Y-92527380D01*
X143000000Y-92527380D02*
X143000000Y-91527380D01*
X142904761Y-91670238D01*
X142809523Y-91765476D01*
X142714285Y-91813095D01*
X119857142Y-96802380D02*
X119380952Y-96802380D01*
X119380952Y-95802380D01*
X120714285Y-96802380D02*
X120142857Y-96802380D01*
X120428571Y-96802380D02*
X120428571Y-95802380D01*
X120333333Y-95945238D01*
X120238095Y-96040476D01*
X120142857Y-96088095D01*
X121047619Y-95802380D02*
X121666666Y-95802380D01*
X121333333Y-96183333D01*
X121476190Y-96183333D01*
X121571428Y-96230952D01*
X121619047Y-96278571D01*
X121666666Y-96373809D01*
X121666666Y-96611904D01*
X121619047Y-96707142D01*
X121571428Y-96754761D01*
X121476190Y-96802380D01*
X121190476Y-96802380D01*
X121095238Y-96754761D01*
X121047619Y-96707142D01*
X124285714Y-94927380D02*
X123714285Y-94927380D01*
X124000000Y-94927380D02*
X124000000Y-93927380D01*
X123904761Y-94070238D01*
X123809523Y-94165476D01*
X123714285Y-94213095D01*
X215057142Y-76002380D02*
X214580952Y-76002380D01*
X214580952Y-75002380D01*
X215914285Y-76002380D02*
X215342857Y-76002380D01*
X215628571Y-76002380D02*
X215628571Y-75002380D01*
X215533333Y-75145238D01*
X215438095Y-75240476D01*
X215342857Y-75288095D01*
X216295238Y-75097619D02*
X216342857Y-75050000D01*
X216438095Y-75002380D01*
X216676190Y-75002380D01*
X216771428Y-75050000D01*
X216819047Y-75097619D01*
X216866666Y-75192857D01*
X216866666Y-75288095D01*
X216819047Y-75430952D01*
X216247619Y-76002380D01*
X216866666Y-76002380D01*
X212485714Y-77877380D02*
X211914285Y-77877380D01*
X212200000Y-77877380D02*
X212200000Y-76877380D01*
X212104761Y-77020238D01*
X212009523Y-77115476D01*
X211914285Y-77163095D01*
X196057142Y-99202380D02*
X195580952Y-99202380D01*
X195580952Y-98202380D01*
X196914285Y-99202380D02*
X196342857Y-99202380D01*
X196628571Y-99202380D02*
X196628571Y-98202380D01*
X196533333Y-98345238D01*
X196438095Y-98440476D01*
X196342857Y-98488095D01*
X197247619Y-98202380D02*
X197914285Y-98202380D01*
X197485714Y-99202380D01*
X200485714Y-97327380D02*
X199914285Y-97327380D01*
X200200000Y-97327380D02*
X200200000Y-96327380D01*
X200104761Y-96470238D01*
X200009523Y-96565476D01*
X199914285Y-96613095D01*
X176957142Y-108002380D02*
X176480952Y-108002380D01*
X176480952Y-107002380D01*
X177242857Y-107097619D02*
X177290476Y-107050000D01*
X177385714Y-107002380D01*
X177623809Y-107002380D01*
X177719047Y-107050000D01*
X177766666Y-107097619D01*
X177814285Y-107192857D01*
X177814285Y-107288095D01*
X177766666Y-107430952D01*
X177195238Y-108002380D01*
X177814285Y-108002380D01*
X178195238Y-107097619D02*
X178242857Y-107050000D01*
X178338095Y-107002380D01*
X178576190Y-107002380D01*
X178671428Y-107050000D01*
X178719047Y-107097619D01*
X178766666Y-107192857D01*
X178766666Y-107288095D01*
X178719047Y-107430952D01*
X178147619Y-108002380D01*
X178766666Y-108002380D01*
X174385714Y-109877380D02*
X173814285Y-109877380D01*
X174100000Y-109877380D02*
X174100000Y-108877380D01*
X174004761Y-109020238D01*
X173909523Y-109115476D01*
X173814285Y-109163095D01*
X177433333Y-56302380D02*
X176957142Y-56302380D01*
X176957142Y-55302380D01*
X178195238Y-55635714D02*
X178195238Y-56302380D01*
X177957142Y-55254761D02*
X177719047Y-55969047D01*
X178338095Y-55969047D01*
X181385714Y-54427380D02*
X180814285Y-54427380D01*
X181100000Y-54427380D02*
X181100000Y-53427380D01*
X181004761Y-53570238D01*
X180909523Y-53665476D01*
X180814285Y-53713095D01*
X196533333Y-61102380D02*
X196057142Y-61102380D01*
X196057142Y-60102380D01*
X197342857Y-60102380D02*
X196866666Y-60102380D01*
X196819047Y-60578571D01*
X196866666Y-60530952D01*
X196961904Y-60483333D01*
X197200000Y-60483333D01*
X197295238Y-60530952D01*
X197342857Y-60578571D01*
X197390476Y-60673809D01*
X197390476Y-60911904D01*
X197342857Y-61007142D01*
X197295238Y-61054761D01*
X197200000Y-61102380D01*
X196961904Y-61102380D01*
X196866666Y-61054761D01*
X196819047Y-61007142D01*
X200485714Y-59227380D02*
X199914285Y-59227380D01*
X200200000Y-59227380D02*
X200200000Y-58227380D01*
X200104761Y-58370238D01*
X200009523Y-58465476D01*
X199914285Y-58513095D01*
X158433333Y-54912380D02*
X157957142Y-54912380D01*
X157957142Y-53912380D01*
X158671428Y-53912380D02*
X159290476Y-53912380D01*
X158957142Y-54293333D01*
X159100000Y-54293333D01*
X159195238Y-54340952D01*
X159242857Y-54388571D01*
X159290476Y-54483809D01*
X159290476Y-54721904D01*
X159242857Y-54817142D01*
X159195238Y-54864761D01*
X159100000Y-54912380D01*
X158814285Y-54912380D01*
X158719047Y-54864761D01*
X158671428Y-54817142D01*
X162385714Y-53037380D02*
X161814285Y-53037380D01*
X162100000Y-53037380D02*
X162100000Y-52037380D01*
X162004761Y-52180238D01*
X161909523Y-52275476D01*
X161814285Y-52323095D01*
X139333333Y-56302380D02*
X138857142Y-56302380D01*
X138857142Y-55302380D01*
X139619047Y-55397619D02*
X139666666Y-55350000D01*
X139761904Y-55302380D01*
X140000000Y-55302380D01*
X140095238Y-55350000D01*
X140142857Y-55397619D01*
X140190476Y-55492857D01*
X140190476Y-55588095D01*
X140142857Y-55730952D01*
X139571428Y-56302380D01*
X140190476Y-56302380D01*
X143285714Y-54427380D02*
X142714285Y-54427380D01*
X143000000Y-54427380D02*
X143000000Y-53427380D01*
X142904761Y-53570238D01*
X142809523Y-53665476D01*
X142714285Y-53713095D01*
X196057142Y-74502380D02*
X195580952Y-74502380D01*
X195580952Y-73502380D01*
X196914285Y-74502380D02*
X196342857Y-74502380D01*
X196628571Y-74502380D02*
X196628571Y-73502380D01*
X196533333Y-73645238D01*
X196438095Y-73740476D01*
X196342857Y-73788095D01*
X197866666Y-74502380D02*
X197295238Y-74502380D01*
X197580952Y-74502380D02*
X197580952Y-73502380D01*
X197485714Y-73645238D01*
X197390476Y-73740476D01*
X197295238Y-73788095D01*
X193485714Y-76377380D02*
X192914285Y-76377380D01*
X193200000Y-76377380D02*
X193200000Y-75377380D01*
X193104761Y-75520238D01*
X193009523Y-75615476D01*
X192914285Y-75663095D01*
X176957142Y-69802380D02*
X176480952Y-69802380D01*
X176480952Y-68802380D01*
X177814285Y-69802380D02*
X177242857Y-69802380D01*
X177528571Y-69802380D02*
X177528571Y-68802380D01*
X177433333Y-68945238D01*
X177338095Y-69040476D01*
X177242857Y-69088095D01*
X178433333Y-68802380D02*
X178528571Y-68802380D01*
X178623809Y-68850000D01*
X178671428Y-68897619D01*
X178719047Y-68992857D01*
X178766666Y-69183333D01*
X178766666Y-69421428D01*
X178719047Y-69611904D01*
X178671428Y-69707142D01*
X178623809Y-69754761D01*
X178528571Y-69802380D01*
X178433333Y-69802380D01*
X178338095Y-69754761D01*
X178290476Y-69707142D01*
X178242857Y-69611904D01*
X178195238Y-69421428D01*
X178195238Y-69183333D01*
X178242857Y-68992857D01*
X178290476Y-68897619D01*
X178338095Y-68850000D01*
X178433333Y-68802380D01*
X174385714Y-71677380D02*
X173814285Y-71677380D01*
X174100000Y-71677380D02*
X174100000Y-70677380D01*
X174004761Y-70820238D01*
X173909523Y-70915476D01*
X173814285Y-70963095D01*
X158433333Y-68502380D02*
X157957142Y-68502380D01*
X157957142Y-67502380D01*
X158814285Y-68502380D02*
X159004761Y-68502380D01*
X159100000Y-68454761D01*
X159147619Y-68407142D01*
X159242857Y-68264285D01*
X159290476Y-68073809D01*
X159290476Y-67692857D01*
X159242857Y-67597619D01*
X159195238Y-67550000D01*
X159100000Y-67502380D01*
X158909523Y-67502380D01*
X158814285Y-67550000D01*
X158766666Y-67597619D01*
X158719047Y-67692857D01*
X158719047Y-67930952D01*
X158766666Y-68026190D01*
X158814285Y-68073809D01*
X158909523Y-68121428D01*
X159100000Y-68121428D01*
X159195238Y-68073809D01*
X159242857Y-68026190D01*
X159290476Y-67930952D01*
X215533333Y-62602380D02*
X215057142Y-62602380D01*
X215057142Y-61602380D01*
X216295238Y-61602380D02*
X216104761Y-61602380D01*
X216009523Y-61650000D01*
X215961904Y-61697619D01*
X215866666Y-61840476D01*
X215819047Y-62030952D01*
X215819047Y-62411904D01*
X215866666Y-62507142D01*
X215914285Y-62554761D01*
X216009523Y-62602380D01*
X216200000Y-62602380D01*
X216295238Y-62554761D01*
X216342857Y-62507142D01*
X216390476Y-62411904D01*
X216390476Y-62173809D01*
X216342857Y-62078571D01*
X216295238Y-62030952D01*
X216200000Y-61983333D01*
X216009523Y-61983333D01*
X215914285Y-62030952D01*
X215866666Y-62078571D01*
X215819047Y-62173809D01*
X219485714Y-60727380D02*
X218914285Y-60727380D01*
X219200000Y-60727380D02*
X219200000Y-59727380D01*
X219104761Y-59870238D01*
X219009523Y-59965476D01*
X218914285Y-60013095D01*
X139333333Y-69902380D02*
X138857142Y-69902380D01*
X138857142Y-68902380D01*
X139809523Y-69330952D02*
X139714285Y-69283333D01*
X139666666Y-69235714D01*
X139619047Y-69140476D01*
X139619047Y-69092857D01*
X139666666Y-68997619D01*
X139714285Y-68950000D01*
X139809523Y-68902380D01*
X140000000Y-68902380D01*
X140095238Y-68950000D01*
X140142857Y-68997619D01*
X140190476Y-69092857D01*
X140190476Y-69140476D01*
X140142857Y-69235714D01*
X140095238Y-69283333D01*
X140000000Y-69330952D01*
X139809523Y-69330952D01*
X139714285Y-69378571D01*
X139666666Y-69426190D01*
X139619047Y-69521428D01*
X139619047Y-69711904D01*
X139666666Y-69807142D01*
X139714285Y-69854761D01*
X139809523Y-69902380D01*
X140000000Y-69902380D01*
X140095238Y-69854761D01*
X140142857Y-69807142D01*
X140190476Y-69711904D01*
X140190476Y-69521428D01*
X140142857Y-69426190D01*
X140095238Y-69378571D01*
X140000000Y-69330952D01*
X136285714Y-71777380D02*
X135714285Y-71777380D01*
X136000000Y-71777380D02*
X136000000Y-70777380D01*
X135904761Y-70920238D01*
X135809523Y-71015476D01*
X135714285Y-71063095D01*
X120333333Y-72302380D02*
X119857142Y-72302380D01*
X119857142Y-71302380D01*
X120571428Y-71302380D02*
X121238095Y-71302380D01*
X120809523Y-72302380D01*
X117285714Y-74177380D02*
X116714285Y-74177380D01*
X117000000Y-74177380D02*
X117000000Y-73177380D01*
X116904761Y-73320238D01*
X116809523Y-73415476D01*
X116714285Y-73463095D01*
X167457142Y-132452380D02*
X166980952Y-132452380D01*
X166980952Y-131452380D01*
X167695238Y-131452380D02*
X168314285Y-131452380D01*
X167980952Y-131833333D01*
X168123809Y-131833333D01*
X168219047Y-131880952D01*
X168266666Y-131928571D01*
X168314285Y-132023809D01*
X168314285Y-132261904D01*
X168266666Y-132357142D01*
X168219047Y-132404761D01*
X168123809Y-132452380D01*
X167838095Y-132452380D01*
X167742857Y-132404761D01*
X167695238Y-132357142D01*
X168933333Y-131452380D02*
X169028571Y-131452380D01*
X169123809Y-131500000D01*
X169171428Y-131547619D01*
X169219047Y-131642857D01*
X169266666Y-131833333D01*
X169266666Y-132071428D01*
X169219047Y-132261904D01*
X169171428Y-132357142D01*
X169123809Y-132404761D01*
X169028571Y-132452380D01*
X168933333Y-132452380D01*
X168838095Y-132404761D01*
X168790476Y-132357142D01*
X168742857Y-132261904D01*
X168695238Y-132071428D01*
X168695238Y-131833333D01*
X168742857Y-131642857D01*
X168790476Y-131547619D01*
X168838095Y-131500000D01*
X168933333Y-131452380D01*
X171885714Y-130577380D02*
X171314285Y-130577380D01*
X171600000Y-130577380D02*
X171600000Y-129577380D01*
X171504761Y-129720238D01*
X171409523Y-129815476D01*
X171314285Y-129863095D01*
X98568490Y-131455540D02*
X98806586Y-131867933D01*
X97940560Y-132367933D01*
X97642087Y-131660485D02*
X97577038Y-131643055D01*
X97488179Y-131584386D01*
X97369132Y-131378189D01*
X97362752Y-131271901D01*
X97380182Y-131206852D01*
X97438851Y-131117994D01*
X97521329Y-131070375D01*
X97668857Y-131040186D01*
X98449443Y-131249343D01*
X98139919Y-130713232D01*
X97107227Y-130924557D02*
X96773894Y-130347207D01*
X97854205Y-130218360D01*
X101478003Y-132744962D02*
X101763717Y-133239834D01*
X101620860Y-132992398D02*
X100754834Y-133492398D01*
X100926171Y-133503448D01*
X101056269Y-133538308D01*
X101145127Y-133596977D01*
X94945076Y-90700761D02*
X95087933Y-90748380D01*
X95326028Y-90748380D01*
X95421266Y-90700761D01*
X95468885Y-90653142D01*
X95516504Y-90557904D01*
X95516504Y-90462666D01*
X95468885Y-90367428D01*
X95421266Y-90319809D01*
X95326028Y-90272190D01*
X95135552Y-90224571D01*
X95040314Y-90176952D01*
X94992695Y-90129333D01*
X94945076Y-90034095D01*
X94945076Y-89938857D01*
X94992695Y-89843619D01*
X95040314Y-89796000D01*
X95135552Y-89748380D01*
X95373647Y-89748380D01*
X95516504Y-89796000D01*
X95849838Y-89748380D02*
X96087933Y-90748380D01*
X96278409Y-90034095D01*
X96468885Y-90748380D01*
X96706980Y-89748380D01*
X97040314Y-89843619D02*
X97087933Y-89796000D01*
X97183171Y-89748380D01*
X97421266Y-89748380D01*
X97516504Y-89796000D01*
X97564123Y-89843619D01*
X97611742Y-89938857D01*
X97611742Y-90034095D01*
X97564123Y-90176952D01*
X96992695Y-90748380D01*
X97611742Y-90748380D01*
X98516504Y-89748380D02*
X98040314Y-89748380D01*
X97992695Y-90224571D01*
X98040314Y-90176952D01*
X98135552Y-90129333D01*
X98373647Y-90129333D01*
X98468885Y-90176952D01*
X98516504Y-90224571D01*
X98564123Y-90319809D01*
X98564123Y-90557904D01*
X98516504Y-90653142D01*
X98468885Y-90700761D01*
X98373647Y-90748380D01*
X98135552Y-90748380D01*
X98040314Y-90700761D01*
X97992695Y-90653142D01*
X100706342Y-104817180D02*
X100230152Y-104817180D01*
X100230152Y-103817180D01*
X100992057Y-103912419D02*
X101039676Y-103864800D01*
X101134914Y-103817180D01*
X101373009Y-103817180D01*
X101468247Y-103864800D01*
X101515866Y-103912419D01*
X101563485Y-104007657D01*
X101563485Y-104102895D01*
X101515866Y-104245752D01*
X100944438Y-104817180D01*
X101563485Y-104817180D01*
X102420628Y-103817180D02*
X102230152Y-103817180D01*
X102134914Y-103864800D01*
X102087295Y-103912419D01*
X101992057Y-104055276D01*
X101944438Y-104245752D01*
X101944438Y-104626704D01*
X101992057Y-104721942D01*
X102039676Y-104769561D01*
X102134914Y-104817180D01*
X102325390Y-104817180D01*
X102420628Y-104769561D01*
X102468247Y-104721942D01*
X102515866Y-104626704D01*
X102515866Y-104388609D01*
X102468247Y-104293371D01*
X102420628Y-104245752D01*
X102325390Y-104198133D01*
X102134914Y-104198133D01*
X102039676Y-104245752D01*
X101992057Y-104293371D01*
X101944438Y-104388609D01*
X98134914Y-106692180D02*
X97563485Y-106692180D01*
X97849200Y-106692180D02*
X97849200Y-105692180D01*
X97753961Y-105835038D01*
X97658723Y-105930276D01*
X97563485Y-105977895D01*
X100802142Y-85586380D02*
X100325952Y-85586380D01*
X100325952Y-84586380D01*
X101087857Y-84681619D02*
X101135476Y-84634000D01*
X101230714Y-84586380D01*
X101468809Y-84586380D01*
X101564047Y-84634000D01*
X101611666Y-84681619D01*
X101659285Y-84776857D01*
X101659285Y-84872095D01*
X101611666Y-85014952D01*
X101040238Y-85586380D01*
X101659285Y-85586380D01*
X102564047Y-84586380D02*
X102087857Y-84586380D01*
X102040238Y-85062571D01*
X102087857Y-85014952D01*
X102183095Y-84967333D01*
X102421190Y-84967333D01*
X102516428Y-85014952D01*
X102564047Y-85062571D01*
X102611666Y-85157809D01*
X102611666Y-85395904D01*
X102564047Y-85491142D01*
X102516428Y-85538761D01*
X102421190Y-85586380D01*
X102183095Y-85586380D01*
X102087857Y-85538761D01*
X102040238Y-85491142D01*
X98230714Y-87461380D02*
X97659285Y-87461380D01*
X97945000Y-87461380D02*
X97945000Y-86461380D01*
X97849761Y-86604238D01*
X97754523Y-86699476D01*
X97659285Y-86747095D01*
X204128780Y-109316685D02*
X203128780Y-109316685D01*
X203128780Y-109078590D01*
X203176400Y-108935733D01*
X203271638Y-108840495D01*
X203366876Y-108792876D01*
X203557352Y-108745257D01*
X203700209Y-108745257D01*
X203890685Y-108792876D01*
X203985923Y-108840495D01*
X204081161Y-108935733D01*
X204128780Y-109078590D01*
X204128780Y-109316685D01*
X203224019Y-108364304D02*
X203176400Y-108316685D01*
X203128780Y-108221447D01*
X203128780Y-107983352D01*
X203176400Y-107888114D01*
X203224019Y-107840495D01*
X203319257Y-107792876D01*
X203414495Y-107792876D01*
X203557352Y-107840495D01*
X204128780Y-108411923D01*
X204128780Y-107792876D01*
X203462114Y-106935733D02*
X204128780Y-106935733D01*
X203081161Y-107173828D02*
X203795447Y-107411923D01*
X203795447Y-106792876D01*
X204698780Y-112174304D02*
X203698780Y-112174304D01*
X204698780Y-111602876D02*
X204127352Y-112031447D01*
X203698780Y-111602876D02*
X204270209Y-112174304D01*
X204179580Y-89657085D02*
X203179580Y-89657085D01*
X203179580Y-89418990D01*
X203227200Y-89276133D01*
X203322438Y-89180895D01*
X203417676Y-89133276D01*
X203608152Y-89085657D01*
X203751009Y-89085657D01*
X203941485Y-89133276D01*
X204036723Y-89180895D01*
X204131961Y-89276133D01*
X204179580Y-89418990D01*
X204179580Y-89657085D01*
X204179580Y-88133276D02*
X204179580Y-88704704D01*
X204179580Y-88418990D02*
X203179580Y-88418990D01*
X203322438Y-88514228D01*
X203417676Y-88609466D01*
X203465295Y-88704704D01*
X203608152Y-87561847D02*
X203560533Y-87657085D01*
X203512914Y-87704704D01*
X203417676Y-87752323D01*
X203370057Y-87752323D01*
X203274819Y-87704704D01*
X203227200Y-87657085D01*
X203179580Y-87561847D01*
X203179580Y-87371371D01*
X203227200Y-87276133D01*
X203274819Y-87228514D01*
X203370057Y-87180895D01*
X203417676Y-87180895D01*
X203512914Y-87228514D01*
X203560533Y-87276133D01*
X203608152Y-87371371D01*
X203608152Y-87561847D01*
X203655771Y-87657085D01*
X203703390Y-87704704D01*
X203798628Y-87752323D01*
X203989104Y-87752323D01*
X204084342Y-87704704D01*
X204131961Y-87657085D01*
X204179580Y-87561847D01*
X204179580Y-87371371D01*
X204131961Y-87276133D01*
X204084342Y-87228514D01*
X203989104Y-87180895D01*
X203798628Y-87180895D01*
X203703390Y-87228514D01*
X203655771Y-87276133D01*
X203608152Y-87371371D01*
X204749580Y-92514704D02*
X203749580Y-92514704D01*
X204749580Y-91943276D02*
X204178152Y-92371847D01*
X203749580Y-91943276D02*
X204321009Y-92514704D01*
X146623180Y-103728685D02*
X145623180Y-103728685D01*
X145623180Y-103490590D01*
X145670800Y-103347733D01*
X145766038Y-103252495D01*
X145861276Y-103204876D01*
X146051752Y-103157257D01*
X146194609Y-103157257D01*
X146385085Y-103204876D01*
X146480323Y-103252495D01*
X146575561Y-103347733D01*
X146623180Y-103490590D01*
X146623180Y-103728685D01*
X145718419Y-102776304D02*
X145670800Y-102728685D01*
X145623180Y-102633447D01*
X145623180Y-102395352D01*
X145670800Y-102300114D01*
X145718419Y-102252495D01*
X145813657Y-102204876D01*
X145908895Y-102204876D01*
X146051752Y-102252495D01*
X146623180Y-102823923D01*
X146623180Y-102204876D01*
X146623180Y-101252495D02*
X146623180Y-101823923D01*
X146623180Y-101538209D02*
X145623180Y-101538209D01*
X145766038Y-101633447D01*
X145861276Y-101728685D01*
X145908895Y-101823923D01*
X147193180Y-106586304D02*
X146193180Y-106586304D01*
X147193180Y-106014876D02*
X146621752Y-106443447D01*
X146193180Y-106014876D02*
X146764609Y-106586304D01*
X185739180Y-89707885D02*
X184739180Y-89707885D01*
X184739180Y-89469790D01*
X184786800Y-89326933D01*
X184882038Y-89231695D01*
X184977276Y-89184076D01*
X185167752Y-89136457D01*
X185310609Y-89136457D01*
X185501085Y-89184076D01*
X185596323Y-89231695D01*
X185691561Y-89326933D01*
X185739180Y-89469790D01*
X185739180Y-89707885D01*
X185739180Y-88184076D02*
X185739180Y-88755504D01*
X185739180Y-88469790D02*
X184739180Y-88469790D01*
X184882038Y-88565028D01*
X184977276Y-88660266D01*
X185024895Y-88755504D01*
X184739180Y-87850742D02*
X184739180Y-87184076D01*
X185739180Y-87612647D01*
X186309180Y-92565504D02*
X185309180Y-92565504D01*
X186309180Y-91994076D02*
X185737752Y-92422647D01*
X185309180Y-91994076D02*
X185880609Y-92565504D01*
X204230380Y-71165885D02*
X203230380Y-71165885D01*
X203230380Y-70927790D01*
X203278000Y-70784933D01*
X203373238Y-70689695D01*
X203468476Y-70642076D01*
X203658952Y-70594457D01*
X203801809Y-70594457D01*
X203992285Y-70642076D01*
X204087523Y-70689695D01*
X204182761Y-70784933D01*
X204230380Y-70927790D01*
X204230380Y-71165885D01*
X204230380Y-69642076D02*
X204230380Y-70213504D01*
X204230380Y-69927790D02*
X203230380Y-69927790D01*
X203373238Y-70023028D01*
X203468476Y-70118266D01*
X203516095Y-70213504D01*
X203325619Y-69261123D02*
X203278000Y-69213504D01*
X203230380Y-69118266D01*
X203230380Y-68880171D01*
X203278000Y-68784933D01*
X203325619Y-68737314D01*
X203420857Y-68689695D01*
X203516095Y-68689695D01*
X203658952Y-68737314D01*
X204230380Y-69308742D01*
X204230380Y-68689695D01*
X204800380Y-74023504D02*
X203800380Y-74023504D01*
X204800380Y-73452076D02*
X204228952Y-73880647D01*
X203800380Y-73452076D02*
X204371809Y-74023504D01*
X127395380Y-67921095D02*
X126395380Y-67921095D01*
X126395380Y-67683000D01*
X126443000Y-67540142D01*
X126538238Y-67444904D01*
X126633476Y-67397285D01*
X126823952Y-67349666D01*
X126966809Y-67349666D01*
X127157285Y-67397285D01*
X127252523Y-67444904D01*
X127347761Y-67540142D01*
X127395380Y-67683000D01*
X127395380Y-67921095D01*
X126395380Y-67016333D02*
X126395380Y-66349666D01*
X127395380Y-66778238D01*
X127965380Y-71254904D02*
X126965380Y-71254904D01*
X127965380Y-70683476D02*
X127393952Y-71112047D01*
X126965380Y-70683476D02*
X127536809Y-71254904D01*
X146927980Y-83307085D02*
X145927980Y-83307085D01*
X145927980Y-83068990D01*
X145975600Y-82926133D01*
X146070838Y-82830895D01*
X146166076Y-82783276D01*
X146356552Y-82735657D01*
X146499409Y-82735657D01*
X146689885Y-82783276D01*
X146785123Y-82830895D01*
X146880361Y-82926133D01*
X146927980Y-83068990D01*
X146927980Y-83307085D01*
X146927980Y-81783276D02*
X146927980Y-82354704D01*
X146927980Y-82068990D02*
X145927980Y-82068990D01*
X146070838Y-82164228D01*
X146166076Y-82259466D01*
X146213695Y-82354704D01*
X145927980Y-80878514D02*
X145927980Y-81354704D01*
X146404171Y-81402323D01*
X146356552Y-81354704D01*
X146308933Y-81259466D01*
X146308933Y-81021371D01*
X146356552Y-80926133D01*
X146404171Y-80878514D01*
X146499409Y-80830895D01*
X146737504Y-80830895D01*
X146832742Y-80878514D01*
X146880361Y-80926133D01*
X146927980Y-81021371D01*
X146927980Y-81259466D01*
X146880361Y-81354704D01*
X146832742Y-81402323D01*
X147497980Y-86164704D02*
X146497980Y-86164704D01*
X147497980Y-85593276D02*
X146926552Y-86021847D01*
X146497980Y-85593276D02*
X147069409Y-86164704D01*
X121943904Y-43562380D02*
X121943904Y-42562380D01*
X122182000Y-42562380D01*
X122324857Y-42610000D01*
X122420095Y-42705238D01*
X122467714Y-42800476D01*
X122515333Y-42990952D01*
X122515333Y-43133809D01*
X122467714Y-43324285D01*
X122420095Y-43419523D01*
X122324857Y-43514761D01*
X122182000Y-43562380D01*
X121943904Y-43562380D01*
X123467714Y-43562380D02*
X122896285Y-43562380D01*
X123182000Y-43562380D02*
X123182000Y-42562380D01*
X123086761Y-42705238D01*
X122991523Y-42800476D01*
X122896285Y-42848095D01*
X126230095Y-42992380D02*
X126230095Y-41992380D01*
X126801523Y-42992380D02*
X126372952Y-42420952D01*
X126801523Y-41992380D02*
X126230095Y-42563809D01*
X119509833Y-127790411D02*
X118643807Y-128290411D01*
X118524760Y-128084215D01*
X118494570Y-127936687D01*
X118529430Y-127806590D01*
X118588099Y-127717731D01*
X118729247Y-127581254D01*
X118852965Y-127509825D01*
X119041731Y-127455827D01*
X119148020Y-127449447D01*
X119278117Y-127484306D01*
X119390785Y-127584215D01*
X119509833Y-127790411D01*
X118250095Y-127418006D02*
X118185047Y-127400576D01*
X118096188Y-127341907D01*
X117977141Y-127135711D01*
X117970761Y-127029423D01*
X117988191Y-126964374D01*
X118046860Y-126875515D01*
X118129338Y-126827896D01*
X118276866Y-126797707D01*
X119057452Y-127006865D01*
X118747928Y-126470754D01*
X117715236Y-126682078D02*
X117381903Y-126104728D01*
X118462214Y-125975882D01*
X121432277Y-129980182D02*
X120566252Y-130480182D01*
X121146563Y-129485311D02*
X120865977Y-130142179D01*
X120280538Y-129985311D02*
X121061124Y-130194468D01*
X165571580Y-65019085D02*
X164571580Y-65019085D01*
X164571580Y-64780990D01*
X164619200Y-64638133D01*
X164714438Y-64542895D01*
X164809676Y-64495276D01*
X165000152Y-64447657D01*
X165143009Y-64447657D01*
X165333485Y-64495276D01*
X165428723Y-64542895D01*
X165523961Y-64638133D01*
X165571580Y-64780990D01*
X165571580Y-65019085D01*
X165571580Y-63495276D02*
X165571580Y-64066704D01*
X165571580Y-63780990D02*
X164571580Y-63780990D01*
X164714438Y-63876228D01*
X164809676Y-63971466D01*
X164857295Y-64066704D01*
X164571580Y-62876228D02*
X164571580Y-62780990D01*
X164619200Y-62685752D01*
X164666819Y-62638133D01*
X164762057Y-62590514D01*
X164952533Y-62542895D01*
X165190628Y-62542895D01*
X165381104Y-62590514D01*
X165476342Y-62638133D01*
X165523961Y-62685752D01*
X165571580Y-62780990D01*
X165571580Y-62876228D01*
X165523961Y-62971466D01*
X165476342Y-63019085D01*
X165381104Y-63066704D01*
X165190628Y-63114323D01*
X164952533Y-63114323D01*
X164762057Y-63066704D01*
X164666819Y-63019085D01*
X164619200Y-62971466D01*
X164571580Y-62876228D01*
X166141580Y-67876704D02*
X165141580Y-67876704D01*
X166141580Y-67305276D02*
X165570152Y-67733847D01*
X165141580Y-67305276D02*
X165713009Y-67876704D01*
X186145580Y-69921285D02*
X185145580Y-69921285D01*
X185145580Y-69683190D01*
X185193200Y-69540333D01*
X185288438Y-69445095D01*
X185383676Y-69397476D01*
X185574152Y-69349857D01*
X185717009Y-69349857D01*
X185907485Y-69397476D01*
X186002723Y-69445095D01*
X186097961Y-69540333D01*
X186145580Y-69683190D01*
X186145580Y-69921285D01*
X186145580Y-68397476D02*
X186145580Y-68968904D01*
X186145580Y-68683190D02*
X185145580Y-68683190D01*
X185288438Y-68778428D01*
X185383676Y-68873666D01*
X185431295Y-68968904D01*
X186145580Y-67445095D02*
X186145580Y-68016523D01*
X186145580Y-67730809D02*
X185145580Y-67730809D01*
X185288438Y-67826047D01*
X185383676Y-67921285D01*
X185431295Y-68016523D01*
X186715580Y-72778904D02*
X185715580Y-72778904D01*
X186715580Y-72207476D02*
X186144152Y-72636047D01*
X185715580Y-72207476D02*
X186287009Y-72778904D01*
X138961904Y-79122380D02*
X138961904Y-78122380D01*
X139200000Y-78122380D01*
X139342857Y-78170000D01*
X139438095Y-78265238D01*
X139485714Y-78360476D01*
X139533333Y-78550952D01*
X139533333Y-78693809D01*
X139485714Y-78884285D01*
X139438095Y-78979523D01*
X139342857Y-79074761D01*
X139200000Y-79122380D01*
X138961904Y-79122380D01*
X140104761Y-78550952D02*
X140009523Y-78503333D01*
X139961904Y-78455714D01*
X139914285Y-78360476D01*
X139914285Y-78312857D01*
X139961904Y-78217619D01*
X140009523Y-78170000D01*
X140104761Y-78122380D01*
X140295238Y-78122380D01*
X140390476Y-78170000D01*
X140438095Y-78217619D01*
X140485714Y-78312857D01*
X140485714Y-78360476D01*
X140438095Y-78455714D01*
X140390476Y-78503333D01*
X140295238Y-78550952D01*
X140104761Y-78550952D01*
X140009523Y-78598571D01*
X139961904Y-78646190D01*
X139914285Y-78741428D01*
X139914285Y-78931904D01*
X139961904Y-79027142D01*
X140009523Y-79074761D01*
X140104761Y-79122380D01*
X140295238Y-79122380D01*
X140390476Y-79074761D01*
X140438095Y-79027142D01*
X140485714Y-78931904D01*
X140485714Y-78741428D01*
X140438095Y-78646190D01*
X140390476Y-78598571D01*
X140295238Y-78550952D01*
X143248095Y-78552380D02*
X143248095Y-77552380D01*
X143819523Y-78552380D02*
X143390952Y-77980952D01*
X143819523Y-77552380D02*
X143248095Y-78123809D01*
X127522380Y-106624285D02*
X126522380Y-106624285D01*
X126522380Y-106386190D01*
X126570000Y-106243333D01*
X126665238Y-106148095D01*
X126760476Y-106100476D01*
X126950952Y-106052857D01*
X127093809Y-106052857D01*
X127284285Y-106100476D01*
X127379523Y-106148095D01*
X127474761Y-106243333D01*
X127522380Y-106386190D01*
X127522380Y-106624285D01*
X126617619Y-105671904D02*
X126570000Y-105624285D01*
X126522380Y-105529047D01*
X126522380Y-105290952D01*
X126570000Y-105195714D01*
X126617619Y-105148095D01*
X126712857Y-105100476D01*
X126808095Y-105100476D01*
X126950952Y-105148095D01*
X127522380Y-105719523D01*
X127522380Y-105100476D01*
X126522380Y-104481428D02*
X126522380Y-104386190D01*
X126570000Y-104290952D01*
X126617619Y-104243333D01*
X126712857Y-104195714D01*
X126903333Y-104148095D01*
X127141428Y-104148095D01*
X127331904Y-104195714D01*
X127427142Y-104243333D01*
X127474761Y-104290952D01*
X127522380Y-104386190D01*
X127522380Y-104481428D01*
X127474761Y-104576666D01*
X127427142Y-104624285D01*
X127331904Y-104671904D01*
X127141428Y-104719523D01*
X126903333Y-104719523D01*
X126712857Y-104671904D01*
X126617619Y-104624285D01*
X126570000Y-104576666D01*
X126522380Y-104481428D01*
X128092380Y-109481904D02*
X127092380Y-109481904D01*
X128092380Y-108910476D02*
X127520952Y-109339047D01*
X127092380Y-108910476D02*
X127663809Y-109481904D01*
X118419714Y-101982380D02*
X118419714Y-100982380D01*
X118657809Y-100982380D01*
X118800666Y-101030000D01*
X118895904Y-101125238D01*
X118943523Y-101220476D01*
X118991142Y-101410952D01*
X118991142Y-101553809D01*
X118943523Y-101744285D01*
X118895904Y-101839523D01*
X118800666Y-101934761D01*
X118657809Y-101982380D01*
X118419714Y-101982380D01*
X119943523Y-101982380D02*
X119372095Y-101982380D01*
X119657809Y-101982380D02*
X119657809Y-100982380D01*
X119562571Y-101125238D01*
X119467333Y-101220476D01*
X119372095Y-101268095D01*
X120419714Y-101982380D02*
X120610190Y-101982380D01*
X120705428Y-101934761D01*
X120753047Y-101887142D01*
X120848285Y-101744285D01*
X120895904Y-101553809D01*
X120895904Y-101172857D01*
X120848285Y-101077619D01*
X120800666Y-101030000D01*
X120705428Y-100982380D01*
X120514952Y-100982380D01*
X120419714Y-101030000D01*
X120372095Y-101077619D01*
X120324476Y-101172857D01*
X120324476Y-101410952D01*
X120372095Y-101506190D01*
X120419714Y-101553809D01*
X120514952Y-101601428D01*
X120705428Y-101601428D01*
X120800666Y-101553809D01*
X120848285Y-101506190D01*
X120895904Y-101410952D01*
X123182095Y-101412380D02*
X123182095Y-100412380D01*
X123753523Y-101412380D02*
X123324952Y-100840952D01*
X123753523Y-100412380D02*
X123182095Y-100983809D01*
X166232380Y-104084285D02*
X165232380Y-104084285D01*
X165232380Y-103846190D01*
X165280000Y-103703333D01*
X165375238Y-103608095D01*
X165470476Y-103560476D01*
X165660952Y-103512857D01*
X165803809Y-103512857D01*
X165994285Y-103560476D01*
X166089523Y-103608095D01*
X166184761Y-103703333D01*
X166232380Y-103846190D01*
X166232380Y-104084285D01*
X165327619Y-103131904D02*
X165280000Y-103084285D01*
X165232380Y-102989047D01*
X165232380Y-102750952D01*
X165280000Y-102655714D01*
X165327619Y-102608095D01*
X165422857Y-102560476D01*
X165518095Y-102560476D01*
X165660952Y-102608095D01*
X166232380Y-103179523D01*
X166232380Y-102560476D01*
X165327619Y-102179523D02*
X165280000Y-102131904D01*
X165232380Y-102036666D01*
X165232380Y-101798571D01*
X165280000Y-101703333D01*
X165327619Y-101655714D01*
X165422857Y-101608095D01*
X165518095Y-101608095D01*
X165660952Y-101655714D01*
X166232380Y-102227142D01*
X166232380Y-101608095D01*
X166802380Y-106941904D02*
X165802380Y-106941904D01*
X166802380Y-106370476D02*
X166230952Y-106799047D01*
X165802380Y-106370476D02*
X166373809Y-106941904D01*
X146572380Y-64746095D02*
X145572380Y-64746095D01*
X145572380Y-64508000D01*
X145620000Y-64365142D01*
X145715238Y-64269904D01*
X145810476Y-64222285D01*
X146000952Y-64174666D01*
X146143809Y-64174666D01*
X146334285Y-64222285D01*
X146429523Y-64269904D01*
X146524761Y-64365142D01*
X146572380Y-64508000D01*
X146572380Y-64746095D01*
X146572380Y-63698476D02*
X146572380Y-63508000D01*
X146524761Y-63412761D01*
X146477142Y-63365142D01*
X146334285Y-63269904D01*
X146143809Y-63222285D01*
X145762857Y-63222285D01*
X145667619Y-63269904D01*
X145620000Y-63317523D01*
X145572380Y-63412761D01*
X145572380Y-63603238D01*
X145620000Y-63698476D01*
X145667619Y-63746095D01*
X145762857Y-63793714D01*
X146000952Y-63793714D01*
X146096190Y-63746095D01*
X146143809Y-63698476D01*
X146191428Y-63603238D01*
X146191428Y-63412761D01*
X146143809Y-63317523D01*
X146096190Y-63269904D01*
X146000952Y-63222285D01*
X147142380Y-68079904D02*
X146142380Y-68079904D01*
X147142380Y-67508476D02*
X146570952Y-67937047D01*
X146142380Y-67508476D02*
X146713809Y-68079904D01*
X185739180Y-50979295D02*
X184739180Y-50979295D01*
X184739180Y-50741200D01*
X184786800Y-50598342D01*
X184882038Y-50503104D01*
X184977276Y-50455485D01*
X185167752Y-50407866D01*
X185310609Y-50407866D01*
X185501085Y-50455485D01*
X185596323Y-50503104D01*
X185691561Y-50598342D01*
X185739180Y-50741200D01*
X185739180Y-50979295D01*
X184739180Y-49503104D02*
X184739180Y-49979295D01*
X185215371Y-50026914D01*
X185167752Y-49979295D01*
X185120133Y-49884057D01*
X185120133Y-49645961D01*
X185167752Y-49550723D01*
X185215371Y-49503104D01*
X185310609Y-49455485D01*
X185548704Y-49455485D01*
X185643942Y-49503104D01*
X185691561Y-49550723D01*
X185739180Y-49645961D01*
X185739180Y-49884057D01*
X185691561Y-49979295D01*
X185643942Y-50026914D01*
X186309180Y-54313104D02*
X185309180Y-54313104D01*
X186309180Y-53741676D02*
X185737752Y-54170247D01*
X185309180Y-53741676D02*
X185880609Y-54313104D01*
X156682380Y-123388285D02*
X155682380Y-123388285D01*
X155682380Y-123150190D01*
X155730000Y-123007333D01*
X155825238Y-122912095D01*
X155920476Y-122864476D01*
X156110952Y-122816857D01*
X156253809Y-122816857D01*
X156444285Y-122864476D01*
X156539523Y-122912095D01*
X156634761Y-123007333D01*
X156682380Y-123150190D01*
X156682380Y-123388285D01*
X155777619Y-122435904D02*
X155730000Y-122388285D01*
X155682380Y-122293047D01*
X155682380Y-122054952D01*
X155730000Y-121959714D01*
X155777619Y-121912095D01*
X155872857Y-121864476D01*
X155968095Y-121864476D01*
X156110952Y-121912095D01*
X156682380Y-122483523D01*
X156682380Y-121864476D01*
X156682380Y-121388285D02*
X156682380Y-121197809D01*
X156634761Y-121102571D01*
X156587142Y-121054952D01*
X156444285Y-120959714D01*
X156253809Y-120912095D01*
X155872857Y-120912095D01*
X155777619Y-120959714D01*
X155730000Y-121007333D01*
X155682380Y-121102571D01*
X155682380Y-121293047D01*
X155730000Y-121388285D01*
X155777619Y-121435904D01*
X155872857Y-121483523D01*
X156110952Y-121483523D01*
X156206190Y-121435904D01*
X156253809Y-121388285D01*
X156301428Y-121293047D01*
X156301428Y-121102571D01*
X156253809Y-121007333D01*
X156206190Y-120959714D01*
X156110952Y-120912095D01*
X157252380Y-126245904D02*
X156252380Y-126245904D01*
X157252380Y-125674476D02*
X156680952Y-126103047D01*
X156252380Y-125674476D02*
X156823809Y-126245904D01*
X119435714Y-82932380D02*
X119435714Y-81932380D01*
X119673809Y-81932380D01*
X119816666Y-81980000D01*
X119911904Y-82075238D01*
X119959523Y-82170476D01*
X120007142Y-82360952D01*
X120007142Y-82503809D01*
X119959523Y-82694285D01*
X119911904Y-82789523D01*
X119816666Y-82884761D01*
X119673809Y-82932380D01*
X119435714Y-82932380D01*
X120959523Y-82932380D02*
X120388095Y-82932380D01*
X120673809Y-82932380D02*
X120673809Y-81932380D01*
X120578571Y-82075238D01*
X120483333Y-82170476D01*
X120388095Y-82218095D01*
X121292857Y-81932380D02*
X121911904Y-81932380D01*
X121578571Y-82313333D01*
X121721428Y-82313333D01*
X121816666Y-82360952D01*
X121864285Y-82408571D01*
X121911904Y-82503809D01*
X121911904Y-82741904D01*
X121864285Y-82837142D01*
X121816666Y-82884761D01*
X121721428Y-82932380D01*
X121435714Y-82932380D01*
X121340476Y-82884761D01*
X121292857Y-82837142D01*
X124198095Y-82362380D02*
X124198095Y-81362380D01*
X124769523Y-82362380D02*
X124340952Y-81790952D01*
X124769523Y-81362380D02*
X124198095Y-81933809D01*
X127319180Y-87218685D02*
X126319180Y-87218685D01*
X126319180Y-86980590D01*
X126366800Y-86837733D01*
X126462038Y-86742495D01*
X126557276Y-86694876D01*
X126747752Y-86647257D01*
X126890609Y-86647257D01*
X127081085Y-86694876D01*
X127176323Y-86742495D01*
X127271561Y-86837733D01*
X127319180Y-86980590D01*
X127319180Y-87218685D01*
X127319180Y-85694876D02*
X127319180Y-86266304D01*
X127319180Y-85980590D02*
X126319180Y-85980590D01*
X126462038Y-86075828D01*
X126557276Y-86171066D01*
X126604895Y-86266304D01*
X126652514Y-84837733D02*
X127319180Y-84837733D01*
X126271561Y-85075828D02*
X126985847Y-85313923D01*
X126985847Y-84694876D01*
X127889180Y-90076304D02*
X126889180Y-90076304D01*
X127889180Y-89504876D02*
X127317752Y-89933447D01*
X126889180Y-89504876D02*
X127460609Y-90076304D01*
X166333580Y-84577085D02*
X165333580Y-84577085D01*
X165333580Y-84338990D01*
X165381200Y-84196133D01*
X165476438Y-84100895D01*
X165571676Y-84053276D01*
X165762152Y-84005657D01*
X165905009Y-84005657D01*
X166095485Y-84053276D01*
X166190723Y-84100895D01*
X166285961Y-84196133D01*
X166333580Y-84338990D01*
X166333580Y-84577085D01*
X166333580Y-83053276D02*
X166333580Y-83624704D01*
X166333580Y-83338990D02*
X165333580Y-83338990D01*
X165476438Y-83434228D01*
X165571676Y-83529466D01*
X165619295Y-83624704D01*
X165333580Y-82196133D02*
X165333580Y-82386609D01*
X165381200Y-82481847D01*
X165428819Y-82529466D01*
X165571676Y-82624704D01*
X165762152Y-82672323D01*
X166143104Y-82672323D01*
X166238342Y-82624704D01*
X166285961Y-82577085D01*
X166333580Y-82481847D01*
X166333580Y-82291371D01*
X166285961Y-82196133D01*
X166238342Y-82148514D01*
X166143104Y-82100895D01*
X165905009Y-82100895D01*
X165809771Y-82148514D01*
X165762152Y-82196133D01*
X165714533Y-82291371D01*
X165714533Y-82481847D01*
X165762152Y-82577085D01*
X165809771Y-82624704D01*
X165905009Y-82672323D01*
X166903580Y-87434704D02*
X165903580Y-87434704D01*
X166903580Y-86863276D02*
X166332152Y-87291847D01*
X165903580Y-86863276D02*
X166475009Y-87434704D01*
X148817104Y-110402780D02*
X148817104Y-109402780D01*
X149055200Y-109402780D01*
X149198057Y-109450400D01*
X149293295Y-109545638D01*
X149340914Y-109640876D01*
X149388533Y-109831352D01*
X149388533Y-109974209D01*
X149340914Y-110164685D01*
X149293295Y-110259923D01*
X149198057Y-110355161D01*
X149055200Y-110402780D01*
X148817104Y-110402780D01*
X150245676Y-109736114D02*
X150245676Y-110402780D01*
X150007580Y-109355161D02*
X149769485Y-110069447D01*
X150388533Y-110069447D01*
X145483295Y-110972780D02*
X145483295Y-109972780D01*
X146054723Y-110972780D02*
X145626152Y-110401352D01*
X146054723Y-109972780D02*
X145483295Y-110544209D01*
X204281180Y-51690495D02*
X203281180Y-51690495D01*
X203281180Y-51452400D01*
X203328800Y-51309542D01*
X203424038Y-51214304D01*
X203519276Y-51166685D01*
X203709752Y-51119066D01*
X203852609Y-51119066D01*
X204043085Y-51166685D01*
X204138323Y-51214304D01*
X204233561Y-51309542D01*
X204281180Y-51452400D01*
X204281180Y-51690495D01*
X203281180Y-50261923D02*
X203281180Y-50452400D01*
X203328800Y-50547638D01*
X203376419Y-50595257D01*
X203519276Y-50690495D01*
X203709752Y-50738114D01*
X204090704Y-50738114D01*
X204185942Y-50690495D01*
X204233561Y-50642876D01*
X204281180Y-50547638D01*
X204281180Y-50357161D01*
X204233561Y-50261923D01*
X204185942Y-50214304D01*
X204090704Y-50166685D01*
X203852609Y-50166685D01*
X203757371Y-50214304D01*
X203709752Y-50261923D01*
X203662133Y-50357161D01*
X203662133Y-50547638D01*
X203709752Y-50642876D01*
X203757371Y-50690495D01*
X203852609Y-50738114D01*
X204851180Y-55024304D02*
X203851180Y-55024304D01*
X204851180Y-54452876D02*
X204279752Y-54881447D01*
X203851180Y-54452876D02*
X204422609Y-55024304D01*
X127674780Y-48236095D02*
X126674780Y-48236095D01*
X126674780Y-47998000D01*
X126722400Y-47855142D01*
X126817638Y-47759904D01*
X126912876Y-47712285D01*
X127103352Y-47664666D01*
X127246209Y-47664666D01*
X127436685Y-47712285D01*
X127531923Y-47759904D01*
X127627161Y-47855142D01*
X127674780Y-47998000D01*
X127674780Y-48236095D01*
X126770019Y-47283714D02*
X126722400Y-47236095D01*
X126674780Y-47140857D01*
X126674780Y-46902761D01*
X126722400Y-46807523D01*
X126770019Y-46759904D01*
X126865257Y-46712285D01*
X126960495Y-46712285D01*
X127103352Y-46759904D01*
X127674780Y-47331333D01*
X127674780Y-46712285D01*
X128244780Y-51569904D02*
X127244780Y-51569904D01*
X128244780Y-50998476D02*
X127673352Y-51427047D01*
X127244780Y-50998476D02*
X127816209Y-51569904D01*
X146572380Y-46153295D02*
X145572380Y-46153295D01*
X145572380Y-45915200D01*
X145620000Y-45772342D01*
X145715238Y-45677104D01*
X145810476Y-45629485D01*
X146000952Y-45581866D01*
X146143809Y-45581866D01*
X146334285Y-45629485D01*
X146429523Y-45677104D01*
X146524761Y-45772342D01*
X146572380Y-45915200D01*
X146572380Y-46153295D01*
X145572380Y-45248533D02*
X145572380Y-44629485D01*
X145953333Y-44962819D01*
X145953333Y-44819961D01*
X146000952Y-44724723D01*
X146048571Y-44677104D01*
X146143809Y-44629485D01*
X146381904Y-44629485D01*
X146477142Y-44677104D01*
X146524761Y-44724723D01*
X146572380Y-44819961D01*
X146572380Y-45105676D01*
X146524761Y-45200914D01*
X146477142Y-45248533D01*
X147142380Y-49487104D02*
X146142380Y-49487104D01*
X147142380Y-48915676D02*
X146570952Y-49344247D01*
X146142380Y-48915676D02*
X146713809Y-49487104D01*
X185637580Y-109164285D02*
X184637580Y-109164285D01*
X184637580Y-108926190D01*
X184685200Y-108783333D01*
X184780438Y-108688095D01*
X184875676Y-108640476D01*
X185066152Y-108592857D01*
X185209009Y-108592857D01*
X185399485Y-108640476D01*
X185494723Y-108688095D01*
X185589961Y-108783333D01*
X185637580Y-108926190D01*
X185637580Y-109164285D01*
X184732819Y-108211904D02*
X184685200Y-108164285D01*
X184637580Y-108069047D01*
X184637580Y-107830952D01*
X184685200Y-107735714D01*
X184732819Y-107688095D01*
X184828057Y-107640476D01*
X184923295Y-107640476D01*
X185066152Y-107688095D01*
X185637580Y-108259523D01*
X185637580Y-107640476D01*
X184637580Y-107307142D02*
X184637580Y-106688095D01*
X185018533Y-107021428D01*
X185018533Y-106878571D01*
X185066152Y-106783333D01*
X185113771Y-106735714D01*
X185209009Y-106688095D01*
X185447104Y-106688095D01*
X185542342Y-106735714D01*
X185589961Y-106783333D01*
X185637580Y-106878571D01*
X185637580Y-107164285D01*
X185589961Y-107259523D01*
X185542342Y-107307142D01*
X186207580Y-112021904D02*
X185207580Y-112021904D01*
X186207580Y-111450476D02*
X185636152Y-111879047D01*
X185207580Y-111450476D02*
X185779009Y-112021904D01*
X94543714Y-84329380D02*
X94543714Y-83329380D01*
X94781809Y-83329380D01*
X94924666Y-83377000D01*
X95019904Y-83472238D01*
X95067523Y-83567476D01*
X95115142Y-83757952D01*
X95115142Y-83900809D01*
X95067523Y-84091285D01*
X95019904Y-84186523D01*
X94924666Y-84281761D01*
X94781809Y-84329380D01*
X94543714Y-84329380D01*
X95496095Y-83424619D02*
X95543714Y-83377000D01*
X95638952Y-83329380D01*
X95877047Y-83329380D01*
X95972285Y-83377000D01*
X96019904Y-83424619D01*
X96067523Y-83519857D01*
X96067523Y-83615095D01*
X96019904Y-83757952D01*
X95448476Y-84329380D01*
X96067523Y-84329380D01*
X96972285Y-83329380D02*
X96496095Y-83329380D01*
X96448476Y-83805571D01*
X96496095Y-83757952D01*
X96591333Y-83710333D01*
X96829428Y-83710333D01*
X96924666Y-83757952D01*
X96972285Y-83805571D01*
X97019904Y-83900809D01*
X97019904Y-84138904D01*
X96972285Y-84234142D01*
X96924666Y-84281761D01*
X96829428Y-84329380D01*
X96591333Y-84329380D01*
X96496095Y-84281761D01*
X96448476Y-84234142D01*
X99306095Y-83759380D02*
X99306095Y-82759380D01*
X99877523Y-83759380D02*
X99448952Y-83187952D01*
X99877523Y-82759380D02*
X99306095Y-83330809D01*
X136971180Y-124912285D02*
X135971180Y-124912285D01*
X135971180Y-124674190D01*
X136018800Y-124531333D01*
X136114038Y-124436095D01*
X136209276Y-124388476D01*
X136399752Y-124340857D01*
X136542609Y-124340857D01*
X136733085Y-124388476D01*
X136828323Y-124436095D01*
X136923561Y-124531333D01*
X136971180Y-124674190D01*
X136971180Y-124912285D01*
X136066419Y-123959904D02*
X136018800Y-123912285D01*
X135971180Y-123817047D01*
X135971180Y-123578952D01*
X136018800Y-123483714D01*
X136066419Y-123436095D01*
X136161657Y-123388476D01*
X136256895Y-123388476D01*
X136399752Y-123436095D01*
X136971180Y-124007523D01*
X136971180Y-123388476D01*
X136399752Y-122817047D02*
X136352133Y-122912285D01*
X136304514Y-122959904D01*
X136209276Y-123007523D01*
X136161657Y-123007523D01*
X136066419Y-122959904D01*
X136018800Y-122912285D01*
X135971180Y-122817047D01*
X135971180Y-122626571D01*
X136018800Y-122531333D01*
X136066419Y-122483714D01*
X136161657Y-122436095D01*
X136209276Y-122436095D01*
X136304514Y-122483714D01*
X136352133Y-122531333D01*
X136399752Y-122626571D01*
X136399752Y-122817047D01*
X136447371Y-122912285D01*
X136494990Y-122959904D01*
X136590228Y-123007523D01*
X136780704Y-123007523D01*
X136875942Y-122959904D01*
X136923561Y-122912285D01*
X136971180Y-122817047D01*
X136971180Y-122626571D01*
X136923561Y-122531333D01*
X136875942Y-122483714D01*
X136780704Y-122436095D01*
X136590228Y-122436095D01*
X136494990Y-122483714D01*
X136447371Y-122531333D01*
X136399752Y-122626571D01*
X137541180Y-127769904D02*
X136541180Y-127769904D01*
X137541180Y-127198476D02*
X136969752Y-127627047D01*
X136541180Y-127198476D02*
X137112609Y-127769904D01*
D15*
X94488000Y-90551000D02*
X108458000Y-90551000D01*
X94488000Y-104521000D02*
X94488000Y-90551000D01*
X108458000Y-104521000D02*
X94488000Y-104521000D01*
X108458000Y-90551000D02*
X108458000Y-104521000D01*
D13*
X85326000Y-41162000D02*
X87526000Y-41162000D01*
X85326000Y-36562000D02*
X93926000Y-36562000D01*
X91626000Y-41162000D02*
X93926000Y-41162000D01*
D15*
X84906000Y-65870000D02*
X87306000Y-65870000D01*
X87306000Y-65870000D02*
X87306000Y-68270000D01*
X87306000Y-68270000D02*
X84906000Y-68270000D01*
X84906000Y-68270000D02*
X84906000Y-65870000D01*
X87306000Y-72320000D02*
X84906000Y-72320000D01*
X84906000Y-72320000D02*
X84906000Y-69920000D01*
X87306000Y-69920000D02*
X87306000Y-72320000D01*
X84906000Y-69920000D02*
X87306000Y-69920000D01*
D13*
X97518000Y-41162000D02*
X99718000Y-41162000D01*
X103818000Y-41162000D02*
X106118000Y-41162000D01*
X97518000Y-36562000D02*
X106118000Y-36562000D01*
D15*
X111800057Y-119080968D02*
X111514269Y-119245968D01*
X112259731Y-125097146D02*
X111973943Y-125262146D01*
X114234269Y-123957146D02*
X114520057Y-123792146D01*
X111973943Y-125262146D02*
X109253943Y-120550968D01*
X111463943Y-124378800D02*
X114010057Y-122908800D01*
X111583943Y-124586646D02*
X114130057Y-123116646D01*
X109253943Y-120550968D02*
X109539731Y-120385968D01*
X111523943Y-124482723D02*
X114070057Y-123012723D01*
X114520057Y-123792146D02*
X111800057Y-119080968D01*
D13*
X87044000Y-58626000D02*
X86644000Y-58626000D01*
X83544000Y-52626000D02*
X83544000Y-58626000D01*
X87044000Y-52626000D02*
X86644000Y-52626000D01*
X83544000Y-52626000D02*
X84044000Y-52626000D01*
X83544000Y-58626000D02*
X84044000Y-58626000D01*
X87044000Y-58626000D02*
X87044000Y-52626000D01*
D16*
X106456005Y-43466130D02*
X106456005Y-40926130D01*
X88676005Y-43466130D02*
X88676005Y-73946130D01*
X88676005Y-73946130D02*
X106456005Y-73946130D01*
X106456005Y-73946130D02*
X106456005Y-43466130D01*
X106456005Y-40926130D02*
X88676005Y-40926130D01*
X88676005Y-40926130D02*
X88676005Y-43466130D01*
D13*
X95721810Y-72636380D02*
X95721810Y-70350380D01*
X95721810Y-70350380D02*
X97499810Y-70350380D01*
X97499810Y-72636380D02*
X95721810Y-72636380D01*
X97499810Y-70350380D02*
X97499810Y-72636380D01*
X94999810Y-72636380D02*
X93221810Y-72636380D01*
X93221810Y-70350380D02*
X94999810Y-70350380D01*
X94999810Y-70350380D02*
X94999810Y-72636380D01*
X93221810Y-72636380D02*
X93221810Y-70350380D01*
X92837000Y-77724000D02*
X102997000Y-77724000D01*
X92837000Y-77724000D02*
X92837000Y-75184000D01*
X92837000Y-75184000D02*
X102997000Y-75184000D01*
X102997000Y-75184000D02*
X102997000Y-77724000D01*
X98321810Y-72636380D02*
X98321810Y-70350380D01*
X100099810Y-72636380D02*
X98321810Y-72636380D01*
X100099810Y-70350380D02*
X100099810Y-72636380D01*
X98321810Y-70350380D02*
X100099810Y-70350380D01*
X102265005Y-72636380D02*
X100487005Y-72636380D01*
X102265005Y-70350380D02*
X102265005Y-72636380D01*
X100487005Y-72636380D02*
X100487005Y-70350380D01*
X100487005Y-70350380D02*
X102265005Y-70350380D01*
D15*
X123450000Y-53550000D02*
X117550000Y-53550000D01*
X117550000Y-53550000D02*
X117550000Y-54625000D01*
X123450000Y-57450000D02*
X117550000Y-57450000D01*
X136550000Y-108350000D02*
X142450000Y-108350000D01*
X136550000Y-112250000D02*
X142450000Y-112250000D01*
X142450000Y-112250000D02*
X142450000Y-111175000D01*
X151950000Y-131200000D02*
X146050000Y-131200000D01*
X146050000Y-127300000D02*
X146050000Y-128375000D01*
X151950000Y-127300000D02*
X146050000Y-127300000D01*
X161550000Y-110850000D02*
X161550000Y-109775000D01*
X155650000Y-106950000D02*
X161550000Y-106950000D01*
X155650000Y-110850000D02*
X161550000Y-110850000D01*
X193750000Y-116950000D02*
X199650000Y-116950000D01*
X199650000Y-116950000D02*
X199650000Y-115875000D01*
X193750000Y-113050000D02*
X199650000Y-113050000D01*
X212800000Y-114550000D02*
X218700000Y-114550000D01*
X212800000Y-118450000D02*
X218700000Y-118450000D01*
X218700000Y-118450000D02*
X218700000Y-117375000D01*
X132950000Y-129550000D02*
X127050000Y-129550000D01*
X132950000Y-133450000D02*
X127050000Y-133450000D01*
X127050000Y-129550000D02*
X127050000Y-130625000D01*
X174650000Y-89250000D02*
X174650000Y-90325000D01*
X180550000Y-93150000D02*
X174650000Y-93150000D01*
X180550000Y-89250000D02*
X174650000Y-89250000D01*
X123450000Y-114550000D02*
X123450000Y-113475000D01*
X117550000Y-110650000D02*
X123450000Y-110650000D01*
X117550000Y-114550000D02*
X123450000Y-114550000D01*
X218650000Y-95550000D02*
X212750000Y-95550000D01*
X212750000Y-95550000D02*
X212750000Y-96625000D01*
X218650000Y-99450000D02*
X212750000Y-99450000D01*
X161550000Y-91850000D02*
X155650000Y-91850000D01*
X161550000Y-87950000D02*
X155650000Y-87950000D01*
X155650000Y-87950000D02*
X155650000Y-89025000D01*
X142450000Y-89250000D02*
X136550000Y-89250000D01*
X142450000Y-93150000D02*
X136550000Y-93150000D01*
X136550000Y-89250000D02*
X136550000Y-90325000D01*
X123450000Y-95550000D02*
X117550000Y-95550000D01*
X117550000Y-91650000D02*
X117550000Y-92725000D01*
X123450000Y-91650000D02*
X117550000Y-91650000D01*
X212750000Y-80250000D02*
X218650000Y-80250000D01*
X218650000Y-80250000D02*
X218650000Y-79175000D01*
X212750000Y-76350000D02*
X218650000Y-76350000D01*
X199650000Y-97950000D02*
X193750000Y-97950000D01*
X193750000Y-94050000D02*
X193750000Y-95125000D01*
X199650000Y-94050000D02*
X193750000Y-94050000D01*
X174650000Y-112250000D02*
X180550000Y-112250000D01*
X180550000Y-112250000D02*
X180550000Y-111175000D01*
X174650000Y-108350000D02*
X180550000Y-108350000D01*
X180550000Y-55050000D02*
X174650000Y-55050000D01*
X180550000Y-51150000D02*
X174650000Y-51150000D01*
X174650000Y-51150000D02*
X174650000Y-52225000D01*
X193750000Y-55950000D02*
X193750000Y-57025000D01*
X199650000Y-59850000D02*
X193750000Y-59850000D01*
X199650000Y-55950000D02*
X193750000Y-55950000D01*
X161550000Y-53660000D02*
X155650000Y-53660000D01*
X161550000Y-49760000D02*
X155650000Y-49760000D01*
X155650000Y-49760000D02*
X155650000Y-50835000D01*
X142450000Y-55050000D02*
X136550000Y-55050000D01*
X136550000Y-51150000D02*
X136550000Y-52225000D01*
X142450000Y-51150000D02*
X136550000Y-51150000D01*
X193750000Y-74850000D02*
X199650000Y-74850000D01*
X199650000Y-78750000D02*
X199650000Y-77675000D01*
X193750000Y-78750000D02*
X199650000Y-78750000D01*
X174650000Y-74050000D02*
X180550000Y-74050000D01*
X174650000Y-70150000D02*
X180550000Y-70150000D01*
X180550000Y-74050000D02*
X180550000Y-72975000D01*
X161550000Y-72750000D02*
X161550000Y-71675000D01*
X155650000Y-68850000D02*
X161550000Y-68850000D01*
X155650000Y-72750000D02*
X161550000Y-72750000D01*
X218650000Y-61350000D02*
X212750000Y-61350000D01*
X218650000Y-57450000D02*
X212750000Y-57450000D01*
X212750000Y-57450000D02*
X212750000Y-58525000D01*
X142450000Y-74150000D02*
X142450000Y-73075000D01*
X136550000Y-70250000D02*
X142450000Y-70250000D01*
X136550000Y-74150000D02*
X142450000Y-74150000D01*
X117550000Y-72650000D02*
X123450000Y-72650000D01*
X123450000Y-76550000D02*
X123450000Y-75475000D01*
X117550000Y-76550000D02*
X123450000Y-76550000D01*
X165150000Y-127300000D02*
X165150000Y-128375000D01*
X171050000Y-131200000D02*
X165150000Y-131200000D01*
X171050000Y-127300000D02*
X165150000Y-127300000D01*
X100450609Y-126220225D02*
X99519631Y-126757725D01*
X103400609Y-131329775D02*
X100450609Y-126220225D01*
X100023109Y-133279775D02*
X97073109Y-128170225D01*
X104454600Y-97496000D02*
G75*
G03*
X104454600Y-97496000I-3000000J0D01*
G01*
X99454600Y-103396000D02*
X95354600Y-103396000D01*
X107554600Y-100996000D02*
X107554600Y-103396000D01*
X107554600Y-103396000D02*
X103454600Y-103396000D01*
X100954600Y-97496000D02*
X101954600Y-97496000D01*
X99454600Y-91596000D02*
X95354600Y-91596000D01*
X101454600Y-96996000D02*
X101454600Y-97996000D01*
X93954600Y-93696000D02*
X93654600Y-93396000D01*
X95354600Y-91596000D02*
X95354600Y-103396000D01*
X107554600Y-91596000D02*
X107554600Y-93996000D01*
X107554600Y-96196000D02*
X107554600Y-98796000D01*
X93654600Y-93396000D02*
X94254600Y-93396000D01*
X94254600Y-93396000D02*
X93954600Y-93696000D01*
X103454600Y-91596000D02*
X107554600Y-91596000D01*
X98399200Y-109064800D02*
X104299200Y-109064800D01*
X104299200Y-109064800D02*
X104299200Y-107989800D01*
X98399200Y-105164800D02*
X104299200Y-105164800D01*
X98495000Y-85934000D02*
X104395000Y-85934000D01*
X104395000Y-89834000D02*
X104395000Y-88759000D01*
X98495000Y-89834000D02*
X104395000Y-89834000D01*
X207616400Y-110822400D02*
X207616400Y-105382400D01*
X204676400Y-109802400D02*
X207616400Y-109802400D01*
X207286400Y-110822400D02*
X207616400Y-110822400D01*
X204676400Y-105382400D02*
X205006400Y-105382400D01*
X205006400Y-110822400D02*
X204676400Y-110822400D01*
X207616400Y-105382400D02*
X207286400Y-105382400D01*
X204676400Y-109922400D02*
X207616400Y-109922400D01*
X204676400Y-110042400D02*
X207616400Y-110042400D01*
X204676400Y-110822400D02*
X204676400Y-105382400D01*
X204727200Y-90382800D02*
X207667200Y-90382800D01*
X205057200Y-91162800D02*
X204727200Y-91162800D01*
X207667200Y-85722800D02*
X207337200Y-85722800D01*
X204727200Y-85722800D02*
X205057200Y-85722800D01*
X204727200Y-90262800D02*
X207667200Y-90262800D01*
X204727200Y-91162800D02*
X204727200Y-85722800D01*
X207337200Y-91162800D02*
X207667200Y-91162800D01*
X204727200Y-90142800D02*
X207667200Y-90142800D01*
X207667200Y-91162800D02*
X207667200Y-85722800D01*
X147500800Y-105234400D02*
X147170800Y-105234400D01*
X150110800Y-99794400D02*
X149780800Y-99794400D01*
X147170800Y-99794400D02*
X147500800Y-99794400D01*
X147170800Y-104214400D02*
X150110800Y-104214400D01*
X149780800Y-105234400D02*
X150110800Y-105234400D01*
X147170800Y-105234400D02*
X147170800Y-99794400D01*
X147170800Y-104454400D02*
X150110800Y-104454400D01*
X150110800Y-105234400D02*
X150110800Y-99794400D01*
X147170800Y-104334400D02*
X150110800Y-104334400D01*
X186286800Y-90433600D02*
X189226800Y-90433600D01*
X186286800Y-90193600D02*
X189226800Y-90193600D01*
X186286800Y-91213600D02*
X186286800Y-85773600D01*
X189226800Y-91213600D02*
X189226800Y-85773600D01*
X186286800Y-90313600D02*
X189226800Y-90313600D01*
X186286800Y-85773600D02*
X186616800Y-85773600D01*
X186616800Y-91213600D02*
X186286800Y-91213600D01*
X188896800Y-91213600D02*
X189226800Y-91213600D01*
X189226800Y-85773600D02*
X188896800Y-85773600D01*
X204778000Y-67231600D02*
X205108000Y-67231600D01*
X205108000Y-72671600D02*
X204778000Y-72671600D01*
X204778000Y-72671600D02*
X204778000Y-67231600D01*
X207718000Y-67231600D02*
X207388000Y-67231600D01*
X207388000Y-72671600D02*
X207718000Y-72671600D01*
X204778000Y-71891600D02*
X207718000Y-71891600D01*
X204778000Y-71651600D02*
X207718000Y-71651600D01*
X207718000Y-72671600D02*
X207718000Y-67231600D01*
X204778000Y-71771600D02*
X207718000Y-71771600D01*
X130553000Y-69903000D02*
X130883000Y-69903000D01*
X128273000Y-69903000D02*
X127943000Y-69903000D01*
X127943000Y-64463000D02*
X128273000Y-64463000D01*
X127943000Y-69903000D02*
X127943000Y-64463000D01*
X127943000Y-69123000D02*
X130883000Y-69123000D01*
X127943000Y-68883000D02*
X130883000Y-68883000D01*
X130883000Y-69903000D02*
X130883000Y-64463000D01*
X130883000Y-64463000D02*
X130553000Y-64463000D01*
X127943000Y-69003000D02*
X130883000Y-69003000D01*
X147805600Y-84812800D02*
X147475600Y-84812800D01*
X147475600Y-84032800D02*
X150415600Y-84032800D01*
X147475600Y-79372800D02*
X147805600Y-79372800D01*
X147475600Y-83792800D02*
X150415600Y-83792800D01*
X147475600Y-84812800D02*
X147475600Y-79372800D01*
X147475600Y-83912800D02*
X150415600Y-83912800D01*
X150415600Y-79372800D02*
X150085600Y-79372800D01*
X150085600Y-84812800D02*
X150415600Y-84812800D01*
X150415600Y-84812800D02*
X150415600Y-79372800D01*
X125402000Y-42110000D02*
X119962000Y-42110000D01*
X124622000Y-42110000D02*
X124622000Y-39170000D01*
X124382000Y-42110000D02*
X124382000Y-39170000D01*
X125402000Y-39170000D02*
X119962000Y-39170000D01*
X125402000Y-41780000D02*
X125402000Y-42110000D01*
X124502000Y-42110000D02*
X124502000Y-39170000D01*
X119962000Y-42110000D02*
X119962000Y-41780000D01*
X119962000Y-39170000D02*
X119962000Y-39500000D01*
X125402000Y-39500000D02*
X125402000Y-39170000D01*
X120226943Y-127937243D02*
X122773057Y-126467243D01*
X122997269Y-127515589D02*
X123283057Y-127350589D01*
X121022731Y-128655589D02*
X120736943Y-128820589D01*
X120563057Y-122639411D02*
X120277269Y-122804411D01*
X118016943Y-124109411D02*
X118302731Y-123944411D01*
X120286943Y-128041166D02*
X122833057Y-126571166D01*
X120346943Y-128145089D02*
X122893057Y-126675089D01*
X123283057Y-127350589D02*
X120563057Y-122639411D01*
X120736943Y-128820589D02*
X118016943Y-124109411D01*
X166449200Y-66524800D02*
X166119200Y-66524800D01*
X166119200Y-65744800D02*
X169059200Y-65744800D01*
X166119200Y-61084800D02*
X166449200Y-61084800D01*
X169059200Y-66524800D02*
X169059200Y-61084800D01*
X169059200Y-61084800D02*
X168729200Y-61084800D01*
X168729200Y-66524800D02*
X169059200Y-66524800D01*
X166119200Y-66524800D02*
X166119200Y-61084800D01*
X166119200Y-65504800D02*
X169059200Y-65504800D01*
X166119200Y-65624800D02*
X169059200Y-65624800D01*
X186693200Y-70407000D02*
X189633200Y-70407000D01*
X186693200Y-70647000D02*
X189633200Y-70647000D01*
X186693200Y-71427000D02*
X186693200Y-65987000D01*
X189303200Y-71427000D02*
X189633200Y-71427000D01*
X186693200Y-70527000D02*
X189633200Y-70527000D01*
X187023200Y-71427000D02*
X186693200Y-71427000D01*
X189633200Y-71427000D02*
X189633200Y-65987000D01*
X186693200Y-65987000D02*
X187023200Y-65987000D01*
X189633200Y-65987000D02*
X189303200Y-65987000D01*
X142420000Y-74730000D02*
X136980000Y-74730000D01*
X141520000Y-77670000D02*
X141520000Y-74730000D01*
X142420000Y-77670000D02*
X136980000Y-77670000D01*
X142420000Y-77340000D02*
X142420000Y-77670000D01*
X142420000Y-75060000D02*
X142420000Y-74730000D01*
X141400000Y-77670000D02*
X141400000Y-74730000D01*
X136980000Y-74730000D02*
X136980000Y-75060000D01*
X141640000Y-77670000D02*
X141640000Y-74730000D01*
X136980000Y-77670000D02*
X136980000Y-77340000D01*
X128400000Y-108130000D02*
X128070000Y-108130000D01*
X128070000Y-107350000D02*
X131010000Y-107350000D01*
X130680000Y-108130000D02*
X131010000Y-108130000D01*
X131010000Y-108130000D02*
X131010000Y-102690000D01*
X128070000Y-107230000D02*
X131010000Y-107230000D01*
X131010000Y-102690000D02*
X130680000Y-102690000D01*
X128070000Y-107110000D02*
X131010000Y-107110000D01*
X128070000Y-102690000D02*
X128400000Y-102690000D01*
X128070000Y-108130000D02*
X128070000Y-102690000D01*
X122354000Y-100200000D02*
X122354000Y-100530000D01*
X121334000Y-100530000D02*
X121334000Y-97590000D01*
X122354000Y-97590000D02*
X116914000Y-97590000D01*
X121454000Y-100530000D02*
X121454000Y-97590000D01*
X122354000Y-100530000D02*
X116914000Y-100530000D01*
X121574000Y-100530000D02*
X121574000Y-97590000D01*
X116914000Y-100530000D02*
X116914000Y-100200000D01*
X122354000Y-97920000D02*
X122354000Y-97590000D01*
X116914000Y-97590000D02*
X116914000Y-97920000D01*
X166780000Y-104570000D02*
X169720000Y-104570000D01*
X166780000Y-105590000D02*
X166780000Y-100150000D01*
X169390000Y-105590000D02*
X169720000Y-105590000D01*
X166780000Y-100150000D02*
X167110000Y-100150000D01*
X169720000Y-105590000D02*
X169720000Y-100150000D01*
X166780000Y-104810000D02*
X169720000Y-104810000D01*
X166780000Y-104690000D02*
X169720000Y-104690000D01*
X167110000Y-105590000D02*
X166780000Y-105590000D01*
X169720000Y-100150000D02*
X169390000Y-100150000D01*
X150060000Y-61288000D02*
X149730000Y-61288000D01*
X149730000Y-66728000D02*
X150060000Y-66728000D01*
X147120000Y-65948000D02*
X150060000Y-65948000D01*
X147120000Y-65708000D02*
X150060000Y-65708000D01*
X150060000Y-66728000D02*
X150060000Y-61288000D01*
X147450000Y-66728000D02*
X147120000Y-66728000D01*
X147120000Y-65828000D02*
X150060000Y-65828000D01*
X147120000Y-61288000D02*
X147450000Y-61288000D01*
X147120000Y-66728000D02*
X147120000Y-61288000D01*
X186286800Y-52181200D02*
X189226800Y-52181200D01*
X189226800Y-47521200D02*
X188896800Y-47521200D01*
X189226800Y-52961200D02*
X189226800Y-47521200D01*
X188896800Y-52961200D02*
X189226800Y-52961200D01*
X186616800Y-52961200D02*
X186286800Y-52961200D01*
X186286800Y-52061200D02*
X189226800Y-52061200D01*
X186286800Y-51941200D02*
X189226800Y-51941200D01*
X186286800Y-52961200D02*
X186286800Y-47521200D01*
X186286800Y-47521200D02*
X186616800Y-47521200D01*
X157230000Y-124114000D02*
X160170000Y-124114000D01*
X157230000Y-123994000D02*
X160170000Y-123994000D01*
X160170000Y-124894000D02*
X160170000Y-119454000D01*
X157230000Y-119454000D02*
X157560000Y-119454000D01*
X157230000Y-123874000D02*
X160170000Y-123874000D01*
X157560000Y-124894000D02*
X157230000Y-124894000D01*
X159840000Y-124894000D02*
X160170000Y-124894000D01*
X160170000Y-119454000D02*
X159840000Y-119454000D01*
X157230000Y-124894000D02*
X157230000Y-119454000D01*
X117930000Y-78540000D02*
X117930000Y-78870000D01*
X123370000Y-81480000D02*
X117930000Y-81480000D01*
X117930000Y-81480000D02*
X117930000Y-81150000D01*
X123370000Y-78870000D02*
X123370000Y-78540000D01*
X122590000Y-81480000D02*
X122590000Y-78540000D01*
X122470000Y-81480000D02*
X122470000Y-78540000D01*
X123370000Y-78540000D02*
X117930000Y-78540000D01*
X122350000Y-81480000D02*
X122350000Y-78540000D01*
X123370000Y-81150000D02*
X123370000Y-81480000D01*
X127866800Y-87704400D02*
X130806800Y-87704400D01*
X130476800Y-88724400D02*
X130806800Y-88724400D01*
X128196800Y-88724400D02*
X127866800Y-88724400D01*
X130806800Y-88724400D02*
X130806800Y-83284400D01*
X127866800Y-87824400D02*
X130806800Y-87824400D01*
X130806800Y-83284400D02*
X130476800Y-83284400D01*
X127866800Y-88724400D02*
X127866800Y-83284400D01*
X127866800Y-83284400D02*
X128196800Y-83284400D01*
X127866800Y-87944400D02*
X130806800Y-87944400D01*
X169491200Y-86082800D02*
X169821200Y-86082800D01*
X169821200Y-86082800D02*
X169821200Y-80642800D01*
X166881200Y-85302800D02*
X169821200Y-85302800D01*
X166881200Y-86082800D02*
X166881200Y-80642800D01*
X166881200Y-85062800D02*
X169821200Y-85062800D01*
X166881200Y-80642800D02*
X167211200Y-80642800D01*
X167211200Y-86082800D02*
X166881200Y-86082800D01*
X169821200Y-80642800D02*
X169491200Y-80642800D01*
X166881200Y-85182800D02*
X169821200Y-85182800D01*
X147735200Y-110950400D02*
X147735200Y-113890400D01*
X147615200Y-110950400D02*
X147615200Y-113890400D01*
X146835200Y-110950400D02*
X152275200Y-110950400D01*
X147855200Y-110950400D02*
X147855200Y-113890400D01*
X152275200Y-113890400D02*
X152275200Y-113560400D01*
X146835200Y-113890400D02*
X152275200Y-113890400D01*
X146835200Y-111280400D02*
X146835200Y-110950400D01*
X146835200Y-113560400D02*
X146835200Y-113890400D01*
X152275200Y-110950400D02*
X152275200Y-111280400D01*
X204828800Y-52652400D02*
X207768800Y-52652400D01*
X204828800Y-53672400D02*
X204828800Y-48232400D01*
X204828800Y-52892400D02*
X207768800Y-52892400D01*
X204828800Y-52772400D02*
X207768800Y-52772400D01*
X204828800Y-48232400D02*
X205158800Y-48232400D01*
X207768800Y-53672400D02*
X207768800Y-48232400D01*
X207438800Y-53672400D02*
X207768800Y-53672400D01*
X207768800Y-48232400D02*
X207438800Y-48232400D01*
X205158800Y-53672400D02*
X204828800Y-53672400D01*
X131162400Y-44778000D02*
X130832400Y-44778000D01*
X128222400Y-49438000D02*
X131162400Y-49438000D01*
X128222400Y-49198000D02*
X131162400Y-49198000D01*
X128222400Y-44778000D02*
X128552400Y-44778000D01*
X128222400Y-50218000D02*
X128222400Y-44778000D01*
X131162400Y-50218000D02*
X131162400Y-44778000D01*
X128552400Y-50218000D02*
X128222400Y-50218000D01*
X128222400Y-49318000D02*
X131162400Y-49318000D01*
X130832400Y-50218000D02*
X131162400Y-50218000D01*
X147120000Y-48135200D02*
X147120000Y-42695200D01*
X147450000Y-48135200D02*
X147120000Y-48135200D01*
X149730000Y-48135200D02*
X150060000Y-48135200D01*
X150060000Y-48135200D02*
X150060000Y-42695200D01*
X147120000Y-47355200D02*
X150060000Y-47355200D01*
X150060000Y-42695200D02*
X149730000Y-42695200D01*
X147120000Y-42695200D02*
X147450000Y-42695200D01*
X147120000Y-47235200D02*
X150060000Y-47235200D01*
X147120000Y-47115200D02*
X150060000Y-47115200D01*
X186185200Y-109890000D02*
X189125200Y-109890000D01*
X188795200Y-110670000D02*
X189125200Y-110670000D01*
X186515200Y-110670000D02*
X186185200Y-110670000D01*
X186185200Y-110670000D02*
X186185200Y-105230000D01*
X189125200Y-110670000D02*
X189125200Y-105230000D01*
X186185200Y-109650000D02*
X189125200Y-109650000D01*
X189125200Y-105230000D02*
X188795200Y-105230000D01*
X186185200Y-105230000D02*
X186515200Y-105230000D01*
X186185200Y-109770000D02*
X189125200Y-109770000D01*
X98478000Y-79937000D02*
X93038000Y-79937000D01*
X98478000Y-82547000D02*
X98478000Y-82877000D01*
X98478000Y-82877000D02*
X93038000Y-82877000D01*
X93038000Y-79937000D02*
X93038000Y-80267000D01*
X98478000Y-80267000D02*
X98478000Y-79937000D01*
X97458000Y-82877000D02*
X97458000Y-79937000D01*
X93038000Y-82877000D02*
X93038000Y-82547000D01*
X97698000Y-82877000D02*
X97698000Y-79937000D01*
X97578000Y-82877000D02*
X97578000Y-79937000D01*
X137518800Y-125638000D02*
X140458800Y-125638000D01*
X137518800Y-126418000D02*
X137518800Y-120978000D01*
X140458800Y-120978000D02*
X140128800Y-120978000D01*
X137518800Y-120978000D02*
X137848800Y-120978000D01*
X140458800Y-126418000D02*
X140458800Y-120978000D01*
X140128800Y-126418000D02*
X140458800Y-126418000D01*
X137518800Y-125398000D02*
X140458800Y-125398000D01*
X137518800Y-125518000D02*
X140458800Y-125518000D01*
X137848800Y-126418000D02*
X137518800Y-126418000D01*
D17*
X113792000Y-125471114D03*
D18*
X97566005Y-67596130D03*
X95026005Y-67596130D03*
X92486005Y-67596130D03*
X105186005Y-44736130D03*
X105186005Y-47276130D03*
X105186005Y-49816130D03*
X105186005Y-52356130D03*
X105186005Y-54896130D03*
X105186005Y-57436130D03*
X105186005Y-59976130D03*
X105186005Y-62516130D03*
X105186005Y-65056130D03*
X105186005Y-67596130D03*
X105186005Y-70136130D03*
X105186005Y-72676130D03*
X89946005Y-72676130D03*
X89946005Y-70136130D03*
X89946005Y-67596130D03*
X89946005Y-65056130D03*
X89946005Y-62516130D03*
X89946005Y-59976130D03*
X89946005Y-57436130D03*
X89946005Y-54896130D03*
X89946005Y-52356130D03*
X89946005Y-49816130D03*
X89946005Y-47276130D03*
X89946005Y-44736130D03*
D19*
X94107000Y-76454000D03*
X96647000Y-76454000D03*
X99187000Y-76454000D03*
X101727000Y-76454000D03*
D20*
X139500000Y-47600000D03*
D21*
X134420000Y-47600000D03*
X144580000Y-47600000D03*
X153520000Y-46210000D03*
D20*
X158600000Y-46210000D03*
D21*
X163680000Y-46210000D03*
X182680000Y-47600000D03*
D20*
X177600000Y-47600000D03*
D21*
X172520000Y-47600000D03*
D20*
X196700000Y-52400000D03*
D21*
X191620000Y-52400000D03*
X201780000Y-52400000D03*
X220780000Y-53900000D03*
D20*
X215700000Y-53900000D03*
D21*
X210620000Y-53900000D03*
D20*
X120500000Y-69100000D03*
D21*
X125580000Y-69100000D03*
X115420000Y-69100000D03*
X134420000Y-66700000D03*
D20*
X139500000Y-66700000D03*
D21*
X144580000Y-66700000D03*
X153520000Y-65300000D03*
X163680000Y-65300000D03*
D20*
X158600000Y-65300000D03*
X177600000Y-66600000D03*
D21*
X172520000Y-66600000D03*
X182680000Y-66600000D03*
X201780000Y-71300000D03*
D20*
X196700000Y-71300000D03*
D21*
X191620000Y-71300000D03*
D20*
X215700000Y-72800000D03*
D21*
X220780000Y-72800000D03*
X210620000Y-72800000D03*
X115420000Y-88100000D03*
D20*
X120500000Y-88100000D03*
D21*
X125580000Y-88100000D03*
X144580000Y-85700000D03*
X134420000Y-85700000D03*
D20*
X139500000Y-85700000D03*
D21*
X163680000Y-84400000D03*
X153520000Y-84400000D03*
D20*
X158600000Y-84400000D03*
D21*
X182680000Y-85700000D03*
X172520000Y-85700000D03*
D20*
X177600000Y-85700000D03*
X196700000Y-90500000D03*
D21*
X191620000Y-90500000D03*
X201780000Y-90500000D03*
X210620000Y-92000000D03*
D20*
X215700000Y-92000000D03*
D21*
X220780000Y-92000000D03*
X115420000Y-107100000D03*
X125580000Y-107100000D03*
D20*
X120500000Y-107100000D03*
D21*
X144580000Y-104800000D03*
X134420000Y-104800000D03*
D20*
X139500000Y-104800000D03*
D21*
X163680000Y-103400000D03*
X153520000Y-103400000D03*
D20*
X158600000Y-103400000D03*
D21*
X182680000Y-104800000D03*
X172520000Y-104800000D03*
D20*
X177600000Y-104800000D03*
D21*
X201780000Y-109500000D03*
D20*
X196700000Y-109500000D03*
D21*
X191620000Y-109500000D03*
X220830000Y-111000000D03*
D20*
X215750000Y-111000000D03*
D21*
X210670000Y-111000000D03*
X107540000Y-131399409D03*
X102460000Y-122600591D03*
D20*
X105000000Y-127000000D03*
D21*
X124920000Y-126000000D03*
X135080000Y-126000000D03*
D20*
X130000000Y-126000000D03*
D21*
X154080000Y-123750000D03*
D20*
X149000000Y-123750000D03*
D21*
X143920000Y-123750000D03*
X163020000Y-123750000D03*
X173180000Y-123750000D03*
D20*
X168100000Y-123750000D03*
D22*
X86000000Y-85000000D03*
X108000000Y-85000000D03*
D21*
X115420000Y-50000000D03*
D20*
X120500000Y-50000000D03*
D21*
X125580000Y-50000000D03*
D23*
X124460000Y-80010000D03*
D17*
X113792000Y-125471114D03*
%LPC*%
D24*
X101473000Y-102616000D03*
X101473000Y-92456000D03*
D20*
X101473000Y-97536000D03*
D22*
X104013000Y-93726000D03*
X106553000Y-100076000D03*
D25*
X85526000Y-38862000D03*
X93726000Y-38862000D03*
D26*
X87626000Y-38862000D03*
D27*
X89626000Y-38862000D03*
X91626000Y-38862000D03*
D28*
X86106000Y-67070000D03*
X86106000Y-71120000D03*
D25*
X97718000Y-38862000D03*
X105918000Y-38862000D03*
D26*
X99818000Y-38862000D03*
D27*
X101818000Y-38862000D03*
X103818000Y-38862000D03*
D17*
X113792000Y-125471114D03*
D29*
X109982000Y-118872000D03*
D30*
X129600000Y-59600000D03*
X205800000Y-61800000D03*
X129600000Y-97600000D03*
X205800000Y-100000000D03*
X105000000Y-114800000D03*
D31*
X85344000Y-58876000D03*
X85344000Y-52376000D03*
D18*
X97566005Y-67596130D03*
X95026005Y-67596130D03*
X92486005Y-67596130D03*
X105186005Y-44736130D03*
X105186005Y-47276130D03*
X105186005Y-49816130D03*
X105186005Y-52356130D03*
X105186005Y-54896130D03*
X105186005Y-57436130D03*
X105186005Y-59976130D03*
X105186005Y-62516130D03*
X105186005Y-65056130D03*
X105186005Y-67596130D03*
X105186005Y-70136130D03*
X105186005Y-72676130D03*
X89946005Y-72676130D03*
X89946005Y-70136130D03*
X89946005Y-67596130D03*
X89946005Y-65056130D03*
X89946005Y-62516130D03*
X89946005Y-59976130D03*
X89946005Y-57436130D03*
X89946005Y-54896130D03*
X89946005Y-52356130D03*
X89946005Y-49816130D03*
X89946005Y-47276130D03*
X89946005Y-44736130D03*
D32*
X96610810Y-71993760D03*
X96610810Y-70993000D03*
X94110810Y-71993760D03*
X94110810Y-70993000D03*
D19*
X94107000Y-76454000D03*
X96647000Y-76454000D03*
X99187000Y-76454000D03*
X101727000Y-76454000D03*
D32*
X99210810Y-71993760D03*
X99210810Y-70993000D03*
X101376005Y-71993760D03*
X101376005Y-70993000D03*
D33*
X133800000Y-42480000D03*
X146500000Y-45020000D03*
D20*
X139500000Y-47600000D03*
D21*
X134420000Y-47600000D03*
D34*
X142040000Y-42520000D03*
D21*
X144580000Y-47600000D03*
D34*
X135690000Y-45060000D03*
X143310000Y-45060000D03*
X136960000Y-42520000D03*
D33*
X152900000Y-41090000D03*
X165600000Y-43630000D03*
D34*
X162410000Y-43670000D03*
D21*
X153520000Y-46210000D03*
D34*
X156060000Y-41130000D03*
D20*
X158600000Y-46210000D03*
D34*
X161140000Y-41130000D03*
X154790000Y-43670000D03*
D21*
X163680000Y-46210000D03*
D33*
X171900000Y-42480000D03*
X184600000Y-45020000D03*
D34*
X181410000Y-45060000D03*
X173790000Y-45060000D03*
X180140000Y-42520000D03*
D21*
X182680000Y-47600000D03*
D20*
X177600000Y-47600000D03*
D21*
X172520000Y-47600000D03*
D34*
X175060000Y-42520000D03*
D33*
X191000000Y-47280000D03*
X203700000Y-49820000D03*
D20*
X196700000Y-52400000D03*
D21*
X191620000Y-52400000D03*
X201780000Y-52400000D03*
D34*
X199240000Y-47320000D03*
X200510000Y-49860000D03*
X192890000Y-49860000D03*
X194160000Y-47320000D03*
D33*
X210000000Y-48780000D03*
X222700000Y-51320000D03*
D34*
X218240000Y-48820000D03*
X213160000Y-48820000D03*
X211890000Y-51360000D03*
D21*
X220780000Y-53900000D03*
D20*
X215700000Y-53900000D03*
D21*
X210620000Y-53900000D03*
D34*
X219510000Y-51360000D03*
D33*
X114800000Y-63980000D03*
X127500000Y-66520000D03*
D20*
X120500000Y-69100000D03*
D34*
X116690000Y-66560000D03*
X123040000Y-64020000D03*
D21*
X125580000Y-69100000D03*
D34*
X124310000Y-66560000D03*
X117960000Y-64020000D03*
D21*
X115420000Y-69100000D03*
D33*
X133800000Y-61580000D03*
X146500000Y-64120000D03*
D21*
X134420000Y-66700000D03*
D34*
X143310000Y-64160000D03*
D20*
X139500000Y-66700000D03*
D21*
X144580000Y-66700000D03*
D34*
X136960000Y-61620000D03*
X135690000Y-64160000D03*
X142040000Y-61620000D03*
D33*
X152900000Y-60180000D03*
X165600000Y-62720000D03*
D21*
X153520000Y-65300000D03*
X163680000Y-65300000D03*
D34*
X161140000Y-60220000D03*
X154790000Y-62760000D03*
D20*
X158600000Y-65300000D03*
D34*
X162410000Y-62760000D03*
X156060000Y-60220000D03*
D33*
X171900000Y-61480000D03*
X184600000Y-64020000D03*
D20*
X177600000Y-66600000D03*
D21*
X172520000Y-66600000D03*
X182680000Y-66600000D03*
D34*
X180140000Y-61520000D03*
X175060000Y-61520000D03*
X173790000Y-64060000D03*
X181410000Y-64060000D03*
D33*
X191000000Y-66180000D03*
X203700000Y-68720000D03*
D34*
X194160000Y-66220000D03*
X200510000Y-68760000D03*
X192890000Y-68760000D03*
D21*
X201780000Y-71300000D03*
D34*
X199240000Y-66220000D03*
D20*
X196700000Y-71300000D03*
D21*
X191620000Y-71300000D03*
D33*
X210000000Y-67680000D03*
X222700000Y-70220000D03*
D34*
X218240000Y-67720000D03*
D20*
X215700000Y-72800000D03*
D34*
X211890000Y-70260000D03*
D21*
X220780000Y-72800000D03*
D34*
X213160000Y-67720000D03*
D21*
X210620000Y-72800000D03*
D34*
X219510000Y-70260000D03*
D33*
X114800000Y-82980000D03*
X127500000Y-85520000D03*
D21*
X115420000Y-88100000D03*
D34*
X116690000Y-85560000D03*
X123040000Y-83020000D03*
D20*
X120500000Y-88100000D03*
D34*
X117960000Y-83020000D03*
D21*
X125580000Y-88100000D03*
D34*
X124310000Y-85560000D03*
D33*
X133800000Y-80580000D03*
X146500000Y-83120000D03*
D21*
X144580000Y-85700000D03*
D34*
X136960000Y-80620000D03*
D21*
X134420000Y-85700000D03*
D34*
X135690000Y-83160000D03*
X143310000Y-83160000D03*
D20*
X139500000Y-85700000D03*
D34*
X142040000Y-80620000D03*
D33*
X152900000Y-79280000D03*
X165600000Y-81820000D03*
D34*
X156060000Y-79320000D03*
X161140000Y-79320000D03*
X154790000Y-81860000D03*
D21*
X163680000Y-84400000D03*
X153520000Y-84400000D03*
D34*
X162410000Y-81860000D03*
D20*
X158600000Y-84400000D03*
D33*
X171900000Y-80580000D03*
X184600000Y-83120000D03*
D21*
X182680000Y-85700000D03*
D34*
X180140000Y-80620000D03*
X175060000Y-80620000D03*
D21*
X172520000Y-85700000D03*
D20*
X177600000Y-85700000D03*
D34*
X173790000Y-83160000D03*
X181410000Y-83160000D03*
D33*
X191000000Y-85380000D03*
X203700000Y-87920000D03*
D34*
X200510000Y-87960000D03*
X199240000Y-85420000D03*
X194160000Y-85420000D03*
D20*
X196700000Y-90500000D03*
D34*
X192890000Y-87960000D03*
D21*
X191620000Y-90500000D03*
X201780000Y-90500000D03*
D33*
X210000000Y-86880000D03*
X222700000Y-89420000D03*
D21*
X210620000Y-92000000D03*
D34*
X219510000Y-89460000D03*
D20*
X215700000Y-92000000D03*
D34*
X218240000Y-86920000D03*
X211890000Y-89460000D03*
D21*
X220780000Y-92000000D03*
D34*
X213160000Y-86920000D03*
D33*
X114800000Y-101980000D03*
X127500000Y-104520000D03*
D21*
X115420000Y-107100000D03*
D34*
X123040000Y-102020000D03*
X116690000Y-104560000D03*
X117960000Y-102020000D03*
X124310000Y-104560000D03*
D21*
X125580000Y-107100000D03*
D20*
X120500000Y-107100000D03*
D33*
X133800000Y-99680000D03*
X146500000Y-102220000D03*
D21*
X144580000Y-104800000D03*
D34*
X143310000Y-102260000D03*
X142040000Y-99720000D03*
X135690000Y-102260000D03*
X136960000Y-99720000D03*
D21*
X134420000Y-104800000D03*
D20*
X139500000Y-104800000D03*
D33*
X152900000Y-98280000D03*
X165600000Y-100820000D03*
D34*
X161140000Y-98320000D03*
D21*
X163680000Y-103400000D03*
X153520000Y-103400000D03*
D20*
X158600000Y-103400000D03*
D34*
X162410000Y-100860000D03*
X154790000Y-100860000D03*
X156060000Y-98320000D03*
D33*
X171900000Y-99680000D03*
X184600000Y-102220000D03*
D21*
X182680000Y-104800000D03*
D34*
X180140000Y-99720000D03*
D21*
X172520000Y-104800000D03*
D34*
X173790000Y-102260000D03*
X181410000Y-102260000D03*
D20*
X177600000Y-104800000D03*
D34*
X175060000Y-99720000D03*
D33*
X191000000Y-104380000D03*
X203700000Y-106920000D03*
D21*
X201780000Y-109500000D03*
D20*
X196700000Y-109500000D03*
D34*
X194160000Y-104420000D03*
X200510000Y-106960000D03*
X199240000Y-104420000D03*
D21*
X191620000Y-109500000D03*
D34*
X192890000Y-106960000D03*
D33*
X210050000Y-105880000D03*
X222750000Y-108420000D03*
D34*
X219560000Y-108460000D03*
X218290000Y-105920000D03*
D21*
X220830000Y-111000000D03*
D34*
X213210000Y-105920000D03*
D20*
X215750000Y-111000000D03*
D34*
X211940000Y-108460000D03*
D21*
X210670000Y-111000000D03*
D35*
X106584050Y-119503655D03*
X110734346Y-131772178D03*
D21*
X107540000Y-131399409D03*
D34*
X105294705Y-122430443D03*
X109104705Y-129029557D03*
X108129409Y-122260295D03*
X110669409Y-126659705D03*
D21*
X102460000Y-122600591D03*
D20*
X105000000Y-127000000D03*
D33*
X124300000Y-120880000D03*
X137000000Y-123420000D03*
D21*
X124920000Y-126000000D03*
D34*
X133810000Y-123460000D03*
X127460000Y-120920000D03*
X132540000Y-120920000D03*
X126190000Y-123460000D03*
D21*
X135080000Y-126000000D03*
D20*
X130000000Y-126000000D03*
D33*
X143300000Y-118630000D03*
X156000000Y-121170000D03*
D34*
X145190000Y-121210000D03*
X151540000Y-118670000D03*
X152810000Y-121210000D03*
D21*
X154080000Y-123750000D03*
D20*
X149000000Y-123750000D03*
D34*
X146460000Y-118670000D03*
D21*
X143920000Y-123750000D03*
D33*
X162400000Y-118630000D03*
X175100000Y-121170000D03*
D34*
X164290000Y-121210000D03*
X170640000Y-118670000D03*
D21*
X163020000Y-123750000D03*
X173180000Y-123750000D03*
D34*
X171910000Y-121210000D03*
X165560000Y-118670000D03*
D20*
X168100000Y-123750000D03*
D22*
X86000000Y-85000000D03*
X108000000Y-85000000D03*
D33*
X114800000Y-44880000D03*
X127500000Y-47420000D03*
D21*
X115420000Y-50000000D03*
D20*
X120500000Y-50000000D03*
D34*
X123040000Y-44920000D03*
X116690000Y-47460000D03*
X124310000Y-47460000D03*
D21*
X125580000Y-50000000D03*
D34*
X117960000Y-44920000D03*
D36*
X118750000Y-56375000D03*
X118750000Y-54625000D03*
X122250000Y-54625000D03*
X122250000Y-56375000D03*
X141250000Y-109425000D03*
X141250000Y-111175000D03*
X137750000Y-111175000D03*
X137750000Y-109425000D03*
X147250000Y-130125000D03*
X147250000Y-128375000D03*
X150750000Y-128375000D03*
X150750000Y-130125000D03*
X160350000Y-108025000D03*
X160350000Y-109775000D03*
X156850000Y-109775000D03*
X156850000Y-108025000D03*
X198450000Y-114125000D03*
X198450000Y-115875000D03*
X194950000Y-115875000D03*
X194950000Y-114125000D03*
X217500000Y-115625000D03*
X217500000Y-117375000D03*
X214000000Y-117375000D03*
X214000000Y-115625000D03*
X128250000Y-132375000D03*
X128250000Y-130625000D03*
X131750000Y-130625000D03*
X131750000Y-132375000D03*
X175850000Y-92075000D03*
X175850000Y-90325000D03*
X179350000Y-90325000D03*
X179350000Y-92075000D03*
X122250000Y-111725000D03*
X122250000Y-113475000D03*
X118750000Y-113475000D03*
X118750000Y-111725000D03*
X213950000Y-98375000D03*
X213950000Y-96625000D03*
X217450000Y-96625000D03*
X217450000Y-98375000D03*
X156850000Y-90775000D03*
X156850000Y-89025000D03*
X160350000Y-89025000D03*
X160350000Y-90775000D03*
X137750000Y-92075000D03*
X137750000Y-90325000D03*
X141250000Y-90325000D03*
X141250000Y-92075000D03*
X118750000Y-94475000D03*
X118750000Y-92725000D03*
X122250000Y-92725000D03*
X122250000Y-94475000D03*
X217450000Y-77425000D03*
X217450000Y-79175000D03*
X213950000Y-79175000D03*
X213950000Y-77425000D03*
X194950000Y-96875000D03*
X194950000Y-95125000D03*
X198450000Y-95125000D03*
X198450000Y-96875000D03*
X179350000Y-109425000D03*
X179350000Y-111175000D03*
X175850000Y-111175000D03*
X175850000Y-109425000D03*
X179350000Y-53975000D03*
X179350000Y-52225000D03*
X175850000Y-52225000D03*
X175850000Y-53975000D03*
X198450000Y-58775000D03*
X198450000Y-57025000D03*
X194950000Y-57025000D03*
X194950000Y-58775000D03*
X160350000Y-52585000D03*
X160350000Y-50835000D03*
X156850000Y-50835000D03*
X156850000Y-52585000D03*
X141250000Y-53975000D03*
X141250000Y-52225000D03*
X137750000Y-52225000D03*
X137750000Y-53975000D03*
X198450000Y-75925000D03*
X198450000Y-77675000D03*
X194950000Y-77675000D03*
X194950000Y-75925000D03*
X179350000Y-71225000D03*
X179350000Y-72975000D03*
X175850000Y-72975000D03*
X175850000Y-71225000D03*
X160350000Y-69925000D03*
X160350000Y-71675000D03*
X156850000Y-71675000D03*
X156850000Y-69925000D03*
X217450000Y-60275000D03*
X217450000Y-58525000D03*
X213950000Y-58525000D03*
X213950000Y-60275000D03*
X141250000Y-71325000D03*
X141250000Y-73075000D03*
X137750000Y-73075000D03*
X137750000Y-71325000D03*
X122250000Y-73725000D03*
X122250000Y-75475000D03*
X118750000Y-75475000D03*
X118750000Y-73725000D03*
X166350000Y-130125000D03*
X166350000Y-128375000D03*
X169850000Y-128375000D03*
X169850000Y-130125000D03*
D37*
X98604087Y-128671956D03*
X100119631Y-127796956D03*
X101869631Y-130828044D03*
X100354087Y-131703044D03*
D38*
X108454600Y-94996000D03*
X108454600Y-99996000D03*
D39*
X101454600Y-103096000D03*
D40*
X101454600Y-91896000D03*
D38*
X93954600Y-97496000D03*
X93954600Y-99996000D03*
D28*
X93954600Y-94996000D03*
D36*
X103099200Y-106239800D03*
X103099200Y-107989800D03*
X99599200Y-107989800D03*
X99599200Y-106239800D03*
X103195000Y-87009000D03*
X103195000Y-88759000D03*
X99695000Y-88759000D03*
X99695000Y-87009000D03*
D41*
X206146400Y-104292400D03*
D23*
X206146400Y-111912400D03*
D41*
X206197200Y-84632800D03*
D23*
X206197200Y-92252800D03*
D41*
X148640800Y-98704400D03*
D23*
X148640800Y-106324400D03*
D41*
X187756800Y-84683600D03*
D23*
X187756800Y-92303600D03*
D41*
X206248000Y-66141600D03*
D23*
X206248000Y-73761600D03*
D41*
X129413000Y-63373000D03*
D23*
X129413000Y-70993000D03*
D41*
X148945600Y-78282800D03*
D23*
X148945600Y-85902800D03*
D41*
X118872000Y-40640000D03*
D23*
X126492000Y-40640000D03*
D29*
X118745000Y-122430443D03*
D17*
X122555000Y-129029557D03*
D41*
X167589200Y-59994800D03*
D23*
X167589200Y-67614800D03*
D41*
X188163200Y-64897000D03*
D23*
X188163200Y-72517000D03*
D41*
X135890000Y-76200000D03*
D23*
X143510000Y-76200000D03*
D41*
X129540000Y-101600000D03*
D23*
X129540000Y-109220000D03*
D41*
X115824000Y-99060000D03*
D23*
X123444000Y-99060000D03*
D41*
X168250000Y-99060000D03*
D23*
X168250000Y-106680000D03*
D41*
X148590000Y-60198000D03*
D23*
X148590000Y-67818000D03*
D41*
X187756800Y-46431200D03*
D23*
X187756800Y-54051200D03*
D41*
X158700000Y-118364000D03*
D23*
X158700000Y-125984000D03*
D41*
X116840000Y-80010000D03*
D23*
X124460000Y-80010000D03*
D41*
X129336800Y-82194400D03*
D23*
X129336800Y-89814400D03*
D41*
X168351200Y-79552800D03*
D23*
X168351200Y-87172800D03*
D41*
X153365200Y-112420400D03*
D23*
X145745200Y-112420400D03*
D41*
X206298800Y-47142400D03*
D23*
X206298800Y-54762400D03*
D41*
X129692400Y-43688000D03*
D23*
X129692400Y-51308000D03*
D41*
X148590000Y-41605200D03*
D23*
X148590000Y-49225200D03*
D41*
X187655200Y-104140000D03*
D23*
X187655200Y-111760000D03*
D41*
X91948000Y-81407000D03*
D23*
X99568000Y-81407000D03*
D41*
X138988800Y-119888000D03*
D23*
X138988800Y-127508000D03*
X126492000Y-40640000D03*
D41*
X118872000Y-40640000D03*
D23*
X129692400Y-51308000D03*
D41*
X129692400Y-43688000D03*
D23*
X148590000Y-49225200D03*
D41*
X148590000Y-41605200D03*
D23*
X145745200Y-112420400D03*
D41*
X153365200Y-112420400D03*
D23*
X187756800Y-54051200D03*
D41*
X187756800Y-46431200D03*
D23*
X206298800Y-54762400D03*
D41*
X206298800Y-47142400D03*
D23*
X129413000Y-70993000D03*
D41*
X129413000Y-63373000D03*
D23*
X143510000Y-76200000D03*
D41*
X135890000Y-76200000D03*
D23*
X148590000Y-67818000D03*
D41*
X148590000Y-60198000D03*
D23*
X167589200Y-67614800D03*
D41*
X167589200Y-59994800D03*
D23*
X188163200Y-72517000D03*
D41*
X188163200Y-64897000D03*
D23*
X206248000Y-73761600D03*
D41*
X206248000Y-66141600D03*
D23*
X124460000Y-80010000D03*
D41*
X116840000Y-80010000D03*
D23*
X129336800Y-89814400D03*
D41*
X129336800Y-82194400D03*
D23*
X148945600Y-85902800D03*
D41*
X148945600Y-78282800D03*
D23*
X168351200Y-87172800D03*
D41*
X168351200Y-79552800D03*
D23*
X187756800Y-92303600D03*
D41*
X187756800Y-84683600D03*
D23*
X206197200Y-92252800D03*
D41*
X206197200Y-84632800D03*
D23*
X123444000Y-99060000D03*
D41*
X115824000Y-99060000D03*
D23*
X129540000Y-109220000D03*
D41*
X129540000Y-101600000D03*
D23*
X148640800Y-106324400D03*
D41*
X148640800Y-98704400D03*
D23*
X168250000Y-106680000D03*
D41*
X168250000Y-99060000D03*
D23*
X187655200Y-111760000D03*
D41*
X187655200Y-104140000D03*
D23*
X99568000Y-81407000D03*
D41*
X91948000Y-81407000D03*
D17*
X122555000Y-129029557D03*
D29*
X118745000Y-122430443D03*
D23*
X138988800Y-127508000D03*
D41*
X138988800Y-119888000D03*
D23*
X158700000Y-125984000D03*
D41*
X158700000Y-118364000D03*
D23*
X206146400Y-111912400D03*
D41*
X206146400Y-104292400D03*
D29*
X109982000Y-118872000D03*
D17*
X113792000Y-125471114D03*
M02*
